<svg width="20" height="20" viewBox="0 0 20 20" fill="none" xmlns="http://www.w3.org/2000/svg">
<g id="24 / shopping / gift">
<path id="icon" fill-rule="evenodd" clip-rule="evenodd" d="M4.58119 5.83366C4.30769 5.38647 4.16699 4.83604 4.16699 4.16699C4.16699 2.8479 5.15895 1.66699 6.66699 1.66699C8.17699 1.66699 9.39472 2.67835 10.0003 4.26185C10.6059 2.67835 11.8237 1.66699 13.3337 1.66699C14.8417 1.66699 15.8337 2.8479 15.8337 4.16699C15.8337 4.83604 15.693 5.38647 15.4195 5.83366H16.667C17.5875 5.83366 18.3337 6.57985 18.3337 7.50033V9.16699C18.3337 10.0875 17.5875 10.8337 16.667 10.8337V16.667C16.667 17.5875 15.9208 18.3337 15.0003 18.3337H5.00033C4.07985 18.3337 3.33366 17.5875 3.33366 16.667V10.8337C2.41318 10.8337 1.66699 10.0875 1.66699 9.16699V7.50033C1.66699 6.57985 2.41318 5.83366 3.33366 5.83366H4.58119ZM9.167 7.50032H3.33366V9.16699H9.167V7.50032ZM16.667 9.16699H10.8337V7.50032H16.667V9.16699ZM9.16699 16.667V10.8337H5.00032V16.667H9.16699ZM15.0003 16.667H10.8337V10.8337H15.0003V16.667ZM6.66699 3.33366C6.15003 3.33366 5.83366 3.7103 5.83366 4.16699C5.83366 5.21135 6.68116 5.70793 8.69151 5.8124C8.46808 4.25999 7.63547 3.33366 6.66699 3.33366ZM11.2503 5.8124C11.4738 4.25999 12.3064 3.33366 13.2748 3.33366C13.7918 3.33366 14.1082 3.7103 14.1082 4.16699C14.1082 5.21135 13.2607 5.70793 11.2503 5.8124Z" fill="white"/>
</g>
</svg>
