<svg width="50" height="50" viewBox="0 0 50 50" fill="none" xmlns="http://www.w3.org/2000/svg">
<circle cx="25" cy="24.999" r="25" fill="#4E6297"/>
<path d="M36.25 17.2723C36.25 15.4006 34.5984 13.749 32.7267 13.749H18.5233C16.6516 13.749 15 15.4006 15 17.2723V31.4757C15 33.3475 16.6516 34.999 18.5233 34.999H25.68V26.9615H23.0376V23.4381H25.68V22.0068C25.68 19.5845 27.4417 17.4925 29.6438 17.4925H32.5065V21.0159H29.6438C29.3135 21.0159 28.9832 21.3462 28.9832 22.0068V23.4381H32.5065V26.9615H28.9832V34.999H32.7267C34.5984 34.999 36.25 33.3475 36.25 31.4757V17.2723Z" fill="white"/>
</svg>
