<svg width="16" height="16" viewBox="0 0 16 16" fill="none" xmlns="http://www.w3.org/2000/svg">
<path fill-rule="evenodd" clip-rule="evenodd" d="M5.33301 5.99992C5.33301 3.42259 7.42235 1.33325 9.99967 1.33325C12.577 1.33325 14.6663 3.42259 14.6663 5.99992C14.6663 8.57725 12.577 10.6666 9.99967 10.6666H8.66634V11.9999H7.33301V13.3333H5.99967V14.6666H1.33301V11.0571L5.43168 6.95844C5.36631 6.64556 5.33301 6.32479 5.33301 5.99992ZM7.33299 9.33325H9.99966C11.8406 9.33325 13.333 7.84086 13.333 5.99992C13.333 4.15897 11.8406 2.66658 9.99966 2.66658C8.15871 2.66658 6.66632 4.15897 6.66632 5.99992C6.66632 6.33234 6.71478 6.6575 6.80904 6.96849L6.92492 7.3508L2.66632 11.6094V13.3332H4.66632V11.9999H5.99966V10.6666H7.33299V9.33325ZM8.66633 5.99991C8.66633 6.73629 9.26328 7.33325 9.99966 7.33325C10.736 7.33325 11.333 6.73629 11.333 5.99991C11.333 5.26353 10.736 4.66658 9.99966 4.66658C9.26328 4.66658 8.66633 5.26353 8.66633 5.99991Z" fill="white"/>
</svg>
