<svg width="16" height="16" viewBox="0 0 16 16" fill="none" xmlns="http://www.w3.org/2000/svg">
<path fill-rule="evenodd" clip-rule="evenodd" d="M1.33301 13.3333C1.33301 14.0696 1.92996 14.6666 2.66634 14.6666H11.6091L14.6663 11.6094V2.66659C14.6663 1.93021 14.0694 1.33325 13.333 1.33325H2.66634C1.92996 1.33325 1.33301 1.93021 1.33301 2.66659V13.3333ZM2.66638 2.66659H13.333V9.99991H11.333C10.5966 9.99991 9.99964 10.5969 9.99964 11.3332V13.3333H2.66638V2.66659ZM11.333 11.3332H13.0569L11.333 13.0572V11.3332ZM4.66638 9.99991V11.3332H8.66638V9.99991H4.66638ZM4.66638 8.66658V7.33325H11.333V8.66658H4.66638ZM4.66638 4.66659V5.99993H11.333V4.66659H4.66638Z" fill="#1F213A"/>
</svg>
