<svg width="16" height="16" viewBox="0 0 16 16" fill="none" xmlns="http://www.w3.org/2000/svg">
<path fill-rule="evenodd" clip-rule="evenodd" d="M8.00033 15.3334C3.95024 15.3334 0.666992 12.0502 0.666992 8.00008C0.666992 3.94999 3.95024 0.666748 8.00033 0.666748C12.0504 0.666748 15.3337 3.94999 15.3337 8.00008C15.3337 12.0502 12.0504 15.3334 8.00033 15.3334ZM8.00033 14.0001C11.314 14.0001 14.0003 11.3138 14.0003 8.00008C14.0003 4.68637 11.314 2.00008 8.00033 2.00008C4.68662 2.00008 2.00033 4.68637 2.00033 8.00008C2.00033 11.3138 4.68662 14.0001 8.00033 14.0001ZM11.3337 7.33341H8.66699V4.00008H7.33366V8.66675H11.3337V7.33341Z" fill="#0DB960"/>
</svg>
