<svg width="16" height="16" viewBox="0 0 16 16" fill="none" xmlns="http://www.w3.org/2000/svg">
<g id="24 / basic / paperclip">
<path id="icon" fill-rule="evenodd" clip-rule="evenodd" d="M8.89496 4.36237L9.84497 5.29793L5.63283 9.57509C5.42148 9.79081 5.42148 10.138 5.63283 10.3537C5.8334 10.5584 6.16844 10.5575 6.36687 10.3526L11.0011 5.64486C11.6777 4.95444 11.6777 3.84563 11.0011 3.15521C10.3556 2.49648 9.21352 2.51113 8.5809 3.15647L3.5227 8.29124C2.3807 9.45619 2.3807 11.3268 3.5227 12.4918C4.63164 13.623 6.53663 13.6046 7.62825 12.4907L13.5276 6.49924L14.4777 7.43472L8.57943 13.4251C6.97015 15.0671 4.20639 15.0939 2.57056 13.4252C0.9203 11.7417 0.920301 9.04127 2.5717 7.3567L7.62989 2.22193C8.77884 1.04988 10.7797 1.02421 11.9535 2.22202C13.138 3.43086 13.138 5.36921 11.9524 6.57914L7.32091 11.284C6.60447 12.024 5.4059 12.0273 4.68043 11.2868C3.96117 10.5527 3.96117 9.3761 4.68163 8.64075L8.89496 4.36237Z" fill="#0DB960"/>
</g>
</svg>
