<svg width="17" height="16" viewBox="0 0 17 16" fill="none" xmlns="http://www.w3.org/2000/svg">
<path fill-rule="evenodd" clip-rule="evenodd" d="M6.49728 1.33341C6.9988 0.908731 7.72609 0.666748 8.5 0.666748C9.27391 0.666748 10.0012 0.908731 10.5027 1.33341H11.1667C11.903 1.33341 12.5 1.93037 12.5 2.66675L13.1667 2.66675C13.903 2.66675 14.5 3.2637 14.5 4.00008V14.0001C14.5 14.7365 13.903 15.3334 13.1667 15.3334H3.83333C3.09695 15.3334 2.5 14.7365 2.5 14.0001V4.00008C2.5 3.2637 3.09695 2.66675 3.83333 2.66675L4.5 2.66675C4.5 1.93037 5.09695 1.33341 5.83333 1.33341H6.49728ZM11.1667 4.66675C11.6602 4.66675 12.0911 4.39862 12.3216 4.00008H13.1667V14.0001H3.83333V4.00008H4.67838C4.90892 4.39862 5.33981 4.66675 5.83333 4.66675H11.1667ZM7.07175 2.66675L7.2711 2.437C7.49013 2.18457 7.95961 2.00008 8.5 2.00008C9.04039 2.00008 9.50987 2.18457 9.7289 2.437L9.92826 2.66675H11.1667V3.33341H5.83333V2.66675H6.76756H7.07175Z" fill="white"/>
</svg>
