<svg width="17" height="16" viewBox="0 0 17 16" fill="none" xmlns="http://www.w3.org/2000/svg">
<path fill-rule="evenodd" clip-rule="evenodd" d="M10.8 0.93519C11.5081 0.732891 12.2461 1.14288 12.4484 1.85093C12.4824 1.97005 12.4997 2.09333 12.4997 2.21722V3.3334H13.833C14.5694 3.3334 15.1663 3.93036 15.1663 4.66673V12.6667C15.1663 13.4031 14.5694 14.0001 13.833 14.0001H3.16634C2.42996 14.0001 1.83301 13.4031 1.83301 12.6667H1.85081C1.83898 12.595 1.83301 12.5224 1.83301 12.4496V4.50294C1.83301 3.90763 2.22764 3.38445 2.80005 3.2209L10.8 0.93519ZM7.25971 12.6667H13.833V7.3334H12.4997V10.1639C12.4997 10.7592 12.105 11.2824 11.5326 11.4459L7.25971 12.6667ZM13.833 4.66673V6.00007H12.4997V4.66673H13.833ZM3.16634 4.50292V12.4496L11.1663 10.1638V2.2172L3.16634 4.50292ZM9.83301 6.00007C9.83301 6.36826 9.53453 6.66674 9.16634 6.66674C8.79815 6.66674 8.49967 6.36826 8.49967 6.00007C8.49967 5.63188 8.79815 5.3334 9.16634 5.3334C9.53453 5.3334 9.83301 5.63188 9.83301 6.00007Z" fill="white"/>
</svg>
