<svg width="16" height="16" viewBox="0 0 16 16" fill="none" xmlns="http://www.w3.org/2000/svg">
<g id="24 / maps / pin">
<path id="icon" fill-rule="evenodd" clip-rule="evenodd" d="M8 15.5511L8.43849 15.1682C12.1258 11.9485 14 9.13719 14 6.66602C14 3.16646 11.2686 0.666016 8 0.666016C4.73137 0.666016 2 3.16646 2 6.66602C2 9.13719 3.87421 11.9485 7.56151 15.1682L8 15.5511ZM8 13.775C4.87107 10.955 3.33333 8.5655 3.33333 6.66602C3.33333 3.93042 5.44274 1.99935 8 1.99935C10.5573 1.99935 12.6667 3.93042 12.6667 6.66602C12.6667 8.5655 11.1289 10.955 8 13.775ZM8 3.33268C9.84095 3.33268 11.3333 4.82507 11.3333 6.66602C11.3333 8.50696 9.84095 9.99935 8 9.99935C6.15905 9.99935 4.66667 8.50696 4.66667 6.66602C4.66667 4.82507 6.15905 3.33268 8 3.33268ZM6 6.66602C6 5.56145 6.89543 4.66602 8 4.66602C9.10457 4.66602 10 5.56145 10 6.66602C10 7.77059 9.10457 8.66602 8 8.66602C6.89543 8.66602 6 7.77059 6 6.66602Z" fill="#0DB960"/>
</g>
</svg>
