<svg width="16" height="16" viewBox="0 0 16 16" fill="none" xmlns="http://www.w3.org/2000/svg">
<g id="24 / time / time">
<path id="icon" fill-rule="evenodd" clip-rule="evenodd" d="M7.99935 15.3327C3.94926 15.3327 0.666016 12.0494 0.666016 7.99935C0.666016 3.94926 3.94926 0.666016 7.99935 0.666016C12.0494 0.666016 15.3327 3.94926 15.3327 7.99935C15.3327 12.0494 12.0494 15.3327 7.99935 15.3327ZM7.99935 13.9993C11.3131 13.9993 13.9993 11.3131 13.9993 7.99935C13.9993 4.68564 11.3131 1.99935 7.99935 1.99935C4.68564 1.99935 1.99935 4.68564 1.99935 7.99935C1.99935 11.3131 4.68564 13.9993 7.99935 13.9993ZM11.3327 7.33268H8.66602V3.99935H7.33268V8.66602H11.3327V7.33268Z" fill="#0DB960"/>
</g>
</svg>
