<svg width="16" height="16" viewBox="0 0 16 16" fill="none" xmlns="http://www.w3.org/2000/svg">
<g id="24 / call / call-phone">
<path id="icon" fill-rule="evenodd" clip-rule="evenodd" d="M7.23768 5.55795C7.58308 5.09248 7.70693 4.60191 7.31629 4.16889C6.43966 2.94224 5.8501 2.18368 5.4803 1.81837C4.77726 1.12388 3.62074 1.21783 3.01186 1.81778C2.68482 2.14002 2.57411 2.25068 2.23831 2.59176C0.367877 4.46319 1.50856 8.41935 4.54093 11.4547C7.5726 14.4893 11.5284 15.6306 13.4027 13.7552C13.7126 13.4565 13.975 13.194 14.1819 12.9753C14.7786 12.3447 14.8691 11.2392 14.1779 10.521C13.8236 10.1528 13.1002 9.59166 11.822 8.67731C11.4305 8.32724 10.9663 8.40311 10.5407 8.68231C10.336 8.81661 10.187 8.95247 9.9057 9.23406L9.39487 9.74517C9.32759 9.81249 8.41399 9.35496 7.52714 8.46724C6.63981 7.57904 6.1826 6.66539 6.24956 6.59843L6.76075 6.08696C6.85 5.99763 6.89266 5.95437 6.94739 5.89686C7.06139 5.77704 7.15578 5.66831 7.23768 5.55795ZM10.3372 10.688L10.8481 10.1768C11.0029 10.0218 11.1032 9.92651 11.1849 9.86081C12.3046 10.6649 12.9531 11.1706 13.218 11.4458C13.3771 11.6111 13.3524 11.9126 13.2141 12.0587C13.0228 12.2609 12.7742 12.5097 12.4692 12.8039C11.2571 14.0164 8.06393 13.0951 5.48342 10.5121C2.9021 7.92823 1.98126 4.73454 3.18413 3.53101C3.51857 3.19133 3.62453 3.08543 3.9469 2.76778C4.06777 2.64869 4.39701 2.62194 4.54405 2.76719C4.82876 3.04844 5.35689 3.72467 6.13381 4.8069C6.09359 4.85683 6.04335 4.91326 5.98222 4.97751C5.93735 5.02467 5.89997 5.06256 5.81825 5.14436L5.30757 5.65532C4.43881 6.52401 5.17868 8.00249 6.58465 9.40984C7.98965 10.8162 9.46868 11.5569 10.3372 10.688Z" fill="#0DB960"/>
</g>
</svg>
