<svg width="16" height="16" viewBox="0 0 16 16" fill="none" xmlns="http://www.w3.org/2000/svg">
<g id="24 / basic / pencil-edit">
<path id="icon" fill-rule="evenodd" clip-rule="evenodd" d="M14.6663 13.333V8.66634H13.333V13.333H2.66634V2.66634H7.33301V1.33301H2.66634C1.92996 1.33301 1.33301 1.92996 1.33301 2.66634V13.333C1.33301 14.0694 1.92996 14.6663 2.66634 14.6663H13.333C14.0694 14.6663 14.6663 14.0694 14.6663 13.333ZM12.7851 1.81529C12.4795 1.50729 12.0611 1.33301 11.6246 1.33301C11.1886 1.33301 10.7706 1.50689 10.4633 1.81609L4.88401 7.39529C4.38545 7.83456 4.05863 8.48823 4.00184 9.19121L3.99967 11.3346V12.0012H6.75607C7.51227 11.9494 8.17236 11.6193 8.63801 11.0822L14.1857 5.5369C14.4935 5.22911 14.6664 4.81167 14.6664 4.37639C14.6664 3.94112 14.4935 3.52367 14.1857 3.21589L12.7851 1.81529ZM6.709 10.6696C7.06515 10.6443 7.39667 10.4786 7.66287 10.1741L11.7041 6.13282L9.86795 4.29652L5.79708 8.36607C5.52698 8.60496 5.35988 8.93916 5.33301 9.24489V10.6683L6.709 10.6696ZM10.8109 3.35386L12.6469 5.19001L13.2429 4.59409C13.3006 4.53635 13.333 4.45805 13.333 4.37639C13.333 4.29474 13.3006 4.21644 13.2429 4.1587L11.8404 2.75625C11.7833 2.6987 11.7056 2.66634 11.6246 2.66634C11.5435 2.66634 11.4658 2.6987 11.4087 2.75625L10.8109 3.35386Z" fill="#0DB960"/>
</g>
</svg>
