<svg width="25" height="25" viewBox="0 0 25 25" fill="none" xmlns="http://www.w3.org/2000/svg">
<g id="24 / shopping / gift">
<path id="icon" fill-rule="evenodd" clip-rule="evenodd" d="M6.37595 7.37842C6.04774 6.84179 5.87891 6.18127 5.87891 5.37842C5.87891 3.7955 7.06926 2.37842 8.87891 2.37842C10.6909 2.37842 12.1522 3.59204 12.8789 5.49225C13.6056 3.59204 15.0669 2.37842 16.8789 2.37842C18.6886 2.37842 19.8789 3.7955 19.8789 5.37842C19.8789 6.18127 19.7101 6.84179 19.3819 7.37842H20.8789C21.9835 7.37842 22.8789 8.27385 22.8789 9.37842V11.3784C22.8789 12.483 21.9835 13.3784 20.8789 13.3784L20.8789 20.3784C20.8789 21.483 19.9835 22.3784 18.8789 22.3784L6.87891 22.3784C5.77434 22.3784 4.87891 21.483 4.87891 20.3784L4.87891 13.3784C3.77434 13.3784 2.87891 12.483 2.87891 11.3784L2.87891 9.37842C2.87891 8.27385 3.77434 7.37842 4.87891 7.37842L6.37595 7.37842ZM11.879 9.37825H4.87902L4.87902 11.3783L11.879 11.3783V9.37825ZM20.879 11.3785H13.879V9.37852L20.879 9.37852V11.3785ZM11.8791 20.3784V13.3784L6.87914 13.3784L6.87914 20.3784H11.8791ZM18.8788 20.3786L13.8788 20.3786V13.3786H18.8788V20.3786ZM8.87891 4.37842C8.25855 4.37842 7.87891 4.83038 7.87891 5.37842C7.87891 6.63165 8.89591 7.22754 11.3083 7.35291C11.0402 5.49002 10.0411 4.37842 8.87891 4.37842ZM14.3791 7.35308C14.6472 5.4902 15.6463 4.3786 16.8085 4.3786C17.4288 4.3786 17.8085 4.83056 17.8085 5.3786C17.8085 6.63183 16.7915 7.22772 14.3791 7.35308Z" fill="#0DB960"/>
</g>
</svg>
