<svg width="67" height="73" viewBox="0 0 67 73" fill="none" xmlns="http://www.w3.org/2000/svg">
<path fill-rule="evenodd" clip-rule="evenodd" d="M17.0235 0.167295C16.0621 0.438671 15.463 0.771183 14.7007 1.45659C13.0059 2.98036 11.896 5.75616 11.6319 9.13081L11.5419 10.282L7.46307 10.3209C3.63327 10.3574 3.34836 10.3764 2.79725 10.6314C1.93917 11.0284 1.31429 11.6342 0.906596 12.4644L0.546754 13.1973L0.509351 18.9301C0.482009 23.1186 0.512963 24.7619 0.624269 25.0305C0.833983 25.5369 1.36033 25.7729 2.2798 25.7729H3.05842L3.09234 44.4429L3.12626 63.1129L3.39789 63.6998C3.79487 64.558 4.40067 65.1829 5.23089 65.5906L5.96373 65.9504L32.9147 65.9838C62.2272 66.0202 60.5263 66.0583 61.7456 65.3388C62.4136 64.9445 63.2765 64.0863 63.5942 63.4998L63.8737 62.9839L63.9077 44.3784L63.9417 25.7729H64.7202C65.6397 25.7729 66.166 25.5369 66.3757 25.0305C66.487 24.7619 66.518 23.1186 66.4907 18.9301L66.4532 13.1973L66.0934 12.4644C65.6857 11.6342 65.0608 11.0284 64.2028 10.6314C63.6795 10.3891 63.3345 10.3552 61.0229 10.3182L58.4299 10.2767L58.3541 8.89942C58.1819 5.77628 56.8268 2.57291 55.1078 1.22571C53.3397 -0.159929 50.8786 -0.390159 48.7836 0.634205C48.358 0.842251 46.2864 2.34746 44.18 3.97906L40.3502 6.94549L39.5469 6.42634C37.0183 4.7919 32.6962 4.73399 30.2249 6.30123C29.8932 6.51173 29.5612 6.68379 29.4872 6.68379C29.413 6.68379 27.8387 5.50852 25.9886 4.07193C22.2143 1.14136 21.6226 0.732489 20.6062 0.351995C19.6634 -0.000895727 17.9354 -0.0900214 17.0235 0.167295ZM20.1604 2.96128C20.4784 3.12869 22.3297 4.50027 24.2745 6.00896L27.8104 8.75212L27.5626 9.29797C27.4263 9.59824 27.3136 9.94532 27.312 10.0695C27.3094 10.2755 27.118 10.2952 25.1227 10.2952C22.7424 10.2952 22.3781 10.3746 22.076 10.9589C21.8433 11.4087 21.8433 11.7614 22.076 12.2113C22.3781 12.7955 22.7424 12.8749 25.1227 12.8749H27.3092V13.1713C27.3092 13.4225 26.8027 13.7643 23.9881 15.4126C19.8421 17.8402 19.6834 17.9194 18.8061 17.9982C17.7721 18.0911 17.0676 17.858 16.3481 17.185C14.3408 15.3073 13.596 10.582 14.6764 6.57944C15.2439 4.47731 16.2717 3.10806 17.6056 2.67713C18.212 2.48121 19.5272 2.62747 20.1604 2.96128ZM52.4898 2.70976C53.7198 3.07826 54.8442 4.66111 55.4503 6.87726C55.6927 7.76336 55.7337 8.25529 55.7404 10.3597C55.7494 13.162 55.6152 13.8969 54.7715 15.6668C53.818 17.667 52.3504 18.4159 50.4844 17.8543C49.7274 17.6265 42.2712 13.2526 42.2707 13.0361C42.2705 12.9134 42.7959 12.8749 44.4694 12.8749C46.8691 12.8749 47.2519 12.7866 47.5332 12.1691C47.7359 11.7244 47.7277 11.3925 47.5035 10.9589C47.2024 10.3765 46.8347 10.2954 44.4891 10.2936L42.3348 10.2918L42.1295 9.6426L41.9243 8.99344L45.6982 6.06507C48.0601 4.23251 49.7295 3.02976 50.1598 2.85061C50.9304 2.52971 51.728 2.48147 52.4898 2.70976ZM36.2136 7.84565C39.0318 8.38001 40.5498 10.7008 39.5661 12.9706C38.7595 14.8316 36.0971 15.8424 33.3659 15.3245C30.5349 14.7876 29.0217 12.4753 30.0122 10.1995C30.8216 8.33977 33.4863 7.3283 36.2136 7.84565ZM11.7573 13.0361C11.7827 13.1248 11.9199 13.6907 12.0623 14.2936C12.436 15.8752 12.8011 16.7577 13.5377 17.8589C14.2807 18.97 15.2968 19.8365 16.3463 20.2542C16.9234 20.4839 17.3199 20.537 18.4744 20.5385C20.1236 20.5408 20.7046 20.3484 22.7726 19.1149C23.4341 18.7204 23.9944 18.4173 24.0178 18.4415C24.0412 18.4658 23.277 19.5447 22.3195 20.8394L20.5788 23.1933H11.8202H3.06178L3.06629 18.5178C3.07119 13.5195 3.08461 13.4074 3.72084 13.0549C4.15626 12.8135 11.6887 12.7959 11.7573 13.0361ZM63.2325 13.029C63.918 13.3413 63.9382 13.4999 63.9382 18.5436V23.1933H56.5326H49.1269L47.3227 20.7104C46.3304 19.3448 45.5374 18.2081 45.5606 18.1842C45.5838 18.1604 46.2895 18.5441 47.1287 19.0368C48.9499 20.1062 49.9061 20.4803 51.066 20.5776C54.4182 20.8586 56.9596 18.549 57.9873 14.2875L58.3278 12.8752L60.611 12.8751C62.1069 12.875 63.0109 12.928 63.2325 13.029ZM45.7047 22.8711C48.4621 26.6665 50.7349 29.8215 50.7551 29.8824C50.7755 29.9431 49.963 29.7686 48.9495 29.4945C47.8652 29.2012 46.9676 29.0257 46.7685 29.068C46.1365 29.202 45.8952 29.6429 45.3547 31.6505C45.0712 32.7037 44.8189 33.5858 44.794 33.6106C44.7126 33.692 36.8534 18.1725 36.8534 17.9304C36.8534 17.8723 37.1362 17.7524 37.4819 17.6638C38.3433 17.443 39.5345 16.8522 40.0778 16.3763C40.326 16.1588 40.5655 15.9785 40.6102 15.9757C40.6547 15.9727 42.9472 19.0757 45.7047 22.8711ZM29.9461 16.6797C30.4402 17.011 31.2216 17.3845 31.7676 17.5503C32.2934 17.71 32.7242 17.8846 32.725 17.9383C32.7278 18.1706 24.8655 33.6907 24.7855 33.6106C24.7606 33.5858 24.5083 32.7037 24.2249 31.6505C23.6844 29.6433 23.4433 29.2028 22.811 29.0674C22.6094 29.0242 21.7426 29.1962 20.6669 29.4931C19.6738 29.7672 18.844 29.9778 18.823 29.9613C18.7897 29.9351 29.0084 16.0994 29.0609 16.0994C29.0718 16.0994 29.47 16.3606 29.9461 16.6797ZM36.1133 22.3558L37.3693 24.8717V44.1536V63.4353H34.7898H32.2102V44.1536V24.8717L33.4662 22.3558C34.157 20.972 34.7526 19.8398 34.7898 19.8398C34.8269 19.8398 35.4225 20.972 36.1133 22.3558ZM16.4435 28.7635C14.4944 31.3897 14.224 31.8131 14.224 32.2387C14.224 32.8105 14.6394 33.3273 15.1973 33.4499C15.4455 33.5044 16.5248 33.2726 18.5406 32.7318C20.178 32.2926 21.5526 31.9684 21.5956 32.0113C21.6385 32.0542 22.011 33.3525 22.4235 34.8965C22.8359 36.4404 23.2308 37.8315 23.301 37.9877C23.6161 38.6884 24.797 38.8401 25.3409 38.2499C25.4869 38.0914 26.5088 36.1623 27.6116 33.9632L29.6168 29.9648L29.6238 46.7001L29.6307 63.4353H18.158C9.53777 63.4353 6.60112 63.397 6.34704 63.2812C5.60182 62.9417 5.64129 64.013 5.64129 44.0946V25.7729H12.1522H18.663L16.4435 28.7635ZM61.3587 44.0641V62.3552L61.004 62.695C60.2041 63.4611 60.5947 63.4353 49.8195 63.4353H39.9488L39.9557 46.7001L39.9627 29.9648L41.9679 33.9632C43.0708 36.1623 44.0926 38.0914 44.2386 38.2499C44.7825 38.8401 45.9634 38.6884 46.2785 37.9877C46.3487 37.8315 46.7436 36.4404 47.1561 34.8965C47.5685 33.3525 47.941 32.0542 47.984 32.0113C48.0269 31.9684 49.4015 32.2926 51.0389 32.7318C53.0548 33.2726 54.134 33.5044 54.3822 33.4499C54.9326 33.329 55.3273 32.8372 55.3427 32.2531C55.3544 31.8065 55.1448 31.4641 53.306 28.9254C52.1786 27.3688 51.2006 26.0229 51.1326 25.9342C51.0342 25.8058 52.0641 25.7729 56.184 25.7729H61.3587V44.0641ZM8.87986 44.7842C7.76177 45.4039 8.22957 47.1837 9.51055 47.1837C10.1641 47.1837 10.8003 46.5537 10.8003 45.9064C10.8003 44.938 9.7302 44.3128 8.87986 44.7842ZM8.87986 49.9434C8.24517 50.2951 8.23021 50.4169 8.22531 55.2837C8.22041 60.2239 8.24182 60.3895 8.92655 60.7016C9.58833 61.0031 10.3096 60.7857 10.6165 60.1921C10.8621 59.717 10.8888 51.0016 10.6462 50.4691C10.3639 49.8492 9.50875 49.5948 8.87986 49.9434Z" fill="#0DB960"/>
<path fill-rule="evenodd" clip-rule="evenodd" d="M17.0235 0.167295C16.0621 0.438671 15.463 0.771183 14.7007 1.45659C13.0059 2.98036 11.896 5.75616 11.6319 9.13081L11.5419 10.282L7.46307 10.3209C3.63327 10.3574 3.34836 10.3764 2.79725 10.6314C1.93917 11.0284 1.31429 11.6342 0.906596 12.4644L0.546754 13.1973L0.509351 18.9301C0.482009 23.1186 0.512963 24.7619 0.624269 25.0305C0.833983 25.5369 1.36033 25.7729 2.2798 25.7729H3.05842L3.09234 44.4429L3.12626 63.1129L3.39789 63.6998C3.79487 64.558 4.40067 65.1829 5.23089 65.5906L5.96373 65.9504L32.9147 65.9838C62.2272 66.0202 60.5263 66.0583 61.7456 65.3388C62.4136 64.9445 63.2765 64.0863 63.5942 63.4998L63.8737 62.9839L63.9077 44.3784L63.9417 25.7729H64.7202C65.6397 25.7729 66.166 25.5369 66.3757 25.0305C66.487 24.7619 66.518 23.1186 66.4907 18.9301L66.4532 13.1973L66.0934 12.4644C65.6857 11.6342 65.0608 11.0284 64.2028 10.6314C63.6795 10.3891 63.3345 10.3552 61.0229 10.3182L58.4299 10.2767L58.3541 8.89942C58.1819 5.77628 56.8268 2.57291 55.1078 1.22571C53.3397 -0.159929 50.8786 -0.390159 48.7836 0.634205C48.358 0.842251 46.2864 2.34746 44.18 3.97906L40.3502 6.94549L39.5469 6.42634C37.0183 4.7919 32.6962 4.73399 30.2249 6.30123C29.8932 6.51173 29.5612 6.68379 29.4872 6.68379C29.413 6.68379 27.8387 5.50852 25.9886 4.07193C22.2143 1.14136 21.6226 0.732489 20.6062 0.351995C19.6634 -0.000895727 17.9354 -0.0900214 17.0235 0.167295ZM20.1604 2.96128C20.4784 3.12869 22.3297 4.50027 24.2745 6.00896L27.8104 8.75212L27.5626 9.29797C27.4263 9.59824 27.3136 9.94532 27.312 10.0695C27.3094 10.2755 27.118 10.2952 25.1227 10.2952C22.7424 10.2952 22.3781 10.3746 22.076 10.9589C21.8433 11.4087 21.8433 11.7614 22.076 12.2113C22.3781 12.7955 22.7424 12.8749 25.1227 12.8749H27.3092V13.1713C27.3092 13.4225 26.8027 13.7643 23.9881 15.4126C19.8421 17.8402 19.6834 17.9194 18.8061 17.9982C17.7721 18.0911 17.0676 17.858 16.3481 17.185C14.3408 15.3073 13.596 10.582 14.6764 6.57944C15.2439 4.47731 16.2717 3.10806 17.6056 2.67713C18.212 2.48121 19.5272 2.62747 20.1604 2.96128ZM52.4898 2.70976C53.7198 3.07826 54.8442 4.66111 55.4503 6.87726C55.6927 7.76336 55.7337 8.25529 55.7404 10.3597C55.7494 13.162 55.6152 13.8969 54.7715 15.6668C53.818 17.667 52.3504 18.4159 50.4844 17.8543C49.7274 17.6265 42.2712 13.2526 42.2707 13.0361C42.2705 12.9134 42.7959 12.8749 44.4694 12.8749C46.8691 12.8749 47.2519 12.7866 47.5332 12.1691C47.7359 11.7244 47.7277 11.3925 47.5035 10.9589C47.2024 10.3765 46.8347 10.2954 44.4891 10.2936L42.3348 10.2918L42.1295 9.6426L41.9243 8.99344L45.6982 6.06507C48.0601 4.23251 49.7295 3.02976 50.1598 2.85061C50.9304 2.52971 51.728 2.48147 52.4898 2.70976ZM36.2136 7.84565C39.0318 8.38001 40.5498 10.7008 39.5661 12.9706C38.7595 14.8316 36.0971 15.8424 33.3659 15.3245C30.5349 14.7876 29.0217 12.4753 30.0122 10.1995C30.8216 8.33977 33.4863 7.3283 36.2136 7.84565ZM11.7573 13.0361C11.7827 13.1248 11.9199 13.6907 12.0623 14.2936C12.436 15.8752 12.8011 16.7577 13.5377 17.8589C14.2807 18.97 15.2968 19.8365 16.3463 20.2542C16.9234 20.4839 17.3199 20.537 18.4744 20.5385C20.1236 20.5408 20.7046 20.3484 22.7726 19.1149C23.4341 18.7204 23.9944 18.4173 24.0178 18.4415C24.0412 18.4658 23.277 19.5447 22.3195 20.8394L20.5788 23.1933H11.8202H3.06178L3.06629 18.5178C3.07119 13.5195 3.08461 13.4074 3.72084 13.0549C4.15626 12.8135 11.6887 12.7959 11.7573 13.0361ZM63.2325 13.029C63.918 13.3413 63.9382 13.4999 63.9382 18.5436V23.1933H56.5326H49.1269L47.3227 20.7104C46.3304 19.3448 45.5374 18.2081 45.5606 18.1842C45.5838 18.1604 46.2895 18.5441 47.1287 19.0368C48.9499 20.1062 49.9061 20.4803 51.066 20.5776C54.4182 20.8586 56.9596 18.549 57.9873 14.2875L58.3278 12.8752L60.611 12.8751C62.1069 12.875 63.0109 12.928 63.2325 13.029ZM45.7047 22.8711C48.4621 26.6665 50.7349 29.8215 50.7551 29.8824C50.7755 29.9431 49.963 29.7686 48.9495 29.4945C47.8652 29.2012 46.9676 29.0257 46.7685 29.068C46.1365 29.202 45.8952 29.6429 45.3547 31.6505C45.0712 32.7037 44.8189 33.5858 44.794 33.6106C44.7126 33.692 36.8534 18.1725 36.8534 17.9304C36.8534 17.8723 37.1362 17.7524 37.4819 17.6638C38.3433 17.443 39.5345 16.8522 40.0778 16.3763C40.326 16.1588 40.5655 15.9785 40.6102 15.9757C40.6547 15.9727 42.9472 19.0757 45.7047 22.8711ZM29.9461 16.6797C30.4402 17.011 31.2216 17.3845 31.7676 17.5503C32.2934 17.71 32.7242 17.8846 32.725 17.9383C32.7278 18.1706 24.8655 33.6907 24.7855 33.6106C24.7606 33.5858 24.5083 32.7037 24.2249 31.6505C23.6844 29.6433 23.4433 29.2028 22.811 29.0674C22.6094 29.0242 21.7426 29.1962 20.6669 29.4931C19.6738 29.7672 18.844 29.9778 18.823 29.9613C18.7897 29.9351 29.0084 16.0994 29.0609 16.0994C29.0718 16.0994 29.47 16.3606 29.9461 16.6797ZM36.1133 22.3558L37.3693 24.8717V44.1536V63.4353H34.7898H32.2102V44.1536V24.8717L33.4662 22.3558C34.157 20.972 34.7526 19.8398 34.7898 19.8398C34.8269 19.8398 35.4225 20.972 36.1133 22.3558ZM16.4435 28.7635C14.4944 31.3897 14.224 31.8131 14.224 32.2387C14.224 32.8105 14.6394 33.3273 15.1973 33.4499C15.4455 33.5044 16.5248 33.2726 18.5406 32.7318C20.178 32.2926 21.5526 31.9684 21.5956 32.0113C21.6385 32.0542 22.011 33.3525 22.4235 34.8965C22.8359 36.4404 23.2308 37.8315 23.301 37.9877C23.6161 38.6884 24.797 38.8401 25.3409 38.2499C25.4869 38.0914 26.5088 36.1623 27.6116 33.9632L29.6168 29.9648L29.6238 46.7001L29.6307 63.4353H18.158C9.53777 63.4353 6.60112 63.397 6.34704 63.2812C5.60182 62.9417 5.64129 64.013 5.64129 44.0946V25.7729H12.1522H18.663L16.4435 28.7635ZM61.3587 44.0641V62.3552L61.004 62.695C60.2041 63.4611 60.5947 63.4353 49.8195 63.4353H39.9488L39.9557 46.7001L39.9627 29.9648L41.9679 33.9632C43.0708 36.1623 44.0926 38.0914 44.2386 38.2499C44.7825 38.8401 45.9634 38.6884 46.2785 37.9877C46.3487 37.8315 46.7436 36.4404 47.1561 34.8965C47.5685 33.3525 47.941 32.0542 47.984 32.0113C48.0269 31.9684 49.4015 32.2926 51.0389 32.7318C53.0548 33.2726 54.134 33.5044 54.3822 33.4499C54.9326 33.329 55.3273 32.8372 55.3427 32.2531C55.3544 31.8065 55.1448 31.4641 53.306 28.9254C52.1786 27.3688 51.2006 26.0229 51.1326 25.9342C51.0342 25.8058 52.0641 25.7729 56.184 25.7729H61.3587V44.0641ZM8.87986 44.7842C7.76177 45.4039 8.22957 47.1837 9.51055 47.1837C10.1641 47.1837 10.8003 46.5537 10.8003 45.9064C10.8003 44.938 9.7302 44.3128 8.87986 44.7842ZM8.87986 49.9434C8.24517 50.2951 8.23021 50.4169 8.22531 55.2837C8.22041 60.2239 8.24182 60.3895 8.92655 60.7016C9.58833 61.0031 10.3096 60.7857 10.6165 60.1921C10.8621 59.717 10.8888 51.0016 10.6462 50.4691C10.3639 49.8492 9.50875 49.5948 8.87986 49.9434Z" fill="url(#paint0_radial_901_5916)" fill-opacity="0.38"/>
<defs>
<radialGradient id="paint0_radial_901_5916" cx="0" cy="0" r="1" gradientUnits="userSpaceOnUse" gradientTransform="translate(2.54838 37.9349) rotate(15.601) scale(64.2566)">
<stop stop-color="#D2FFAE"/>
<stop offset="1" stop-color="#D2FFAE" stop-opacity="0"/>
</radialGradient>
</defs>
</svg>
