<svg width="21" height="20" viewBox="0 0 21 20" fill="none" xmlns="http://www.w3.org/2000/svg">
<path fill-rule="evenodd" clip-rule="evenodd" d="M5.0807 5.83342C4.8072 5.38623 4.6665 4.83579 4.6665 4.16675C4.6665 2.84765 5.65846 1.66675 7.1665 1.66675C8.6765 1.66675 9.89423 2.6781 10.4998 4.2616C11.1054 2.6781 12.3232 1.66675 13.8332 1.66675C15.3412 1.66675 16.3332 2.84765 16.3332 4.16675C16.3332 4.83579 16.1925 5.38623 15.919 5.83342H17.1665C18.087 5.83342 18.8332 6.57961 18.8332 7.50008V9.16675C18.8332 10.0872 18.087 10.8334 17.1665 10.8334V16.6667C17.1665 17.5872 16.4203 18.3334 15.4998 18.3334H5.49984C4.57936 18.3334 3.83317 17.5872 3.83317 16.6667V10.8334C2.9127 10.8334 2.1665 10.0872 2.1665 9.16675V7.50008C2.1665 6.57961 2.9127 5.83342 3.83317 5.83342H5.0807ZM9.66651 7.50008H3.83317V9.16675H9.66651V7.50008ZM17.1665 9.16675H11.3332V7.50008H17.1665V9.16675ZM9.6665 16.6667V10.8334H5.49984V16.6667H9.6665ZM15.4998 16.6667H11.3332V10.8334H15.4998V16.6667ZM7.1665 3.33342C6.64954 3.33342 6.33317 3.71005 6.33317 4.16675C6.33317 5.21111 7.18067 5.70768 9.19102 5.81216C8.96759 4.25975 8.13498 3.33342 7.1665 3.33342ZM11.7498 5.81216C11.9733 4.25975 12.8059 3.33342 13.7744 3.33342C14.2913 3.33342 14.6077 3.71005 14.6077 4.16675C14.6077 5.21111 13.7602 5.70768 11.7498 5.81216Z" fill="black"/>
</svg>
