<svg width="16" height="16" viewBox="0 0 16 16" fill="none" xmlns="http://www.w3.org/2000/svg">
<g id="24 / security / lock">
<path id="icon" fill-rule="evenodd" clip-rule="evenodd" d="M4.66602 4.66659V6.66658H3.99935C3.28711 6.66658 2.66602 7.18417 2.66602 7.88881V13.4444C2.66602 14.149 3.28711 14.6666 3.99935 14.6666H11.9993C12.7116 14.6666 13.3327 14.149 13.3327 13.4444V7.88881C13.3327 7.18417 12.7116 6.66658 11.9993 6.66658H11.3327V4.66659C11.3327 2.82564 9.8403 1.33325 7.99935 1.33325C6.1584 1.33325 4.66602 2.82564 4.66602 4.66659ZM9.99935 4.66659V6.66658H5.99935V4.66659C5.99935 3.56202 6.89478 2.66659 7.99935 2.66659C9.10392 2.66659 9.99935 3.56202 9.99935 4.66659ZM3.99935 13.3333V7.99992H11.9993V13.3333H3.99935ZM8.66602 10.6666C8.66602 11.0348 8.36754 11.3333 7.99935 11.3333C7.63116 11.3333 7.33268 11.0348 7.33268 10.6666C7.33268 10.2984 7.63116 9.99992 7.99935 9.99992C8.36754 9.99992 8.66602 10.2984 8.66602 10.6666Z" fill="#EA4D22"/>
</g>
</svg>
