<svg width="16" height="17" viewBox="0 0 16 17" fill="none" xmlns="http://www.w3.org/2000/svg">
<path fill-rule="evenodd" clip-rule="evenodd" d="M12.4378 14.4314L13.9159 12.9533L13.3953 11.0621L13.6221 10.5204L15.3337 9.55463V7.46438L13.627 6.49457L13.404 5.95386L13.9311 4.06165L12.4519 2.58464L10.5605 3.10507L10.0201 2.87847L9.0542 1.16675H6.96395L5.99414 2.87344L5.45356 3.09639L3.56165 2.56862L2.08479 4.04547L2.60531 5.9372L2.37871 6.47764L0.666992 7.44351V9.53316L2.37215 10.5051L2.59534 11.0463L2.0683 12.9382L3.54572 14.4156L5.43744 13.8951L5.97795 14.1217L6.94384 15.8327H9.03355L10.0048 14.1275L10.5459 13.9044L12.4378 14.4314ZM12.5688 9.58382L11.9876 10.9719L12.4245 12.5591L12.0455 12.9381L10.4617 12.4968L9.07297 13.0696L8.25855 14.4994H7.72227L6.9146 13.0687L5.52803 12.4873L3.93997 12.9242L3.56168 12.546L4.00289 10.9621L3.4302 9.57351L2.00033 8.75845V8.22211L3.43173 7.41441L4.01312 6.02778L3.57616 4.43972L3.95367 4.06222L5.5375 4.50405L6.92669 3.93112L7.73986 2.50008H8.27561L9.0833 3.93148L10.4699 4.51288L12.0583 4.07583L12.4375 4.45452L11.9964 6.03805L12.5693 7.42712L14.0003 8.24029V8.77604L12.5688 9.58382ZM8.00033 11.1667C6.52757 11.1667 5.33366 9.97284 5.33366 8.50008C5.33366 7.02732 6.52757 5.83342 8.00033 5.83342C9.47309 5.83342 10.667 7.02732 10.667 8.50008C10.667 9.97284 9.47309 11.1667 8.00033 11.1667ZM9.33366 8.50008C9.33366 9.23646 8.7367 9.83341 8.00033 9.83341C7.26395 9.83341 6.66699 9.23646 6.66699 8.50008C6.66699 7.7637 7.26395 7.16675 8.00033 7.16675C8.7367 7.16675 9.33366 7.7637 9.33366 8.50008Z" fill="#0DB960"/>
</svg>
