<svg width="16" height="16" viewBox="0 0 16 16" fill="none" xmlns="http://www.w3.org/2000/svg">
<path fill-rule="evenodd" clip-rule="evenodd" d="M14.6663 7.99919C14.6663 6.87753 13.9127 5.99919 12.6663 5.99919H10.6177L10.6362 5.9487C10.6547 5.89859 10.707 5.76096 10.7577 5.6273L10.7579 5.62674C10.8027 5.50863 10.8463 5.39371 10.8644 5.34512C10.9912 5.00489 11.0836 4.73076 11.1585 4.45927C11.2716 4.04894 11.333 3.67926 11.333 3.33252C11.333 2.35118 10.7276 1.74167 9.83186 1.48084C9.42786 1.3632 9.07621 1.33246 8.66634 1.33252H8.34667L8.14652 1.58178C7.92042 1.86335 7.47633 2.37081 6.96434 2.95586C6.01984 4.03513 4.84427 5.37846 4.37991 6.05479C4.25941 6.019 4.13179 5.99978 3.99967 5.99978H2.66634C1.92996 5.99978 1.33301 6.59674 1.33301 7.33312V13.3331C1.33301 14.0695 1.92996 14.6664 2.66634 14.6664H3.99967C4.45776 14.6664 4.86189 14.4354 5.10192 14.0836C5.30417 14.2144 5.52982 14.3236 5.77509 14.4113C6.33663 14.6122 6.89357 14.6739 7.35594 14.6655L11.9997 14.6659C13.8364 14.6659 14.6663 11.9616 14.6663 7.99919ZM6.22426 13.1559C5.63432 12.9448 5.33301 12.6007 5.33301 11.9992V7.33312V7.33252C5.33301 7.17239 5.36263 7.03059 5.42748 6.87917C5.54397 6.60719 6.60093 5.40132 7.60273 4.25836L7.60278 4.25831L7.60279 4.2583L7.60283 4.25826L7.60286 4.25822C8.11989 3.66835 8.62221 3.09525 8.97298 2.67594C9.1406 2.68851 9.29859 2.71427 9.4591 2.76101C9.84113 2.87225 9.99967 3.03187 9.99967 3.33252C9.99967 3.54357 9.95696 3.80073 9.87311 4.10492C9.81044 4.33224 9.72928 4.57277 9.61496 4.87963C9.59876 4.92311 9.55838 5.02953 9.51541 5.14278L9.5152 5.14334L9.51483 5.14432C9.46247 5.28231 9.40641 5.43007 9.38565 5.48622C9.29896 5.72063 9.24184 5.89323 9.20278 6.05006C9.0367 6.71676 9.20331 7.33252 9.99967 7.33252H12.6663C13.1272 7.33252 13.333 7.57245 13.333 7.99919C13.333 11.193 12.6764 13.3325 11.9997 13.3325H7.33301L7.30838 13.3329C7.01659 13.3382 6.60676 13.2928 6.22426 13.1559ZM2.66634 13.3331V7.33312H3.99967V13.3331H2.66634Z" fill="#0DB960"/>
</svg>
