<svg width="16" height="17" viewBox="0 0 16 17" fill="none" xmlns="http://www.w3.org/2000/svg">
<path fill-rule="evenodd" clip-rule="evenodd" d="M8.00033 15.8334C3.95024 15.8334 0.666992 12.5502 0.666992 8.50008C0.666992 4.44999 3.95024 1.16675 8.00033 1.16675C12.0504 1.16675 15.3337 4.44999 15.3337 8.50008C15.3337 12.5502 12.0504 15.8334 8.00033 15.8334ZM12.9333 11.9165C13.6061 10.947 14.0003 9.76956 14.0003 8.50008C14.0003 5.18637 11.314 2.50008 8.00033 2.50008C4.68662 2.50008 2.00033 5.18637 2.00033 8.50008C2.00033 9.76956 2.39458 10.947 3.06733 11.9165C3.81763 10.9255 5.58073 10.5001 8.00033 10.5001C10.4199 10.5001 12.183 10.9255 12.9333 11.9165ZM11.9768 12.9933C11.7817 12.2916 10.3799 11.8334 8.00033 11.8334C5.62074 11.8334 4.21899 12.2916 4.02387 12.9933C5.08253 13.9309 6.47495 14.5001 8.00033 14.5001C9.5257 14.5001 10.9181 13.9309 11.9768 12.9933ZM8.00033 4.50008C6.38639 4.50008 5.33366 5.67059 5.33366 7.16675C5.33366 9.45166 6.50757 10.5001 8.00033 10.5001C9.47905 10.5001 10.667 9.48649 10.667 7.30008C10.667 5.78113 9.60979 4.50008 8.00033 4.50008ZM6.66699 7.16675C6.66699 8.67959 7.21247 9.16675 8.00033 9.16675C8.78546 9.16675 9.33366 8.69901 9.33366 7.30008C9.33366 6.46703 8.81076 5.83342 8.00033 5.83342C7.15615 5.83342 6.66699 6.3773 6.66699 7.16675Z" fill="#0DB960"/>
</svg>
