<svg width="16" height="17" viewBox="0 0 16 17" fill="none" xmlns="http://www.w3.org/2000/svg">
<path fill-rule="evenodd" clip-rule="evenodd" d="M12.0003 1.16675H4.00033C3.26395 1.16675 2.66699 1.7637 2.66699 2.50008V14.5001C2.66699 15.2365 3.26395 15.8334 4.00033 15.8334H12.0003C12.7367 15.8334 13.3337 15.2365 13.3337 14.5001V2.50008C13.3337 1.7637 12.7367 1.16675 12.0003 1.16675ZM4.00033 5.16675V2.50008H12.0003V5.16675H4.00033ZM4.00033 6.50008V14.5001H12.0003V6.50008H4.00033ZM6.66699 13.1667H5.33366V11.8334H6.66699V13.1667ZM7.33366 13.1667H8.66699V11.8334H7.33366V13.1667ZM10.667 13.1667H9.33366V11.1667V10.5001V9.83341H10.667V10.5001V11.1667V13.1667ZM5.33366 11.1667H6.66699V9.83341H5.33366V11.1667ZM8.66699 11.1667H7.33366V9.83341H8.66699V11.1667ZM6.66699 9.16675H5.33366V7.83342H6.66699V9.16675ZM7.33366 9.16675H8.66699V7.83342H7.33366V9.16675ZM10.667 9.16675H9.33366V7.83342H10.667V9.16675Z" fill="#0DB960"/>
</svg>
