<svg width="16" height="16" viewBox="0 0 16 16" fill="none" xmlns="http://www.w3.org/2000/svg">
<g id="24 / finance / creditcard-face">
<path id="icon" fill-rule="evenodd" clip-rule="evenodd" d="M1.87814 3H14.1206C14.79 3 15.3327 3.59695 15.3327 4.33333V12.3333C15.3327 13.0697 14.79 13.6667 14.1206 13.6667H1.87814C1.2087 13.6667 0.666016 13.0697 0.666016 12.3333V4.33333C0.666016 3.59695 1.2087 3 1.87814 3ZM1.99935 4.33333V12.3333H13.9993V4.33333H1.99935ZM3.33268 9.66667V11H4.66602V9.66667H3.33268ZM5.33268 11V9.66667H7.33268V11H5.33268ZM11.3327 9.66667V11H12.666V9.66667H11.3327ZM9.33268 11V9.66667H10.666V11H9.33268ZM5.33268 6.33333H3.33268V8.33333H5.33268V6.33333Z" fill="#1F213A"/>
</g>
</svg>
