<svg width="16" height="17" viewBox="0 0 16 17" fill="none" xmlns="http://www.w3.org/2000/svg">
<path fill-rule="evenodd" clip-rule="evenodd" d="M14.6663 3.16659H13.9997V9.83325C13.9997 10.5696 13.4027 11.1666 12.6663 11.1666H8.66634V12.1225L11.676 13.9283L10.99 15.0716L8.66634 13.6774V15.1666H7.33301V13.6774L5.00934 15.0716L4.32334 13.9283L7.33301 12.1225V11.1666H3.33301C2.59663 11.1666 1.99967 10.5696 1.99967 9.83325V3.16659H1.33301V1.83325H14.6663V3.16659ZM3.33301 3.16659V9.83325H12.6663V3.16659H3.33301ZM5.33301 8.49992H6.66634V5.83325H5.33301V8.49992ZM8.66634 8.49992H7.33301V4.49992H8.66634V8.49992ZM9.33301 8.49992H10.6663V6.49992H9.33301V8.49992Z" fill="#0DB960"/>
</svg>
