<svg width="16" height="17" viewBox="0 0 16 17" fill="none" xmlns="http://www.w3.org/2000/svg">
<path fill-rule="evenodd" clip-rule="evenodd" d="M8.0013 15.8334C3.95121 15.8334 0.667969 12.5502 0.667969 8.50008C0.667969 4.44999 3.95121 1.16675 8.0013 1.16675C12.0514 1.16675 15.3346 4.44999 15.3346 8.50008C15.3346 12.5502 12.0514 15.8334 8.0013 15.8334ZM8.0013 14.5001C11.315 14.5001 14.0013 11.8138 14.0013 8.50008C14.0013 5.18637 11.315 2.50008 8.0013 2.50008C4.68759 2.50008 2.0013 5.18637 2.0013 8.50008C2.0013 11.8138 4.68759 14.5001 8.0013 14.5001ZM6.0013 8.50008C6.0013 8.86827 5.70283 9.16675 5.33464 9.16675C4.96645 9.16675 4.66797 8.86827 4.66797 8.50008C4.66797 8.13189 4.96645 7.83341 5.33464 7.83341C5.70283 7.83341 6.0013 8.13189 6.0013 8.50008ZM8.0013 9.16675C8.36949 9.16675 8.66797 8.86827 8.66797 8.50008C8.66797 8.13189 8.36949 7.83341 8.0013 7.83341C7.63311 7.83341 7.33464 8.13189 7.33464 8.50008C7.33464 8.86827 7.63311 9.16675 8.0013 9.16675ZM11.3346 8.50008C11.3346 8.86827 11.0362 9.16675 10.668 9.16675C10.2998 9.16675 10.0013 8.86827 10.0013 8.50008C10.0013 8.13189 10.2998 7.83341 10.668 7.83341C11.0362 7.83341 11.3346 8.13189 11.3346 8.50008Z" fill="#CCD5EB"/>
</svg>
