<svg width="14" height="16" viewBox="0 0 14 16" fill="none" xmlns="http://www.w3.org/2000/svg">
<path fill-rule="evenodd" clip-rule="evenodd" d="M4.99984 0.666992H8.99984C9.73622 0.666992 10.3332 1.26395 10.3332 2.00033V2.66699H12.3335C13.0699 2.66699 13.6668 3.26395 13.6668 4.00033V5.33366C13.6668 6.07004 13.0699 6.66699 12.3335 6.66699H12.2799L11.6668 13.9997C11.6668 14.7361 11.0698 15.333 10.3334 15.333H3.66675C2.93037 15.333 2.33342 14.7361 2.33572 14.055L1.72005 6.66699H1.66683C0.93045 6.66699 0.333496 6.07004 0.333496 5.33366V4.00033C0.333496 3.26395 0.93045 2.66699 1.66683 2.66699H3.6665V2.00033C3.6665 1.26395 4.26346 0.666992 4.99984 0.666992ZM3.05811 6.66699H10.9426L10.3361 13.945L10.3338 14.0003H3.66711L3.05811 6.66699ZM1.6665 5.33431V4.00098H12.3332V5.33431H1.6665ZM9.00049 2.00098V2.66764H5.00049V2.00098H9.00049Z" fill="white"/>
</svg>
