<svg width="16" height="17" viewBox="0 0 16 17" fill="none" xmlns="http://www.w3.org/2000/svg">
<path fill-rule="evenodd" clip-rule="evenodd" d="M2.81488 13.6855C2.19873 13.0694 2.02197 12.1295 2.2152 10.8964C1.20658 10.161 0.666992 9.37144 0.666992 8.50008C0.666992 7.62873 1.20658 6.83916 2.2152 6.1038C2.02197 4.87063 2.19873 3.93077 2.81488 3.31463C3.43102 2.69849 4.37087 2.52173 5.60405 2.71495C6.3394 1.70633 7.12897 1.16675 8.00033 1.16675C8.87168 1.16675 9.66125 1.70633 10.3966 2.71495C11.6298 2.52173 12.5696 2.69849 13.1858 3.31463C13.8019 3.93077 13.9787 4.87063 13.7855 6.1038C14.7941 6.83916 15.3337 7.62873 15.3337 8.50008C15.3337 9.37144 14.7941 10.161 13.7855 10.8964C13.9787 12.1295 13.8019 13.0694 13.1858 13.6855C12.5696 14.3017 11.6298 14.4784 10.3966 14.2852C9.66125 15.2938 8.87168 15.8334 8.00033 15.8334C7.12897 15.8334 6.3394 15.2938 5.60405 14.2852C4.37087 14.4784 3.43102 14.3017 2.81488 13.6855ZM5.76871 12.8987C6.03933 12.8408 6.31762 12.9561 6.46799 13.1884C7.05517 14.0956 7.57875 14.5001 8.00033 14.5001C8.4219 14.5001 8.94548 14.0956 9.53266 13.1884C9.68303 12.9561 9.96132 12.8408 10.2319 12.8987C11.2886 13.125 11.9449 13.0408 12.243 12.7427C12.5411 12.4446 12.6253 11.7884 12.399 10.7317C12.341 10.4611 12.4563 10.1828 12.6886 10.0324C13.5958 9.44524 14.0003 8.92166 14.0003 8.50008C14.0003 8.0785 13.5958 7.55492 12.6886 6.96775C12.4563 6.81737 12.341 6.53909 12.399 6.26847C12.6253 5.21178 12.5411 4.55554 12.243 4.25744C11.9449 3.95934 11.2886 3.87512 10.2319 4.10142C9.96132 4.15938 9.68303 4.04411 9.53266 3.81177C8.94548 2.90456 8.4219 2.50008 8.00033 2.50008C7.57875 2.50008 7.05517 2.90456 6.46799 3.81177C6.31762 4.04411 6.03933 4.15938 5.76871 4.10142C4.71202 3.87512 4.05579 3.95934 3.75768 4.25744C3.45958 4.55554 3.37537 5.21178 3.60167 6.26847C3.65963 6.53909 3.54436 6.81737 3.31202 6.96775C2.4048 7.55492 2.00033 8.0785 2.00033 8.50008C2.00033 8.92166 2.4048 9.44524 3.31202 10.0324C3.54436 10.1828 3.65963 10.4611 3.60167 10.7317C3.37537 11.7884 3.45958 12.4446 3.75768 12.7427C4.05579 13.0408 4.71202 13.125 5.76871 12.8987ZM10.1956 6.02868L7.33366 8.89061L5.80506 7.36201L4.86225 8.30482L7.33366 10.7762L11.1384 6.97149L10.1956 6.02868Z" fill="#0DB960"/>
</svg>
