<svg width="16" height="17" viewBox="0 0 16 17" fill="none" xmlns="http://www.w3.org/2000/svg">
<path fill-rule="evenodd" clip-rule="evenodd" d="M6.66634 2.5H9.33301C10.0694 2.5 10.6663 3.09695 10.6663 3.83333V4.5H13.333C14.0694 4.5 14.6663 5.09695 14.6663 5.83333V13.1667C14.6663 13.903 14.0694 14.5 13.333 14.5H2.66634C1.92996 14.5 1.33301 13.903 1.33301 13.1667V5.83333C1.33301 5.09695 1.92996 4.5 2.66634 4.5H5.33301V3.83333C5.33301 3.09695 5.92996 2.5 6.66634 2.5ZM2.66634 5.83333H5.33301H10.6663H13.333V9.16667H8.66634H7.33301H2.66634V5.83333ZM2.66634 13.1667V10.5H7.33301V11.1667H8.66634V10.5H13.333V13.1667H2.66634ZM9.33301 3.83333V4.5H6.66634V3.83333H9.33301Z" fill="#0DB960"/>
</svg>
