<svg width="16" height="17" viewBox="0 0 16 17" fill="none" xmlns="http://www.w3.org/2000/svg">
<path d="M14.6415 10.0805C14.5122 9.76048 14.1479 9.60583 13.8279 9.73526C13.5078 9.86464 13.3533 10.2289 13.4826 10.5489L14.2187 12.3698L12.0325 11.406C11.8743 11.3363 11.6942 11.3352 11.5351 11.4031C10.788 11.7219 9.98764 11.8835 9.15626 11.8835C5.81024 11.8835 3.56252 9.26364 3.56252 6.81674C3.56252 4.02293 6.07186 1.75 9.15626 1.75C12.2407 1.75 14.75 4.02293 14.75 6.81674C14.75 7.03471 14.7297 7.29571 14.6944 7.53277C14.6434 7.87417 14.8789 8.1922 15.2203 8.24314C15.5617 8.2942 15.8798 8.05861 15.9307 7.71721C15.9754 7.41752 16 7.09771 16 6.81674C16 5.11893 15.2811 3.52587 13.9755 2.33103C12.6855 1.15028 10.974 0.5 9.15626 0.5C7.33858 0.5 5.62708 1.15028 4.33699 2.331C3.17036 3.39874 2.47261 4.78462 2.33727 6.27896C0.869864 7.25071 2.08378e-05 8.80786 2.08378e-05 10.4851C2.08378e-05 11.5329 0.330114 12.527 0.958458 13.3825L0.0455833 15.6407C-0.0497604 15.8765 0.00733333 16.1466 0.189989 16.3237C0.309021 16.4391 0.465864 16.5 0.625145 16.5C0.710239 16.5 0.796052 16.4826 0.877114 16.4469L3.50927 15.2866C4.17139 15.533 4.8713 15.6578 5.59374 15.6578C5.60936 15.6578 5.6247 15.6566 5.64005 15.6555C6.68495 15.6476 7.7008 15.3727 8.58061 14.8584C9.36867 14.3976 10.0169 13.7647 10.4714 13.0172C10.9151 12.9375 11.3488 12.8172 11.7697 12.6563L15.1229 14.1344C15.204 14.1701 15.2898 14.1875 15.3749 14.1875C15.5341 14.1875 15.691 14.1266 15.81 14.0112C15.9927 13.8341 16.0498 13.5641 15.9544 13.3282L14.6415 10.0805ZM5.5938 14.4062C5.58527 14.4062 5.57695 14.4072 5.56849 14.4075C4.9303 14.4043 4.31605 14.2788 3.74239 14.0341C3.58336 13.9662 3.40327 13.9673 3.24502 14.037L1.78136 14.6822L2.25352 13.5143C2.3408 13.2984 2.30077 13.0518 2.14971 12.8746C1.56111 12.184 1.25002 11.3578 1.25002 10.4851C1.25002 9.48636 1.67018 8.54002 2.4053 7.82245C2.63418 9.07011 3.27996 10.2636 4.25411 11.2012C5.46633 12.3678 7.06977 13.0437 8.80117 13.1251C7.9883 13.9252 6.82505 14.4062 5.5938 14.4062Z" fill="#0DB960"/>
<path d="M9.125 7.46875C9.47018 7.46875 9.75 7.18893 9.75 6.84375C9.75 6.49857 9.47018 6.21875 9.125 6.21875C8.77982 6.21875 8.5 6.49857 8.5 6.84375C8.5 7.18893 8.77982 7.46875 9.125 7.46875Z" fill="#0DB960"/>
<path d="M11.625 7.46875C11.9702 7.46875 12.25 7.18893 12.25 6.84375C12.25 6.49857 11.9702 6.21875 11.625 6.21875C11.2798 6.21875 11 6.49857 11 6.84375C11 7.18893 11.2798 7.46875 11.625 7.46875Z" fill="#0DB960"/>
<path d="M6.625 7.46875C6.97018 7.46875 7.25 7.18893 7.25 6.84375C7.25 6.49857 6.97018 6.21875 6.625 6.21875C6.27982 6.21875 6 6.49857 6 6.84375C6 7.18893 6.27982 7.46875 6.625 7.46875Z" fill="#0DB960"/>
</svg>
