<svg width="16" height="16" viewBox="0 0 16 16" fill="none" xmlns="http://www.w3.org/2000/svg">
<g id="24 / time / time">
<path id="icon" fill-rule="evenodd" clip-rule="evenodd" d="M7.99935 15.3334C3.94926 15.3334 0.666016 12.0502 0.666016 8.00008C0.666016 3.94999 3.94926 0.666748 7.99935 0.666748C12.0494 0.666748 15.3327 3.94999 15.3327 8.00008C15.3327 12.0502 12.0494 15.3334 7.99935 15.3334ZM7.99935 14C11.3131 14 13.9994 11.3137 13.9994 8.00003C13.9994 4.68633 11.3131 2.00003 7.99935 2.00003C4.68565 2.00003 1.99935 4.68633 1.99935 8.00003C1.99935 11.3137 4.68565 14 7.99935 14ZM11.3327 7.33337H8.66601V4.00003H7.33268V8.6667H11.3327V7.33337Z" fill="#0DB960"/>
</g>
</svg>
