<svg width="16" height="16" viewBox="0 0 16 16" fill="none" xmlns="http://www.w3.org/2000/svg">
<path fill-rule="evenodd" clip-rule="evenodd" d="M0.666992 8.00008C0.666992 12.0502 3.95024 15.3334 8.00033 15.3334C12.0504 15.3334 15.3337 12.0502 15.3337 8.00008C15.3337 3.94999 12.0504 0.666748 8.00033 0.666748C3.95024 0.666748 0.666992 3.94999 0.666992 8.00008ZM14.0003 8.00008C14.0003 11.3138 11.314 14.0001 8.00033 14.0001C4.68662 14.0001 2.00033 11.3138 2.00033 8.00008C2.00033 4.68637 4.68662 2.00008 8.00033 2.00008C11.314 2.00008 14.0003 4.68637 14.0003 8.00008ZM8.6694 9.33231H9.33563V10.6656H6.66896V9.33231H7.33563V7.99898H6.66896V6.66565H8.6694V9.33231ZM8.66743 5.33231C8.66743 5.7005 8.36885 5.99898 8.00054 5.99898C7.63223 5.99898 7.33366 5.7005 7.33366 5.33231C7.33366 4.96412 7.63223 4.66565 8.00054 4.66565C8.36885 4.66565 8.66743 4.96412 8.66743 5.33231Z" fill="#0DB960"/>
</svg>
