<svg width="16" height="16" viewBox="0 0 16 16" fill="none" xmlns="http://www.w3.org/2000/svg">
<g clip-path="url(#clip0_1612_13595)">
<path d="M14.6415 9.58045C14.5122 9.26048 14.1479 9.10583 13.8279 9.23526C13.5078 9.36464 13.3533 9.72892 13.4826 10.0489L14.2187 11.8698L12.0325 10.906C11.8743 10.8363 11.6942 10.8352 11.5351 10.9031C10.788 11.2219 9.98764 11.3835 9.15626 11.3835C5.81024 11.3835 3.56252 8.76364 3.56252 6.31674C3.56252 3.52293 6.07186 1.25 9.15626 1.25C12.2407 1.25 14.75 3.52293 14.75 6.31674C14.75 6.53471 14.7297 6.79571 14.6944 7.03277C14.6434 7.37417 14.8789 7.6922 15.2203 7.74314C15.5617 7.7942 15.8798 7.55861 15.9307 7.21721C15.9754 6.91752 16 6.59771 16 6.31674C16 4.61893 15.2811 3.02587 13.9755 1.83103C12.6855 0.65028 10.974 0 9.15626 0C7.33858 0 5.62708 0.65028 4.33699 1.831C3.17036 2.89874 2.47261 4.28462 2.33727 5.77896C0.869864 6.75071 2.08378e-05 8.30786 2.08378e-05 9.98514C2.08378e-05 11.0329 0.330114 12.027 0.958458 12.8825L0.0455833 15.1407C-0.0497604 15.3765 0.00733333 15.6466 0.189989 15.8237C0.309021 15.9391 0.465864 16 0.625145 16C0.710239 16 0.796052 15.9826 0.877114 15.9469L3.50927 14.7866C4.17139 15.033 4.8713 15.1578 5.59374 15.1578C5.60936 15.1578 5.6247 15.1566 5.64005 15.1555C6.68495 15.1476 7.7008 14.8727 8.58061 14.3584C9.36867 13.8976 10.0169 13.2647 10.4714 12.5172C10.9151 12.4375 11.3488 12.3172 11.7697 12.1563L15.1229 13.6344C15.204 13.6701 15.2898 13.6875 15.3749 13.6875C15.5341 13.6875 15.691 13.6266 15.81 13.5112C15.9927 13.3341 16.0498 13.0641 15.9544 12.8282L14.6415 9.58045ZM5.5938 13.9062C5.58527 13.9062 5.57695 13.9072 5.56849 13.9075C4.9303 13.9043 4.31605 13.7788 3.74239 13.5341C3.58336 13.4662 3.40327 13.4673 3.24502 13.537L1.78136 14.1822L2.25352 13.0143C2.3408 12.7984 2.30077 12.5518 2.14971 12.3746C1.56111 11.684 1.25002 10.8578 1.25002 9.98514C1.25002 8.98636 1.67018 8.04002 2.4053 7.32245C2.63418 8.57011 3.27996 9.76361 4.25411 10.7012C5.46633 11.8678 7.06977 12.5437 8.80117 12.6251C7.9883 13.4252 6.82505 13.9062 5.5938 13.9062Z" fill="#0DB960"/>
<path d="M9.125 6.96875C9.47018 6.96875 9.75 6.68893 9.75 6.34375C9.75 5.99857 9.47018 5.71875 9.125 5.71875C8.77982 5.71875 8.5 5.99857 8.5 6.34375C8.5 6.68893 8.77982 6.96875 9.125 6.96875Z" fill="#0DB960"/>
<path d="M11.625 6.96875C11.9702 6.96875 12.25 6.68893 12.25 6.34375C12.25 5.99857 11.9702 5.71875 11.625 5.71875C11.2798 5.71875 11 5.99857 11 6.34375C11 6.68893 11.2798 6.96875 11.625 6.96875Z" fill="#0DB960"/>
<path d="M6.625 6.96875C6.97018 6.96875 7.25 6.68893 7.25 6.34375C7.25 5.99857 6.97018 5.71875 6.625 5.71875C6.27982 5.71875 6 5.99857 6 6.34375C6 6.68893 6.27982 6.96875 6.625 6.96875Z" fill="#0DB960"/>
</g>
<defs>
<clipPath id="clip0_1612_13595">
<rect width="16" height="16" fill="white"/>
</clipPath>
</defs>
</svg>
