<svg width="16" height="16" viewBox="0 0 16 16" fill="none" xmlns="http://www.w3.org/2000/svg">
<path fill-rule="evenodd" clip-rule="evenodd" d="M8 1.33325C4.70811 1.33325 2 2.34879 2 3.99992V7.99992V11.9999C2 13.651 4.70811 14.6666 8 14.6666C11.2919 14.6666 14 13.651 14 11.9999V7.99992V3.99992C14 2.34879 11.2919 1.33325 8 1.33325ZM12.6667 7.99992V5.74713C11.563 6.33664 9.87635 6.66658 8 6.66658C6.12365 6.66658 4.43696 6.33664 3.33333 5.74713V7.99992C3.33333 8.55793 5.40085 9.33325 8 9.33325C10.5991 9.33325 12.6667 8.55793 12.6667 7.99992ZM3.33333 9.74713C4.43696 10.3366 6.12365 10.6666 8 10.6666C9.87635 10.6666 11.563 10.3366 12.6667 9.74713V11.9999C12.6667 12.5579 10.5991 13.3333 8 13.3333C5.40085 13.3333 3.33333 12.5579 3.33333 11.9999V9.74713ZM8 5.33325C5.40121 5.33325 3.33391 4.55815 3.33333 4.00015L3.33333 3.99992C3.33333 3.44191 5.40085 2.66659 8 2.66659C10.5991 2.66659 12.6667 3.44191 12.6667 3.99992C12.6667 4.55793 10.5991 5.33325 8 5.33325Z" fill="#0DB960"/>
</svg>
