<svg width="16" height="16" viewBox="0 0 16 16" fill="none" xmlns="http://www.w3.org/2000/svg">
<path fill-rule="evenodd" clip-rule="evenodd" d="M8 15.3334C4 13.5515 2 11.7737 2 10.0001V3.33341C2 2.82169 2.1964 2.70276 2.73995 2.37361L2.73995 2.37361C2.90453 2.27395 3.10093 2.15502 3.33333 2.00008C3.4412 1.92817 5.70881 0.666748 8 0.666748C9.99683 0.666748 11.6667 1.33341 12.6667 2.00008C12.8991 2.15502 13.0955 2.27395 13.26 2.37361C13.8036 2.70276 14 2.82169 14 3.33341C14.0131 3.47824 14.0067 6.55816 14.0025 8.52988L14.0025 8.5309C14.0011 9.20282 14 9.74591 14 10.0001C14 11.7779 12 13.5556 8 15.3334ZM12.6667 10.0001C12.6667 9.84654 12.6671 9.58928 12.6679 9.16987L12.6706 7.8677L12.6727 6.73994C12.6751 5.25184 12.6745 3.97463 12.6731 3.5796L12.5815 3.52278L12.5814 3.52274C12.3659 3.389 12.0849 3.2147 11.9271 3.10948C10.9429 2.45336 9.50679 2.00008 8 2.00008C6.55872 2.00008 4.68576 2.70093 4.07293 3.10948C3.9151 3.2147 3.63413 3.38901 3.41856 3.52275L3.41853 3.52276L3.33333 3.57564V10.0001C3.33333 11.0057 4.81941 12.3792 8.00062 13.8681C11.1814 12.3826 12.6667 11.0096 12.6667 10.0001ZM10.1953 5.52868L7.33333 8.39061L5.80474 6.86201L4.86193 7.80482L7.33333 10.2762L11.1381 6.47149L10.1953 5.52868Z" fill="#0DB960"/>
</svg>
