<svg width="16" height="16" viewBox="0 0 16 16" fill="none" xmlns="http://www.w3.org/2000/svg">
<path fill-rule="evenodd" clip-rule="evenodd" d="M3.99967 3.99992H5.33301V3.33325H10.6663V3.99992H11.9997V3.33325H13.333V5.33325H2.66634V3.33325H3.99967V3.99992ZM2.66634 6.66659V13.3333H13.333V6.66659H2.66634ZM5.33301 1.99992H10.6663V1.33325H11.9997V1.99992H13.333C14.0694 1.99992 14.6663 2.59687 14.6663 3.33325V13.3333C14.6663 14.0696 14.0694 14.6666 13.333 14.6666H2.66634C1.92996 14.6666 1.33301 14.0696 1.33301 13.3333V3.33325C1.33301 2.59687 1.92996 1.99992 2.66634 1.99992H3.99967V1.33325H5.33301V1.99992Z" fill="#0DB960"/>
</svg>
