<svg width="32" height="32" viewBox="0 0 32 32" fill="none" xmlns="http://www.w3.org/2000/svg">
<path fill-rule="evenodd" clip-rule="evenodd" d="M28 29.3327H8C5.79086 29.3327 4 27.5418 4 25.3327V6.66602C4 4.45688 5.79086 2.66602 8 2.66602H28V23.9993C27.2636 23.9993 26.6667 24.5963 26.6667 25.3327C26.6667 26.0691 27.2636 26.666 28 26.666V29.3327ZM24 25.3327C24 24.8652 24.0802 24.4164 24.2276 23.9993H8C7.26362 23.9993 6.66667 24.5963 6.66667 25.3327C6.66667 26.0691 7.26362 26.666 8 26.666H24.2276C24.0802 26.249 24 25.8002 24 25.3327ZM8 5.33268H25.3333V21.3327H8C7.53249 21.3327 7.08371 21.4129 6.66667 21.5603V6.66602C6.66667 5.92964 7.26362 5.33268 8 5.33268Z" fill="#0DB960"/>
</svg>
