<svg width="33" height="32" viewBox="0 0 33 32" fill="none" xmlns="http://www.w3.org/2000/svg">
<path fill-rule="evenodd" clip-rule="evenodd" d="M27.0667 17.3327H20.4C18.9273 17.3327 17.7334 18.5266 17.7334 19.9993V26.666C17.7334 28.1388 18.9273 29.3327 20.4 29.3327H27.0667C28.5395 29.3327 29.7334 28.1388 29.7334 26.666V19.9993C29.7334 18.5266 28.5395 17.3327 27.0667 17.3327ZM20.4 26.666V19.9993H27.0667V26.666H20.4ZM15.0667 5.33268V26.666C15.0667 28.1388 13.8728 29.3327 12.4 29.3327H5.73338C4.26062 29.3327 3.06671 28.1388 3.06671 26.666V5.33268C3.06671 3.85992 4.26062 2.66602 5.73338 2.66602H12.4C13.8728 2.66602 15.0667 3.85992 15.0667 5.33268ZM12.4 5.33268H5.73338V26.666H12.4V5.33268ZM27.0667 2.66602H20.4C18.9273 2.66602 17.7334 3.85992 17.7334 5.33268V11.9993C17.7334 13.4721 18.9273 14.666 20.4 14.666H27.0667C28.5395 14.666 29.7334 13.4721 29.7334 11.9993V5.33268C29.7334 3.85992 28.5395 2.66602 27.0667 2.66602ZM20.4 11.9993V5.33268H27.0667V11.9993H20.4Z" fill="#0DB960"/>
</svg>
