<svg width="32" height="32" viewBox="0 0 32 32" fill="none" xmlns="http://www.w3.org/2000/svg">
<path fill-rule="evenodd" clip-rule="evenodd" d="M26.1704 15.9997C28.9607 20.5628 29.6615 24.9657 27.3137 27.3134C24.9659 29.6612 20.563 28.9604 16 26.1701C11.437 28.9604 7.03405 29.6612 4.68627 27.3134C2.33849 24.9657 3.03928 20.5628 5.82958 15.9997C3.03928 11.4367 2.33849 7.03381 4.68627 4.68603C7.03405 2.33825 11.437 3.03904 16 5.82934C20.563 3.03904 24.9659 2.33825 27.3137 4.68603C29.6615 7.03381 28.9607 11.4367 26.1704 15.9997ZM12.2287 12.2285C13.4639 10.9933 14.7423 9.92299 16 9.03235C17.2576 9.92299 18.536 10.9933 19.7712 12.2285C21.0064 13.4637 22.0767 14.7421 22.9674 15.9997C22.0767 17.2574 21.0064 18.5358 19.7712 19.771C18.536 21.0061 17.2576 22.0765 16 22.9671C14.7423 22.0765 13.4639 21.0061 12.2287 19.771C10.9936 18.5358 9.92323 17.2574 9.0326 15.9997C9.92323 14.7421 10.9936 13.4637 12.2287 12.2285ZM21.6568 10.3429C22.702 11.388 23.6503 12.4692 24.4887 13.5606C26.176 10.4271 26.5767 7.72029 25.4281 6.57165C24.2794 5.42301 21.5726 5.82377 18.4391 7.51098C19.5305 8.34941 20.6117 9.29776 21.6568 10.3429ZM25.4281 25.4278C26.5767 24.2792 26.176 21.5724 24.4887 18.4389C23.6503 19.5302 22.702 20.6115 21.6568 21.6566C20.6117 22.7017 19.5305 23.6501 18.4391 24.4885C21.5726 26.1757 24.2794 26.5765 25.4281 25.4278ZM6.57189 6.57165C7.72053 5.42301 10.4273 5.82377 13.5608 7.51098C12.4695 8.34941 11.3882 9.29776 10.3431 10.3429C9.29801 11.388 8.34966 12.4692 7.51123 13.5606C5.82401 10.4271 5.42325 7.72029 6.57189 6.57165ZM7.51123 18.4389C8.34966 19.5302 9.29801 20.6115 10.3431 21.6566C11.3882 22.7017 12.4695 23.6501 13.5608 24.4885C10.4273 26.1757 7.72053 26.5765 6.57189 25.4278C5.42325 24.2792 5.82401 21.5724 7.51123 18.4389ZM17.3333 15.9997C17.3333 15.2634 16.7364 14.6664 16 14.6664C15.2636 14.6664 14.6666 15.2634 14.6666 15.9997C14.6666 16.7361 15.2636 17.3331 16 17.3331C16.7364 17.3331 17.3333 16.7361 17.3333 15.9997Z" fill="#0DB960"/>
</svg>
