<svg width="33" height="32" viewBox="0 0 33 32" fill="none" xmlns="http://www.w3.org/2000/svg">
<path fill-rule="evenodd" clip-rule="evenodd" d="M12.5945 2.66732C13.5976 1.81795 15.0522 1.33398 16.6 1.33398C18.1478 1.33398 19.6024 1.81795 20.6054 2.66732H21.9333C23.4061 2.66732 24.6 3.86122 24.6 5.33398L25.9333 5.33398C27.4061 5.33398 28.6 6.52789 28.6 8.00065V28.0006C28.6 29.4734 27.4061 30.6673 25.9333 30.6673H7.26664C5.79388 30.6673 4.59998 29.4734 4.59998 28.0006V8.00065C4.59998 6.52789 5.79388 5.33398 7.26664 5.33398L8.59998 5.33398C8.59998 3.86122 9.79388 2.66732 11.2666 2.66732H12.5945ZM21.9333 9.33398C22.9204 9.33398 23.7821 8.79772 24.2432 8.00065H25.9333V28.0006H7.26664V8.00065H8.95673C9.41781 8.79772 10.2796 9.33398 11.2666 9.33398H21.9333ZM11.2666 21.334V18.6673H19.2666V21.334H11.2666ZM11.2666 13.334V16.0007H21.9333V13.334H11.2666ZM13.7435 5.33398L14.1422 4.87449C14.5802 4.36964 15.5192 4.00065 16.6 4.00065C17.6808 4.00065 18.6197 4.36964 19.0578 4.87449L19.4565 5.33398H21.9333V6.66732H11.2666V5.33398H13.1351H13.7435Z" fill="#0DB960"/>
</svg>
