<svg width="33" height="32" viewBox="0 0 33 32" fill="none" xmlns="http://www.w3.org/2000/svg">
<path fill-rule="evenodd" clip-rule="evenodd" d="M9.58333 10.6673V15.334L4.25 19.334V26.6673L9.58333 26.6673C9.58333 28.1401 10.7772 29.334 12.25 29.334H14.9167V30.6673H17.5833V29.334H20.25C21.7228 29.334 22.9167 28.1401 22.9167 26.6673L28.25 26.6673V19.334L22.9167 15.334V10.6673C22.9167 6.45922 20.3653 1.33398 16.25 1.33398C12.1347 1.33398 9.58333 6.45922 9.58333 10.6673ZM17.5833 26.6673H20.25V13.334V10.6673C20.25 7.74363 18.3867 4.00065 16.25 4.00065C14.1133 4.00065 12.25 7.74363 12.25 10.6673V13.334V26.6673H14.9167V18.6673H17.5833V26.6673ZM6.91667 20.6673L9.58333 18.6673V24.0007H6.91667V20.6673ZM22.9167 24.0007V18.6673L25.5833 20.6673V24.0007H22.9167ZM16.25 14.6673C14.7772 14.6673 13.5833 13.4734 13.5833 12.0007C13.5833 10.5279 14.7772 9.33398 16.25 9.33398C17.7228 9.33398 18.9167 10.5279 18.9167 12.0007C18.9167 13.4734 17.7228 14.6673 16.25 14.6673Z" fill="#0DB960"/>
</svg>
