<svg width="33" height="32" viewBox="0 0 33 32" fill="none" xmlns="http://www.w3.org/2000/svg">
<path fill-rule="evenodd" clip-rule="evenodd" d="M28.5 5.33268V18.666C28.5 20.1388 27.3061 21.3327 25.8334 21.3327H17.8334V23.2444L23.8527 26.856L22.4807 29.1427L17.8334 26.3543V29.3327H15.1667V26.3543L10.5193 29.1427L9.14736 26.856L15.1667 23.2444V21.3327H7.16669C5.69393 21.3327 4.50002 20.1388 4.50002 18.666V5.33268H3.16669V2.66602H29.8334V5.33268H28.5ZM7.16669 5.33268V18.666H25.8334V5.33268H7.16669ZM11.1667 15.9993H13.8334V10.666H11.1667V15.9993ZM17.8334 15.9993H15.1667V7.99935H17.8334V15.9993ZM19.1667 15.9993H21.8334V11.9993H19.1667V15.9993Z" fill="#0DB960"/>
</svg>
