<svg width="33" height="32" viewBox="0 0 33 32" fill="none" xmlns="http://www.w3.org/2000/svg">
<path fill-rule="evenodd" clip-rule="evenodd" d="M2.91669 26.666C2.91669 28.1388 4.11059 29.3327 5.58335 29.3327H23.469L29.5834 23.2183V5.33268C29.5834 3.85992 28.3894 2.66602 26.9167 2.66602H5.58335C4.11059 2.66602 2.91669 3.85992 2.91669 5.33268V26.666ZM5.58335 5.33268H26.9167V19.9993H22.9167C21.4439 19.9993 20.25 21.1933 20.25 22.666V26.666H5.58335V5.33268ZM22.9167 22.666H26.3644L22.9167 26.1137V22.666ZM9.58335 19.9993V22.666H17.5834V19.9993H9.58335ZM9.58335 17.3327V14.666H22.9167V17.3327H9.58335ZM9.58335 9.33268V11.9993H22.9167V9.33268H9.58335Z" fill="#0DB960"/>
</svg>
