<svg width="33" height="32" viewBox="0 0 33 32" fill="none" xmlns="http://www.w3.org/2000/svg">
<path fill-rule="evenodd" clip-rule="evenodd" d="M12.1946 2.66732C13.1976 1.81795 14.6522 1.33398 16.2 1.33398C17.7478 1.33398 19.2024 1.81795 20.2055 2.66732H21.5333C23.0061 2.66732 24.2 3.86122 24.2 5.33398L25.5333 5.33398C27.0061 5.33398 28.2 6.52789 28.2 8.00065V28.0006C28.2 29.4734 27.0061 30.6673 25.5333 30.6673H6.86668C5.39392 30.6673 4.20001 29.4734 4.20001 28.0006V8.00065C4.20001 6.52789 5.39392 5.33398 6.86668 5.33398L8.20001 5.33398C8.20001 3.86122 9.39392 2.66732 10.8667 2.66732H12.1946ZM21.5333 9.33398C22.5204 9.33398 23.3822 8.79772 23.8433 8.00065H25.5333V28.0006H6.86668V8.00065H8.55677C9.01784 8.79772 9.87964 9.33398 10.8667 9.33398H21.5333ZM13.3435 5.33398L13.7422 4.87449C14.1803 4.36964 15.1192 4.00065 16.2 4.00065C17.2808 4.00065 18.2198 4.36964 18.6578 4.87449L19.0565 5.33398H21.5333V6.66732H10.8667V5.33398H12.7351H13.3435Z" fill="#0DB960"/>
</svg>
