<svg width="32" height="32" viewBox="0 0 32 32" fill="none" xmlns="http://www.w3.org/2000/svg">
<path fill-rule="evenodd" clip-rule="evenodd" d="M16 5.33268C19.1915 5.33268 21.9286 6.77094 23.7425 9.33268H18.6666V11.9993H28V2.66602H25.3333V7.02648C23.0331 4.2427 19.7389 2.66602 16 2.66602C8.63616 2.66602 2.66663 8.63555 2.66663 15.9993H5.33329C5.33329 10.1083 10.1089 5.33268 16 5.33268ZM16 26.666C12.8085 26.666 10.0713 25.2278 8.25738 22.666H13.3333V19.9993H3.99996V29.3327H6.66663V24.9722C8.96677 27.756 12.261 29.3327 16 29.3327C23.3638 29.3327 29.3333 23.3631 29.3333 15.9993H26.6666C26.6666 21.8904 21.891 26.666 16 26.666Z" fill="#0DB960"/>
</svg>
