<svg width="32" height="32" viewBox="0 0 32 32" fill="none" xmlns="http://www.w3.org/2000/svg">
<path fill-rule="evenodd" clip-rule="evenodd" d="M26.6667 1.33398V12.0007H26.6668L26.6667 13.334L26.6667 14.6673L26.6667 17.3263C26.6784 19.356 25.5459 19.9984 22.3885 20.9445C20.5379 21.4991 20 21.8037 20 22.0007C20 23.0241 20.0938 23.7114 20.2936 24.5106C20.2549 24.356 20.4827 25.2366 20.5329 25.4713C20.6214 25.884 20.6667 26.2596 20.6667 26.6673C20.6667 28.8818 18.5836 30.6673 16 30.6673C13.4165 30.6673 11.3334 28.8818 11.3334 26.6673C11.3334 26.2596 11.3787 25.884 11.4671 25.4713C11.5174 25.2366 11.7452 24.356 11.7065 24.5106C11.9063 23.7114 12 23.0241 12 22.0007C12 21.8024 11.4637 21.4984 9.61691 20.9444C6.46366 19.9984 5.33337 19.3579 5.33337 17.334V14.6673V12.0007V1.33398H26.6667ZM17.2353 14.6673H24L24 17.334C24.0012 17.5346 23.4673 17.8375 21.6231 18.3901L21.6173 18.3918C18.4658 19.3362 17.3334 19.9776 17.3334 22.0007C17.3334 23.255 17.4563 24.1566 17.7065 25.1574C17.6827 25.0619 17.8889 25.8596 17.9255 26.03C17.9768 26.2698 18 26.462 18 26.6673C18 27.31 17.1943 28.0007 16 28.0007C14.8058 28.0007 14 27.31 14 26.6673C14 26.462 14.0232 26.2698 14.0746 26.03C14.1111 25.8596 14.3174 25.0619 14.2936 25.1574C14.5438 24.1566 14.6667 23.255 14.6667 22.0007C14.6667 19.9767 13.5364 19.3362 10.3832 18.3902C8.53642 17.8362 8.00004 17.5322 8.00004 17.334V14.6673H17.2353ZM8.00004 12.0007V4.00065H10.6667V9.33398H13.3334V4.00065H16V8.00065H18.6667V4.00065H24V12.0007H8.00004Z" fill="#0DB960"/>
</svg>
