<svg width="33" height="32" viewBox="0 0 33 32" fill="none" xmlns="http://www.w3.org/2000/svg">
<path fill-rule="evenodd" clip-rule="evenodd" d="M3.46667 26.666C3.46667 28.1388 4.66058 29.3327 6.13334 29.3327H24.019L30.1333 23.2183V5.33268C30.1333 3.85992 28.9394 2.66602 27.4667 2.66602H6.13334C4.66058 2.66602 3.46667 3.85992 3.46667 5.33268V26.666ZM6.13334 5.33268H27.4667V19.9993H23.4667C21.9939 19.9993 20.8 21.1933 20.8 22.666V26.666H6.13334V5.33268ZM23.4667 22.666H26.9144L23.4667 26.1137V22.666ZM10.1333 19.9993V22.666H18.1333V19.9993H10.1333ZM10.1333 17.3327V14.666H23.4667V17.3327H10.1333ZM10.1333 9.33268V11.9993H23.4667V9.33268H10.1333Z" fill="#0DB960"/>
</svg>
