<svg width="33" height="32" viewBox="0 0 33 32" fill="none" xmlns="http://www.w3.org/2000/svg">
<path fill-rule="evenodd" clip-rule="evenodd" d="M14.0833 4H19.4166C20.8894 4 22.0833 5.19391 22.0833 6.66667V8H27.4166C28.8894 8 30.0833 9.19391 30.0833 10.6667V25.3333C30.0833 26.8061 28.8894 28 27.4166 28H6.08329C4.61053 28 3.41663 26.8061 3.41663 25.3333V10.6667C3.41663 9.19391 4.61053 8 6.08329 8H11.4166V6.66667C11.4166 5.19391 12.6105 4 14.0833 4ZM6.08329 10.6667H11.4166H22.0833H27.4166V17.3333H18.0833H15.4166H6.08329V10.6667ZM6.08329 25.3333V20H15.4166V21.3333H18.0833V20H27.4166V25.3333H6.08329ZM19.4166 6.66667V8H14.0833V6.66667H19.4166Z" fill="#0DB960"/>
</svg>
