<svg width="32" height="32" viewBox="0 0 32 32" fill="none" xmlns="http://www.w3.org/2000/svg">
<path fill-rule="evenodd" clip-rule="evenodd" d="M6.66667 1.33398H20.5523L28 8.7817V28.0006C28 29.4734 26.8061 30.6673 25.3333 30.6673H6.66667C5.19391 30.6673 4 29.4734 4 28.0006V4.00065C4 2.52789 5.19391 1.33398 6.66667 1.33398ZM17.3333 4.00065H6.66667V28.0007H25.3333V12.0007H20C18.5272 12.0007 17.3333 10.8067 17.3333 9.33398V4.00065ZM20 4.55294V9.33398H24.781L20 4.55294ZM10.6667 22.6673V20.0007H18.6667V22.6673H10.6667ZM10.6667 14.6673V17.334H21.3333V14.6673H10.6667Z" fill="#0DB960"/>
</svg>
