<svg width="33" height="32" viewBox="0 0 33 32" fill="none" xmlns="http://www.w3.org/2000/svg">
<path fill-rule="evenodd" clip-rule="evenodd" d="M5.53337 24V6.66667H21.5334V24C21.5334 24.4675 21.6136 24.9163 21.761 25.3333H6.8667C6.13032 25.3333 5.53337 24.7364 5.53337 24ZM25.5334 28H6.8667C4.65756 28 2.8667 26.2091 2.8667 24V4H21.5334H22.8667H24.2V10.6667H29.5334V12V13.3333V24C29.5334 26.2091 27.7425 28 25.5334 28ZM24.2 13.3333H26.8667V24C26.8667 24.7364 26.2697 25.3333 25.5334 25.3333C24.797 25.3333 24.2 24.7364 24.2 24V13.3333ZM13.5334 9.33333V14.6667H8.20003V9.33333H13.5334ZM18.8667 13.3333V10.6667H14.8667V13.3333H18.8667ZM18.8667 16V18.6667H8.20003V16H18.8667ZM18.8667 22.6667V20H8.20003V22.6667H18.8667Z" fill="#0DB960"/>
</svg>
