<svg width="33" height="32" viewBox="0 0 33 32" fill="none" xmlns="http://www.w3.org/2000/svg">
<path fill-rule="evenodd" clip-rule="evenodd" d="M28.5 22.9311V9.07469L16.5 2.14648L4.5 9.07469V22.9311L16.5 29.8593L28.5 22.9311ZM7.16667 10.6143L16.5 5.22569L25.8333 10.6143V21.3915L16.5 26.7801L7.16667 21.3915V10.6143ZM16.5 22.6665C12.8181 22.6665 9.83333 19.6817 9.83333 15.9998C9.83333 12.3179 12.8181 9.33315 16.5 9.33315C20.1819 9.33315 23.1667 12.3179 23.1667 15.9998C23.1667 19.6817 20.1819 22.6665 16.5 22.6665ZM20.5 15.9998C20.5 18.209 18.7091 19.9998 16.5 19.9998C14.2909 19.9998 12.5 18.209 12.5 15.9998C12.5 13.7907 14.2909 11.9998 16.5 11.9998C18.7091 11.9998 20.5 13.7907 20.5 15.9998Z" fill="#0DB960"/>
</svg>
