<svg width="33" height="32" viewBox="0 0 33 32" fill="none" xmlns="http://www.w3.org/2000/svg">
<path fill-rule="evenodd" clip-rule="evenodd" d="M1.58331 16.0007C1.58331 24.1008 8.1498 30.6673 16.25 30.6673C24.3502 30.6673 30.9166 24.1008 30.9166 16.0007C30.9166 7.90047 24.3502 1.33398 16.25 1.33398C8.1498 1.33398 1.58331 7.90047 1.58331 16.0007ZM28.25 16.0007C28.25 22.6281 22.8774 28.0007 16.25 28.0007C9.62256 28.0007 4.24998 22.6281 4.24998 16.0007C4.24998 9.37323 9.62256 4.00065 16.25 4.00065C22.8774 4.00065 28.25 9.37323 28.25 16.0007ZM16.2504 22.6651C16.987 22.6651 17.5842 22.0682 17.5842 21.3318C17.5842 20.5954 16.987 19.9984 16.2504 19.9984C15.5138 19.9984 14.9166 20.5954 14.9166 21.3318C14.9166 22.0682 15.5138 22.6651 16.2504 22.6651ZM14.9166 18.6673H17.5833C17.5833 17.6028 17.7505 17.4077 18.8463 16.8599C20.7505 15.9077 21.5833 14.9362 21.5833 12.6673C21.5833 9.76149 19.2958 8.00065 16.25 8.00065C13.3045 8.00065 10.9166 10.3885 10.9166 13.334H13.5833C13.5833 11.8612 14.7772 10.6673 16.25 10.6673C17.9529 10.6673 18.9166 11.4092 18.9166 12.6673C18.9166 13.7318 18.7494 13.9269 17.6537 14.4747C15.7494 15.4269 14.9166 16.3985 14.9166 18.6673Z" fill="#0DB960"/>
</svg>
