<svg width="33" height="32" viewBox="0 0 33 32" fill="none" xmlns="http://www.w3.org/2000/svg">
<path fill-rule="evenodd" clip-rule="evenodd" d="M6.12908 26.3715C4.8968 25.1393 4.54327 23.2596 4.92972 20.7932C2.91248 19.3225 1.83331 17.7434 1.83331 16.0007C1.83331 14.2579 2.91248 12.6788 4.92972 11.2081C4.54327 8.74174 4.8968 6.86203 6.12908 5.62975C7.36136 4.39747 9.24107 4.04394 11.7074 4.4304C13.1781 2.41315 14.7573 1.33398 16.5 1.33398C18.2427 1.33398 19.8218 2.41315 21.2925 4.4304C23.7589 4.04394 25.6386 4.39747 26.8709 5.62975C28.1032 6.86203 28.4567 8.74174 28.0702 11.2081C30.0875 12.6788 31.1666 14.2579 31.1666 16.0007C31.1666 17.7434 30.0875 19.3225 28.0702 20.7932C28.4567 23.2596 28.1032 25.1393 26.8709 26.3715C25.6386 27.6038 23.7589 27.9574 21.2925 27.5709C19.8218 29.5881 18.2427 30.6673 16.5 30.6673C14.7573 30.6673 13.1781 29.5881 11.7074 27.5709C9.24107 27.9574 7.36136 27.6038 6.12908 26.3715ZM12.0368 24.798C12.578 24.6821 13.1346 24.9126 13.4353 25.3773C14.6097 27.1917 15.6568 28.0007 16.5 28.0007C17.3431 28.0007 18.3903 27.1917 19.5646 25.3773C19.8654 24.9126 20.422 24.6821 20.9632 24.798C23.0766 25.2506 24.3891 25.0821 24.9853 24.4859C25.5815 23.8897 25.7499 22.5773 25.2973 20.4639C25.1814 19.9226 25.4119 19.3661 25.8766 19.0653C27.691 17.891 28.5 16.8438 28.5 16.0007C28.5 15.1575 27.691 14.1103 25.8766 12.936C25.4119 12.6352 25.1814 12.0787 25.2973 11.5374C25.7499 9.42405 25.5815 8.11157 24.9853 7.51537C24.3891 6.91917 23.0766 6.75073 20.9632 7.20334C20.422 7.31925 19.8654 7.08871 19.5646 6.62404C18.3903 4.80961 17.3431 4.00065 16.5 4.00065C15.6568 4.00065 14.6097 4.80961 13.4353 6.62404C13.1346 7.08871 12.578 7.31925 12.0368 7.20334C9.92338 6.75073 8.6109 6.91917 8.0147 7.51537C7.4185 8.11157 7.25006 9.42405 7.70267 11.5374C7.81858 12.0787 7.58804 12.6352 7.12336 12.936C5.30894 14.1103 4.49998 15.1575 4.49998 16.0007C4.49998 16.8438 5.30894 17.891 7.12336 19.0653C7.58804 19.3661 7.81858 19.9226 7.70267 20.4639C7.25006 22.5773 7.4185 23.8897 8.0147 24.4859C8.6109 25.0821 9.92338 25.2506 12.0368 24.798ZM20.8905 11.0578L15.1666 16.7817L12.1095 13.7245L10.2238 15.6101L15.1666 20.5529L22.7761 12.9435L20.8905 11.0578Z" fill="#0DB960"/>
</svg>
