<svg width="33" height="32" viewBox="0 0 33 32" fill="none" xmlns="http://www.w3.org/2000/svg">
<path fill-rule="evenodd" clip-rule="evenodd" d="M28.8 5.33268V18.666C28.8 20.1388 27.6061 21.3327 26.1333 21.3327H18.1333V23.2444L24.1527 26.856L22.7807 29.1427L18.1333 26.3543V29.3327H15.4667V26.3543L10.8193 29.1427L9.44735 26.856L15.4667 23.2444V21.3327H7.46667C5.99392 21.3327 4.80001 20.1388 4.80001 18.666V5.33268H3.46667V2.66602H30.1333V5.33268H28.8ZM7.46667 5.33268V18.666H26.1333V5.33268H7.46667ZM11.4667 15.9993H14.1333V10.666H11.4667V15.9993ZM18.1333 15.9993H15.4667V7.99935H18.1333V15.9993ZM19.4667 15.9993H22.1333V11.9993H19.4667V15.9993Z" fill="#0DB960"/>
</svg>
