<svg width="16" height="17" viewBox="0 0 16 17" fill="none" xmlns="http://www.w3.org/2000/svg">
<g id="24 / notifications / question-circle" opacity="0.5">
<path id="icon" fill-rule="evenodd" clip-rule="evenodd" d="M0.667969 8.50008C0.667969 12.5502 3.95121 15.8334 8.0013 15.8334C12.0514 15.8334 15.3346 12.5502 15.3346 8.50008C15.3346 4.44999 12.0514 1.16675 8.0013 1.16675C3.95121 1.16675 0.667969 4.44999 0.667969 8.50008ZM14.0013 8.50008C14.0013 11.8138 11.315 14.5001 8.0013 14.5001C4.68759 14.5001 2.0013 11.8138 2.0013 8.50008C2.0013 5.18637 4.68759 2.50008 8.0013 2.50008C11.315 2.50008 14.0013 5.18637 14.0013 8.50008ZM8.00152 11.8323C8.36983 11.8323 8.66841 11.5338 8.66841 11.1656C8.66841 10.7975 8.36983 10.499 8.00152 10.499C7.63321 10.499 7.33464 10.7975 7.33464 11.1656C7.33464 11.5338 7.63321 11.8323 8.00152 11.8323ZM7.33464 9.83342H8.66797C8.66797 9.30118 8.75158 9.20363 9.29944 8.9297C10.2516 8.45363 10.668 7.96785 10.668 6.83341C10.668 5.3805 9.5242 4.50008 8.0013 4.50008C6.52854 4.50008 5.33464 5.69399 5.33464 7.16675H6.66797C6.66797 6.43037 7.26492 5.83341 8.0013 5.83341C8.85274 5.83341 9.33464 6.20435 9.33464 6.83341C9.33464 7.36565 9.25102 7.4632 8.70316 7.73713C7.75102 8.2132 7.33464 8.69898 7.33464 9.83342Z" fill="#0DB960"/>
</g>
</svg>
