<svg width="16" height="16" viewBox="0 0 16 16" fill="none" xmlns="http://www.w3.org/2000/svg">
<g id="24 / basic / search">
<path id="icon" fill-rule="evenodd" clip-rule="evenodd" d="M6.66634 11.9999C3.72082 11.9999 1.33301 9.6121 1.33301 6.66659C1.33301 3.72107 3.72082 1.33325 6.66634 1.33325C9.61186 1.33325 11.9997 3.72107 11.9997 6.66659C11.9997 7.89906 11.5816 9.03389 10.8796 9.93701L14.4711 13.5285L13.5283 14.4713L9.93677 10.8798C9.03365 11.5819 7.89882 11.9999 6.66634 11.9999ZM10.6663 6.66659C10.6663 8.87572 8.87548 10.6666 6.66634 10.6666C4.4572 10.6666 2.66634 8.87572 2.66634 6.66659C2.66634 4.45745 4.4572 2.66659 6.66634 2.66659C8.87548 2.66659 10.6663 4.45745 10.6663 6.66659Z" fill="#1F213A"/>
</g>
</svg>
