<svg width="16" height="16" viewBox="0 0 16 16" fill="none" xmlns="http://www.w3.org/2000/svg">
<path fill-rule="evenodd" clip-rule="evenodd" d="M9.33301 4.00016C9.33301 4.19178 9.35322 4.37867 9.39162 4.55883L6.01097 6.24916C5.5221 5.68809 4.80229 5.3335 3.99967 5.3335C2.52691 5.3335 1.33301 6.5274 1.33301 8.00016C1.33301 9.47292 2.52691 10.6668 3.99967 10.6668C4.80229 10.6668 5.5221 10.3122 6.01097 9.75117L9.39162 11.4415C9.35322 11.6217 9.33301 11.8085 9.33301 12.0002C9.33301 13.4729 10.5269 14.6668 11.9997 14.6668C13.4724 14.6668 14.6663 13.4729 14.6663 12.0002C14.6663 10.5274 13.4724 9.33349 11.9997 9.33349C11.1971 9.33349 10.4773 9.68809 9.98838 10.2492L6.60773 8.55883C6.64613 8.37867 6.66634 8.19178 6.66634 8.00016C6.66634 7.80855 6.64613 7.62165 6.60773 7.44149L9.98838 5.75117C10.4773 6.31224 11.1971 6.66683 11.9997 6.66683C13.4724 6.66683 14.6663 5.47292 14.6663 4.00016C14.6663 2.5274 13.4724 1.3335 11.9997 1.3335C10.5269 1.3335 9.33301 2.5274 9.33301 4.00016ZM5.33301 8.00016C5.33301 8.73654 4.73605 9.33349 3.99967 9.33349C3.26329 9.33349 2.66634 8.73654 2.66634 8.00016C2.66634 7.26378 3.26329 6.66683 3.99967 6.66683C4.73605 6.66683 5.33301 7.26378 5.33301 8.00016ZM11.9997 5.3335C12.7361 5.3335 13.333 4.73654 13.333 4.00016C13.333 3.26378 12.7361 2.66683 11.9997 2.66683C11.2633 2.66683 10.6663 3.26378 10.6663 4.00016C10.6663 4.73654 11.2633 5.3335 11.9997 5.3335ZM13.333 12.0002C13.333 12.7365 12.7361 13.3335 11.9997 13.3335C11.2633 13.3335 10.6663 12.7365 10.6663 12.0002C10.6663 11.2638 11.2633 10.6668 11.9997 10.6668C12.7361 10.6668 13.333 11.2638 13.333 12.0002Z" fill="#0DB960"/>
</svg>
