<svg width="17" height="17" viewBox="0 0 17 17" fill="none" xmlns="http://www.w3.org/2000/svg">
<path fill-rule="evenodd" clip-rule="evenodd" d="M15.1663 3.16659H14.4997V9.83325C14.4997 10.5696 13.9027 11.1666 13.1663 11.1666H9.16634V12.1225L12.176 13.9283L11.49 15.0716L9.16634 13.6774V15.1666H7.83301V13.6774L5.50934 15.0716L4.82334 13.9283L7.83301 12.1225V11.1666H3.83301C3.09663 11.1666 2.49967 10.5696 2.49967 9.83325V3.16659H1.83301V1.83325H15.1663V3.16659ZM3.83301 3.16659V9.83325H13.1663V3.16659H3.83301ZM5.83301 8.49992H7.16634V5.83325H5.83301V8.49992ZM9.16634 8.49992H7.83301V4.49992H9.16634V8.49992ZM9.83301 8.49992H11.1663V6.49992H9.83301V8.49992Z" fill="#0DB960"/>
</svg>
