<svg width="16" height="16" viewBox="0 0 16 16" fill="none" xmlns="http://www.w3.org/2000/svg">
<path fill-rule="evenodd" clip-rule="evenodd" d="M8.00002 2.6665C9.81838 2.6665 11.5571 3.62025 13.1775 5.18727C13.7304 5.72187 14.2305 6.29261 14.6707 6.86359C14.9364 7.20813 15.125 7.47917 15.2283 7.64064L15.458 7.99984L15.2283 8.35903C15.125 8.52051 14.9364 8.79154 14.6707 9.13609C14.2305 9.70706 13.7304 10.2778 13.1775 10.8124C11.5571 12.3794 9.81838 13.3332 8.00002 13.3332C6.18165 13.3332 4.4429 12.3794 2.82249 10.8124C2.26968 10.2778 1.76955 9.70706 1.32929 9.13609C1.06362 8.79154 0.874998 8.52051 0.771725 8.35903L0.541992 7.99984L0.771725 7.64064C0.874998 7.47917 1.06362 7.20813 1.32929 6.86359C1.76955 6.29261 2.26968 5.72187 2.82249 5.18727C4.4429 3.62025 6.18165 2.6665 8.00002 2.6665ZM13.6149 7.67775C13.2118 7.15498 12.7535 6.63197 12.2507 6.14574C10.855 4.79609 9.4034 3.99984 8.00002 3.99984C6.59663 3.99984 5.14501 4.79609 3.74938 6.14574C3.24657 6.63197 2.78827 7.15498 2.38518 7.67775C2.29812 7.79066 2.21767 7.89839 2.14413 7.99984C2.21767 8.10129 2.29812 8.20901 2.38518 8.32192C2.78827 8.84469 3.24657 9.3677 3.74938 9.85394C5.14501 11.2036 6.59663 11.9998 8.00002 11.9998C9.4034 11.9998 10.855 11.2036 12.2507 9.85394C12.7535 9.3677 13.2118 8.84469 13.6149 8.32192C13.7019 8.20901 13.7824 8.10129 13.8559 7.99984C13.7824 7.89839 13.7019 7.79066 13.6149 7.67775ZM5.33335 7.99984C5.33335 9.4726 6.52726 10.6665 8.00002 10.6665C9.47277 10.6665 10.6667 9.4726 10.6667 7.99984C10.6667 6.52708 9.47277 5.33317 8.00002 5.33317C6.52726 5.33317 5.33335 6.52708 5.33335 7.99984ZM9.33335 7.99984C9.33335 8.73622 8.73639 9.33317 8.00001 9.33317C7.26363 9.33317 6.66668 8.73622 6.66668 7.99984C6.66668 7.26346 7.26363 6.6665 8.00001 6.6665C8.73639 6.6665 9.33335 7.26346 9.33335 7.99984Z" fill="#0DB960"/>
</svg>
