<svg width="16" height="16" viewBox="0 0 16 16" fill="none" xmlns="http://www.w3.org/2000/svg">
<g id="24 / basic / circle-checked">
<path id="icon" fill-rule="evenodd" clip-rule="evenodd" d="M8.0013 15.3334C3.95121 15.3334 0.667969 12.0502 0.667969 8.00008C0.667969 3.94999 3.95121 0.666748 8.0013 0.666748C12.0514 0.666748 15.3346 3.94999 15.3346 8.00008C15.3346 12.0502 12.0514 15.3334 8.0013 15.3334ZM8.0013 14.0001C11.315 14.0001 14.0013 11.3138 14.0013 8.00008C14.0013 4.68637 11.315 2.00008 8.0013 2.00008C4.68759 2.00008 2.0013 4.68637 2.0013 8.00008C2.0013 11.3138 4.68759 14.0001 8.0013 14.0001ZM10.1966 5.52868L6.66797 9.05727L5.13937 7.52868L4.19656 8.47149L6.66797 10.9429L11.1394 6.47149L10.1966 5.52868Z" fill="#0DB960"/>
</g>
</svg>
