<svg width="35" height="25" viewBox="0 0 35 25" fill="none" xmlns="http://www.w3.org/2000/svg">
<path d="M22.2249 0.998047C15.3809 0.998047 9.95898 6.38633 9.95898 12.9914C9.95898 19.5963 15.4697 24.9847 22.2249 24.9847C28.9801 24.9847 34.4908 19.5963 34.4908 12.9914C34.5797 6.38633 28.9801 0.998047 22.2249 0.998047ZM22.2249 17.4236C19.7362 17.4236 17.603 15.4248 17.603 12.9914C17.603 10.5579 19.6473 8.55903 22.2249 8.55903C24.8025 8.55903 26.8469 10.5579 26.8469 12.9914C26.758 15.4248 24.8025 17.4236 22.2249 17.4236Z" fill="#8B3FFD"/>
<path d="M9.95889 4.56104V22.0295H5.60355L0.00390625 4.56104H9.95889Z" fill="#8B3FFD"/>
</svg>
