<svg width="24" height="25" viewBox="0 0 24 25" fill="none" xmlns="http://www.w3.org/2000/svg">
<path d="M18.8918 16.0804C19.2902 16.2512 19.461 16.8203 19.461 17.1049C19.5179 17.5602 19.4041 17.7879 19.2333 17.7879C19.0626 17.7879 18.8349 17.6171 18.6073 17.2187C18.3796 16.8203 18.2658 16.4219 18.3796 16.1943C18.5504 16.0804 18.7211 16.0235 18.8918 16.0804Z" fill="#F28A1A"/>
<path d="M16.5587 17.8447C16.7864 17.8447 17.0709 17.9586 17.3555 18.1862C17.8108 18.5846 17.9816 19.0399 17.7539 19.3814C17.6401 19.5521 17.3555 19.666 17.1278 19.666C16.8433 19.666 16.5587 19.5521 16.388 19.3814C15.9326 18.983 15.8188 18.4139 16.1034 18.0724C16.1603 17.9586 16.331 17.8447 16.5587 17.8447Z" fill="#F28A1A"/>
<path d="M11.152 22.3408C5.23293 22.3408 0.452148 17.56 0.452148 11.6979C0.452148 5.83574 5.23293 0.998047 11.152 0.998047C17.0711 0.998047 21.8518 5.77883 21.8518 11.6979C21.8518 13.6899 21.2827 15.5681 20.3721 17.1616C20.3152 17.2186 20.2583 17.2186 20.2583 17.1047C19.8599 14.4867 18.2663 13.0638 15.9897 12.6085C15.762 12.5516 15.762 12.4378 16.0466 12.4378C16.7865 12.3809 17.754 12.3809 18.3232 12.4947C18.3801 12.2101 18.3801 11.9256 18.3801 11.6979C18.3801 7.82774 15.1929 4.64055 11.3227 4.64055C7.45258 4.64055 4.26539 7.82774 4.26539 11.6979C4.26539 15.5681 7.45258 18.7552 11.3227 18.7552H11.6642C11.5504 18.1292 11.4935 17.5031 11.5504 16.8202C11.5504 16.3649 11.6642 16.3079 11.835 16.6494C12.8025 18.3568 14.2254 19.8366 16.9572 20.4627C19.1769 20.9749 21.3965 21.544 23.8438 24.5605C24.0715 24.8451 23.73 25.1296 23.5024 24.902C21.055 22.7392 18.8354 21.9993 16.7865 21.9993C14.2254 22.0563 12.6887 22.3408 11.152 22.3408Z" fill="#F28A1A"/>
</svg>
