<svg width="166" height="165" viewBox="0 0 166 165" fill="none" xmlns="http://www.w3.org/2000/svg">
<path fill-rule="evenodd" clip-rule="evenodd" d="M41.3104 0.418238C38.9069 1.09668 37.4091 1.92796 35.5031 3.64147C31.266 7.45091 28.491 14.3904 27.831 22.827L27.6059 25.7049L17.4084 25.8023C7.83348 25.8935 7.12119 25.9409 5.74335 26.5784C3.59808 27.5709 2.0358 29.0855 1.01653 31.1611L0.11689 32.9933L0.0233793 47.3253C-0.0449805 57.7966 0.0324079 61.9046 0.310684 62.5763C0.83499 63.8423 2.15092 64.4323 4.44967 64.4323H6.39631L6.48112 111.107L6.56592 157.782L7.24501 159.25C8.23751 161.395 9.75207 162.957 11.8277 163.976L13.6599 164.876L81.04 164.96C154.324 165.051 150.072 165.146 153.12 163.347C154.79 162.361 156.947 160.216 157.742 158.749L158.441 157.46L158.525 110.946L158.611 64.4323H160.557C162.856 64.4323 164.172 63.8423 164.696 62.5763C164.974 61.9046 165.052 57.7966 164.983 47.3253L164.89 32.9933L163.99 31.1611C162.971 29.0855 161.409 27.5709 159.263 26.5784C157.955 25.9729 157.092 25.8881 151.313 25.7955L144.831 25.6917L144.641 22.2485C144.211 14.4407 140.823 6.43229 136.525 3.06428C132.104 -0.399823 125.951 -0.975399 120.714 1.58551C119.65 2.10563 114.471 5.86864 109.204 9.94766L99.6294 17.3637L97.6211 16.0659C91.2995 11.9797 80.4938 11.835 74.3153 15.7531C73.4859 16.2793 72.6559 16.7095 72.4709 16.7095C72.2854 16.7095 68.3496 13.7713 63.724 10.1798C54.2878 2.85339 52.8087 1.83122 50.2675 0.879989C47.9104 -0.00223932 43.5901 -0.225053 41.3104 0.418238ZM49.1531 7.40319C49.9479 7.82173 54.5764 11.2507 59.4386 15.0224L68.2787 21.8803L67.6592 23.2449C67.3184 23.9956 67.0366 24.8633 67.0327 25.1738C67.0263 25.6888 66.5477 25.7381 61.5591 25.7381C55.6082 25.7381 54.6973 25.9364 53.9421 27.3971C53.3604 28.5218 53.3604 29.4034 53.9421 30.5281C54.6973 31.9888 55.6082 32.1872 61.5591 32.1872H67.0256V32.9282C67.0256 33.5563 65.7593 34.4108 58.7225 38.5314C48.3573 44.6006 47.9603 44.7986 45.767 44.9956C43.1819 45.2278 41.4207 44.6451 39.6217 42.9625C34.6034 38.2683 32.7413 26.4549 35.4424 16.4486C36.8612 11.1933 39.4308 7.77014 42.7656 6.69283C44.2818 6.20302 47.5698 6.56868 49.1531 7.40319ZM129.98 6.77441C133.055 7.69565 135.866 11.6528 137.381 17.1931C137.987 19.4084 138.09 20.6382 138.107 25.8993C138.129 32.9049 137.793 34.7423 135.684 39.167C133.3 44.1675 129.631 46.0397 124.966 44.6357C123.074 44.0663 104.432 33.1316 104.431 32.5902C104.43 32.2836 105.744 32.1872 109.928 32.1872C115.927 32.1872 116.884 31.9666 117.588 30.4227C118.095 29.3109 118.074 28.4812 117.513 27.3971C116.761 25.9413 115.841 25.7384 109.977 25.7339L104.591 25.7294L104.078 24.1065L103.565 22.4836L113 15.1627C118.905 10.5813 123.079 7.57441 124.154 7.12652C126.081 6.32427 128.075 6.20367 129.98 6.77441ZM89.2877 19.6141C96.3333 20.95 100.129 26.7519 97.6692 32.4264C95.6525 37.0791 88.9962 39.6061 82.1679 38.3112C75.0901 36.9691 71.3071 31.1882 73.7836 25.4989C75.8069 20.8494 82.4691 18.3208 89.2877 19.6141ZM28.1444 32.5902C28.2079 32.8121 28.551 34.2267 28.907 35.7341C29.8411 39.688 30.754 41.8942 32.5955 44.6473C34.4532 47.4249 36.9934 49.5912 39.6172 50.6356C41.0602 51.2099 42.0514 51.3424 44.9377 51.3463C49.0609 51.3521 50.5135 50.871 55.6837 47.7874C57.3376 46.801 58.7383 46.0432 58.797 46.1039C58.8553 46.1645 56.9448 48.8618 54.5509 52.0986L50.1991 57.9833H28.3017H6.4047L6.41598 46.2944C6.42824 33.7988 6.46177 33.5186 8.05243 32.6373C9.14102 32.0337 27.9728 31.9898 28.1444 32.5902ZM156.837 32.5725C158.551 33.3531 158.602 33.7498 158.602 46.3589V57.9833H140.087H121.572L117.061 51.7761C114.58 48.362 112.598 45.5202 112.656 45.4606C112.714 45.4009 114.478 46.3602 116.576 47.592C121.129 50.2654 123.52 51.2008 126.42 51.444C134.801 52.1466 141.155 46.3725 143.724 35.7187L144.575 32.1881L150.284 32.1878C154.023 32.1875 156.283 32.32 156.837 32.5725ZM113.016 57.1778C119.91 66.6663 125.592 74.5538 125.643 74.706C125.694 74.8578 123.662 74.4216 121.129 73.7364C118.418 73.0031 116.174 72.5642 115.676 72.67C114.096 73.005 113.493 74.1072 112.141 79.1261C111.432 81.7593 110.802 83.9645 110.739 84.0264C110.536 84.2299 90.887 45.4312 90.887 44.826C90.887 44.6809 91.5942 44.381 92.4583 44.1595C94.612 43.6074 97.5902 42.1306 98.9483 40.9408C99.5691 40.3971 100.168 39.9463 100.279 39.9392C100.391 39.9318 106.122 47.6893 113.016 57.1778ZM73.6181 41.6992C74.8535 42.5275 76.8072 43.4614 78.1721 43.8757C79.4868 44.2749 80.5637 44.7115 80.5657 44.8456C80.5728 45.4264 60.9161 84.2267 60.7162 84.0264C60.654 83.9645 60.0233 81.7593 59.3145 79.1261C57.9634 74.1081 57.3604 73.007 55.7798 72.6684C55.2758 72.5604 53.1086 72.9905 50.4194 73.7328C47.9365 74.418 45.8618 74.9446 45.8093 74.9033C45.7261 74.8379 71.2739 40.2485 71.4052 40.2485C71.4322 40.2485 72.428 40.9014 73.6181 41.6992ZM89.0368 55.8896L92.1768 62.1794V110.384V158.588H85.7278H79.2788V110.384V62.1794L82.4188 55.8896C84.1459 52.43 85.6349 49.5996 85.7278 49.5996C85.8207 49.5996 87.3098 52.43 89.0368 55.8896ZM39.8603 71.9087C34.9875 78.4741 34.3113 79.5328 34.3113 80.5968C34.3113 82.0263 35.3499 83.3183 36.7448 83.6247C37.3652 83.7611 40.0635 83.1816 45.1034 81.8296C49.1969 80.7316 52.6336 79.921 52.741 80.0284C52.8484 80.1354 53.7796 83.3812 54.8108 87.2413C55.842 91.101 56.8294 94.5787 57.0048 94.9692C57.7925 96.7211 60.7449 97.1003 62.1047 95.6247C62.4697 95.2284 65.0245 90.4058 67.7818 84.908L72.7949 74.912L72.8123 116.75L72.8297 158.588H44.1467C22.5953 158.588 15.2534 158.492 14.6182 158.203C12.7551 157.354 12.8537 160.033 12.8537 110.237V64.4323H29.1317H45.4094L39.8603 71.9087ZM152.153 110.16V155.888L151.266 156.737C149.266 158.653 150.243 158.588 123.304 158.588H98.6259L98.6433 116.75L98.6607 74.912L103.674 84.908C106.431 90.4058 108.986 95.2284 109.351 95.6247C110.711 97.1003 113.663 96.7211 114.451 94.9692C114.626 94.5787 115.614 91.101 116.645 87.2413C117.676 83.3812 118.607 80.1354 118.715 80.0284C118.822 79.921 122.259 80.7316 126.352 81.8296C131.392 83.1816 134.09 83.7611 134.711 83.6247C136.087 83.3225 137.074 82.093 137.112 80.6326C137.141 79.5163 136.617 78.6602 132.02 72.3134C129.202 68.422 126.757 65.0573 126.587 64.8354C126.341 64.5146 128.915 64.4323 139.215 64.4323H152.153V110.16ZM20.9505 111.96C18.1552 113.51 19.3247 117.959 22.5273 117.959C24.1611 117.959 25.7518 116.384 25.7518 114.766C25.7518 112.345 23.0764 110.782 20.9505 111.96ZM20.9505 124.859C19.3637 125.738 19.3263 126.042 19.3141 138.209C19.3018 150.56 19.3553 150.974 21.0672 151.754C22.7217 152.508 24.5249 151.964 25.2923 150.48C25.9063 149.293 25.973 127.504 25.3665 126.173C24.6606 124.623 22.5228 123.987 20.9505 124.859Z" fill="#0DB960"/>
<path fill-rule="evenodd" clip-rule="evenodd" d="M41.3104 0.418238C38.9069 1.09668 37.4091 1.92796 35.5031 3.64147C31.266 7.45091 28.491 14.3904 27.831 22.827L27.6059 25.7049L17.4084 25.8023C7.83348 25.8935 7.12119 25.9409 5.74335 26.5784C3.59808 27.5709 2.0358 29.0855 1.01653 31.1611L0.11689 32.9933L0.0233793 47.3253C-0.0449805 57.7966 0.0324079 61.9046 0.310684 62.5763C0.83499 63.8423 2.15092 64.4323 4.44967 64.4323H6.39631L6.48112 111.107L6.56592 157.782L7.24501 159.25C8.23751 161.395 9.75207 162.957 11.8277 163.976L13.6599 164.876L81.04 164.96C154.324 165.051 150.072 165.146 153.12 163.347C154.79 162.361 156.947 160.216 157.742 158.749L158.441 157.46L158.525 110.946L158.611 64.4323H160.557C162.856 64.4323 164.172 63.8423 164.696 62.5763C164.974 61.9046 165.052 57.7966 164.983 47.3253L164.89 32.9933L163.99 31.1611C162.971 29.0855 161.409 27.5709 159.263 26.5784C157.955 25.9729 157.092 25.8881 151.313 25.7955L144.831 25.6917L144.641 22.2485C144.211 14.4407 140.823 6.43229 136.525 3.06428C132.104 -0.399823 125.951 -0.975399 120.714 1.58551C119.65 2.10563 114.471 5.86864 109.204 9.94766L99.6294 17.3637L97.6211 16.0659C91.2995 11.9797 80.4938 11.835 74.3153 15.7531C73.4859 16.2793 72.6559 16.7095 72.4709 16.7095C72.2854 16.7095 68.3496 13.7713 63.724 10.1798C54.2878 2.85339 52.8087 1.83122 50.2675 0.879989C47.9104 -0.00223932 43.5901 -0.225053 41.3104 0.418238ZM49.1531 7.40319C49.9479 7.82173 54.5764 11.2507 59.4386 15.0224L68.2787 21.8803L67.6592 23.2449C67.3184 23.9956 67.0366 24.8633 67.0327 25.1738C67.0263 25.6888 66.5477 25.7381 61.5591 25.7381C55.6082 25.7381 54.6973 25.9364 53.9421 27.3971C53.3604 28.5218 53.3604 29.4034 53.9421 30.5281C54.6973 31.9888 55.6082 32.1872 61.5591 32.1872H67.0256V32.9282C67.0256 33.5563 65.7593 34.4108 58.7225 38.5314C48.3573 44.6006 47.9603 44.7986 45.767 44.9956C43.1819 45.2278 41.4207 44.6451 39.6217 42.9625C34.6034 38.2683 32.7413 26.4549 35.4424 16.4486C36.8612 11.1933 39.4308 7.77014 42.7656 6.69283C44.2818 6.20302 47.5698 6.56868 49.1531 7.40319ZM129.98 6.77441C133.055 7.69565 135.866 11.6528 137.381 17.1931C137.987 19.4084 138.09 20.6382 138.107 25.8993C138.129 32.9049 137.793 34.7423 135.684 39.167C133.3 44.1675 129.631 46.0397 124.966 44.6357C123.074 44.0663 104.432 33.1316 104.431 32.5902C104.43 32.2836 105.744 32.1872 109.928 32.1872C115.927 32.1872 116.884 31.9666 117.588 30.4227C118.095 29.3109 118.074 28.4812 117.513 27.3971C116.761 25.9413 115.841 25.7384 109.977 25.7339L104.591 25.7294L104.078 24.1065L103.565 22.4836L113 15.1627C118.905 10.5813 123.079 7.57441 124.154 7.12652C126.081 6.32427 128.075 6.20367 129.98 6.77441ZM89.2877 19.6141C96.3333 20.95 100.129 26.7519 97.6692 32.4264C95.6525 37.0791 88.9962 39.6061 82.1679 38.3112C75.0901 36.9691 71.3071 31.1882 73.7836 25.4989C75.8069 20.8494 82.4691 18.3208 89.2877 19.6141ZM28.1444 32.5902C28.2079 32.8121 28.551 34.2267 28.907 35.7341C29.8411 39.688 30.754 41.8942 32.5955 44.6473C34.4532 47.4249 36.9934 49.5912 39.6172 50.6356C41.0602 51.2099 42.0514 51.3424 44.9377 51.3463C49.0609 51.3521 50.5135 50.871 55.6837 47.7874C57.3376 46.801 58.7383 46.0432 58.797 46.1039C58.8553 46.1645 56.9448 48.8618 54.5509 52.0986L50.1991 57.9833H28.3017H6.4047L6.41598 46.2944C6.42824 33.7988 6.46177 33.5186 8.05243 32.6373C9.14102 32.0337 27.9728 31.9898 28.1444 32.5902ZM156.837 32.5725C158.551 33.3531 158.602 33.7498 158.602 46.3589V57.9833H140.087H121.572L117.061 51.7761C114.58 48.362 112.598 45.5202 112.656 45.4606C112.714 45.4009 114.478 46.3602 116.576 47.592C121.129 50.2654 123.52 51.2008 126.42 51.444C134.801 52.1466 141.155 46.3725 143.724 35.7187L144.575 32.1881L150.284 32.1878C154.023 32.1875 156.283 32.32 156.837 32.5725ZM113.016 57.1778C119.91 66.6663 125.592 74.5538 125.643 74.706C125.694 74.8578 123.662 74.4216 121.129 73.7364C118.418 73.0031 116.174 72.5642 115.676 72.67C114.096 73.005 113.493 74.1072 112.141 79.1261C111.432 81.7593 110.802 83.9645 110.739 84.0264C110.536 84.2299 90.887 45.4312 90.887 44.826C90.887 44.6809 91.5942 44.381 92.4583 44.1595C94.612 43.6074 97.5902 42.1306 98.9483 40.9408C99.5691 40.3971 100.168 39.9463 100.279 39.9392C100.391 39.9318 106.122 47.6893 113.016 57.1778ZM73.6181 41.6992C74.8535 42.5275 76.8072 43.4614 78.1721 43.8757C79.4868 44.2749 80.5637 44.7115 80.5657 44.8456C80.5728 45.4264 60.9161 84.2267 60.7162 84.0264C60.654 83.9645 60.0233 81.7593 59.3145 79.1261C57.9634 74.1081 57.3604 73.007 55.7798 72.6684C55.2758 72.5604 53.1086 72.9905 50.4194 73.7328C47.9365 74.418 45.8618 74.9446 45.8093 74.9033C45.7261 74.8379 71.2739 40.2485 71.4052 40.2485C71.4322 40.2485 72.428 40.9014 73.6181 41.6992ZM89.0368 55.8896L92.1768 62.1794V110.384V158.588H85.7278H79.2788V110.384V62.1794L82.4188 55.8896C84.1459 52.43 85.6349 49.5996 85.7278 49.5996C85.8207 49.5996 87.3098 52.43 89.0368 55.8896ZM39.8603 71.9087C34.9875 78.4741 34.3113 79.5328 34.3113 80.5968C34.3113 82.0263 35.3499 83.3183 36.7448 83.6247C37.3652 83.7611 40.0635 83.1816 45.1034 81.8296C49.1969 80.7316 52.6336 79.921 52.741 80.0284C52.8484 80.1354 53.7796 83.3812 54.8108 87.2413C55.842 91.101 56.8294 94.5787 57.0048 94.9692C57.7925 96.7211 60.7449 97.1003 62.1047 95.6247C62.4697 95.2284 65.0245 90.4058 67.7818 84.908L72.7949 74.912L72.8123 116.75L72.8297 158.588H44.1467C22.5953 158.588 15.2534 158.492 14.6182 158.203C12.7551 157.354 12.8537 160.033 12.8537 110.237V64.4323H29.1317H45.4094L39.8603 71.9087ZM152.153 110.16V155.888L151.266 156.737C149.266 158.653 150.243 158.588 123.304 158.588H98.6259L98.6433 116.75L98.6607 74.912L103.674 84.908C106.431 90.4058 108.986 95.2284 109.351 95.6247C110.711 97.1003 113.663 96.7211 114.451 94.9692C114.626 94.5787 115.614 91.101 116.645 87.2413C117.676 83.3812 118.607 80.1354 118.715 80.0284C118.822 79.921 122.259 80.7316 126.352 81.8296C131.392 83.1816 134.09 83.7611 134.711 83.6247C136.087 83.3225 137.074 82.093 137.112 80.6326C137.141 79.5163 136.617 78.6602 132.02 72.3134C129.202 68.422 126.757 65.0573 126.587 64.8354C126.341 64.5146 128.915 64.4323 139.215 64.4323H152.153V110.16ZM20.9505 111.96C18.1552 113.51 19.3247 117.959 22.5273 117.959C24.1611 117.959 25.7518 116.384 25.7518 114.766C25.7518 112.345 23.0764 110.782 20.9505 111.96ZM20.9505 124.859C19.3637 125.738 19.3263 126.042 19.3141 138.209C19.3018 150.56 19.3553 150.974 21.0672 151.754C22.7217 152.508 24.5249 151.964 25.2923 150.48C25.9063 149.293 25.973 127.504 25.3665 126.173C24.6606 124.623 22.5228 123.987 20.9505 124.859Z" fill="url(#paint0_radial_330:4158)" fill-opacity="0.38"/>
<defs>
<radialGradient id="paint0_radial_330:4158" cx="0" cy="0" r="1" gradientUnits="userSpaceOnUse" gradientTransform="translate(5.12114 94.8373) rotate(15.6004) scale(160.648 160.642)">
<stop stop-color="#D2FFAE"/>
<stop offset="1" stop-color="#D2FFAE" stop-opacity="0"/>
</radialGradient>
</defs>
</svg>
