<svg width="25" height="25" viewBox="0 0 25 25" fill="none" xmlns="http://www.w3.org/2000/svg">
<g id="24 / basic / circle-checked">
<path id="icon" fill-rule="evenodd" clip-rule="evenodd" d="M12.8672 23.6913C6.79206 23.6913 1.86719 18.7664 1.86719 12.6913C1.86719 6.61615 6.79206 1.69128 12.8672 1.69128C18.9423 1.69128 23.8672 6.61615 23.8672 12.6913C23.8672 18.7664 18.9423 23.6913 12.8672 23.6913ZM12.8672 21.6913C17.8378 21.6913 21.8672 17.6618 21.8672 12.6913C21.8672 7.72072 17.8378 3.69128 12.8672 3.69128C7.89662 3.69128 3.86719 7.72072 3.86719 12.6913C3.86719 17.6618 7.89662 21.6913 12.8672 21.6913ZM16.1601 8.98418L10.8672 14.2771L8.57429 11.9842L7.16008 13.3984L10.8672 17.1055L17.5743 10.3984L16.1601 8.98418Z" fill="#0DB960"/>
</g>
</svg>
