<svg width="12" height="16" viewBox="0 0 12 16" fill="none" xmlns="http://www.w3.org/2000/svg">
<path fill-rule="evenodd" clip-rule="evenodd" d="M3.99728 1.33341C4.4988 0.908731 5.22609 0.666748 6 0.666748C6.77391 0.666748 7.5012 0.908731 8.00272 1.33341H8.66667C9.40305 1.33341 10 1.93037 10 2.66675L10.6667 2.66675C11.403 2.66675 12 3.2637 12 4.00008V14.0001C12 14.7365 11.403 15.3334 10.6667 15.3334H1.33333C0.596954 15.3334 0 14.7365 0 14.0001V4.00008C0 3.2637 0.596954 2.66675 1.33333 2.66675L2 2.66675C2 1.93037 2.59695 1.33341 3.33333 1.33341H3.99728ZM8.66667 4.66675C9.16019 4.66675 9.59108 4.39862 9.82162 4.00008H10.6667V14.0001H1.33333V4.00008H2.17838C2.40892 4.39862 2.83981 4.66675 3.33333 4.66675H8.66667ZM4.57175 2.66675L4.7711 2.437C4.99013 2.18457 5.45961 2.00008 6 2.00008C6.54039 2.00008 7.00987 2.18457 7.2289 2.437L7.42826 2.66675H8.66667V3.33341H3.33333V2.66675H4.26756H4.57175Z" fill="white"/>
</svg>
