<svg width="26" height="25" viewBox="0 0 26 25" fill="none" xmlns="http://www.w3.org/2000/svg">
<path fill-rule="evenodd" clip-rule="evenodd" d="M20.5734 2.56037L21.6455 3.54065L8.1054 11.3216L1.54977 7.52305L2.16244 6.2977L8.1054 9.69805L20.5734 2.56037ZM17.847 0.998047L19.2867 1.73326L8.1054 8.16636L2.89766 5.19488L3.78604 4.1227L8.1054 6.60403L17.847 0.998047ZM22.5952 4.55157L23.3917 5.62375L8.1054 14.4157L0.722656 10.1882L1.05963 8.8403L8.1054 12.884L22.5952 4.55157Z" fill="#299D37"/>
<path fill-rule="evenodd" clip-rule="evenodd" d="M24.8004 8.50309C25.2495 9.76949 25.4744 11.0965 25.4744 12.4855C25.4744 13.8744 25.2495 15.2223 24.8004 16.5291L24.4941 17.3569C23.8612 18.8475 22.9728 20.1752 21.8289 21.3393C20.6649 22.4825 19.3378 23.3611 17.8465 23.9738C16.2744 24.6477 14.6508 24.9847 12.9758 24.9847C11.2805 24.9847 9.6569 24.6471 8.105 23.9738C6.65479 23.3611 5.33754 22.4825 4.15324 21.3393C2.98915 20.1752 2.10077 18.8475 1.48809 17.3569C0.834369 15.7835 0.507812 14.1599 0.507812 12.4855V11.6584L8.105 15.9777L24.1265 6.7876L24.8004 8.50309Z" fill="#299D37"/>
</svg>
