<svg width="25" height="24" viewBox="0 0 25 24" fill="none" xmlns="http://www.w3.org/2000/svg">
<g opacity="0.4">
<path fill-rule="evenodd" clip-rule="evenodd" d="M14.333 6C14.333 6.28742 14.3633 6.56777 14.4209 6.83801L9.34995 9.3735C8.61664 8.53189 7.53694 8 6.33301 8C4.12387 8 2.33301 9.79086 2.33301 12C2.33301 14.2091 4.12387 16 6.33301 16C7.53694 16 8.61664 15.4681 9.34995 14.6265L14.4209 17.162C14.3633 17.4322 14.333 17.7126 14.333 18C14.333 20.2091 16.1239 22 18.333 22C20.5421 22 22.333 20.2091 22.333 18C22.333 15.7909 20.5421 14 18.333 14C17.1291 14 16.0494 14.5319 15.3161 15.3735L10.2451 12.838C10.3027 12.5678 10.333 12.2874 10.333 12C10.333 11.7126 10.3027 11.4322 10.2451 11.162L15.3161 8.6265C16.0494 9.46811 17.1291 10 18.333 10C20.5421 10 22.333 8.20914 22.333 6C22.333 3.79086 20.5421 2 18.333 2C16.1239 2 14.333 3.79086 14.333 6ZM8.33301 12C8.33301 13.1046 7.43758 14 6.33301 14C5.22844 14 4.33301 13.1046 4.33301 12C4.33301 10.8954 5.22844 10 6.33301 10C7.43758 10 8.33301 10.8954 8.33301 12ZM18.333 8C19.4376 8 20.333 7.10457 20.333 6C20.333 4.89543 19.4376 4 18.333 4C17.2284 4 16.333 4.89543 16.333 6C16.333 7.10457 17.2284 8 18.333 8ZM20.333 18C20.333 19.1046 19.4376 20 18.333 20C17.2284 20 16.333 19.1046 16.333 18C16.333 16.8954 17.2284 16 18.333 16C19.4376 16 20.333 16.8954 20.333 18Z" fill="#0DB960"/>
</g>
</svg>
