<svg width="24" height="25" viewBox="0 0 24 25" fill="none" xmlns="http://www.w3.org/2000/svg">
<path fill-rule="evenodd" clip-rule="evenodd" d="M12 23.5068C5.92487 23.5068 1 18.582 1 12.5068C1 6.4317 5.92487 1.50684 12 1.50684C18.0751 1.50684 23 6.4317 23 12.5068C23 18.582 18.0751 23.5068 12 23.5068ZM12 21.5068C16.9706 21.5068 21 17.4774 21 12.5068C21 7.53627 16.9706 3.50684 12 3.50684C7.02944 3.50684 3 7.53627 3 12.5068C3 17.4774 7.02944 21.5068 12 21.5068ZM15.2929 8.79973L10 14.0926L7.70711 11.7997L6.29289 13.2139L10 16.9211L16.7071 10.2139L15.2929 8.79973Z" fill="#0DB960"/>
</svg>
