<svg width="16" height="16" viewBox="0 0 16 16" fill="none" xmlns="http://www.w3.org/2000/svg">
<g id="24 / security / key">
<path id="icon" fill-rule="evenodd" clip-rule="evenodd" d="M5.33301 6.0009C5.33301 3.42357 7.42235 1.33423 9.99967 1.33423C12.577 1.33423 14.6663 3.42357 14.6663 6.0009C14.6663 8.57822 12.577 10.6676 9.99967 10.6676H8.66634V12.0009H7.33301V13.3342H5.99967V14.6676H1.33301V11.0581L5.43168 6.95942C5.36631 6.64654 5.33301 6.32577 5.33301 6.0009ZM7.33299 9.33423H9.99966C11.8406 9.33423 13.333 7.84184 13.333 6.00089C13.333 4.15994 11.8406 2.66756 9.99966 2.66756C8.15871 2.66756 6.66632 4.15994 6.66632 6.00089C6.66632 6.33331 6.71478 6.65848 6.80904 6.96947L6.92492 7.35178L2.66632 11.6104V13.3342H4.66632V12.0009H5.99966V10.6676H7.33299V9.33423ZM8.66633 6.00089C8.66633 6.73727 9.26328 7.33422 9.99966 7.33422C10.736 7.33422 11.333 6.73727 11.333 6.00089C11.333 5.26451 10.736 4.66756 9.99966 4.66756C9.26328 4.66756 8.66633 5.26451 8.66633 6.00089Z" fill="#1F213A"/>
</g>
</svg>
