<svg width="66" height="20" viewBox="0 0 66 20" fill="none" xmlns="http://www.w3.org/2000/svg">
<path d="M61.4909 0.285645H57.3956C56.1576 0.285645 55.2052 0.666597 54.6337 1.90469L46.8242 19.7142H52.348C52.348 19.7142 53.3004 17.3333 53.4909 16.7618C54.0623 16.7618 59.4909 16.7618 60.2528 16.7618C60.4433 17.4285 60.9195 19.619 60.9195 19.619H65.8718L61.4909 0.285645ZM55.0147 12.7618C55.4909 11.619 57.1099 7.33326 57.1099 7.33326C57.1099 7.4285 57.5861 6.19041 57.7766 5.52374L58.1576 7.23803C58.1576 7.23803 59.2052 11.9047 59.3956 12.8571H55.0147V12.7618Z" fill="#3362AB"/>
<path d="M47.2054 13.3333C47.2054 17.3333 43.5863 20 37.9673 20C35.5863 20 33.3006 19.5238 32.0625 18.9524L32.8244 14.5714L33.4911 14.8571C35.2054 15.619 36.3482 15.9048 38.4434 15.9048C39.9673 15.9048 41.5863 15.3333 41.5863 14C41.5863 13.1429 40.9196 12.5714 38.8244 11.619C36.8244 10.6667 34.1577 9.14286 34.1577 6.38095C34.1577 2.57143 37.872 0 43.1101 0C45.1101 0 46.8244 0.380952 47.872 0.857143L47.1101 5.04762L46.7292 4.66667C45.7768 4.28571 44.5387 3.90476 42.7292 3.90476C40.7292 4 39.7768 4.85714 39.7768 5.61905C39.7768 6.47619 40.9196 7.14286 42.7292 8C45.7768 9.42857 47.2054 11.0476 47.2054 13.3333Z" fill="#3362AB"/>
<path d="M0.729492 0.476167L0.82473 0.0952148H9.01521C10.1581 0.0952148 11.0152 0.476167 11.3009 1.71426L13.1104 10.2857C11.3009 5.71426 7.11044 1.99998 0.729492 0.476167Z" fill="#F9B50B"/>
<path d="M24.6344 0.286156L16.3487 19.6195H10.7297L5.96777 3.42901C9.39634 5.61949 12.2535 9.04806 13.3011 11.429L13.8725 13.429L19.0154 0.190918H24.6344V0.286156Z" fill="#3362AB"/>
<path d="M26.8245 0.190918H32.0626L28.7293 19.6195H23.4912L26.8245 0.190918Z" fill="#3362AB"/>
</svg>
