<svg width="41" height="25" viewBox="0 0 41 25" fill="none" xmlns="http://www.w3.org/2000/svg">
<path d="M40.4515 12.9914C40.4515 19.5723 35.1006 24.9847 28.4582 24.9847C21.8772 24.9847 16.4648 19.5723 16.4648 12.9914C16.4648 6.41042 21.8157 0.998047 28.3967 0.998047C35.1006 0.998047 40.4515 6.41042 40.4515 12.9914Z" fill="#F9B50B"/>
<path d="M24.3997 13.0534C24.3997 12.1923 24.2767 11.3312 24.1537 10.5317H16.7732C16.8347 10.1012 16.9577 9.73213 17.0807 9.2401H23.6617C23.5387 8.80957 23.3542 8.37904 23.1697 7.94851H17.5728C17.7573 7.51798 18.0033 7.14896 18.2493 6.65692H22.4931C22.2471 6.22639 21.9396 5.79586 21.5706 5.36533H19.2334C19.6024 4.9348 19.9714 4.56578 20.4635 4.13525C18.3723 2.16712 15.5431 0.998535 12.4064 0.998535C5.88698 1.18305 0.474609 6.41091 0.474609 12.9919C0.474609 19.5728 5.82548 24.9852 12.4679 24.9852C15.6046 24.9852 18.3723 23.7551 20.525 21.8485C20.9555 21.4794 21.3245 21.0489 21.7551 20.5569H19.2949C18.9874 20.1878 18.6799 19.7573 18.4338 19.3268H22.6161C22.8621 18.9578 23.1082 18.5272 23.2927 18.0352H17.6958C17.5113 17.6662 17.3268 17.2356 17.2038 16.7436H23.7847C24.1537 15.6365 24.3997 14.4065 24.3997 13.0534Z" fill="#C8191C"/>
<path d="M16.7113 16.0661L16.8959 14.959C16.8343 14.959 16.7113 15.0206 16.5883 15.0206C16.1578 15.0206 16.0963 14.7745 16.1578 14.6515L16.5268 12.4374H17.2034L17.3879 11.2073H16.7728L16.8959 10.4692H15.6043C15.6043 10.4692 14.8662 14.6515 14.8662 15.1436C14.8662 15.8816 15.2967 16.2506 15.9118 16.2506C16.2808 16.2506 16.5883 16.1276 16.7113 16.0661Z" fill="white"/>
<path d="M17.1426 14.0371C17.1426 15.8208 18.3727 16.2513 19.3567 16.2513C20.2793 16.2513 20.7098 16.0668 20.7098 16.0668L20.9558 14.8367C20.9558 14.8367 20.2793 15.1442 19.6027 15.1442C18.1881 15.1442 18.4342 14.0986 18.4342 14.0986H21.0173C21.0173 14.0986 21.2019 13.2991 21.2019 12.9301C21.2019 12.1305 20.7713 11.0849 19.3567 11.0849C18.1266 11.0234 17.1426 12.438 17.1426 14.0371ZM19.3567 12.192C20.0333 12.192 19.9103 12.9916 19.9103 13.0531H18.4957C18.5572 12.9916 18.6802 12.192 19.3567 12.192Z" fill="white"/>
<path d="M27.413 16.0669L27.659 14.6523C27.659 14.6523 27.0439 14.9598 26.5519 14.9598C25.6909 14.9598 25.2603 14.2833 25.2603 13.4837C25.2603 11.9461 25.9984 11.1466 26.9209 11.1466C27.536 11.1466 28.0895 11.5156 28.0895 11.5156L28.274 10.1625C28.274 10.1625 27.536 9.85498 26.7979 9.85498C25.3218 9.85498 23.9072 11.1466 23.9072 13.5452C23.9072 15.1443 24.6453 16.1899 26.1829 16.1899C26.7364 16.2514 27.413 16.0669 27.413 16.0669Z" fill="white"/>
<path d="M9.76097 11.0229C8.89991 11.0229 8.22336 11.269 8.22336 11.269L8.03885 12.376C8.03885 12.376 8.59239 12.13 9.45345 12.13C9.88398 12.13 10.253 12.1915 10.253 12.5606C10.253 12.8066 10.1915 12.8681 10.1915 12.8681H9.63796C8.53088 12.8681 7.3623 13.2986 7.3623 14.7747C7.3623 15.9433 8.10036 16.1893 8.59239 16.1893C9.45345 16.1893 9.88398 15.6358 9.94548 15.6358L9.88398 16.1278H10.9295L11.4216 12.6221C11.4216 11.0845 10.1915 11.0229 9.76097 11.0229ZM10.007 13.8521C10.007 14.0367 9.88398 15.0822 9.14593 15.0822C8.7769 15.0822 8.65389 14.7747 8.65389 14.5902C8.65389 14.2827 8.83841 13.8521 9.82247 13.8521C9.94548 13.8521 10.007 13.8521 10.007 13.8521Z" fill="white"/>
<path d="M12.6519 16.1898C12.9594 16.1898 14.5585 16.2513 14.5585 14.5292C14.5585 12.93 13.0209 13.2376 13.0209 12.6225C13.0209 12.315 13.2669 12.192 13.6974 12.192C13.8819 12.192 14.5585 12.2535 14.5585 12.2535L14.743 11.0849C14.743 11.0849 14.3125 10.9619 13.5129 10.9619C12.5904 10.9619 11.6063 11.3309 11.6063 12.6225C11.6063 14.0986 13.2054 13.9756 13.2054 14.5292C13.2054 14.8982 12.7749 14.9597 12.4674 14.9597C11.9138 14.9597 11.2988 14.7752 11.2988 14.7752L11.1143 15.9438C11.2373 16.0668 11.6063 16.1898 12.6519 16.1898Z" fill="white"/>
<path d="M37.992 10.0391L37.746 11.7612C37.746 11.7612 37.254 11.1461 36.5159 11.1461C35.3473 11.1461 34.3633 12.5607 34.3633 14.2213C34.3633 15.2669 34.8553 16.3125 35.9624 16.3125C36.7004 16.3125 37.1925 15.8205 37.1925 15.8205L37.131 16.251H38.4226L39.3451 10.1621L37.992 10.0391ZM37.377 13.3603C37.377 14.0368 37.0695 14.9594 36.3314 14.9594C35.9009 14.9594 35.6549 14.5904 35.6549 13.9138C35.6549 12.8683 36.0854 12.2532 36.7004 12.2532C37.131 12.3147 37.377 12.6222 37.377 13.3603Z" fill="white"/>
<path d="M2.81114 16.128L3.54919 11.5767L3.6722 16.128H4.53326L6.19387 11.5767L5.51732 16.128H6.87042L7.91599 10.0391H5.82485L4.53326 13.7908L4.47175 10.0391H2.62663L1.58105 16.128H2.81114Z" fill="white"/>
<path d="M22.4927 16.1283C22.8617 14.0372 22.9233 12.3151 23.8458 12.6226C23.9688 11.823 24.1533 11.454 24.2763 11.1465H24.0303C23.4768 11.1465 22.9848 11.8845 22.9848 11.8845L23.1078 11.208H21.8777L21.0781 16.1283H22.4927Z" fill="white"/>
<path d="M30.3655 11.0229C29.5044 11.0229 28.8279 11.269 28.8279 11.269L28.6433 12.376C28.6433 12.376 29.1969 12.13 30.0579 12.13C30.4885 12.13 30.8575 12.1915 30.8575 12.5606C30.8575 12.8066 30.796 12.8681 30.796 12.8681H30.2425C29.1354 12.8681 27.9668 13.2986 27.9668 14.7747C27.9668 15.9433 28.7048 16.1893 29.1969 16.1893C30.0579 16.1893 30.4885 15.6358 30.55 15.6358L30.4885 16.1278H31.657L32.1491 12.6221C32.1491 11.0845 30.796 11.0229 30.3655 11.0229ZM30.673 13.8521C30.673 14.0367 30.55 15.0822 29.8119 15.0822C29.4429 15.0822 29.3199 14.7747 29.3199 14.5902C29.3199 14.2827 29.5044 13.8521 30.4885 13.8521C30.6115 13.8521 30.6115 13.8521 30.673 13.8521Z" fill="white"/>
<path d="M33.1333 16.1283C33.5024 14.0372 33.5639 12.3151 34.4864 12.6226C34.6094 11.823 34.794 11.454 34.917 11.1465H34.671C34.1174 11.1465 33.6254 11.8845 33.6254 11.8845L33.7484 11.208H32.5183L31.7188 16.1283H33.1333Z" fill="white"/>
</svg>
