<svg width="32" height="30" viewBox="0 0 32 30" fill="none" xmlns="http://www.w3.org/2000/svg">
<path fill-rule="evenodd" clip-rule="evenodd" d="M25.3819 1.95399L26.7229 3.18003L9.78826 12.9117L1.58915 8.16079L2.35543 6.62825L9.78826 10.8811L25.3819 1.95399ZM21.972 0L23.7727 0.919526L9.78826 8.96538L3.27495 5.24896L4.38605 3.90798L9.78826 7.01138L21.972 0ZM27.9106 4.44438L28.9067 5.78535L9.78826 16.7813L0.554688 11.4941L0.976137 9.80828L9.78826 14.8657L27.9106 4.44438Z" fill="#299D37"/>
<path fill-rule="evenodd" clip-rule="evenodd" d="M30.6698 9.38677C31.2315 10.9707 31.5127 12.6304 31.5127 14.3675C31.5127 16.1047 31.2315 17.7905 30.6698 19.4249L30.2866 20.4602C29.4951 22.3245 28.384 23.985 26.9534 25.4409C25.4974 26.8708 23.8377 27.9696 21.9726 28.7359C20.0063 29.5788 17.9757 30.0002 15.8807 30.0002C13.7605 30.0002 11.7298 29.578 9.78888 28.7359C7.97511 27.9696 6.32763 26.8708 4.84643 25.4409C3.39051 23.985 2.27942 22.3245 1.51314 20.4602C0.695532 18.4924 0.287109 16.4618 0.287109 14.3675V13.3331L9.78888 18.7353L29.8269 7.24121L30.6698 9.38677Z" fill="#299D37"/>
</svg>
