<svg width="54" height="17" viewBox="0 0 54 17" fill="none" xmlns="http://www.w3.org/2000/svg">
<path d="M49.5012 1.22412H46.2269C45.2369 1.22412 44.4754 1.52871 44.0186 2.51864L37.7744 16.7583H42.191C42.191 16.7583 42.9525 14.8546 43.1048 14.3977C43.5617 14.3977 47.9021 14.3977 48.5113 14.3977C48.6636 14.9308 49.0443 16.6822 49.0443 16.6822H53.004L49.5012 1.22412ZM44.3231 11.1995C44.7039 10.2857 45.9984 6.85908 45.9984 6.85908C45.9984 6.93523 46.3791 5.9453 46.5314 5.41227L46.836 6.78293C46.836 6.78293 47.6737 10.5142 47.826 11.2757H44.3231V11.1995Z" fill="#3362AB"/>
<path d="M38.0792 11.6568C38.0792 14.855 35.1856 16.9872 30.6929 16.9872C28.7892 16.9872 26.9616 16.6065 25.9717 16.1496L26.5809 12.6467L27.1139 12.8752C28.4846 13.4844 29.3983 13.7128 31.0736 13.7128C32.292 13.7128 33.5865 13.2559 33.5865 12.1899C33.5865 11.5045 33.0535 11.0476 31.3782 10.2862C29.7791 9.52468 27.6469 8.30631 27.6469 6.09802C27.6469 3.05209 30.6167 0.996094 34.8049 0.996094C36.404 0.996094 37.7746 1.30069 38.6123 1.68143L38.0031 5.03194L37.6985 4.72735C36.937 4.42276 35.9471 4.11817 34.5003 4.11817C32.9012 4.19431 32.1397 4.87965 32.1397 5.48883C32.1397 6.17416 33.0534 6.7072 34.5003 7.39253C36.937 8.53475 38.0792 9.82927 38.0792 11.6568Z" fill="#3362AB"/>
<path d="M0.918945 1.37735L0.995093 1.07275H7.54383C8.4576 1.07275 9.14294 1.37735 9.37138 2.36727L10.8182 9.2206C9.37138 5.56549 6.02087 2.59572 0.918945 1.37735Z" fill="#F9B50B"/>
<path d="M20.0324 1.22459L13.4076 16.6826H8.91483L5.10742 3.73747C7.84875 5.48888 10.1332 8.23021 10.9708 10.1339L11.4277 11.733L15.5397 1.14844H20.0324V1.22459Z" fill="#3362AB"/>
<path d="M21.7833 1.14844H25.9715L23.3063 16.6826H19.1182L21.7833 1.14844Z" fill="#3362AB"/>
</svg>
