<svg width="21" height="21" viewBox="0 0 21 21" fill="none" xmlns="http://www.w3.org/2000/svg">
<g id="24 / shopping / gift">
<path id="icon" fill-rule="evenodd" clip-rule="evenodd" d="M5.08022 6.65904C4.80671 6.21185 4.66602 5.66142 4.66602 4.99237C4.66602 3.67328 5.65798 2.49237 7.16602 2.49237C8.67601 2.49237 9.89374 3.50373 10.4993 5.08723C11.105 3.50373 12.3227 2.49237 13.8327 2.49237C15.3407 2.49237 16.3327 3.67328 16.3327 4.99237C16.3327 5.66142 16.192 6.21185 15.9185 6.65904H17.166C18.0865 6.65904 18.8327 7.40523 18.8327 8.3257V9.99237C18.8327 10.9128 18.0865 11.659 17.166 11.659V17.4924C17.166 18.4128 16.4198 19.159 15.4993 19.159H5.49935C4.57887 19.159 3.83268 18.4128 3.83268 17.4924V11.659C2.91221 11.659 2.16602 10.9128 2.16602 9.99237V8.3257C2.16602 7.40523 2.91221 6.65904 3.83268 6.65904H5.08022ZM9.66602 8.3257H3.83268V9.99237H9.66602V8.3257ZM17.166 9.99237H11.3327V8.3257H17.166V9.99237ZM9.66602 17.4924V11.659H5.49935V17.4924H9.66602ZM15.4993 17.4924H11.3327V11.659H15.4993V17.4924ZM7.16602 4.15904C6.64906 4.15904 6.33268 4.53567 6.33268 4.99237C6.33268 6.03673 7.18018 6.53331 9.19053 6.63778C8.9671 5.08537 8.1345 4.15904 7.16602 4.15904ZM11.7493 6.63778C11.9728 5.08537 12.8054 4.15904 13.7739 4.15904C14.2908 4.15904 14.6072 4.53567 14.6072 4.99237C14.6072 6.03673 13.7597 6.53331 11.7493 6.63778Z" fill="white"/>
</g>
</svg>
