<svg width="31" height="30" viewBox="0 0 31 30" fill="none" xmlns="http://www.w3.org/2000/svg">
<path d="M23.8879 18.8634C24.3862 19.0769 24.5997 19.7887 24.5997 20.1447C24.6709 20.7141 24.5285 20.9988 24.315 20.9988C24.1014 20.9988 23.8167 20.7853 23.532 20.287C23.2473 19.7887 23.1049 19.2905 23.2473 19.0057C23.4608 18.8634 23.6744 18.7922 23.8879 18.8634Z" fill="#F28A1A"/>
<path d="M20.9696 21.0698C21.2543 21.0698 21.6102 21.2122 21.9661 21.4969C22.5356 21.9952 22.7491 22.5647 22.4644 22.9917C22.322 23.2053 21.9661 23.3477 21.6814 23.3477C21.3255 23.3477 20.9696 23.2053 20.756 22.9917C20.1865 22.4935 20.0442 21.7816 20.4001 21.3546C20.4713 21.2122 20.6848 21.0698 20.9696 21.0698Z" fill="#F28A1A"/>
<path d="M14.2075 26.6933C6.8045 26.6933 0.825195 20.714 0.825195 13.3823C0.825195 6.05049 6.8045 0 14.2075 0C21.6104 0 27.5897 5.97931 27.5897 13.3823C27.5897 15.8736 26.8779 18.2226 25.739 20.2157C25.6678 20.2869 25.5966 20.2869 25.5966 20.1446C25.0983 16.8702 23.1052 15.0906 20.2579 14.5212C19.9732 14.45 19.9732 14.3076 20.3291 14.3076C21.2545 14.2364 22.4646 14.2364 23.1764 14.3788C23.2476 14.0229 23.2476 13.667 23.2476 13.3823C23.2476 8.54187 19.2614 4.55566 14.421 4.55566C9.58061 4.55566 5.5944 8.54187 5.5944 13.3823C5.5944 18.2226 9.58061 22.2089 14.421 22.2089H14.8481C14.7057 21.4258 14.6345 20.6428 14.7057 19.7887C14.7057 19.2192 14.8481 19.148 15.0616 19.5751C16.2717 21.7106 18.0513 23.5613 21.468 24.3443C24.2441 24.985 27.0203 25.6968 30.0811 29.4694C30.3658 29.8254 29.9387 30.1813 29.654 29.8965C26.5932 27.1916 23.8171 26.2662 21.2545 26.2662C18.0513 26.3374 16.1294 26.6933 14.2075 26.6933Z" fill="#F28A1A"/>
</svg>
