<svg width="51" height="30" viewBox="0 0 51 30" fill="none" xmlns="http://www.w3.org/2000/svg">
<path d="M50.7002 15C50.7002 23.2308 44.0079 30 35.7002 30C27.4694 30 20.7002 23.2308 20.7002 15C20.7002 6.76923 27.3925 0 35.6233 0C44.0079 0 50.7002 6.76923 50.7002 15Z" fill="#F9B50B"/>
<path d="M30.6233 15.0769C30.6233 14 30.4694 12.9231 30.3156 11.9231H21.0848C21.1617 11.3846 21.3156 10.9231 21.4694 10.3077H29.7002C29.5463 9.76923 29.3156 9.23077 29.0848 8.69231H22.0848C22.3156 8.15385 22.6233 7.69231 22.931 7.07692H28.2387C27.931 6.53846 27.5463 6 27.0848 5.46154H24.1617C24.6233 4.92308 25.0848 4.46154 25.7002 3.92308C23.0848 1.46154 19.5463 0 15.6233 0C7.46943 0.230769 0.700195 6.76923 0.700195 15C0.700195 23.2308 7.3925 30 15.7002 30C19.6233 30 23.0848 28.4615 25.7771 26.0769C26.3156 25.6154 26.7771 25.0769 27.3156 24.4615H24.2387C23.854 24 23.4694 23.4615 23.1617 22.9231H28.3925C28.7002 22.4615 29.0079 21.9231 29.2387 21.3077H22.2387C22.0079 20.8462 21.7771 20.3077 21.6233 19.6923H29.854C30.3156 18.3077 30.6233 16.7692 30.6233 15.0769Z" fill="#C8191C"/>
<path d="M21.0079 18.8462L21.2387 17.4616C21.1617 17.4616 21.0079 17.5385 20.854 17.5385C20.3156 17.5385 20.2387 17.2308 20.3156 17.077L20.7771 14.3077H21.6233L21.854 12.7693H21.0848L21.2387 11.8462H19.6233C19.6233 11.8462 18.7002 17.077 18.7002 17.6923C18.7002 18.6154 19.2387 19.077 20.0079 19.077C20.4694 19.077 20.854 18.9231 21.0079 18.8462Z" fill="white"/>
<path d="M21.5469 16.308C21.5469 18.5388 23.0853 19.0772 24.3161 19.0772C25.47 19.0772 26.0084 18.8465 26.0084 18.8465L26.3161 17.308C26.3161 17.308 25.47 17.6926 24.6238 17.6926C22.8546 17.6926 23.1623 16.3849 23.1623 16.3849H26.393C26.393 16.3849 26.6238 15.3849 26.6238 14.9234C26.6238 13.9234 26.0853 12.6157 24.3161 12.6157C22.7776 12.5388 21.5469 14.308 21.5469 16.308ZM24.3161 14.0003C25.1623 14.0003 25.0084 15.0003 25.0084 15.0772H23.2392C23.3161 15.0003 23.47 14.0003 24.3161 14.0003Z" fill="white"/>
<path d="M34.3924 18.8459L34.7001 17.0767C34.7001 17.0767 33.9309 17.4613 33.3155 17.4613C32.2386 17.4613 31.7001 16.6151 31.7001 15.6151C31.7001 13.692 32.6232 12.692 33.777 12.692C34.5463 12.692 35.2386 13.1536 35.2386 13.1536L35.4694 11.4613C35.4694 11.4613 34.5463 11.0767 33.6232 11.0767C31.777 11.0767 30.0078 12.692 30.0078 15.692C30.0078 17.692 30.9309 18.9997 32.854 18.9997C33.5463 19.0767 34.3924 18.8459 34.3924 18.8459Z" fill="white"/>
<path d="M12.3154 12.5381C11.2385 12.5381 10.3924 12.8458 10.3924 12.8458L10.1616 14.2304C10.1616 14.2304 10.8539 13.9227 11.9308 13.9227C12.4693 13.9227 12.9308 13.9996 12.9308 14.4612C12.9308 14.7689 12.8539 14.8458 12.8539 14.8458H12.1616C10.777 14.8458 9.31543 15.3842 9.31543 17.2304C9.31543 18.6919 10.2385 18.9996 10.8539 18.9996C11.9308 18.9996 12.4693 18.3073 12.5462 18.3073L12.4693 18.9227H13.777L14.3924 14.5381C14.3924 12.615 12.8539 12.5381 12.3154 12.5381ZM12.6231 16.0765C12.6231 16.3073 12.4693 17.615 11.5462 17.615C11.0847 17.615 10.9308 17.2304 10.9308 16.9996C10.9308 16.615 11.1616 16.0765 12.3924 16.0765C12.5462 16.0765 12.6231 16.0765 12.6231 16.0765Z" fill="white"/>
<path d="M15.9309 19.0004C16.3155 19.0004 18.3155 19.0773 18.3155 16.9235C18.3155 14.9235 16.3924 15.3081 16.3924 14.5388C16.3924 14.1542 16.7001 14.0004 17.2386 14.0004C17.4694 14.0004 18.3155 14.0773 18.3155 14.0773L18.5463 12.6158C18.5463 12.6158 18.0078 12.4619 17.0078 12.4619C15.854 12.4619 14.6232 12.9235 14.6232 14.5388C14.6232 16.385 16.6232 16.2311 16.6232 16.9235C16.6232 17.385 16.0847 17.4619 15.7001 17.4619C15.0078 17.4619 14.2386 17.2311 14.2386 17.2311L14.0078 18.6927C14.1617 18.8465 14.6232 19.0004 15.9309 19.0004Z" fill="white"/>
<path d="M47.6234 11.3076L47.3157 13.4615C47.3157 13.4615 46.7003 12.6922 45.7773 12.6922C44.3157 12.6922 43.085 14.4615 43.085 16.5384C43.085 17.8461 43.7003 19.1538 45.085 19.1538C46.008 19.1538 46.6234 18.5384 46.6234 18.5384L46.5465 19.0768H48.1619L49.3157 11.4615L47.6234 11.3076ZM46.8542 15.4615C46.8542 16.3076 46.4696 17.4615 45.5465 17.4615C45.008 17.4615 44.7003 16.9999 44.7003 16.1538C44.7003 14.8461 45.2388 14.0768 46.008 14.0768C46.5465 14.1538 46.8542 14.5384 46.8542 15.4615Z" fill="white"/>
<path d="M3.62342 18.923L4.5465 13.2307L4.70035 18.923H5.77727L7.85419 13.2307L7.00804 18.923H8.70035L10.008 11.3076H7.39265L5.77727 15.9999L5.70035 11.3076H3.39265L2.08496 18.923H3.62342Z" fill="white"/>
<path d="M28.239 18.9232C28.7005 16.3078 28.7774 14.1539 29.9313 14.5385C30.0851 13.5385 30.3159 13.077 30.4697 12.6924H30.162C29.4697 12.6924 28.8543 13.6155 28.8543 13.6155L29.0082 12.7693H27.4697L26.4697 18.9232H28.239Z" fill="white"/>
<path d="M38.085 12.5381C37.008 12.5381 36.1619 12.8458 36.1619 12.8458L35.9311 14.2304C35.9311 14.2304 36.6234 13.9227 37.7003 13.9227C38.2388 13.9227 38.7003 13.9996 38.7003 14.4612C38.7003 14.7689 38.6234 14.8458 38.6234 14.8458H37.9311C36.5465 14.8458 35.085 15.3842 35.085 17.2304C35.085 18.6919 36.008 18.9996 36.6234 18.9996C37.7003 18.9996 38.2388 18.3073 38.3157 18.3073L38.2388 18.9227H39.7003L40.3157 14.5381C40.3157 12.615 38.6234 12.5381 38.085 12.5381ZM38.4696 16.0765C38.4696 16.3073 38.3157 17.615 37.3927 17.615C36.9311 17.615 36.7773 17.2304 36.7773 16.9996C36.7773 16.615 37.008 16.0765 38.2388 16.0765C38.3927 16.0765 38.3927 16.0765 38.4696 16.0765Z" fill="white"/>
<path d="M41.5466 18.9232C42.0081 16.3078 42.085 14.1539 43.2389 14.5385C43.3927 13.5385 43.6235 13.077 43.7773 12.6924H43.4697C42.7773 12.6924 42.162 13.6155 42.162 13.6155L42.3158 12.7693H40.7773L39.7773 18.9232H41.5466Z" fill="white"/>
</svg>
