<svg width="44" height="30" viewBox="0 0 44 30" fill="none" xmlns="http://www.w3.org/2000/svg">
<path d="M28.3253 0C19.7655 0 12.9844 6.7391 12.9844 15C12.9844 23.2608 19.8766 30 28.3253 30C36.774 30 43.6662 23.2608 43.6662 15C43.7774 6.7391 36.774 0 28.3253 0ZM28.3253 20.5434C25.2127 20.5434 22.5447 18.0434 22.5447 15C22.5447 11.9565 25.1015 9.45649 28.3253 9.45649C31.5491 9.45649 34.106 11.9565 34.106 15C33.9948 18.0434 31.5491 20.5434 28.3253 20.5434Z" fill="#8B3FFD"/>
<path d="M12.9839 4.45654V26.3043H7.53666L0.533203 4.45654H12.9839Z" fill="#8B3FFD"/>
</svg>
