<svg width="271" height="24" viewBox="0 0 271 24" fill="none" xmlns="http://www.w3.org/2000/svg">
<g opacity="0.1">
<path fill-rule="evenodd" clip-rule="evenodd" d="M259 22.3237C252.925 22.3237 248 17.5436 248 11.6472C248 5.75072 252.925 0.970703 259 0.970703C265.075 0.970703 270 5.75072 270 11.6472C270 17.5436 265.075 22.3237 259 22.3237ZM259 20.3825C263.971 20.3825 268 16.4716 268 11.6472C268 6.8228 263.971 2.91188 259 2.91188C254.029 2.91188 250 6.8228 250 11.6472C250 16.4716 254.029 20.3825 259 20.3825ZM255.707 16.2158L259 13.0198L262.293 16.2158L263.707 14.8432L260.414 11.6472L263.707 8.45112L262.293 7.0785L259 10.2745L255.707 7.0785L254.293 8.45112L257.586 11.6472L254.293 14.8432L255.707 16.2158Z" fill="#1F213A"/>
</g>
</svg>
