<svg width="15" height="16" viewBox="0 0 15 16" fill="none" xmlns="http://www.w3.org/2000/svg">
<path fill-rule="evenodd" clip-rule="evenodd" d="M12.1667 6.66357C12.1667 3.95746 10.6744 2.07924 8.74363 1.51538C8.67372 1.33448 8.56322 1.16631 8.41303 1.02519C7.89986 0.543034 7.10022 0.543034 6.58705 1.02519C6.43719 1.166 6.32685 1.33374 6.25691 1.51419C4.32361 2.07559 2.83337 3.9497 2.83337 6.66357C2.83337 8.4195 2.47936 9.40342 1.82401 10.1165C1.71444 10.2357 1.41758 10.5088 1.21649 10.6938L1.21647 10.6938C1.12133 10.7813 1.04764 10.8491 1.02535 10.8715L0.833374 11.0662V13.3396H4.89202C5.02926 14.0477 5.41344 14.5214 6.10817 14.9453C6.9628 15.4668 8.03728 15.4668 8.89191 14.9453C9.50503 14.5712 9.91614 13.9961 10.0829 13.3396H14.1667V11.0662L13.9747 10.8715C13.9545 10.851 13.8838 10.7858 13.7914 10.7006C13.5909 10.5156 13.2882 10.2364 13.177 10.1149C12.5212 9.3985 12.1667 8.41333 12.1667 6.66357ZM8.65786 13.3396H6.28578C6.37997 13.5148 6.54051 13.6472 6.80272 13.8072C7.23089 14.0684 7.7692 14.0684 8.19736 13.8072C8.39564 13.6862 8.55057 13.5261 8.65786 13.3396ZM12.1935 11.0152C12.3338 11.1684 12.6344 11.4485 12.8334 11.6315V12.0063H2.16671V11.6318C2.36409 11.451 2.66566 11.1711 2.8057 11.0187C3.69619 10.0498 4.16671 8.74211 4.16671 6.66357C4.16671 4.1435 5.72189 2.67183 7.50004 2.67183C9.27318 2.67183 10.8334 4.1511 10.8334 6.66357C10.8334 8.73544 11.304 10.0436 12.1935 11.0152Z" fill="white"/>
</svg>
