<svg width="15" height="14" viewBox="0 0 15 14" fill="none" xmlns="http://www.w3.org/2000/svg">
<path fill-rule="evenodd" clip-rule="evenodd" d="M9.80029 0.93519C10.5083 0.732891 11.2463 1.14288 11.4486 1.85093C11.4827 1.97005 11.4999 2.09333 11.4999 2.21722V3.3334H12.8333C13.5696 3.3334 14.1666 3.93036 14.1666 4.66673V12.6667C14.1666 13.4031 13.5696 14.0001 12.8333 14.0001H2.16659C1.43021 14.0001 0.833252 13.4031 0.833252 12.6667H0.851054C0.83922 12.595 0.833252 12.5224 0.833252 12.4496V4.50294C0.833252 3.90763 1.22789 3.38445 1.80029 3.2209L9.80029 0.93519ZM6.25995 12.6667H12.8333V7.3334H11.4999V10.1639C11.4999 10.7592 11.1053 11.2824 10.5329 11.4459L6.25995 12.6667ZM12.8333 4.66673V6.00007H11.4999V4.66673H12.8333ZM2.16659 4.50292V12.4496L10.1666 10.1638V2.2172L2.16659 4.50292ZM8.83325 6.00007C8.83325 6.36826 8.53477 6.66674 8.16658 6.66674C7.7984 6.66674 7.49992 6.36826 7.49992 6.00007C7.49992 5.63188 7.7984 5.3334 8.16658 5.3334C8.53477 5.3334 8.83325 5.63188 8.83325 6.00007Z" fill="white"/>
</svg>
