<svg width="51" height="50" viewBox="0 0 51 50" fill="none" xmlns="http://www.w3.org/2000/svg">
<circle cx="25.667" cy="24.999" r="25" fill="url(#paint0_linear_330:3560)"/>
<path d="M33.893 14.999H18.691C16.9747 14.999 15.667 16.3067 15.667 18.0231V33.225C15.667 34.9413 16.9747 36.249 18.691 36.249H33.893C35.6093 36.249 36.917 34.9413 36.917 33.225V18.0231C36.917 16.3067 35.6093 14.999 33.893 14.999ZM26.292 31.999C29.8064 31.999 32.667 29.2202 32.667 25.8692C32.667 25.2971 32.5853 24.6433 32.4218 24.1529H34.2199V32.8163C34.2199 33.225 33.893 33.6336 33.4026 33.6336H19.1814C18.7728 33.6336 18.3641 33.3067 18.3641 32.8163V24.0711H20.2439C20.0805 24.6433 19.9987 25.2154 19.9987 25.7875C19.917 29.2202 22.7776 31.999 26.292 31.999ZM26.292 29.5471C24.0035 29.5471 22.2055 27.749 22.2055 25.5423C22.2055 23.3356 24.0035 21.5375 26.292 21.5375C28.5805 21.5375 30.3785 23.3356 30.3785 25.5423C30.3785 27.8308 28.5805 29.5471 26.292 29.5471ZM34.1382 20.8019C34.1382 21.2923 33.7295 21.7009 33.2391 21.7009H30.9506C30.4603 21.7009 30.0516 21.2923 30.0516 20.8019V18.5952C30.0516 18.1048 30.4603 17.6961 30.9506 17.6961H33.2391C33.7295 17.6961 34.1382 18.1048 34.1382 18.5952V20.8019Z" fill="white"/>
<defs>
<linearGradient id="paint0_linear_330:3560" x1="11.292" y1="44.374" x2="44.417" y2="9.99903" gradientUnits="userSpaceOnUse">
<stop stop-color="#EEA054"/>
<stop offset="0.502762" stop-color="#D64763"/>
<stop offset="1" stop-color="#B62A99"/>
</linearGradient>
</defs>
</svg>
