<svg width="52" height="50" viewBox="0 0 52 50" fill="none" xmlns="http://www.w3.org/2000/svg">
<rect x="13.0176" width="5.33939" height="5.33939" rx="0.76277" fill="#DAEBF2"/>
<rect x="0.8125" y="3.05078" width="4.57662" height="4.57662" rx="0.76277" fill="#0DB960"/>
<rect x="0.8125" y="19.0703" width="4.57662" height="4.57662" rx="0.76277" fill="#DAEBF2"/>
<rect x="6.15234" y="8.39062" width="8.39046" height="8.39046" rx="0.76277" fill="#67EAA6"/>
<path fill-rule="evenodd" clip-rule="evenodd" d="M16.8297 10.6789C16.8297 9.41514 17.8542 8.39062 19.118 8.39062H29.034C30.2978 8.39062 31.3223 9.41513 31.3223 10.6789V12.2042C31.3223 13.468 32.3468 14.4925 33.6106 14.4925H44.2894C48.502 14.4925 51.9171 17.9075 51.9171 22.1202V41.9522C51.9171 46.1649 48.502 49.5799 44.2894 49.5799H31.3224C31.3224 49.5799 31.3223 49.58 31.3223 49.58C31.3223 49.5801 31.3222 49.5802 31.3222 49.5802H24.4574C20.2447 49.5802 16.8297 46.1651 16.8297 41.9525V41.9522V35.0874C16.8297 33.8236 15.8052 32.7991 14.5414 32.7991H10.7278C9.46396 32.7991 8.43945 31.7746 8.43945 30.5108V21.3575C8.43945 20.0937 9.46396 19.0692 10.7278 19.0692H14.5414C15.8052 19.0692 16.8297 18.0447 16.8297 16.7809V14.4925V10.6789Z" fill="#0DB960"/>
<path d="M37.415 27.9984H32.8723C32.7696 26.5098 31.7773 25.7656 29.8951 25.7656C29.1423 25.7656 28.552 25.911 28.1242 26.2019C27.6965 26.4756 27.4826 26.852 27.4826 27.3311C27.4826 27.7076 27.5767 27.9984 27.7649 28.2037C27.9703 28.4091 28.3381 28.5802 28.8685 28.717C32.051 29.5554 34.1983 30.2313 35.3105 30.7446C37.2097 31.6343 38.1593 33.1144 38.1593 35.1847C38.1593 37.0155 37.4493 38.4784 36.0291 39.5734C34.6261 40.6514 32.7269 41.1903 30.3315 41.1903C27.7992 41.1903 25.8144 40.6171 24.3771 39.4708C22.9399 38.3244 22.2041 36.716 22.1699 34.6457H26.9693C26.9693 36.5792 28.1927 37.5459 30.6394 37.5459C32.4531 37.5459 33.3599 36.9299 33.3599 35.698C33.3599 35.2018 33.1803 34.8168 32.821 34.543C32.4788 34.2522 31.8543 33.987 30.9474 33.7474C29.2193 33.2683 27.7136 32.7893 26.4303 32.3102C24.052 31.4547 22.8629 29.9404 22.8629 27.7674C22.8629 26.0393 23.5216 24.6705 24.8391 23.661C26.1737 22.6344 27.9703 22.1211 30.2288 22.1211C32.5044 22.1211 34.2582 22.6258 35.4902 23.6353C36.7392 24.6448 37.3808 26.0992 37.415 27.9984Z" fill="white"/>
<path d="M44.7808 22.5061V40.7797H40.4177V22.5061H44.7808Z" fill="white"/>
<path d="M13.455 29.1691H11.9702L12.2956 27.4503H11.4922V26.2299H12.5296L12.7533 25.04H11.96V23.8195H12.977L13.2923 22.1211H14.7568L14.4416 23.8195H15.3264L15.6417 22.1211H17.1163L16.8011 23.8195H17.635V25.04H16.5773L16.3536 26.2299H17.1774V27.4503H16.1298L15.8145 29.1691H14.3297L14.645 27.4503H13.7703L13.455 29.1691ZM14.8789 26.2299L15.0925 25.04H14.2178L14.0042 26.2299H14.8789Z" fill="white"/>
</svg>
