<svg width="12" height="24" viewBox="0 0 12 24" fill="none" xmlns="http://www.w3.org/2000/svg">
<path fill-rule="evenodd" clip-rule="evenodd" d="M6 17.5C2.96243 17.5 0.5 15.0376 0.5 12C0.5 8.96243 2.96243 6.5 6 6.5C9.03757 6.5 11.5 8.96243 11.5 12C11.5 15.0376 9.03757 17.5 6 17.5ZM6 16.5C8.48528 16.5 10.5 14.4853 10.5 12C10.5 9.51472 8.48528 7.5 6 7.5C3.51471 7.5 1.5 9.51472 1.5 12C1.5 14.4853 3.51471 16.5 6 16.5ZM5.35348 9.64641L4.64637 10.3535L6.29282 12L4.64637 13.6464L5.35348 14.3535L7.70703 12L5.35348 9.64641Z" fill="#0DB960"/>
</svg>
