<svg width="71" height="70" viewBox="0 0 71 70" fill="none" xmlns="http://www.w3.org/2000/svg">
<path fill-rule="evenodd" clip-rule="evenodd" d="M22.5174 0.163941C20.4146 0.380373 18.6663 0.696265 16.748 1.20643C13.7415 2.00594 9.56647 3.72932 9.13128 4.35071C8.60894 5.09646 9.12047 6.11801 10.016 6.11801C10.2579 6.11801 11.1331 5.80321 11.961 5.4185C16.9537 3.09836 22.8713 1.98993 28.0803 2.39913C29.2344 2.48983 30.8867 2.68602 31.752 2.83514C33.7617 3.18168 33.7512 3.18222 34.2251 2.70832C34.7366 2.19679 34.7434 1.70072 34.2457 1.20301C33.9432 0.900521 33.6182 0.776983 32.6382 0.592017C29.5186 0.00305375 25.6642 -0.160023 22.5174 0.163941ZM37.3989 2.22251C36.8447 2.45549 36.6132 3.10096 36.8664 3.70702C37.0152 4.063 37.2272 4.2191 37.9921 4.53609C38.5103 4.75074 39.6519 5.25885 40.5287 5.66503C42.2748 6.47371 42.619 6.50231 43.1093 5.879C43.9032 4.86963 43.0281 4.07901 39.5501 2.66385C38.0355 2.04767 37.8872 2.01716 37.3989 2.22251ZM24.1591 4.70231C16.6584 5.29551 9.85582 8.33473 4.56117 13.4585C3.27216 14.7059 3.15888 14.857 3.15888 15.3296C3.15888 15.9993 3.64606 16.5155 4.27784 16.5155C4.64285 16.5155 4.88979 16.355 5.61802 15.6447C8.15993 13.1653 10.6594 11.379 13.6032 9.93772C19.6319 6.98593 26.4337 6.22814 32.9689 7.78024C33.6007 7.93032 34.2639 8.01623 34.4431 7.97136C35.2621 7.76574 35.5928 6.74774 35.0348 6.14893C34.195 5.24749 27.8832 4.4079 24.1591 4.70231ZM38.094 7.3482C37.4787 7.5965 37.1862 8.40833 37.5004 8.99565C37.577 9.13875 38.3025 9.59501 39.1126 10.0093C42.6324 11.8097 45.7757 14.23 48.0323 16.8771C49.6395 18.7626 49.8736 18.9781 50.3138 18.9781C50.8059 18.9781 51.2924 18.6464 51.4645 18.1937C51.6666 17.6624 51.2322 16.9345 49.6625 15.1744C47.1252 12.329 43.7382 9.73004 40.3722 8.0451C38.6361 7.17609 38.5704 7.15598 38.094 7.3482ZM24.9115 9.39773C23.5505 9.49295 23.0955 9.6444 22.8625 10.0796C22.5468 10.6696 22.842 11.4871 23.4546 11.719C23.6163 11.7801 24.4196 11.7871 25.2396 11.7346C32.3764 11.2769 39.6368 14.3111 44.5568 19.8071C45.7823 21.1762 47.215 23.2684 48.099 24.9801C48.6426 26.0326 48.8043 26.2367 49.1969 26.3663C49.8084 26.5682 50.4056 26.2711 50.6192 25.6587C50.7567 25.2643 50.7211 25.1075 50.286 24.1916C49.1251 21.7468 47.324 19.237 45.2229 17.1359C40.6541 12.5672 34.8073 9.90365 28.2633 9.41018C27.2099 9.3307 26.3172 9.27501 26.2796 9.28623C26.242 9.29745 25.6263 9.34766 24.9115 9.39773ZM17.052 10.9798C14.5246 11.9388 10.3229 14.3268 10.0885 14.9374C9.90192 15.4238 10.0019 15.9833 10.3352 16.3164C10.8634 16.8448 11.3205 16.7548 12.6871 15.8533C14.708 14.5201 15.9288 13.9059 18.4493 12.9537C19.3554 12.6114 19.6222 12.4449 19.7927 12.1154C19.9593 11.7933 19.9737 11.614 19.8596 11.2867C19.5381 10.3644 18.8672 10.2911 17.052 10.9798ZM22.6542 14.2561C12.2076 15.8962 4.14226 24.2021 3.02932 34.4664C2.84695 36.148 2.84121 40.8708 3.02097 41.3436C3.17721 41.7544 3.84894 42.0858 4.33639 41.9926C4.51986 41.9576 4.78431 41.7836 4.92399 41.6059C5.15164 41.3165 5.18557 40.9221 5.24905 37.826C5.31047 34.8374 5.36588 34.1559 5.65852 32.7958C7.00048 26.557 11.0068 21.4245 16.8022 18.5192C19.4294 17.2021 22.1023 16.5323 25.2754 16.3959C27.5476 16.2981 27.8186 16.2004 27.9907 15.4168C28.0871 14.9774 27.7807 14.2701 27.4363 14.1379C27.0616 13.9941 23.8113 14.0744 22.6542 14.2561ZM31.3415 14.7002C30.8594 14.8685 30.5207 15.3352 30.5207 15.8315C30.5207 16.5245 30.8909 16.8111 32.3676 17.2612C33.7253 17.6751 36.1727 18.8164 37.396 19.6059C38.3522 20.2232 38.9247 20.2593 39.3791 19.7311C39.7082 19.3484 39.7732 18.8477 39.5482 18.4273C38.9855 17.3758 32.3325 14.3543 31.3415 14.7002ZM6.96846 17.8004C6.34489 18.127 5.02017 19.717 3.75714 21.6546C2.19301 24.0542 0.422834 28.1283 0.613819 28.8891C0.829294 29.7479 1.94839 30.093 2.5022 29.4713C2.65624 29.2984 2.97925 28.6057 3.21976 27.9322C4.13446 25.3718 5.66166 22.7331 7.53595 20.4746C8.32643 19.522 8.49402 19.2348 8.4943 18.8329C8.49443 18.3704 8.10521 17.7468 7.81627 17.7468C7.75005 17.7468 7.61393 17.716 7.51378 17.6785C7.4135 17.6409 7.1682 17.6957 6.96846 17.8004ZM23.2698 18.9365C22.2546 19.1083 20.2629 19.7157 19.3858 20.121C18.5651 20.5002 18.3567 20.6619 18.2333 21.0161C18.0619 21.5077 18.1293 21.7869 18.5257 22.2273C18.9093 22.6534 19.3992 22.6188 20.7903 22.0675C21.4392 21.8103 22.5858 21.4721 23.3382 21.3161C24.8673 20.999 25.1851 20.7696 25.1851 19.9828C25.1851 19.0824 24.5279 18.7235 23.2698 18.9365ZM28.2586 18.9683C27.8714 19.1296 27.6637 19.4108 27.5641 19.909C27.4363 20.5477 28.0334 21.0889 29.0928 21.2951C30.3803 21.5454 32.2717 22.2319 33.4832 22.8883C34.6644 23.5283 35.1974 23.6241 35.6836 23.2836C36.0922 22.9972 36.2251 22.2219 35.9398 21.7866C35.2056 20.666 29.3448 18.5156 28.2586 18.9683ZM14.6492 23.071C11.5146 25.4263 9.01294 29.1149 8.0981 32.7307C7.63445 34.5632 7.53909 36.0599 7.53786 41.5242C7.53663 47.2658 7.56222 47.4647 8.32588 47.6653C8.88776 47.8129 9.21405 47.7293 9.5547 47.3508L9.86252 47.0086L9.86362 41.7833C9.86512 34.7639 10.0363 33.4463 11.2904 30.7952C12.3029 28.655 13.7235 26.8528 15.6769 25.2311C16.9067 24.21 17.1116 23.6802 16.532 23.0215C15.9995 22.4163 15.503 22.4293 14.6492 23.071ZM23.9539 23.5118C22.0503 23.8249 19.602 24.818 18.0308 25.914C17.0316 26.6112 15.4227 28.1958 14.7094 29.1854C13.8255 30.4117 13.0439 32.0633 12.6296 33.58L12.2646 34.9163L12.2606 44.2877C12.2564 54.1582 12.2571 54.1692 12.8985 56.1901C13.5304 58.1812 14.9265 60.4378 16.3481 61.7659C17.5189 62.8598 26.3999 69.7509 26.8662 69.9274C27.1608 70.0389 27.3315 70.0248 27.6154 69.8654C28.3282 69.4654 28.5065 68.6871 28.023 68.0865C27.9294 67.9705 26.0368 66.4663 23.817 64.7441C21.5973 63.022 19.3108 61.2242 18.736 60.7492C16.88 59.2155 15.5619 57.1545 14.9013 54.7536C14.6098 53.694 14.5986 53.3983 14.5467 45.465C14.4801 35.2737 14.5607 34.3432 15.7093 32.0518C18.0222 27.4375 23.3128 24.9182 28.6656 25.882C29.8897 26.1024 30.0046 26.1031 30.3255 25.8929C31.0139 25.4419 31.0961 24.6054 30.5059 24.0556C29.8866 23.4785 26.077 23.1624 23.9539 23.5118ZM37.8173 25.8843C33.0823 26.7435 28.9166 30.1366 27.214 34.5212C26.4572 36.4702 26.2475 37.7953 26.3176 40.1835C26.3893 42.6199 26.6928 43.8954 27.6636 45.8409C29.1023 48.7242 31.6444 51.2063 34.4122 52.4303C38.2009 54.1058 42.4885 54.0488 46.2648 52.2725L47.6288 51.6308L48.0487 52.0294C48.2795 52.2485 48.8345 52.8391 49.2819 53.3416L50.0953 54.2554L49.8162 54.7761C49.4009 55.5511 49.4454 56.4082 49.9396 57.1552C50.161 57.4897 52.8544 60.2955 55.925 63.3903C62.028 69.5412 62.0867 69.5888 63.9605 69.8994C66.382 70.3006 68.8464 68.9987 69.9634 66.7281C70.3844 65.8724 70.4005 65.7765 70.4005 64.1272C70.4005 61.5818 70.4866 61.7132 65.3847 56.4674C59.7181 50.641 58.0215 48.9793 57.5658 48.8093C56.9455 48.5779 56.0807 48.6391 55.57 48.9505L55.1043 49.2343L53.7663 47.9014L52.4283 46.5683L52.7444 45.9411C55.421 40.6266 54.3374 34.0251 50.0912 29.7791C46.8828 26.5707 42.2088 25.0874 37.8173 25.8843ZM23.8864 28.2284C21.7852 28.7364 19.5456 30.2714 18.4072 31.9838C16.8912 34.264 16.7722 35.236 16.8834 44.4245C16.9325 48.4818 17.0293 51.6721 17.1179 52.1543C17.6979 55.31 19.4387 58.3269 21.8051 60.277C22.3473 60.7238 25.0344 62.8189 27.7762 64.9329C32.2628 68.3921 32.8125 68.7766 33.2727 68.7766C34.331 68.7766 34.7225 67.5375 33.9067 66.7704C33.6622 66.5406 31.1534 64.5761 28.3317 62.4051C25.5101 60.2341 22.8757 58.1215 22.4777 57.7102C21.1843 56.3744 20.3039 54.8688 19.669 52.9067C19.3922 52.0517 19.3794 51.7063 19.3333 43.9457C19.2907 36.7851 19.3107 35.779 19.5104 35.0327C20.0975 32.8402 22.1117 31.0866 24.7747 30.4499C26.0461 30.1459 26.488 29.7365 26.3662 28.9754C26.2149 28.0299 25.544 27.8278 23.8864 28.2284ZM42.3603 28.2095C46.5904 29.0188 49.9472 31.9554 51.318 36.0458C51.7 37.1856 51.7744 37.6283 51.8312 39.099C51.9622 42.4973 50.9652 45.2395 48.7416 47.5967C46.4409 50.0356 43.5645 51.2814 40.2341 51.2814C34.9422 51.2814 30.4873 47.8784 28.9831 42.6868C28.7234 41.7906 28.675 41.3028 28.6803 39.6362C28.688 37.3131 28.8637 36.5069 29.7741 34.6194C32.0605 29.8798 37.2574 27.2331 42.3603 28.2095ZM38.3872 30.5317C35.316 31.2426 32.9995 33.1005 31.7509 35.8546C31.2674 36.9207 30.9304 38.52 30.9334 39.7331C30.9411 42.6945 32.5698 45.7367 35.0061 47.3405C39.8522 50.5305 46.1938 48.7632 48.6603 43.5353C49.8131 41.0919 49.8105 38.1391 48.6534 35.7027C47.1177 32.4687 44.1908 30.5465 40.5762 30.3979C39.6989 30.3619 38.9135 30.4098 38.3872 30.5317ZM41.6706 32.8651C46.2026 33.8184 48.5018 38.6527 46.444 42.9017C45.9745 43.8714 44.515 45.3239 43.5118 45.8197C40.6574 47.2309 37.4216 46.7143 35.263 44.5029C32.6601 41.8361 32.6202 37.7261 35.1701 34.9553C36.1501 33.8907 37.1331 33.2888 38.46 32.9415C39.6978 32.6175 40.4123 32.6004 41.6706 32.8651ZM21.9255 45.562C21.6542 45.8508 21.6281 46.023 21.6281 47.5207C21.6281 48.4238 21.6932 49.5279 21.7727 49.9743C22.1701 52.2043 23.1305 54.4236 24.433 56.1217C25.6001 57.6436 25.6236 57.6641 32.9277 63.5418C34.0635 64.4559 35.1496 65.2429 35.3413 65.2911C36.1145 65.4852 36.8814 64.6623 36.6828 63.8514C36.6242 63.6116 35.2726 62.4396 32.1576 59.9273C29.7147 57.9573 27.3719 55.9686 26.9513 55.5081C25.0148 53.3883 23.9539 50.6126 23.9539 47.6657C23.9539 45.7245 23.7031 45.2454 22.687 45.2454C22.3789 45.2454 22.1231 45.3518 21.9255 45.562ZM53.1236 50.6288L53.4058 51.0187L52.6341 51.7905L51.8624 52.5622L50.6682 51.368L49.4741 50.1738L50.2882 49.351L51.1025 48.5283L51.9718 49.3836C52.45 49.8541 52.9683 50.4143 53.1236 50.6288ZM8.00944 50.5064C7.67837 50.8375 7.67358 50.8761 7.67358 53.2483C7.67358 57.556 8.46502 59.8878 9.81231 59.5496C10.7054 59.3254 10.873 58.6285 10.3895 57.1478C10.1501 56.4145 10.0844 55.7826 10.0151 53.5445L9.93093 50.8306L9.54704 50.5005C9.04536 50.0693 8.44422 50.0715 8.00944 50.5064ZM62.0765 56.4016C65.4874 59.8744 67.5377 62.0669 67.8012 62.5238C68.1521 63.1326 68.211 63.3745 68.2075 64.1935C68.203 65.283 67.9198 65.9583 67.1634 66.6833C66.1225 67.681 64.4636 67.8931 63.2293 67.1863C62.7684 66.9224 60.7794 64.9995 57.1875 61.3454L51.8328 55.8978L53.7362 53.9577C54.7832 52.8906 55.8464 51.7867 56.0991 51.5044C56.3517 51.2223 56.6043 50.9914 56.6604 50.9914C56.7165 50.9914 59.1537 53.426 62.0765 56.4016Z" fill="#0DB960"/>
</svg>
