<svg width="100" height="50" viewBox="0 0 100 50" fill="none" xmlns="http://www.w3.org/2000/svg">
<path fill-rule="evenodd" clip-rule="evenodd" d="M47.737 0.106841C45.3675 0.447156 43.6065 1.40555 42.6177 2.89298C41.5883 4.4414 41.1711 6.64592 41.5257 8.66385L41.6373 9.29913L41.2474 9.59654C40.6703 10.0366 40.3044 10.8162 40.2998 11.615C40.29 13.3053 41.2535 14.7087 42.5505 14.8934L43.0727 14.9678L43.2946 15.5136C43.9641 17.1604 45.5583 18.7522 47.1594 19.3729C47.8157 19.6273 47.8435 19.6667 47.8435 20.3401V20.9483L46.6462 21.0103C45.3696 21.0764 44.2521 21.3259 43.9309 21.6167C43.6758 21.8476 43.6774 22.3833 43.9341 22.64C44.1726 22.8785 44.5262 22.8862 45.1069 22.6655C45.4976 22.5169 46.0327 22.498 49.8959 22.4958C53.8426 22.4936 54.2994 22.51 54.8316 22.6729C56.4279 23.1615 57.6715 24.3925 58.1554 25.963C58.2737 26.3473 58.3358 27.009 58.3729 28.2842L58.4249 30.0679H49.9948H41.5646L41.6125 28.2842C41.6657 26.3068 41.8078 25.6435 42.3668 24.7623C42.8816 23.951 42.7009 23.3241 41.9522 23.3241C41.5427 23.3241 41.3146 23.5727 40.8251 24.552C40.3176 25.5677 40.2123 26.1351 40.1514 28.1865L40.0954 30.0679H38.3985H36.7017L36.703 26.9159L36.7042 23.7639L37.7876 22.3957C38.3834 21.6431 38.9216 21.0441 38.9836 21.0644C39.0455 21.0848 39.3017 21.123 39.553 21.1494C41.3551 21.3386 42.6556 19.3775 41.8374 17.705C40.7493 15.481 37.3974 16.2744 37.388 18.7581C37.3868 19.0689 37.4518 19.4812 37.5324 19.6741C37.6131 19.8671 37.679 20.0559 37.679 20.0937C37.679 20.1314 37.1293 20.8621 36.4574 21.7174L35.2357 23.2724V26.6559V30.0394L34.0305 30.0915C32.7448 30.147 32.408 30.2484 31.8792 30.7387C31.4328 31.1529 31.2285 31.6483 31.2285 32.3168C31.2285 32.9606 31.3826 33.3637 31.8016 33.8149C32.2851 34.3358 32.5426 34.4133 33.9643 34.466L35.2831 34.5148L38.0936 37.7686L40.9043 41.0224V45.0506C40.9043 47.3387 40.945 49.2204 40.9983 49.4066C41.1789 50.0363 40.6231 49.9996 49.9937 49.9996C59.3642 49.9996 58.8084 50.0363 58.989 49.4066C59.0424 49.2204 59.0831 47.3394 59.0831 45.0528V41.0269L59.9489 40.0188C60.4252 39.4643 60.8443 38.9167 60.8804 38.802C61.0278 38.3334 60.45 37.7808 59.9715 37.9327C59.8608 37.9679 59.3707 38.4556 58.8823 39.0167L57.9942 40.0369H49.9897H41.9851L39.661 37.3413C38.3828 35.8587 37.3223 34.6052 37.3044 34.5559C37.2847 34.5014 42.2925 34.466 49.9856 34.466C56.978 34.466 62.6993 34.4924 62.6993 34.5249C62.6993 34.5573 62.4354 34.8896 62.1129 35.2635C61.6466 35.804 61.5264 36.0106 61.5264 36.2725C61.5264 36.8197 62.2046 37.2041 62.6015 36.8818C62.6822 36.8163 63.2015 36.2459 63.7557 35.6143L64.7631 34.466H65.9334C67.2159 34.466 67.6222 34.36 68.1081 33.8988C68.9943 33.0577 68.9943 31.5608 68.1081 30.7387C67.4314 30.1111 67.4925 30.1198 63.519 30.0851L59.8916 30.0534L59.8359 28.1792C59.7723 26.043 59.67 25.5432 59.0534 24.3553C58.2931 22.8907 56.7535 21.6658 55.1248 21.2298C54.8023 21.1435 54.0198 21.0448 53.386 21.0106L52.2337 20.9483L52.262 20.2738L52.2905 19.5995L52.828 19.3803C54.4803 18.7067 56.0214 17.165 56.6927 15.5136L56.9147 14.9678L57.4369 14.8934C58.7233 14.7102 59.6973 13.3047 59.6877 11.6458C59.6825 10.7354 59.2203 9.81821 58.6066 9.50096L58.3358 9.3609L58.4612 8.64587C58.6753 7.42555 58.5997 5.82689 58.2903 5.03592C58.1933 4.78748 57.8476 4.55897 57.569 4.55897C57.4939 4.55897 57.3105 4.66384 57.1615 4.79207L56.8905 5.02517L57.0094 5.84781C57.1655 6.9272 57.1595 7.60421 56.986 8.51149C56.8696 9.11911 56.7912 9.29992 56.5588 9.49539C56.4022 9.62713 56.219 9.86786 56.1518 10.0302C56.0374 10.3063 55.8578 10.4334 55.8578 10.2382C55.8578 10.0366 54.9244 9.13611 54.3197 8.75426C53.5602 8.27458 53.0719 8.05086 51.3337 7.38616C49.5535 6.70534 48.8421 6.30521 47.9471 5.48111C46.9031 4.51978 46.292 4.41286 45.4261 5.04003C44.6465 5.60474 44.1805 6.64435 44.0353 8.14224C43.9789 8.72474 43.9072 9.3655 43.8762 9.56605L43.8198 9.9308L43.4861 9.57699C43.0242 9.08715 42.9161 8.62505 42.9183 7.14896C42.92 6.03908 42.9529 5.77949 43.1794 5.09652C43.7634 3.33474 44.8419 2.32719 46.6741 1.83138C48.6281 1.30263 51.3532 1.30107 53.2994 1.82757C54.1896 2.06839 54.6772 2.3094 55.3853 2.85887C56.0277 3.35722 56.3417 3.39983 56.7039 3.03763C56.9055 2.836 56.9428 2.72703 56.8938 2.482C56.8148 2.08725 56.6405 1.90292 55.8476 1.37584C55.0654 0.855689 54.1623 0.499542 52.9746 0.242596C51.8042 -0.0105386 49.051 -0.081983 47.737 0.106841ZM46.9196 6.5212C47.7835 7.41216 48.843 8.00922 51.059 8.85366C53.4726 9.77344 54.3801 10.4034 54.9084 11.5261C55.0908 11.9137 55.2803 12.1541 55.5107 12.2901C55.8386 12.4835 55.8458 12.5011 55.797 12.9951C55.7207 13.7686 55.5603 14.4254 55.3065 15.004C53.6678 18.7398 48.8175 19.6623 45.9166 16.79C44.8959 15.7794 44.3454 14.5587 44.1854 12.9514C44.1319 12.4139 44.1373 12.3983 44.4186 12.2818C45.0119 12.036 45.154 11.6115 45.3518 9.4946C45.5527 7.34541 45.6799 6.81861 46.1135 6.34264C46.3871 6.0423 46.4739 6.06156 46.9196 6.5212ZM42.5492 10.7896C42.657 10.9993 42.7769 13.4529 42.6793 13.4529C42.4826 13.4529 42.1807 13.117 42.0022 12.6995C41.6719 11.9275 41.6804 11.2018 42.0239 10.8585C42.308 10.5743 42.4301 10.5583 42.5492 10.7896ZM57.9635 10.8585C58.3069 11.2018 58.3154 11.9275 57.9852 12.6995C57.8066 13.117 57.5047 13.4529 57.3081 13.4529C57.2696 13.4529 57.2633 12.8921 57.2942 12.2068C57.3673 10.5819 57.4734 10.3683 57.9635 10.8585ZM40.3261 18.1231C40.5693 18.3402 40.6306 18.4727 40.6306 18.7795C40.6306 19.0862 40.5693 19.2187 40.3261 19.4358C39.9392 19.7816 39.5483 19.788 39.1526 19.4549C38.9022 19.2443 38.8519 19.1312 38.8519 18.7795C38.8519 18.4277 38.9022 18.3146 39.1526 18.104C39.5483 17.7709 39.9392 17.7773 40.3261 18.1231ZM50.7562 20.4708L50.7858 20.9785H50.0476H49.3095V20.4649V19.9514L50.0181 19.9572L50.7267 19.963L50.7562 20.4708ZM67.0871 31.769C67.3394 31.9974 67.3632 32.5647 67.1311 32.8212C66.9756 32.9931 66.3159 32.9999 50.0107 32.9999C34.3676 32.9999 33.0382 32.9874 32.8733 32.8382C32.4868 32.4884 32.7063 31.7333 33.2321 31.6037C33.3396 31.5771 40.9546 31.5616 50.1545 31.5691C66.4559 31.5824 66.8866 31.5875 67.0871 31.769ZM57.5193 45.0214V48.5398H56.8411H56.163L56.1325 46.0013C56.1027 43.5094 56.098 43.4586 55.8795 43.2402L55.6569 43.0178H49.9937H44.3305L44.1079 43.2402C43.8893 43.4586 43.8846 43.5094 43.8548 46.0013L43.8243 48.5398H43.1463H42.4681V45.0214V41.5029H49.9937H57.5193V45.0214ZM54.5872 46.4874V48.5398H49.9937H45.4001V46.4874V44.435H49.9937H54.5872V46.4874Z" fill="#0DB960"/>
</svg>
