<svg width="90" height="50" viewBox="0 0 90 50" fill="none" xmlns="http://www.w3.org/2000/svg">
<path fill-rule="evenodd" clip-rule="evenodd" d="M40.7259 0.117101C39.2239 0.271695 37.9751 0.497332 36.6049 0.861733C34.4574 1.43281 31.4752 2.6638 31.1644 3.10765C30.7913 3.64033 31.1566 4.37001 31.7963 4.37001C31.9691 4.37001 32.5942 4.14515 33.1856 3.87036C36.7518 2.21311 40.9787 1.42138 44.6994 1.71366C45.5237 1.77845 46.7039 1.91858 47.322 2.0251C48.7575 2.27263 48.75 2.27302 49.0885 1.93451C49.4539 1.56913 49.4588 1.2148 49.1033 0.85929C48.8872 0.643229 48.655 0.554988 47.955 0.422869C45.7267 0.00218125 42.9736 -0.114302 40.7259 0.117101ZM51.3555 1.5875C50.9597 1.75392 50.7943 2.21497 50.9752 2.64787C51.0814 2.90214 51.2329 3.01364 51.7792 3.24006C52.1494 3.39338 52.9648 3.75632 53.5911 4.04645C54.8383 4.62408 55.0842 4.6445 55.4344 4.19929C56.0015 3.4783 55.3763 2.91358 52.8921 1.90275C51.8102 1.46262 51.7043 1.44083 51.3555 1.5875ZM41.8985 3.35879C36.5409 3.78251 31.6819 5.95338 27.9 9.61321C26.9793 10.5042 26.8984 10.6121 26.8984 10.9497C26.8984 11.4281 27.2463 11.7968 27.6976 11.7968C27.9583 11.7968 28.1347 11.6822 28.6549 11.1748C30.4705 9.4038 32.2559 8.12786 34.3586 7.09837C38.6648 4.98995 43.5232 4.44867 48.1912 5.55731C48.6425 5.66451 49.1163 5.72588 49.2443 5.69383C49.8292 5.54696 50.0654 4.81981 49.6669 4.39209C49.067 3.74821 44.5586 3.1485 41.8985 3.35879ZM51.852 5.24871C51.4125 5.42607 51.2036 6.00595 51.428 6.42546C51.4828 6.52768 52.001 6.85358 52.5796 7.14948C55.0937 8.43548 57.339 10.1643 58.9508 12.0551C60.0988 13.4018 60.266 13.5558 60.5805 13.5558C60.932 13.5558 61.2795 13.3189 61.4024 12.9955C61.5467 12.616 61.2365 12.0961 60.1152 10.8388C58.3029 8.80643 55.8836 6.95003 53.4793 5.7465C52.2392 5.12578 52.1923 5.11141 51.852 5.24871ZM42.436 6.71267C41.4638 6.78068 41.1388 6.88886 40.9724 7.19971C40.7469 7.62118 40.9577 8.20506 41.3953 8.37069C41.5108 8.41438 42.0846 8.41936 42.6703 8.38183C47.768 8.05496 52.954 10.2222 56.4683 14.1479C57.3437 15.1258 58.367 16.6203 58.9985 17.843C59.3867 18.5947 59.5022 18.7405 59.7827 18.8331C60.2195 18.9773 60.646 18.7651 60.7986 18.3277C60.8968 18.0459 60.8714 17.9339 60.5606 17.2797C59.7314 15.5334 58.4449 13.7407 56.9441 12.2399C53.6807 8.97656 49.5044 7.07404 44.8301 6.72156C44.0777 6.66478 43.44 6.62501 43.4132 6.63302C43.3863 6.64104 42.9466 6.6769 42.436 6.71267ZM36.822 7.84271C35.0167 8.52773 32.0155 10.2334 31.8481 10.6696C31.7148 11.017 31.7863 11.4166 32.0243 11.6546C32.4016 12.032 32.7281 11.9677 33.7042 11.3238C35.1478 10.3715 36.0197 9.93276 37.8201 9.25262C38.4673 9.00813 38.6579 8.8892 38.7796 8.65389C38.8987 8.42376 38.9089 8.29574 38.8274 8.0619C38.5978 7.40316 38.1186 7.35078 36.822 7.84271ZM40.8236 10.1829C33.3617 11.3544 27.6008 17.2872 26.8058 24.6188C26.6756 25.82 26.6715 29.1934 26.7999 29.5311C26.9115 29.8246 27.3913 30.0613 27.7394 29.9947C27.8705 29.9697 28.0594 29.8454 28.1592 29.7185C28.3218 29.5118 28.346 29.2301 28.3913 27.0186C28.4352 24.8838 28.4748 24.3971 28.6838 23.4256C29.6424 18.9693 32.504 15.3032 36.6436 13.228C38.5202 12.2872 40.4294 11.8088 42.6959 11.7114C44.3188 11.6415 44.5124 11.5717 44.6354 11.012C44.7043 10.6981 44.4854 10.1929 44.2394 10.0985C43.9717 9.99579 41.6501 10.0532 40.8236 10.1829ZM47.0288 10.5001C46.6845 10.6203 46.4425 10.9537 46.4425 11.3082C46.4425 11.8032 46.7069 12.008 47.7617 12.3295C48.7315 12.6251 50.4797 13.4403 51.3535 14.0042C52.0364 14.4451 52.4454 14.4709 52.7699 14.0936C53.0051 13.8203 53.0515 13.4626 52.8907 13.1623C52.4888 12.4113 47.7366 10.2531 47.0288 10.5001ZM29.6195 12.7146C29.1741 12.9478 28.2279 14.0835 27.3257 15.4676C26.2085 17.1816 24.944 20.0916 25.0805 20.635C25.2344 21.2485 26.0337 21.495 26.4293 21.0509C26.5393 20.9274 26.7701 20.4327 26.9418 19.9516C27.5952 18.1227 28.6861 16.2379 30.0248 14.6247C30.5895 13.9443 30.7092 13.7392 30.7094 13.4521C30.7095 13.1217 30.4315 12.6763 30.2251 12.6763C30.1778 12.6763 30.0805 12.6543 30.009 12.6275C29.9374 12.6006 29.7622 12.6398 29.6195 12.7146ZM41.2633 13.526C40.5381 13.6488 39.1155 14.0827 38.489 14.3721C37.9028 14.643 37.754 14.7585 37.6658 15.0115C37.5434 15.3626 37.5916 15.5621 37.8747 15.8766C38.1487 16.181 38.4986 16.1563 39.4922 15.7625C39.9557 15.5788 40.7747 15.3372 41.3122 15.2258C42.4044 14.9993 42.6314 14.8354 42.6314 14.2734C42.6314 13.6303 42.162 13.3739 41.2633 13.526ZM44.8267 13.5488C44.5502 13.664 44.4018 13.8648 44.3307 14.2207C44.2394 14.6769 44.6659 15.0635 45.4226 15.2108C46.3423 15.3896 47.6932 15.8799 48.5586 16.3488C49.4023 16.8059 49.783 16.8744 50.1303 16.6311C50.4222 16.4266 50.5171 15.8728 50.3133 15.5619C49.7889 14.7614 45.6026 13.2255 44.8267 13.5488ZM35.1057 16.4793C32.8668 18.1616 31.0798 20.7964 30.4264 23.379C30.0952 24.688 30.0271 25.7571 30.0262 29.6601C30.0253 33.7613 30.0436 33.9034 30.5891 34.0466C30.9904 34.1521 31.2235 34.0924 31.4668 33.822L31.6867 33.5776L31.6875 29.8452C31.6885 24.8314 31.8108 23.8902 32.7066 21.9966C33.4298 20.4678 34.4446 19.1806 35.8398 18.0222C36.7182 17.2929 36.8646 16.9144 36.4506 16.4439C36.0702 16.0117 35.7156 16.021 35.1057 16.4793ZM41.7519 16.7941C40.3922 17.0178 38.6434 17.7272 37.5212 18.51C36.8074 19.008 35.6582 20.1399 35.1487 20.8467C34.5174 21.7227 33.9591 22.9024 33.6632 23.9857L33.4025 24.9402L33.3996 31.6341C33.3966 38.6845 33.3971 38.6923 33.8552 40.1358C34.3066 41.558 35.3038 43.1698 36.3192 44.1185C37.1555 44.8999 43.4991 49.8221 43.8322 49.9481C44.0426 50.0278 44.1645 50.0177 44.3673 49.9039C44.8764 49.6181 45.0038 49.0622 44.6584 48.6332C44.5916 48.5503 43.2397 47.4759 41.6542 46.2458C40.0687 45.0157 38.4355 43.7315 38.0248 43.3923C36.6992 42.2968 35.7576 40.8246 35.2858 39.1097C35.0776 38.3529 35.0696 38.1416 35.0325 32.475C34.985 25.1955 35.0425 24.5309 35.863 22.8941C37.515 19.5982 41.294 17.7987 45.1174 18.4871C45.9918 18.6446 46.0739 18.6451 46.3031 18.495C46.7948 18.1728 46.8535 17.5753 46.432 17.1826C45.9896 16.7704 43.2684 16.5445 41.7519 16.7941ZM51.6544 18.4888C48.2722 19.1025 45.2967 21.5262 44.0806 24.658C43.54 26.0501 43.3902 26.9967 43.4403 28.7025C43.4915 30.4428 43.7083 31.3538 44.4017 32.7435C45.4293 34.803 47.2452 36.5759 49.2222 37.4502C51.9284 38.647 54.9909 38.6063 57.6883 37.3375L58.6626 36.8792L58.9625 37.1638C59.1274 37.3204 59.5238 37.7422 59.8434 38.1012L60.4244 38.7538L60.2251 39.1258C59.9284 39.6794 59.9601 40.2916 60.3132 40.8251C60.4713 41.0641 62.3951 43.0682 64.5885 45.2787C68.9477 49.6723 68.9896 49.7063 70.3281 49.9281C72.0578 50.2147 73.818 49.2848 74.6159 47.6629C74.9166 47.0517 74.9281 46.9832 74.9281 45.8052C74.9281 43.987 74.9896 44.0809 71.3454 40.3339C67.2978 36.1722 66.086 34.9852 65.7604 34.8638C65.3174 34.6985 64.6997 34.7422 64.3349 34.9646L64.0023 35.1674L63.0465 34.2153L62.0908 33.2631L62.3166 32.8151C64.2285 29.019 63.4544 24.3037 60.4215 21.2708C58.1297 18.9791 54.7912 17.9196 51.6544 18.4888ZM41.7037 20.1631C40.2028 20.526 38.6032 21.6224 37.79 22.8456C36.7072 24.4743 36.6222 25.1686 36.7016 31.7318C36.7367 34.6298 36.8058 36.9087 36.8691 37.253C37.2833 39.5072 38.5268 41.6621 40.2171 43.055C40.6044 43.3742 42.5237 44.8707 44.4821 46.3806C47.6869 48.8515 48.0795 49.1261 48.4083 49.1261C49.1641 49.1261 49.4438 48.2411 48.8611 47.6931C48.6865 47.529 46.8945 46.1258 44.879 44.5751C42.8635 43.0243 40.9818 41.5153 40.6975 41.2216C39.7737 40.2674 39.1448 39.192 38.6913 37.7905C38.4936 37.1798 38.4844 36.9331 38.4515 31.3898C38.4211 26.2751 38.4354 25.5565 38.578 25.0234C38.9974 23.4573 40.4361 22.2047 42.3382 21.7499C43.2464 21.5328 43.562 21.2403 43.475 20.6967C43.3669 20.0214 42.8877 19.877 41.7037 20.1631ZM54.8994 20.1497C57.9209 20.7277 60.3186 22.8253 61.2977 25.747C61.5706 26.5611 61.6237 26.8773 61.6643 27.9278C61.7579 30.3552 61.0457 32.3139 59.4575 33.9977C57.8141 35.7397 55.7595 36.6296 53.3807 36.6296C49.6008 36.6296 46.4187 34.1989 45.3442 30.4906C45.1588 29.8504 45.1242 29.502 45.128 28.3116C45.1334 26.6522 45.2589 26.0763 45.9093 24.7282C47.5424 21.3427 51.2545 19.4522 54.8994 20.1497ZM52.0615 21.8084C49.8677 22.3161 48.2131 23.6432 47.3212 25.6104C46.9759 26.3719 46.7352 27.5143 46.7373 28.3808C46.7428 30.496 47.9062 32.6691 49.6464 33.8146C53.1079 36.0932 57.6376 34.8308 59.3994 31.0966C60.2228 29.3513 60.2209 27.2422 59.3944 25.5019C58.2975 23.1919 56.2069 21.8189 53.625 21.7128C52.9984 21.6871 52.4374 21.7213 52.0615 21.8084ZM54.4068 23.4751C57.6439 24.156 59.2862 27.6091 57.8163 30.6441C57.481 31.3367 56.4385 32.3742 55.7219 32.7284C53.683 33.7364 51.3717 33.3674 49.8299 31.7878C47.9707 29.8829 47.9421 26.9472 49.7636 24.9681C50.4635 24.2076 51.1657 23.7777 52.1134 23.5296C52.9976 23.2982 53.5079 23.286 54.4068 23.4751ZM40.3031 32.5443C40.1093 32.7506 40.0907 32.8736 40.0907 33.9433C40.0907 34.5884 40.1372 35.3771 40.194 35.696C40.4778 37.2888 41.1638 38.874 42.0941 40.0869C42.9278 41.174 42.9446 41.1886 48.1618 45.387C48.9731 46.0399 49.7489 46.6021 49.8858 46.6365C50.4381 46.7752 50.9858 46.1874 50.8441 45.6082C50.8021 45.4369 49.8367 44.5997 47.6117 42.8052C45.8668 41.3981 44.1934 39.9776 43.893 39.6487C42.5097 38.1345 41.7519 36.1518 41.7519 34.0469C41.7519 32.6604 41.5728 32.3181 40.847 32.3181C40.627 32.3181 40.4442 32.3942 40.3031 32.5443ZM62.5875 36.1635L62.7891 36.442L62.2378 36.9932L61.6866 37.5444L60.8336 36.6914L59.9807 35.8384L60.5622 35.2507L61.1438 34.6631L61.7647 35.274C62.1063 35.6101 62.4765 36.0102 62.5875 36.1635ZM30.3631 36.076C30.1266 36.3125 30.1231 36.34 30.1231 38.0345C30.1231 41.1115 30.6885 42.777 31.6508 42.5354C32.2887 42.3753 32.4084 41.8775 32.0631 40.8199C31.8921 40.2961 31.8452 39.8447 31.7956 38.2461L31.7355 36.3076L31.4613 36.0718C31.103 35.7638 30.6736 35.7653 30.3631 36.076ZM68.9824 40.2869C71.4188 42.7674 72.8832 44.3335 73.0714 44.6599C73.3221 45.0947 73.3642 45.2675 73.3617 45.8525C73.3584 46.6307 73.1562 47.1131 72.6159 47.6309C71.8724 48.3436 70.6874 48.495 69.8058 47.9902C69.4766 47.8017 68.0559 46.4282 65.4902 43.8181L61.6655 39.927L63.025 38.5412C63.7729 37.779 64.5323 36.9905 64.7128 36.7889C64.8933 36.5874 65.0737 36.4224 65.1137 36.4224C65.1538 36.4224 66.8947 38.1615 68.9824 40.2869Z" fill="#0DB960"/>
</svg>
