<svg width="100" height="50" viewBox="0 0 100 50" fill="none" xmlns="http://www.w3.org/2000/svg">
<path fill-rule="evenodd" clip-rule="evenodd" d="M26.303 0.229876C24.6525 1.00011 24.2834 3.1421 25.5807 4.42106C25.9919 4.82642 26.3516 5.01649 26.877 5.10625L27.2883 5.17641L27.3376 23.1067C27.3896 42.0532 27.3706 41.3327 27.826 41.5765C27.9477 41.6416 29.8833 41.6773 33.2923 41.6773C36.1952 41.6773 38.5703 41.7 38.5703 41.7276C38.5703 41.7552 37.2844 43.3846 35.7128 45.3484C34.1413 47.3122 32.8554 48.9484 32.8554 48.9846C32.8554 49.0207 33.1492 49.2841 33.5084 49.5699C34.0648 50.0126 34.1776 50.0673 34.272 49.9403C34.3329 49.8584 35.8433 47.9657 37.6284 45.7343L40.8743 41.6773H44.9937H49.1133V42.6468C49.1133 43.572 49.1025 43.6213 48.8791 43.723C48.4399 43.9232 47.9 44.4832 47.6699 44.9775C47.0824 46.239 47.6032 47.7314 48.8669 48.4083C49.4239 48.7065 50.5756 48.7058 51.1399 48.407C51.6279 48.1485 52.2091 47.5228 52.4118 47.0375C52.6404 46.4903 52.6038 45.5649 52.3303 44.9775C52.1001 44.4832 51.5602 43.9232 51.1211 43.723C50.8976 43.6213 50.8869 43.572 50.8869 42.6468V41.6773H55.0064H59.1259L62.3717 45.7343C64.1568 47.9657 65.6672 49.8584 65.7281 49.9403C65.8225 50.0673 65.9353 50.0126 66.4918 49.5699C66.8509 49.2841 67.1447 49.0207 67.1447 48.9846C67.1447 48.9484 65.8589 47.3122 64.2873 45.3484C62.7157 43.3846 61.4298 41.7552 61.4298 41.7276C61.4298 41.7 63.805 41.6773 66.7078 41.6773C70.1169 41.6773 72.0524 41.6416 72.1741 41.5765C72.6296 41.3327 72.6105 42.0532 72.6626 23.1067L72.7118 5.17641L73.1231 5.10625C73.6486 5.01649 74.0082 4.82642 74.4194 4.42106C75.7168 3.1421 75.3477 1.00011 73.6972 0.229876L73.2045 0H50.0001H26.7957L26.303 0.229876ZM73.1965 1.96119C73.6242 2.36301 73.5205 3.04909 72.9893 3.33208C72.6787 3.49741 27.3214 3.49741 27.0108 3.33208C26.6838 3.15787 26.5559 2.94031 26.5525 2.55239C26.5491 2.17708 26.8197 1.83349 27.1898 1.74324C27.2982 1.71673 37.6368 1.70126 50.1645 1.70875L72.9423 1.72235L73.1965 1.96119ZM70.889 22.6112V40.0023H50.0001H29.1112V22.6112V5.22025H50.0001H70.889V22.6112ZM38.7181 7.83698C38.6097 7.86201 38.2772 7.93 37.9791 7.98794C37.681 8.04587 37.0381 8.2858 36.5504 8.5211C32.5105 10.4699 31.3765 15.5616 34.1861 19.1372C34.7708 19.8813 35.5775 20.5112 36.563 20.9931C37.5305 21.4663 38.4365 21.6717 39.5556 21.6717C40.7239 21.6717 41.6197 21.4594 42.6992 20.9265C44.2555 20.1583 45.5321 18.7117 46.1078 17.0638C47.2819 13.7032 45.7567 10.0363 42.5458 8.5006C42.1582 8.31516 41.6039 8.09908 41.3141 8.02035C40.7774 7.87453 39.0755 7.75432 38.7181 7.83698ZM56.9959 9.55569V10.4425H57.8334H58.6709V9.55569V8.66889H57.8334H56.9959V9.55569ZM60.4445 9.55697V10.445L63.9178 10.4191L67.3911 10.3932L67.4195 9.53105L67.448 8.66889H63.9463H60.4445V9.55697ZM38.6935 12.0436L38.6537 14.433L36.9813 16.1019L35.3089 17.7707L35.0706 17.3828C34.4436 16.3616 34.2154 14.744 34.5227 13.497C34.9183 11.8911 36.1498 10.5005 37.7074 9.90114C38.8236 9.47154 38.7394 9.28866 38.6935 12.0436ZM41.8711 10.1449C42.5838 10.4898 43.694 11.403 43.694 11.6444C43.694 11.7125 40.6244 13.2999 40.4929 13.2999C40.4651 13.2999 40.4424 12.4761 40.4424 11.4693V9.63855L40.7626 9.70102C40.9387 9.73541 41.4376 9.93514 41.8711 10.1449ZM53.4487 13.0036V13.8911H60.4484H67.448L67.4195 13.029L67.3911 12.1668L60.4199 12.1415L53.4487 12.1163V13.0036ZM44.622 13.4623C44.6563 13.5516 44.7116 13.948 44.745 14.3432C44.9349 16.5898 43.5352 18.8143 41.4276 19.6151C39.9735 20.1676 37.8217 19.9562 36.8424 19.1646L36.5504 18.9286L38.3609 17.1734L40.1714 15.4184L42.2529 14.3644C43.3978 13.7847 44.3851 13.3081 44.4471 13.3051C44.509 13.3023 44.5878 13.3729 44.622 13.4623ZM53.4487 16.5022V17.3398H60.4445H67.4403V16.5022V15.6647H60.4445H53.4487V16.5022ZM53.4695 19.9755L53.498 20.8377L58.6956 20.8632L63.8932 20.8887V20.001V19.1133H58.6671H53.441L53.4695 19.9755ZM36.107 25.1731V26.0106H36.9445H37.782V25.1731V24.3356H36.9445H36.107V25.1731ZM39.5556 25.1731V26.0106H43.0535H46.5514V25.1731V24.3356H43.0535H39.5556V25.1731ZM58.7403 26.0727C58.7022 26.1108 58.6709 28.4624 58.6709 31.2986V36.4551H59.5586H60.4463L60.4208 31.2575L60.3953 26.0599L59.6025 26.0316C59.1664 26.016 58.7784 26.0345 58.7403 26.0727ZM32.6014 27.9166C32.5734 27.9895 32.5637 28.3774 32.5798 28.7788L32.6091 29.5085L39.5803 29.5339L46.5514 29.5591V28.6717V27.7842H39.6018C33.8748 27.7842 32.6433 27.8075 32.6014 27.9166ZM62.2181 32.563V36.4551H63.0556H63.8932V32.563V28.671H63.0556H62.2181V32.563ZM55.2223 33.0064V36.4551H56.1091H56.9959V33.0064V29.5578H56.1091H55.2223V33.0064ZM65.6667 33.4498V36.4551H66.5535H67.4403V33.4498V30.4446H66.5535H65.6667V33.4498ZM32.6261 31.2979C32.5897 31.3343 32.5598 31.7337 32.5598 32.1854V33.0064H39.5595H46.5591L46.5306 32.1443L46.5022 31.2821L39.5973 31.2568C35.7997 31.2429 32.6627 31.2614 32.6261 31.2979ZM51.7737 34.2874V36.4551H52.6112H53.4487V34.2874V32.1196H52.6112H51.7737V34.2874ZM32.5598 35.6175V36.4551H37.782H43.0043V35.6175V34.78H37.782H32.5598V35.6175ZM50.5938 45.4735C51.1047 46.0174 50.7374 46.8995 50.0001 46.8995C49.7427 46.8995 49.5737 46.8287 49.4063 46.6505C48.8954 46.1066 49.2628 45.2245 50.0001 45.2245C50.2574 45.2245 50.4264 45.2953 50.5938 45.4735Z" fill="#0DB960"/>
</svg>
