<svg width="100" height="50" viewBox="0 0 100 50" fill="none" xmlns="http://www.w3.org/2000/svg">
<path fill-rule="evenodd" clip-rule="evenodd" d="M25.9311 0.260287L25.613 0.510433V3.15773V5.80491H22.8543C20.0063 5.80491 19.4318 5.88181 19.2119 6.29253C19.1367 6.43317 19.0938 11.9332 19.0938 21.4366V36.3598L19.3901 36.6561C19.5531 36.819 19.8272 36.9524 19.9992 36.9524C20.1712 36.9524 20.4453 36.819 20.6083 36.6561L20.9047 36.3598V21.9852V7.61062L23.2286 7.64334L25.5526 7.67618L25.613 25.13L25.6734 42.5839L26.0007 43.0784C26.3796 43.6511 26.948 44.1044 27.5324 44.3001C28.1195 44.4967 71.8801 44.4967 72.4672 44.3001C73.0517 44.1044 73.62 43.6511 73.999 43.0784L74.3263 42.5839L74.3867 25.13L74.447 7.67618L76.771 7.64334L79.095 7.61062V11.3612V15.1119L79.3914 15.4081C79.769 15.7859 80.2319 15.7859 80.6095 15.4081L80.9059 15.1119L80.902 10.7903C80.8979 6.13582 80.9035 6.17711 80.2543 5.93035C80.0609 5.85682 78.7791 5.80491 77.1555 5.80491H74.3867V3.15773V0.510433L74.0621 0.255216L73.7376 0L64.7964 0.0356147L55.8551 0.0713495L54.8867 0.399364C53.0895 1.00819 51.4991 2.18141 50.5837 3.57388C50.3008 4.00415 50.0317 4.35619 49.9857 4.35619C49.9397 4.35619 49.7528 4.1017 49.5705 3.79058C49.1032 2.99306 47.7801 1.72169 46.858 1.18397C46.428 0.933339 45.6416 0.585767 45.1104 0.411799C44.2425 0.127487 43.9121 0.0898209 41.8508 0.0400814C39.6342 -0.0134006 39.5457 -0.00639869 39.225 0.247611C38.8126 0.574056 38.7691 1.21415 39.1344 1.57947C39.3549 1.79992 39.5368 1.82092 41.2249 1.82092C42.2419 1.82092 43.3964 1.88008 43.7904 1.95239C46.2109 2.39655 48.1322 4.13502 48.8396 6.52106C49.014 7.10936 49.034 8.81234 49.034 23.0908V39.0048H38.229H27.4239V20.4129V1.82092H32.253C36.9211 1.82092 37.0901 1.81283 37.3235 1.57947C37.683 1.21995 37.6455 0.573815 37.2468 0.260287C36.936 0.0156947 36.8082 0.0100204 31.589 0.0100204C26.3697 0.0100204 26.242 0.0156947 25.9311 0.260287ZM72.5758 20.4129V39.0048H61.7707H50.9656V23.0908C50.9656 8.81234 50.9857 7.10936 51.16 6.52106C51.6995 4.70147 52.899 3.28824 54.6006 2.46742C55.8667 1.85666 56.1156 1.84084 64.638 1.83046L72.5758 1.82092V20.4129ZM52.9522 5.49766L52.6558 5.79392V11.1057C52.6558 14.7415 52.6981 16.5104 52.7898 16.7117C52.8636 16.8735 53.0563 17.0662 53.218 17.14C53.4247 17.234 56.0106 17.274 61.9027 17.274H70.2929L70.5892 16.9776C70.9695 16.5974 70.9766 16.0736 70.6062 15.7255L70.3267 15.4631H62.3968H54.4667V10.5946V5.72632L54.1874 5.46374C53.8166 5.11556 53.3207 5.1292 52.9522 5.49766ZM37.019 5.78294C36.4566 6.04588 35.8354 6.63189 35.5428 7.17588C35.2354 7.74741 35.2575 9.22522 35.5827 9.84528L35.834 10.3242L34.7132 11.887L33.5922 13.4497L32.7717 13.4234C30.9525 13.3651 29.7141 14.5476 29.7204 16.337C29.7238 17.3045 30.0047 17.926 30.7253 18.5604C32.1108 19.78 34.1025 19.4848 35.1448 17.9056L35.5615 17.274H38.3138C40.5438 17.274 41.066 17.3049 41.066 17.4369C41.066 17.7499 41.7845 18.5883 42.3229 18.9039C44.0826 19.9351 46.3006 18.928 46.7587 16.8896C47.0038 15.7986 46.4233 14.4883 45.3922 13.8054C44.9518 13.5137 44.7581 13.4682 43.8744 13.4486L42.8615 13.426L41.7713 11.9013L40.681 10.3764L40.9464 9.75968C41.538 8.3846 41.0458 6.75648 39.807 5.99059C39.0453 5.51975 37.7835 5.42571 37.019 5.78294ZM65.772 7.14981C65.6487 7.2214 65.0676 8.27909 64.4807 9.50024C63.8938 10.7214 63.3934 11.7205 63.3689 11.7205C63.3443 11.7205 62.7342 11.0822 62.0132 10.302C60.5959 8.76827 60.2761 8.52271 59.8642 8.65274C59.4608 8.77998 56.3077 10.9729 56.0985 11.2715C55.8512 11.6244 55.8681 11.8693 56.1657 12.2475C56.5939 12.792 57.0031 12.6882 58.5586 11.64L59.9343 10.7132L60.423 11.247C62.7337 13.7711 63.2456 14.2558 63.6003 14.2558C63.7975 14.2558 64.0639 14.1574 64.1926 14.0373C64.3214 13.917 64.8839 12.8577 65.4426 11.6831C66.0013 10.5084 66.5045 9.54744 66.5607 9.54744C66.6168 9.54744 67.0832 9.94705 67.5971 10.4355C68.1109 10.924 68.6483 11.3848 68.7911 11.4596C69.3148 11.7337 70.0405 11.2106 70.0405 10.559C70.0405 10.3311 68.9943 9.21919 67.5969 7.9617C66.5334 7.00493 66.2434 6.87588 65.772 7.14981ZM39.0372 7.69875C39.7673 8.39812 39.246 9.66817 38.229 9.66817C37.9024 9.66817 37.6962 9.57654 37.4349 9.31529C36.3709 8.2512 37.9504 6.6576 39.0372 7.69875ZM40.3138 12.9725L41.4183 14.5262L41.1794 14.9946L40.9404 15.4631H38.2387H35.537L35.2924 14.9939L35.0479 14.5247L35.8989 13.3339C37.4267 11.196 37.1534 11.4187 38.2497 11.4187H39.2093L40.3138 12.9725ZM33.5099 15.5931C34.0034 16.1796 33.8582 17.0038 33.2013 17.3434C32.7113 17.5968 32.3177 17.5543 31.9001 17.2029C31.5877 16.9399 31.5286 16.8048 31.5286 16.3523C31.5286 15.6071 31.9141 15.2216 32.6593 15.2216C33.1118 15.2216 33.2469 15.2806 33.5099 15.5931ZM44.531 15.4031C44.8813 15.6484 45.0904 16.3071 44.942 16.6975C44.7902 17.0964 44.2467 17.5154 43.8808 17.5154C42.7788 17.5154 42.2396 16.1284 43.0836 15.4645C43.4516 15.175 44.1623 15.1448 44.531 15.4031ZM79.5477 17.1016C79.3652 17.2007 79.2031 17.2935 79.1875 17.308C79.172 17.3225 79.1312 23.7178 79.0969 31.5197L79.0346 45.7051L78.675 46.3545C78.4771 46.7118 78.075 47.1874 77.7813 47.4117C76.7009 48.2367 78.7483 48.18 49.9998 48.18C21.2664 48.18 23.2763 48.2349 22.2201 47.4224C21.9418 47.2083 21.5456 46.7343 21.3395 46.3691L20.965 45.7051L20.9047 42.163L20.8443 38.6208L20.5593 38.3903C20.1716 38.0767 19.7454 38.1007 19.3901 38.4561L19.0938 38.7524V42.0524C19.0938 45.7319 19.1744 46.3041 19.8534 47.439C20.5536 48.6095 21.9086 49.5607 23.2949 49.8551C24.2011 50.0476 75.7912 50.0487 76.7047 49.8562C78.1224 49.5577 79.4263 48.6418 80.1463 47.4388C80.9378 46.1162 80.9059 46.7848 80.9059 31.5043C80.9059 23.8876 80.8721 17.5679 80.8309 17.4605C80.7596 17.2744 80.1811 16.9063 79.9763 16.9166C79.9232 16.9193 79.7303 17.0024 79.5477 17.1016ZM30.0391 23.5579C29.6372 23.8741 29.5983 24.5189 29.9592 24.8798C30.1957 25.1163 30.3616 25.1212 38.0994 25.1212H45.9983L46.2485 24.8031C46.5604 24.4065 46.567 24.0249 46.268 23.6557L46.0372 23.3707L38.1988 23.338C30.4018 23.3054 30.3587 23.3066 30.0391 23.5579ZM53.1827 23.4516C52.9182 23.5795 52.6558 24.0259 52.6558 24.3477C52.6558 24.4472 52.7892 24.6618 52.9522 24.8248L53.2485 25.1212H61.0488C66.3162 25.1212 68.9268 25.0797 69.0884 24.9931C69.6674 24.6832 69.613 23.7257 69.0004 23.4467C68.6001 23.2642 53.5599 23.2688 53.1827 23.4516ZM30.0391 27.9041C29.6372 28.2203 29.5983 28.8651 29.9592 29.2259C30.1957 29.4624 30.3616 29.4674 38.0872 29.4674H45.9737L46.2363 29.188C46.5602 28.8431 46.5726 28.3782 46.268 28.0019L46.0372 27.7168L38.1988 27.6841C30.4018 27.6515 30.3587 27.6527 30.0391 27.9041ZM53.1827 27.7977C52.9256 27.9222 52.6558 28.37 52.6558 28.672C52.6558 28.7596 52.7685 28.9743 52.9061 29.1493L53.1562 29.4674H61.0968C68.5062 29.4674 69.05 29.4533 69.2276 29.2561C69.3323 29.14 69.455 28.8968 69.5001 28.7159C69.5666 28.4496 69.5127 28.3173 69.217 28.0217L68.8518 27.6565L61.1462 27.6647C56.1025 27.67 53.3515 27.716 53.1827 27.7977ZM30.3213 32.0882C29.917 32.237 29.7177 32.5315 29.7177 32.9803C29.7177 33.855 29.3008 33.8135 38.114 33.8135H45.9737L46.2363 33.5342C46.6698 33.0726 46.5677 32.4691 46.0072 32.1793C45.7175 32.0294 44.5152 32.0041 38.0841 32.0122C33.9142 32.0174 30.4209 32.0517 30.3213 32.0882ZM53.1827 32.1439C52.9256 32.2684 52.6558 32.7161 52.6558 33.0182C52.6558 33.1057 52.7685 33.3205 52.9061 33.4954L53.1562 33.8135H61.1067H69.0572L69.3073 33.4954C69.648 33.0624 69.6219 32.7728 69.2047 32.3555L68.8518 32.0026L61.1462 32.0108C56.1025 32.0162 53.3515 32.0622 53.1827 32.1439ZM49.034 41.7212V42.6266H38.5253H28.0166L27.7203 42.3302C27.4839 42.094 27.4239 41.9106 27.4239 41.4248V40.8157H38.229H49.034V41.7212ZM72.5758 41.4248C72.5758 41.9106 72.5158 42.094 72.2794 42.3302L71.9831 42.6266H61.4743H50.9656V41.7212V40.8157H61.7707H72.5758V41.4248Z" fill="#0DB960"/>
</svg>
