<svg width="53" height="70" viewBox="0 0 53 70" fill="none" xmlns="http://www.w3.org/2000/svg">
<path fill-rule="evenodd" clip-rule="evenodd" d="M23.3306 0.149578C20.0133 0.626018 17.5479 1.96777 16.1636 4.05017C14.7224 6.21796 14.1384 9.30428 14.6348 12.1294L14.7911 13.0188L14.2451 13.4352C13.4373 14.0513 12.925 15.1427 12.9186 16.261C12.9049 18.6274 14.2537 20.5922 16.0695 20.8508L16.8006 20.9549L17.1113 21.7191C18.0486 24.0245 20.2804 26.2531 22.5219 27.1221C23.4407 27.4782 23.4797 27.5334 23.4797 28.4761V29.3276L21.8036 29.4144C20.0163 29.507 18.4518 29.8563 18.002 30.2634C17.6449 30.5866 17.6472 31.3367 18.0066 31.696C18.3404 32.0299 18.8355 32.0407 19.6485 31.7317C20.1954 31.5237 20.9446 31.4972 26.3532 31.4942C31.8785 31.491 32.518 31.514 33.263 31.7421C35.4979 32.4261 37.2389 34.1495 37.9163 36.3482C38.082 36.8862 38.1689 37.8125 38.2209 39.5979L38.2937 42.095H26.4915H14.6893L14.7563 39.5979C14.8308 36.8296 15.0297 35.9009 15.8124 34.6672C16.533 33.5314 16.2801 32.6538 15.2319 32.6538C14.6586 32.6538 14.3393 33.0018 13.654 34.3728C12.9435 35.7947 12.7961 36.5891 12.7107 39.4611L12.6323 42.095H10.2567H7.88119L7.88297 37.6823L7.88475 33.2695L9.4015 31.3539C10.2356 30.3003 10.9891 29.4617 11.0759 29.4902C11.1625 29.5188 11.5213 29.5723 11.8731 29.6092C14.3959 29.8741 16.2167 27.1285 15.0712 24.7869C13.5478 21.6734 8.85514 22.7842 8.84201 26.2614C8.84037 26.6965 8.93136 27.2737 9.04424 27.5438C9.15713 27.814 9.24949 28.0782 9.24949 28.1312C9.24949 28.184 8.47982 29.2069 7.53912 30.4043L5.82875 32.5814V37.3183V42.0552L4.14151 42.1281C2.34152 42.2059 1.87001 42.3477 1.12976 43.0342C0.504723 43.6141 0.21875 44.3076 0.21875 45.2435C0.21875 46.1449 0.43453 46.7092 1.02112 47.3409C1.69801 48.0701 2.05842 48.1786 4.04888 48.2523L5.89511 48.3208L9.82992 52.8761L13.7649 57.4314V63.0708C13.7649 66.2741 13.8218 68.9085 13.8965 69.1693C14.1493 70.0508 13.3712 69.9995 26.49 69.9995C39.6088 69.9995 38.8306 70.0508 39.0835 69.1693C39.1582 68.9085 39.2151 66.2752 39.2151 63.074V57.4377L40.4273 56.0263C41.0941 55.2501 41.6809 54.4834 41.7314 54.3228C41.9377 53.6668 41.1288 52.8932 40.4589 53.1058C40.304 53.1551 39.6178 53.8379 38.9341 54.6234L37.6907 56.0516H26.4844H15.2779L12.0242 52.2779C10.2348 50.2022 8.75006 48.4473 8.72502 48.3782C8.69738 48.302 15.7084 48.2523 26.4786 48.2523C36.2681 48.2523 44.2778 48.2894 44.2778 48.3349C44.2778 48.3803 43.9084 48.8455 43.4568 49.3689C42.804 50.1255 42.6358 50.4148 42.6358 50.7815C42.6358 51.5476 43.5853 52.0858 44.141 51.6345C44.2538 51.5428 44.981 50.7443 45.7568 49.8601L47.1672 48.2523H48.8056C50.6011 48.2523 51.1699 48.104 51.8502 47.4583C53.0908 46.2808 53.0908 44.1851 51.8502 43.0342C50.9028 42.1555 50.9883 42.1677 45.4254 42.1191L40.3471 42.0748L40.2691 39.4509C40.18 36.4603 40.0368 35.7605 39.1736 34.0975C38.1091 32.047 35.9538 30.3321 33.6735 29.7217C33.222 29.6009 32.1265 29.4627 31.2392 29.4148L29.626 29.3276L29.6657 28.3834L29.7055 27.4392L30.458 27.1325C32.7713 26.1894 34.9288 24.031 35.8687 21.7191L36.1794 20.9549L36.9105 20.8508C38.7114 20.5943 40.0751 18.6266 40.0617 16.3041C40.0543 15.0295 39.4072 13.7455 38.5481 13.3013L38.1689 13.1053L38.3445 12.1042C38.6443 10.3958 38.5384 8.15765 38.1053 7.05029C37.9694 6.70247 37.4855 6.38256 37.0955 6.38256C36.9903 6.38256 36.7336 6.52938 36.5249 6.7089L36.1455 7.03524L36.312 8.18693C36.5305 9.69808 36.5222 10.6459 36.2792 11.9161C36.1163 12.7667 36.0065 13.0199 35.6811 13.2935C35.4619 13.478 35.2055 13.815 35.1113 14.0423C34.9512 14.4288 34.6997 14.6068 34.6997 14.3334C34.6997 14.0513 33.393 12.7906 32.5465 12.256C31.4832 11.5844 30.7996 11.2712 28.366 10.3406C25.8737 9.38747 24.8777 8.82729 23.6248 7.67355C22.1632 6.3277 21.3076 6.178 20.0954 7.05604C19.0039 7.84664 18.3515 9.30209 18.1483 11.3991C18.0692 12.2146 17.9689 13.1117 17.9256 13.3925L17.8466 13.9031L17.3793 13.4078C16.7327 12.722 16.5813 12.0751 16.5845 10.0085C16.5868 8.45471 16.6329 8.09129 16.95 7.13513C17.7675 4.66864 19.2774 3.25807 21.8426 2.56393C24.5782 1.82368 28.3933 1.8215 31.118 2.5586C32.3643 2.89574 33.0468 3.23316 34.0383 4.00242C34.9375 4.70011 35.3772 4.75977 35.8843 4.25268C36.1666 3.9704 36.2187 3.81784 36.1501 3.4748C36.0396 2.92215 35.7955 2.66409 34.6855 1.92617C33.5903 1.19796 32.326 0.699358 30.6633 0.339634C29.0247 -0.014754 25.1703 -0.114776 23.3306 0.149578ZM22.1863 9.12969C23.3957 10.377 24.8791 11.2129 27.9814 12.3951C31.3604 13.6828 32.631 14.5648 33.3706 16.1366C33.6259 16.6792 33.8912 17.0157 34.2139 17.2062C34.6729 17.477 34.6829 17.5016 34.6146 18.1931C34.5078 19.276 34.2832 20.1956 33.9279 21.0057C31.6338 26.2357 24.8434 27.5272 20.782 23.5059C19.3531 22.0911 18.5823 20.3821 18.3584 18.132C18.2835 17.3794 18.291 17.3576 18.6848 17.1945C19.5155 16.8504 19.7145 16.2562 19.9914 13.2924C20.2726 10.2836 20.4507 9.54606 21.0577 8.8797C21.4407 8.45922 21.5623 8.48618 22.1863 9.12969ZM16.0677 15.1054C16.2186 15.3991 16.3865 18.834 16.2498 18.834C15.9745 18.834 15.5518 18.3638 15.3019 17.7794C14.8395 16.6985 14.8514 15.6826 15.3322 15.2019C15.73 14.804 15.901 14.7816 16.0677 15.1054ZM37.6477 15.2019C38.1286 15.6826 38.1405 16.6985 37.6781 17.7794C37.4281 18.3638 37.0055 18.834 36.7302 18.834C36.6762 18.834 36.6675 18.0489 36.7107 17.0895C36.8131 14.8147 36.9615 14.5156 37.6477 15.2019ZM12.9554 25.3723C13.2958 25.6763 13.3817 25.8617 13.3817 26.2912C13.3817 26.7207 13.2958 26.9061 12.9554 27.2102C12.4137 27.6943 11.8665 27.7032 11.3125 27.2369C10.9619 26.942 10.8914 26.7837 10.8914 26.2912C10.8914 25.7988 10.9619 25.6405 11.3125 25.3456C11.8665 24.8793 12.4137 24.8882 12.9554 25.3723ZM27.5575 28.6591L27.599 29.3699H26.5655H25.5322V28.6509V27.932L26.5242 27.94L27.5162 27.9482L27.5575 28.6591ZM50.4207 44.4765C50.774 44.7963 50.8073 45.5906 50.4823 45.9496C50.2646 46.1903 49.341 46.1999 26.5138 46.1999C4.61344 46.1999 2.75228 46.1824 2.52145 45.9734C1.98029 45.4837 2.28761 44.4266 3.02375 44.2452C3.17426 44.2079 13.8353 44.1862 26.7151 44.1967C49.5371 44.2153 50.1401 44.2224 50.4207 44.4765ZM37.0258 63.0299V67.9558H36.0764H35.1271L35.0844 64.4018C35.0426 60.9132 35.0361 60.842 34.7301 60.5363L34.4184 60.2249H26.49H18.5615L18.2498 60.5363C17.9439 60.842 17.9373 60.9132 17.8956 64.4018L17.8529 67.9558H16.9036H15.9541V63.0299V58.1041H26.49H37.0258V63.0299ZM32.921 65.0824V67.9558H26.49H20.059V65.0824V62.2089H26.49H32.921V65.0824Z" fill="#0DB960"/>
</svg>
