<svg width="67" height="70" viewBox="0 0 67 70" fill="none" xmlns="http://www.w3.org/2000/svg">
<path fill-rule="evenodd" clip-rule="evenodd" d="M8.35469 0.206561C7.60054 0.475676 6.9402 1.03086 6.51875 1.75C6.20998 2.27675 6.13655 2.58948 6.08923 3.57952L6.03221 4.77358L4.63536 4.81966C3.36007 4.86192 3.17998 4.90198 2.56613 5.28104C1.72337 5.80136 1.0555 6.8573 0.938176 7.85486C0.892776 8.24158 0.873769 18.4551 0.896058 30.5517L0.936535 52.5453L1.33187 52.8853C1.7622 53.2555 2.22987 53.2373 2.67881 52.8327C2.90307 52.6307 2.91907 51.3047 2.9523 30.1324L2.98771 7.64673L3.43432 7.24771L3.88093 6.84869H24.948H46.0152L46.4149 7.24839L46.8146 7.6481L46.8116 37.3665C46.8087 65.3178 46.7945 67.1023 46.5723 67.3767C46.4422 67.5371 46.2015 67.7371 46.0373 67.8211C45.5806 68.0546 4.2083 68.033 3.73981 67.7989C3.55179 67.705 3.29033 67.4136 3.15892 67.1514C2.94409 66.7231 2.91975 66.1573 2.91961 61.581C2.91934 56.6696 2.9095 56.4774 2.64585 56.2137C2.27719 55.8451 1.53698 55.8524 1.19703 56.2281C0.950209 56.5009 0.936535 56.7969 0.936535 61.8688C0.936535 66.0532 0.977422 67.3375 1.12401 67.7524C1.36263 68.4282 2.12663 69.276 2.84167 69.6588L3.39795 69.9566L24.6409 69.9925C39.0232 70.0168 46.0544 69.9825 46.4119 69.8862C47.2051 69.6726 48.0518 68.9536 48.4838 68.1267C48.8067 67.5086 48.8658 67.2307 48.8658 66.3297V65.2638L50.2787 65.2172C51.5718 65.1745 51.7488 65.1353 52.3641 64.7554C53.2069 64.2351 53.8747 63.1791 53.9921 62.1816C54.0375 61.7948 54.0565 51.2428 54.0342 38.7325L53.9937 15.9864L53.6708 15.7251C53.253 15.3867 52.8204 15.3936 52.3723 15.7462L52.0132 16.0287L51.9779 39.2092L51.9425 62.3897L51.4959 62.7887C51.0999 63.1426 50.9492 63.1877 50.1626 63.1877H49.276L49.2752 35.4626C49.2748 16.7853 49.2283 7.57125 49.133 7.22816C48.9095 6.42368 48.1965 5.59268 47.3703 5.17356L46.6287 4.79751H27.3723H8.11566V3.9702C8.11566 3.01517 8.35469 2.45793 8.86393 2.22601C9.13688 2.10158 14.2129 2.0626 30.1359 2.0626H51.0493L51.4959 2.46149L51.9425 2.86038L51.9819 7.51518L52.0212 12.17L52.3764 12.4494C52.8207 12.7989 53.254 12.8049 53.6708 12.4673L53.9937 12.2057V7.37352C53.9937 2.65088 53.9869 2.52836 53.6918 1.97673C53.2997 1.24377 52.3067 0.375852 51.627 0.172238C50.79 -0.0785528 9.06085 -0.0454604 8.35469 0.206561ZM8.18403 10.495C7.55049 10.8298 7.27837 11.1087 7.00543 11.7031C6.76954 12.2169 6.75409 12.8199 6.75204 21.6172C6.75053 27.6481 6.80004 31.1654 6.89097 31.4928C7.08679 32.198 7.6082 32.7707 8.29042 33.0301C8.80417 33.2253 9.93096 33.2453 18.5299 33.2108L28.1919 33.1721L28.7174 32.7522C29.7806 31.9023 29.721 32.5543 29.7211 21.7837C29.7214 13.9268 29.6871 12.0927 29.5331 11.733C29.3054 11.2007 28.698 10.6107 28.1741 10.4128C27.915 10.3149 24.6532 10.2691 18.1917 10.2728C9.70218 10.2776 8.54696 10.3033 8.18403 10.495ZM27.6019 21.7539V31.121L18.3118 31.1561C10.9704 31.1839 8.9989 31.1552 8.91275 31.0194C8.78106 30.8119 8.76014 12.54 8.89155 12.4088C8.94215 12.358 13.1728 12.3324 18.2928 12.3517L27.6019 12.3869V21.7539ZM16.9117 14.1482C16.0987 14.414 15.4824 14.8252 14.8206 15.5431C13.9314 16.5077 13.6567 17.2309 13.6552 18.6117C13.654 19.6482 13.7023 19.8752 14.0924 20.6676C14.3336 21.1576 14.6863 21.7044 14.8762 21.8829L15.2215 22.2072L14.6856 22.7887C14.3908 23.1085 13.9777 23.6989 13.7675 24.1005C13.4073 24.7891 13.3827 24.9484 13.3369 26.8968L13.2882 28.9629L13.6604 29.2556C14.1397 29.6326 14.4382 29.6251 14.904 29.2246C15.2718 28.908 15.2822 28.8581 15.3573 27.0466C15.431 25.2662 15.4503 25.1695 15.843 24.6119C16.9443 23.0484 19.3146 22.9533 20.5269 24.4241C21.0272 25.031 21.2432 25.7256 21.2432 26.7268V27.4972H19.9441C18.8273 27.4972 18.6066 27.5356 18.3716 27.7707C17.9643 28.1779 18.0069 28.9098 18.4584 29.2649C18.7837 29.5209 19.0036 29.5484 20.7208 29.5484C22.5807 29.5484 22.6309 29.5406 22.974 29.1975C23.3227 28.8488 23.3246 28.8345 23.2706 26.9754C23.222 25.3062 23.1772 25.0198 22.8546 24.3223C22.6558 23.8922 22.213 23.241 21.8709 22.8752L21.2487 22.2101L21.6399 21.8353C21.855 21.6292 22.2077 21.142 22.4235 20.7525C22.782 20.1055 22.8158 19.927 22.8158 18.6772C22.8158 17.5344 22.7652 17.2069 22.5074 16.684C21.7088 15.0634 20.2428 14.0917 18.47 14.008C17.8782 13.9801 17.2539 14.0362 16.9117 14.1482ZM32.1828 15.6004C31.6624 16.1208 31.8868 16.9747 32.6106 17.227C33.205 17.4341 41.69 17.4341 42.2845 17.227C43.0083 16.9747 43.2327 16.1208 42.7122 15.6004C42.4487 15.3369 42.2564 15.3269 37.4475 15.3269C32.6386 15.3269 32.4463 15.3369 32.1828 15.6004ZM19.4379 16.3038C20.3042 16.7232 20.833 17.5948 20.833 18.6034C20.833 19.515 20.5325 20.1437 19.8222 20.7188C19.4101 21.0521 19.1621 21.1362 18.4577 21.1811C17.3851 21.2493 16.6226 20.904 16.0989 20.1128C14.628 17.8902 17.0373 15.1417 19.4379 16.3038ZM57.9156 20.6165C57.6657 20.7395 57.2965 21.0564 57.0951 21.3206L56.7286 21.801L56.6926 36.9581L56.6567 52.1152L58.5006 55.7871C60.4468 59.663 60.6012 59.8751 61.5677 60.0016C61.9334 60.0493 62.186 59.9832 62.5403 59.7467C62.9424 59.4782 63.319 58.8316 64.8991 55.6955L66.7794 51.9637L66.7786 37.3032C66.7782 27.6404 66.7297 22.4694 66.6366 22.1342C66.4684 21.5286 65.9381 20.8637 65.4025 20.5867C64.8033 20.2768 58.5542 20.3017 57.9156 20.6165ZM32.2451 21.4059C31.8143 21.8365 31.8062 22.4299 32.2258 22.8241C32.5385 23.1178 32.6006 23.1214 37.4038 23.1214C42.1148 23.1214 42.2763 23.1126 42.6254 22.8379C43.0965 22.4675 43.1069 21.8626 42.65 21.4059L42.3144 21.0702H37.4475H32.5806L32.2451 21.4059ZM64.6598 24.6256V26.7451L61.6856 26.782L58.7114 26.8188V24.6256V22.4323L61.6856 22.4691L64.6598 22.506V24.6256ZM32.511 27.419C31.8523 27.7058 31.6866 28.5052 32.1828 29.0014C32.4463 29.2649 32.6386 29.2749 37.4475 29.2749C42.2564 29.2749 42.4487 29.2649 42.7122 29.0014C43.2327 28.481 43.0083 27.6271 42.2845 27.3748C41.6124 27.1406 33.062 27.1792 32.511 27.419ZM64.7282 39.8043V50.7439H61.7198H58.7114V39.8043V28.8647H61.7198H64.7282V39.8043ZM7.0686 37.557C6.78445 37.8412 6.73412 37.9905 6.80441 38.3415C6.98751 39.257 5.52502 39.1852 24.8082 39.2246L42.3113 39.2603L42.6485 38.9232C43.0807 38.491 43.0894 37.8982 42.6693 37.5034L42.3527 37.2061H24.8861H7.41949L7.0686 37.557ZM7.48075 43.0843C7.13492 43.2247 6.74821 43.7375 6.74821 44.0554C6.74821 44.1789 6.87579 44.4421 7.03168 44.6403L7.31502 45.0006H24.8716H42.4281L42.7069 44.7013C43.0569 44.3256 43.0642 43.7603 42.7243 43.3407L42.4629 43.0178L25.1183 42.9914C15.5158 42.9769 7.64293 43.0182 7.48075 43.0843ZM7.0686 49.1804C6.78554 49.4634 6.73385 49.6155 6.80168 49.9667C6.8479 50.2061 7.01555 50.5098 7.17403 50.6414C7.4452 50.8664 8.49308 50.8807 24.8883 50.8807H42.3144L42.65 50.545C43.1069 50.0882 43.0965 49.4834 42.6254 49.113C42.2652 48.8295 42.2614 48.8295 24.8423 48.8295H7.41949L7.0686 49.1804ZM16.8066 53.8814C15.8308 54.8628 15.6993 54.952 15.4423 54.8044C15.2428 54.6898 14.1386 54.6412 11.7394 54.6412C8.36686 54.6412 8.31367 54.6455 7.79185 54.97C6.84338 55.5595 6.75464 55.9516 6.75122 59.5692C6.74835 62.5675 6.76311 62.7491 7.05589 63.3297C7.2807 63.7755 7.52793 64.0227 7.97372 64.2475C8.55366 64.54 8.73949 64.5552 11.7252 64.5552C14.623 64.5552 14.9119 64.5332 15.4516 64.272C15.795 64.1057 16.1657 63.7811 16.3494 63.4857C16.6467 63.0078 16.6646 62.8308 16.7078 59.9458L16.7532 56.9088L17.8827 55.7067C18.5039 55.0454 19.0848 54.3673 19.1737 54.1996C19.5064 53.5721 18.9872 52.7951 18.2354 52.7951C17.9813 52.7951 17.5931 53.0903 16.8066 53.8814ZM62.8659 55.1523L61.6856 57.5095L60.5476 55.2549C59.9217 54.0149 59.4064 52.9541 59.4024 52.8977C59.3984 52.8412 60.4417 52.7951 61.7206 52.7951H64.046L62.8659 55.1523ZM13.3369 57.547C12.2826 58.7285 11.0101 59.9757 10.9388 59.8978C10.9083 59.8647 10.4815 59.2138 9.99044 58.4516C9.49925 57.6892 9.02939 57.0234 8.94625 56.972C8.5233 56.7107 9.17366 56.624 11.5564 56.624H14.1606L13.3369 57.547ZM19.5524 58.8219C19.0814 59.1923 19.0612 59.8719 19.5085 60.2923L19.825 60.5896H31.0451C42.189 60.5896 42.2675 60.5877 42.6254 60.3061C43.0965 59.9357 43.1069 59.3308 42.65 58.8741L42.3144 58.5384H31.1135C19.989 58.5384 19.9102 58.5403 19.5524 58.8219ZM14.6202 62.3243C14.5689 62.4579 14.1601 62.504 13.0274 62.504H11.5035L13.0572 60.8424L14.6111 59.181L14.6502 60.6627C14.6716 61.4777 14.6581 62.2255 14.6202 62.3243ZM9.95488 62.128L10.1983 62.504H9.49884H8.79939V61.446V60.3882L9.25543 61.07C9.50636 61.4451 9.82115 61.9212 9.95488 62.128Z" fill="#0DB960"/>
</svg>
