<svg width="72" height="70" viewBox="0 0 72 70" fill="none" xmlns="http://www.w3.org/2000/svg">
<path fill-rule="evenodd" clip-rule="evenodd" d="M2.65661 0.321827C0.34588 1.40015 -0.170864 4.39895 1.64547 6.18948C2.22111 6.75699 2.72461 7.02309 3.46028 7.14875L4.03606 7.24697L4.10504 32.3493C4.17787 58.8745 4.15125 57.8658 4.78883 58.2071C4.95919 58.2983 7.669 58.3482 12.4416 58.3482C16.5057 58.3482 19.8308 58.38 19.8308 58.4186C19.8308 58.4573 18.0306 60.7384 15.8304 63.4878C13.6302 66.2371 11.83 68.5278 11.83 68.5784C11.83 68.629 12.2413 68.9978 12.7442 69.3978C13.5231 70.0176 13.6811 70.0943 13.8132 69.9165C13.8985 69.8017 16.013 67.1519 18.5122 64.028L23.0564 58.3482H28.8236H34.591V59.7055C34.591 61.0008 34.576 61.0697 34.2631 61.2122C33.6483 61.4924 32.8925 62.2765 32.5702 62.9684C31.7478 64.7346 32.4769 66.824 34.2461 67.7716C35.0258 68.1891 36.6383 68.1882 37.4283 67.7698C38.1115 67.4079 38.9251 66.532 39.209 65.8525C39.529 65.0864 39.4777 63.7909 39.0948 62.9684C38.7725 62.2765 38.0168 61.4924 37.4019 61.2122C37.0891 61.0697 37.074 61.0008 37.074 59.7055V58.3482H42.8414H48.6086L53.1528 64.028C55.652 67.1519 57.7666 69.8017 57.8518 69.9165C57.984 70.0943 58.1419 70.0176 58.9209 69.3978C59.4237 68.9978 59.835 68.629 59.835 68.5784C59.835 68.5278 58.0349 66.2371 55.8346 63.4878C53.6344 60.7384 51.8342 58.4573 51.8342 58.4186C51.8342 58.38 55.1594 58.3482 59.2234 58.3482C63.996 58.3482 66.7058 58.2983 66.8762 58.2071C67.5138 57.8658 67.4872 58.8745 67.56 32.3493L67.629 7.24697L68.2048 7.14875C68.9404 7.02309 69.4439 6.75699 70.0196 6.18948C71.8359 4.39895 71.3192 1.40015 69.0084 0.321827L68.3187 0H35.8325H3.34633L2.65661 0.321827ZM68.3075 2.74567C68.9063 3.30821 68.7611 4.26873 68.0174 4.66491C67.5826 4.89638 4.08241 4.89638 3.64761 4.66491C3.18977 4.42102 3.01071 4.11643 3.00588 3.57334C3.00119 3.04791 3.37999 2.56689 3.89812 2.44053C4.04986 2.40343 18.5239 2.38177 36.0628 2.39225L67.9516 2.41129L68.3075 2.74567ZM65.077 31.6558V56.0031H35.8325H6.58806V31.6558V7.30836H35.8325H65.077V31.6558ZM20.0378 10.9718C19.886 11.0068 19.4204 11.102 19.0032 11.1831C18.5859 11.2642 17.6858 11.6001 17.0029 11.9295C11.3472 14.6578 9.75956 21.7863 13.6929 26.7921C14.5115 27.8338 15.6409 28.7157 17.0206 29.3904C18.3751 30.0528 19.6435 30.3404 21.2103 30.3404C22.8459 30.3404 24.1 30.0432 25.6113 29.2972C27.7902 28.2216 29.5774 26.1964 30.3834 23.8893C32.0272 19.1845 29.8918 14.0509 25.3965 11.9008C24.8538 11.6412 24.0779 11.3387 23.6722 11.2285C22.9208 11.0243 20.5381 10.856 20.0378 10.9718ZM45.6267 13.378V14.6195H46.7992H47.9717V13.378V12.1365H46.7992H45.6267V13.378ZM50.4548 13.3798V14.6231L55.3173 14.5868L60.1799 14.5505L60.2198 13.3435L60.2596 12.1365H55.3572H50.4548V13.3798ZM20.0033 16.8611L19.9475 20.2063L17.6062 22.5427L15.2648 24.879L14.9313 24.3359C14.0534 22.9063 13.734 20.6416 14.1642 18.8958C14.718 16.6475 16.4422 14.7007 18.6228 13.8616C20.1855 13.2602 20.0675 13.0041 20.0033 16.8611ZM24.452 14.2029C25.4498 14.6857 27.004 15.9642 27.004 16.3021C27.004 16.3975 22.7066 18.6199 22.5224 18.6199C22.4835 18.6199 22.4518 17.4665 22.4518 16.057V13.494L22.9001 13.5814C23.1466 13.6296 23.845 13.9092 24.452 14.2029ZM40.6606 18.2051V19.4476H50.4601H60.2596L60.2198 18.2405L60.1799 17.0335L50.4203 16.9981L40.6606 16.9628V18.2051ZM28.3032 18.8472C28.3512 18.9722 28.4287 19.5272 28.4755 20.0805C28.7413 23.2258 26.7816 26.34 23.8311 27.4611C21.7953 28.2347 18.7829 27.9387 17.4118 26.8304L17.0029 26.5L19.5377 24.0428L22.0724 21.5857L24.9865 20.1101C26.5893 19.2986 27.9716 18.6313 28.0583 18.6272C28.1451 18.6232 28.2553 18.7221 28.3032 18.8472ZM40.6606 23.1031V24.2757H50.4548H60.2489V23.1031V21.9306H50.4548H40.6606V23.1031ZM40.6897 27.9657L40.7296 29.1727L48.0062 29.2085L55.2828 29.2442V28.0014V26.7587H47.9664H40.6499L40.6897 27.9657ZM16.3822 35.2423V36.4149H17.5547H18.7273V35.2423V34.0698H17.5547H16.3822V35.2423ZM21.2103 35.2423V36.4149H26.1074H31.0044V35.2423V34.0698H26.1074H21.2103V35.2423ZM48.0688 36.5018C48.0155 36.5552 47.9717 39.8474 47.9717 43.818V51.0371H49.2145H50.4572L50.4215 43.7605L50.3858 36.4838L49.2759 36.4443C48.6653 36.4225 48.1222 36.4483 48.0688 36.5018ZM11.4744 39.0833C11.4352 39.1852 11.4217 39.7283 11.4442 40.2903L11.4851 41.3119L21.2448 41.3474L31.0044 41.3827V40.1404V38.8979H21.275C13.2572 38.8979 11.533 38.9305 11.4744 39.0833ZM52.9378 45.5883V51.0371H54.1103H55.2828V45.5883V40.1394H54.1103H52.9378V45.5883ZM43.1436 46.209V51.0371H44.3851H45.6267V46.209V41.3809H44.3851H43.1436V46.209ZM57.7659 46.8298V51.0371H59.0074H60.2489V46.8298V42.6224H59.0074H57.7659V46.8298ZM11.509 43.817C11.4579 43.8681 11.4162 44.4272 11.4162 45.0595V46.209H21.2157H31.0152L30.9753 45.002L30.9354 43.795L21.2686 43.7595C15.9519 43.7401 11.5602 43.766 11.509 43.817ZM38.3155 48.0023V51.0371H39.4881H40.6606V48.0023V44.9675H39.4881H38.3155V48.0023ZM11.4162 49.8646V51.0371H18.7273H26.0384V49.8646V48.692H18.7273H11.4162V49.8646ZM36.6638 63.6629C37.379 64.4243 36.8648 65.6593 35.8325 65.6593C35.4722 65.6593 35.2356 65.5602 35.0013 65.3107C34.286 64.5493 34.8003 63.3143 35.8325 63.3143C36.1928 63.3143 36.4294 63.4134 36.6638 63.6629Z" fill="#0DB960"/>
</svg>
