<svg width="100" height="50" viewBox="0 0 100 50" fill="none" xmlns="http://www.w3.org/2000/svg">
<path fill-rule="evenodd" clip-rule="evenodd" d="M28.6341 0.219727C28.3473 0.364551 28.1242 0.572656 27.9803 0.830078L27.7617 1.2207V25V48.7793L27.9803 49.1699C28.1242 49.4273 28.3473 49.6354 28.6341 49.7803C29.0694 50 29.0694 50 34.309 50C39.4618 50 39.5528 49.9967 39.8059 49.7976C40.1326 49.5406 40.1577 49.0417 39.8577 48.77C39.6625 48.5934 39.3911 48.5815 34.4622 48.5352L29.2722 48.4863V25V1.51367H46.5573H63.8425V3.70518V5.89668L63.1713 6.02061C61.5116 6.32686 59.6921 7.3706 59.6921 8.01641C59.6921 8.10459 59.7832 8.29258 59.8945 8.43408C60.1664 8.77979 60.5779 8.76992 61.1483 8.4041C63.1436 7.12451 65.3063 6.9918 67.4069 8.02002C69.0276 8.81338 70.3192 10.4743 70.6969 12.2508C70.8876 13.1478 70.8195 14.5721 70.545 15.4297C69.9666 17.2366 68.5483 18.6888 66.6493 19.4185C66.0539 19.6472 65.8602 19.6714 64.6237 19.6714C63.3873 19.6714 63.1936 19.6472 62.5981 19.4185C61.6502 19.0542 60.9295 18.591 60.2438 17.9054C59.5325 17.1941 59.0896 16.4904 58.7363 15.5112C58.5063 14.8732 58.4783 14.6561 58.4805 13.5254C58.4826 12.3879 58.5102 12.1836 58.7457 11.5604C59.0606 10.7271 59.0779 10.347 58.8119 10.1062C58.5606 9.87891 58.0901 9.87803 57.8399 10.1044C57.3298 10.5661 56.9062 12.4823 56.9868 13.9631C57.1742 17.4034 59.5771 20.2497 62.9395 21.0143L63.892 21.2309L63.8672 34.8586L63.8425 48.4863L53.1161 48.5352L42.3896 48.584L42.203 48.8145C41.9491 49.128 41.9685 49.4728 42.2561 49.7603L42.4957 50H53.2758H64.0559L64.4812 49.7751C64.7718 49.6214 64.9775 49.4156 65.1312 49.125L65.3562 48.6997V34.9652V21.2307L66.3108 21.0154C68.9694 20.4158 71.0037 18.565 71.9135 15.918C72.2128 15.0471 72.2326 14.9064 72.2366 13.623C72.2417 11.9939 72.1106 11.4064 71.4447 10.0744C70.3336 7.85195 68.1402 6.29805 65.6003 5.93379C65.4126 5.90693 65.403 5.8125 65.3562 3.51445C65.3097 1.23672 65.2967 1.10596 65.0839 0.76377C64.9527 0.552832 64.688 0.320996 64.4428 0.202246L64.025 0H46.5472H29.0694L28.6341 0.219727ZM32.0197 5.67119C31.6639 5.95107 31.6639 6.45127 32.0197 6.73115C32.2766 6.9333 32.2953 6.93359 43.3782 6.93359C54.4152 6.93359 54.4808 6.93242 54.6932 6.73447C54.8326 6.60459 54.9069 6.41924 54.9069 6.20117C54.9069 5.98311 54.8326 5.79775 54.6932 5.66787C54.4808 5.46992 54.4152 5.46875 43.3782 5.46875C32.2953 5.46875 32.2766 5.46904 32.0197 5.67119ZM31.9747 9.60098C31.6743 9.9208 31.6942 10.3814 32.0197 10.6374C32.2763 10.8393 32.3059 10.8398 42.4733 10.8398H52.6697L52.9094 10.6001C53.2023 10.3072 53.2152 9.97363 52.9467 9.63232L52.7443 9.375H42.4657H32.1871L31.9747 9.60098ZM66.6257 9.66289C66.0119 9.78467 65.6794 10.0396 64.7668 11.0879L63.8675 12.121L63.6583 11.9245C63.3375 11.6231 62.7766 11.4258 62.2406 11.4258C61.6255 11.4258 61.2901 11.5532 60.8765 11.9444C60.1646 12.6176 59.9928 13.5558 60.4249 14.4096C60.7063 14.9656 62.3258 16.8349 62.8072 17.1593C63.4177 17.5707 64.3664 17.5697 64.9788 17.157C65.4434 16.8438 68.7322 12.9422 68.9136 12.489C69.3694 11.3497 68.6875 9.94014 67.5722 9.71601C67.4007 9.68154 67.1945 9.64023 67.114 9.62422C67.0334 9.60811 66.8137 9.62549 66.6257 9.66289ZM67.4313 11.3093C67.8141 11.638 67.6681 11.9011 66.0347 13.8263C65.1726 14.8424 64.3767 15.7507 64.266 15.8447C63.8538 16.1951 63.664 16.0832 62.6255 14.8777C61.6021 13.6898 61.4831 13.4269 61.8068 13.0692C62.0927 12.7533 62.4949 12.8427 62.965 13.3264C63.4278 13.8025 63.7817 13.9435 64.171 13.8065C64.3097 13.7577 64.9155 13.1489 65.5174 12.4535C66.1191 11.7581 66.6916 11.1606 66.7895 11.1257C66.9993 11.0508 67.1959 11.107 67.4313 11.3093ZM31.9577 13.4766C31.6662 13.7681 31.6973 14.29 32.0214 14.545L32.2804 14.7487L42.5281 14.723L52.7758 14.6973L52.9624 14.4667C53.2152 14.1545 53.199 13.7527 52.9231 13.4936L52.6971 13.2812H42.4251C32.2832 13.2812 32.1506 13.2837 31.9577 13.4766ZM31.9577 17.3828C31.7109 17.6296 31.707 18.0741 31.9491 18.3729L32.1357 18.6035H43.3158C54.1729 18.6035 54.5018 18.5981 54.7014 18.4175C54.9661 18.1779 54.9813 17.578 54.7283 17.3491C54.5644 17.2007 53.6346 17.1875 43.3514 17.1875C32.2832 17.1875 32.1508 17.1897 31.9577 17.3828ZM32.276 21.0644C31.7928 21.1588 31.5955 21.9034 31.9577 22.2656C32.1509 22.4588 32.2832 22.4609 44.2064 22.4609H56.26L56.4623 22.2036C56.7259 21.8687 56.7178 21.6546 56.4291 21.3189L56.1934 21.0449L44.3441 21.0332C37.8271 21.0268 32.3963 21.0408 32.276 21.0644ZM32.1838 25.0007C31.7482 25.1762 31.621 25.8352 31.9577 26.1719C32.1512 26.3653 32.2832 26.3672 45.7652 26.3672C58.6067 26.3672 59.3895 26.3574 59.5895 26.1955C59.9076 25.9379 59.891 25.4188 59.5555 25.1302L59.2905 24.9023L45.8438 24.9085C38.3428 24.912 32.3028 24.9527 32.1838 25.0007ZM32.0197 29.011C31.6834 29.2756 31.6689 29.7609 31.9884 30.0611L32.2145 30.2734H45.8067C59.2689 30.2734 59.401 30.2716 59.5944 30.0781C59.9118 29.7607 59.8884 29.3457 59.5352 29.0283L59.2905 28.8086H45.7838H32.2771L32.0197 29.011ZM32.0197 32.9173C31.6639 33.1972 31.6639 33.6974 32.0197 33.9772L32.2771 34.1797H45.7812C53.2086 34.1797 59.3599 34.1512 59.4508 34.1162C59.8855 33.9494 59.9149 33.0363 59.493 32.8104C59.3789 32.7494 54.427 32.7148 45.7957 32.7148H32.2771L32.0197 32.9173ZM51.6843 37.6684C51.6037 37.6987 50.6995 38.3944 49.675 39.2144C48.6505 40.0343 47.2442 41.1197 46.55 41.6266C45.8558 42.1334 45.225 42.6587 45.1483 42.7938C44.8759 43.2739 45.4251 43.9567 45.9497 43.7902C46.1759 43.7185 47.145 43.0432 48.3411 42.1242C48.7851 41.783 49.1696 41.5039 49.1956 41.5039C49.2216 41.5039 49.2429 41.6811 49.2429 41.8977C49.2429 42.9891 50.2369 43.8205 51.2179 43.5497C51.5614 43.4548 51.592 43.4676 51.9992 43.8748C52.9152 44.7907 54.4491 44.7208 55.5655 43.7121L55.9562 43.3592L56.3733 43.5064C57.291 43.8302 58.7662 43.7883 60.3269 43.3939C61.2188 43.1687 61.5487 42.7371 61.2523 42.1833C61.0473 41.8001 60.8136 41.7692 59.8568 41.999C58.9209 42.2238 57.4406 42.3026 56.9115 42.1558C56.7519 42.1114 56.4552 41.8954 56.2523 41.6756C55.9789 41.3795 55.8079 41.2761 55.5918 41.2761C55.1941 41.2761 54.9165 41.5558 54.8404 42.0331C54.7627 42.5203 54.3536 42.9354 53.8598 43.0281C53.4326 43.1082 53.016 42.9754 52.9716 42.7449C52.9535 42.6509 53.1398 42.1437 53.3857 41.6178C53.9072 40.502 53.9459 40.1422 53.5754 39.8509C53.078 39.4596 52.7707 39.6296 52.1809 40.6224C51.7122 41.4112 51.1058 42.0898 50.8693 42.0898C50.6334 42.0898 50.6591 41.4941 50.9168 40.9873C51.2005 40.4294 51.7931 39.5649 52.2684 39.0158C52.6891 38.5298 52.7208 38.4221 52.5524 38.0524C52.3992 37.7162 52.0118 37.5448 51.6843 37.6684Z" fill="#0DB960"/>
</svg>
