<svg width="88" height="70" viewBox="0 0 88 70" fill="none" xmlns="http://www.w3.org/2000/svg">
<path fill-rule="evenodd" clip-rule="evenodd" d="M10.4708 0.364402L10.0254 0.714607V4.42082V8.12687H6.16317C2.17604 8.12687 1.37169 8.23454 1.06391 8.80954C0.958608 9.00644 0.898438 16.7065 0.898438 30.0113V50.9037L1.31338 51.3185C1.54155 51.5467 1.92522 51.7334 2.16607 51.7334C2.40692 51.7334 2.79059 51.5467 3.01876 51.3185L3.4337 50.9037V30.7793V10.6549L6.68729 10.7007L9.94088 10.7466L10.0254 35.182L10.1099 59.6174L10.5681 60.3097C11.0987 61.1115 11.8944 61.7462 12.7126 62.0202C13.5345 62.2953 74.7994 62.2953 75.6213 62.0202C76.4395 61.7462 77.2353 61.1115 77.7658 60.3097L78.224 59.6174L78.3085 35.182L78.393 10.7466L81.6466 10.7007L84.9002 10.6549V15.9057V21.1566L85.3151 21.5714C85.8438 22.1002 86.4918 22.1002 87.0205 21.5714L87.4355 21.1566L87.4301 15.1065C87.4243 8.59015 87.4321 8.64796 86.5233 8.30248C86.2525 8.19955 84.4579 8.12687 82.1849 8.12687H78.3085V4.42082V0.714607L77.8542 0.357303L77.3999 0L64.8821 0.0498605L52.3643 0.0998893L51.0086 0.55911C48.4925 1.41147 46.266 3.05398 44.9843 5.00343C44.5883 5.60581 44.2116 6.09866 44.1472 6.09866C44.0828 6.09866 43.8211 5.74237 43.5659 5.30682C42.9117 4.19029 41.0594 2.41036 39.7684 1.65756C39.1664 1.30668 38.0654 0.820073 37.3217 0.576519C36.1067 0.178482 35.6441 0.125749 32.7583 0.056114C29.6551 -0.0187608 29.5312 -0.00895817 29.0821 0.346655C28.5048 0.803679 28.4439 1.69981 28.9554 2.21126C29.264 2.51988 29.5187 2.54929 31.8821 2.54929C33.3059 2.54929 34.9222 2.63211 35.4737 2.73335C38.8625 3.35517 41.5522 5.78902 42.5427 9.12949C42.7868 9.95311 42.8148 12.3373 42.8148 32.3272V54.6067H27.6877H12.5607V28.578V2.54929H19.3214C25.8568 2.54929 26.0934 2.53797 26.4201 2.21126C26.9234 1.70792 26.8709 0.803341 26.3128 0.364402C25.8776 0.0219726 25.6987 0.0140285 18.3918 0.0140285C11.0848 0.0140285 10.906 0.0219726 10.4708 0.364402ZM75.7732 28.578V54.6067H60.6462H45.5191V32.3272C45.5191 12.3373 45.5471 9.95311 45.7912 9.12949C46.5465 6.58205 48.2257 4.60353 50.608 3.45438C52.3805 2.59932 52.729 2.57718 64.6603 2.56265L75.7732 2.54929V28.578ZM48.3003 7.69672L47.8853 8.11149V15.5479C47.8853 20.6381 47.9445 23.1145 48.0729 23.3964C48.1762 23.6229 48.446 23.8927 48.6725 23.9959C48.9618 24.1276 52.582 24.1835 60.8309 24.1835H72.5773L72.9921 23.7686C73.5245 23.2364 73.5344 22.503 73.0159 22.0157L72.6246 21.6483H61.5227H50.4206V14.8325V8.01684L50.0295 7.64923C49.5104 7.16178 48.8161 7.18088 48.3003 7.69672ZM25.9938 8.09611C25.2064 8.46423 24.3368 9.28465 23.9271 10.0462C23.4968 10.8464 23.5277 12.9153 23.983 13.7834L24.3348 14.4539L22.7656 16.6418L21.1963 18.8296L20.0476 18.7927C17.5007 18.7111 15.7669 20.3666 15.7757 22.8718C15.7804 24.2263 16.1737 25.0964 17.1826 25.9846C19.1223 27.692 21.9107 27.2788 23.3698 25.0678L23.9533 24.1835H27.8066C30.9285 24.1835 31.6596 24.2268 31.6596 24.4117C31.6596 24.8498 32.6655 26.0236 33.4193 26.4655C35.8829 27.9092 38.9881 26.4993 39.6293 23.6454C39.9724 22.118 39.1598 20.2836 37.7162 19.3275C37.0996 18.9192 36.8285 18.8554 35.5913 18.8281L34.1733 18.7964L32.647 16.6618L31.1206 14.5269L31.4921 13.6636C32.3203 11.7384 31.6313 9.45907 29.897 8.38682C28.8306 7.72765 27.0641 7.59599 25.9938 8.09611ZM66.2479 10.0097C66.0754 10.11 65.2619 11.5907 64.4401 13.3003C63.6185 15.0099 62.9179 16.4087 62.8836 16.4087C62.8491 16.4087 61.9951 15.5151 60.9857 14.4228C59.0015 12.2756 58.5537 11.9318 57.977 12.1138C57.4124 12.292 52.998 15.362 52.705 15.7802C52.3589 16.2742 52.3826 16.617 52.7992 17.1465C53.3987 17.9088 53.9715 17.7634 56.1493 16.296L58.0752 14.9985L58.7594 15.7459C61.9944 19.2795 62.7111 19.9581 63.2076 19.9581C63.4836 19.9581 63.8567 19.8204 64.0368 19.6522C64.2172 19.4838 65.0046 18.0007 65.7868 16.3563C66.5691 14.7118 67.2735 13.3664 67.3521 13.3664C67.4307 13.3664 68.0836 13.9259 68.8031 14.6097C69.5225 15.2936 70.2748 15.9387 70.4747 16.0435C71.2079 16.4272 72.2239 15.6948 72.2239 14.7826C72.2239 14.4635 70.7592 12.9069 68.8028 11.1464C67.3139 9.80691 66.9079 9.62623 66.2479 10.0097ZM28.8193 10.7783C29.8414 11.7574 29.1115 13.5354 27.6877 13.5354C27.2305 13.5354 26.9419 13.4072 26.5761 13.0414C25.0864 11.5517 27.2978 9.32064 28.8193 10.7783ZM30.6065 18.1614L32.1528 20.3367L31.8184 20.9925L31.4837 21.6483H27.7014H23.919L23.5765 20.9915L23.2343 20.3345L24.4257 18.6675C26.5646 15.6744 26.182 15.9862 27.7168 15.9862H29.0602L30.6065 18.1614ZM21.081 21.8303C21.7719 22.6514 21.5686 23.8053 20.649 24.2807C19.9629 24.6355 19.412 24.576 18.8273 24.084C18.3899 23.7159 18.3073 23.5267 18.3073 22.8933C18.3073 21.8499 18.8469 21.3102 19.8903 21.3102C20.5238 21.3102 20.7129 21.3929 21.081 21.8303ZM36.5106 21.5643C37.0009 21.9077 37.2937 22.8299 37.086 23.3765C36.8735 23.9349 36.1126 24.5216 35.6003 24.5216C34.0575 24.5216 33.3027 22.5797 34.4843 21.6503C34.9994 21.245 35.9944 21.2028 36.5106 21.5643ZM85.534 23.9422C85.2785 24.081 85.0515 24.2109 85.0297 24.2312C85.008 24.2515 84.9509 33.2049 84.9029 44.1276L84.8157 63.9872L84.3122 64.8963C84.0352 65.3965 83.4722 66.0624 83.061 66.3764C81.5484 67.5313 84.4148 67.4521 44.167 67.4521C3.94008 67.4521 6.75405 67.5288 5.27532 66.3913C4.88573 66.0916 4.33102 65.4281 4.0425 64.9168L3.51821 63.9872L3.4337 59.0282L3.34919 54.0691L2.95014 53.7464C2.40743 53.3073 1.81079 53.3409 1.31338 53.8385L0.898438 54.2533V58.8734C0.898438 64.0247 1.01134 64.8257 1.9619 66.4146C2.9422 68.0533 4.83925 69.3849 6.78008 69.7972C8.04873 70.0666 80.2749 70.0681 81.5538 69.7987C83.5386 69.3807 85.364 68.0985 86.372 66.4143C87.4801 64.5627 87.4355 65.4987 87.4355 44.106C87.4355 33.4427 87.3881 24.5951 87.3305 24.4447C87.2306 24.1842 86.4207 23.6689 86.134 23.6833C86.0597 23.687 85.7896 23.8034 85.534 23.9422ZM16.2219 32.9811C15.6593 33.4237 15.6048 34.3265 16.11 34.8317C16.4411 35.1628 16.6734 35.1697 27.5064 35.1697H38.5649L38.9151 34.7243C39.3518 34.1691 39.3609 33.6348 38.9424 33.118L38.6193 32.7189L27.6455 32.6731C16.7296 32.6275 16.6693 32.6292 16.2219 32.9811ZM48.6229 32.8322C48.2526 33.0113 47.8853 33.6362 47.8853 34.0868C47.8853 34.2261 48.0721 34.5266 48.3003 34.7548L48.715 35.1697H59.6354C67.0098 35.1697 70.6647 35.1115 70.891 34.9904C71.7016 34.5565 71.6254 33.216 70.7678 32.8254C70.2073 32.5699 49.1511 32.5763 48.6229 32.8322ZM16.2219 39.0657C15.6593 39.5084 15.6048 40.4111 16.11 40.9163C16.4411 41.2474 16.6734 41.2543 27.4893 41.2543H38.5304L38.898 40.8632C39.3515 40.3803 39.3689 39.7295 38.9424 39.2026L38.6193 38.8036L27.6455 38.7578C16.7296 38.7121 16.6693 38.7138 16.2219 39.0657ZM48.6229 38.9168C48.2631 39.0911 47.8853 39.718 47.8853 40.1408C47.8853 40.2634 48.043 40.5641 48.2357 40.809L48.5859 41.2543H59.7027C70.0758 41.2543 70.8373 41.2346 71.0859 40.9585C71.2324 40.796 71.4041 40.4555 71.4674 40.2022C71.5605 39.8295 71.4849 39.6443 71.071 39.2303L70.5597 38.7191L59.7718 38.7306C52.7106 38.738 48.8592 38.8024 48.6229 38.9168ZM16.6171 44.9235C16.051 45.1318 15.772 45.5442 15.772 46.1724C15.772 47.3969 15.1884 47.339 27.5268 47.339H38.5304L38.898 46.9479C39.5049 46.3017 39.3619 45.4568 38.5772 45.051C38.1717 44.8412 36.4885 44.8057 27.4849 44.8171C21.647 44.8243 16.7565 44.8723 16.6171 44.9235ZM48.6229 45.0014C48.2631 45.1757 47.8853 45.8026 47.8853 46.2255C47.8853 46.348 48.043 46.6487 48.2357 46.8936L48.5859 47.339H59.7166H70.8472L71.1974 46.8936C71.6744 46.2873 71.6379 45.8819 71.0538 45.2977L70.5597 44.8037L59.7718 44.8152C52.7106 44.8226 48.8592 44.887 48.6229 45.0014ZM42.8148 58.4096V59.6772H28.1027H13.3904L12.9756 59.2623C12.6447 58.9315 12.5607 58.6748 12.5607 57.9947V57.142H27.6877H42.8148V58.4096ZM75.7732 57.9947C75.7732 58.6748 75.6892 58.9315 75.3583 59.2623L74.9435 59.6772H60.2312H45.5191V58.4096V57.142H60.6462H75.7732V57.9947Z" fill="#0DB960"/>
</svg>
