<svg width="63" height="70" viewBox="0 0 63 70" fill="none" xmlns="http://www.w3.org/2000/svg">
<path fill-rule="evenodd" clip-rule="evenodd" d="M1.25646 0.307617C0.854922 0.510371 0.542656 0.801719 0.341133 1.16211L0.0351562 1.70898V35V68.291L0.341133 68.8379C0.542656 69.1983 0.854922 69.4896 1.25646 69.6924C1.86596 70 1.86596 70 9.20133 70C16.4153 70 16.5427 69.9954 16.897 69.7166C17.3544 69.3569 17.3895 68.6584 16.9695 68.278C16.6962 68.0307 16.3163 68.0142 9.41584 67.9492L2.14979 67.8809V35V2.11914H26.349H50.5482V5.18725V8.25535L49.6086 8.42885C47.285 8.8576 44.7377 10.3188 44.7377 11.223C44.7377 11.3464 44.8652 11.6096 45.0211 11.8077C45.4017 12.2917 45.9779 12.2779 46.7764 11.7657C49.5697 9.97432 52.5976 9.78852 55.5385 11.228C57.8074 12.3387 59.6157 14.664 60.1444 17.1511C60.4114 18.4069 60.3161 20.4009 59.9318 21.6016C59.122 24.1313 57.1364 26.1643 54.4778 27.1858C53.6442 27.506 53.373 27.5399 51.642 27.5399C49.911 27.5399 49.6397 27.506 48.8062 27.1858C47.479 26.6759 46.47 26.0274 45.51 25.0675C44.5143 24.0718 43.8941 23.0866 43.3996 21.7157C43.0776 20.8225 43.0384 20.5185 43.0414 18.9355C43.0444 17.343 43.083 17.057 43.4127 16.1846C43.8537 15.018 43.8779 14.4858 43.5054 14.1488C43.1537 13.8305 42.4949 13.8292 42.1447 14.1462C41.4305 14.7926 40.8374 17.4753 40.9503 19.5483C41.2127 24.3648 44.5768 28.3496 49.284 29.42L50.6175 29.7232L50.5828 48.802L50.5482 67.8809L35.5313 67.9492L20.5143 68.0176L20.253 68.3404C19.8975 68.7792 19.9246 69.2619 20.3272 69.6644L20.6627 70H35.7548H50.847L51.4424 69.6851C51.8492 69.4699 52.1373 69.1819 52.3525 68.775L52.6674 68.1796V48.9513V29.7229L54.0039 29.4216C57.726 28.5821 60.5739 25.9911 61.8476 22.2852C62.2667 21.0659 62.2944 20.869 62.3 19.0723C62.3071 16.7915 62.1237 15.969 61.1914 14.1042C59.6358 10.9927 56.5651 8.81727 53.0092 8.3073C52.7464 8.26971 52.733 8.1375 52.6674 4.92023C52.6023 1.73141 52.5841 1.54834 52.2862 1.06928C52.1026 0.773965 51.7319 0.449395 51.3886 0.283145L50.8037 0H26.3348H1.86596L1.25646 0.307617ZM5.99637 7.93967C5.49816 8.3315 5.49816 9.03178 5.99637 9.42361C6.35594 9.70662 6.38219 9.70703 21.8983 9.70703C37.3501 9.70703 37.4418 9.70539 37.7392 9.42826C37.9344 9.24643 38.0385 8.98693 38.0385 8.68164C38.0385 8.37635 37.9344 8.11686 37.7392 7.93502C37.4418 7.65789 37.3501 7.65625 21.8983 7.65625C6.38219 7.65625 6.35594 7.65666 5.99637 7.93967ZM5.93334 13.4414C5.51279 13.8891 5.54068 14.534 5.99637 14.8924C6.35553 15.175 6.39695 15.1758 20.6314 15.1758H34.9064L35.2419 14.8401C35.652 14.4301 35.6701 13.9631 35.2941 13.4853L35.0108 13.125H20.6208H6.2307L5.93334 13.4414ZM54.4447 13.528C53.5854 13.6985 53.1199 14.0555 51.8423 15.523L50.5832 16.9694L50.2904 16.6943C49.8413 16.2724 49.0559 15.9961 48.3056 15.9961C47.4444 15.9961 46.9749 16.1745 46.3958 16.7222C45.3993 17.6646 45.1586 18.9781 45.7636 20.1734C46.1576 20.9519 48.4248 23.5688 49.0989 24.023C49.9535 24.599 51.2817 24.5976 52.1391 24.0198C52.7895 23.5814 57.3939 18.1191 57.6478 17.4846C58.286 15.8896 57.3312 13.9162 55.7698 13.6024C55.5297 13.5542 55.2411 13.4963 55.1283 13.4739C55.0155 13.4513 54.7079 13.4757 54.4447 13.528ZM55.5726 15.833C56.1084 16.2932 55.904 16.6615 53.6173 19.3568C52.4103 20.7793 51.2961 22.051 51.1412 22.1826C50.5641 22.6732 50.2983 22.5165 48.8444 20.8288C47.4118 19.1658 47.2451 18.7976 47.6983 18.2969C48.0985 17.8546 48.6616 17.9797 49.3198 18.6569C49.9677 19.3236 50.4632 19.5208 51.0081 19.3292C51.2023 19.2608 52.0505 18.4085 52.8931 17.4349C53.7355 16.4613 54.537 15.6249 54.674 15.576C54.9678 15.4711 55.243 15.5498 55.5726 15.833ZM5.90955 18.8672C5.50145 19.2753 5.54492 20.0061 5.99869 20.363L6.36127 20.6482L20.7081 20.6123L35.0548 20.5762L35.3161 20.2534C35.6701 19.8163 35.6474 19.2538 35.2612 18.891L34.9446 18.5938H20.5639C6.36523 18.5938 6.17957 18.5972 5.90955 18.8672ZM5.90955 24.3359C5.56406 24.6814 5.55859 25.3038 5.89752 25.7221L6.15879 26.0449H21.8109C37.0107 26.0449 37.4712 26.0374 37.7507 25.7845C38.1213 25.4491 38.1425 24.6092 37.7884 24.2888C37.5588 24.081 36.2571 24.0625 21.8607 24.0625C6.36523 24.0625 6.17984 24.0656 5.90955 24.3359ZM6.35512 29.4901C5.67863 29.6223 5.40246 30.6648 5.90955 31.1719C6.17998 31.4423 6.36523 31.4453 23.0578 31.4453H39.9327L40.216 31.0851C40.585 30.6161 40.5736 30.3164 40.1695 29.8465L39.8395 29.4629L23.2505 29.4465C14.1266 29.4375 6.52355 29.4571 6.35512 29.4901ZM6.22605 35.001C5.61629 35.2466 5.43814 36.1692 5.90955 36.6406C6.18039 36.9115 6.36523 36.9141 25.2401 36.9141C43.2182 36.9141 44.314 36.9004 44.594 36.6737C45.0394 36.313 45.0162 35.5864 44.5464 35.1822L44.1755 34.8633L25.3501 34.8719C14.8486 34.8768 6.39271 34.9338 6.22605 35.001ZM5.99637 40.6154C5.52551 40.9858 5.50527 41.6653 5.95248 42.0856L6.26898 42.3828H25.2982C44.1453 42.3828 44.3301 42.3802 44.601 42.1094C45.0453 41.665 45.0125 41.084 44.518 40.6396L44.1755 40.332H25.2661H6.35662L5.99637 40.6154ZM5.99637 46.0842C5.49816 46.476 5.49816 47.1763 5.99637 47.5681L6.35662 47.8516H25.2625C35.6608 47.8516 44.2726 47.8116 44.3998 47.7627C45.0085 47.5292 45.0497 46.2509 44.4589 45.9346C44.2992 45.8492 37.3665 45.8008 25.2827 45.8008H6.35662L5.99637 46.0842ZM33.5267 52.7357C33.4139 52.7782 32.1481 53.7522 30.7137 54.9001C29.2794 56.048 27.3107 57.5676 26.3387 58.2772C25.3668 58.9868 24.4837 59.7222 24.3764 59.9114C23.995 60.5835 24.7639 61.5394 25.4983 61.3063C25.815 61.2058 27.1718 60.2604 28.8463 58.9739C29.4678 58.4962 30.0062 58.1055 30.0426 58.1055C30.079 58.1055 30.1088 58.3535 30.1088 58.6567C30.1088 60.1847 31.5004 61.3487 32.8738 60.9696C33.3547 60.8367 33.3975 60.8546 33.9677 61.4247C35.2501 62.707 37.3975 62.6091 38.9605 61.197L39.5074 60.7029L40.0914 60.909C41.3762 61.3622 43.4414 61.3036 45.6264 60.7515C46.8751 60.4361 47.337 59.832 46.922 59.0566C46.6349 58.5201 46.3078 58.4769 44.9683 58.7986C43.658 59.1134 41.5856 59.2237 40.8449 59.0181C40.6213 58.956 40.206 58.6536 39.922 58.3458C39.5392 57.9313 39.2998 57.7865 38.9973 57.7865C38.4405 57.7865 38.0519 58.1781 37.9454 58.8463C37.8365 59.5284 37.2638 60.1096 36.5724 60.2394C35.9744 60.3515 35.3912 60.1655 35.329 59.8429C35.3037 59.7112 35.5645 59.0011 35.9088 58.2649C36.6389 56.7029 36.693 56.1991 36.1743 55.7912C35.478 55.2434 35.0477 55.4814 34.222 56.8713C33.5658 57.9757 32.7168 58.9258 32.3858 58.9258C32.0555 58.9258 32.0915 58.0918 32.4523 57.3822C32.8494 56.6012 33.679 55.3909 34.3445 54.6222C34.9334 53.9417 34.9779 53.7909 34.7422 53.2734C34.5277 52.8027 33.9853 52.5628 33.5267 52.7357Z" fill="#0DB960"/>
</svg>
