<svg width="100" height="50" viewBox="0 0 100 50" fill="none" xmlns="http://www.w3.org/2000/svg">
<path fill-rule="evenodd" clip-rule="evenodd" d="M31.8011 0.147544C31.2624 0.339768 30.7907 0.73633 30.4897 1.25C30.2691 1.62625 30.2167 1.84963 30.1829 2.5568L30.1421 3.4097L29.1444 3.44262C28.2335 3.4728 28.1048 3.50142 27.6664 3.77217C27.0644 4.14383 26.5874 4.89807 26.5036 5.61061C26.4711 5.88684 26.4575 13.1822 26.4735 21.8226L26.5024 37.5323L26.7848 37.7752C27.0921 38.0397 27.4262 38.0267 27.7469 37.7376C27.907 37.5934 27.9185 36.6462 27.9422 21.5232L27.9675 5.46195L28.2865 5.17694L28.6055 4.89192H43.6535H58.7014L58.9869 5.17743L59.2724 5.46293L59.2703 26.6904C59.2682 46.6556 59.258 47.9302 59.0993 48.1262C59.0064 48.2408 58.8345 48.3837 58.7172 48.4436C58.391 48.6105 28.8394 48.595 28.5047 48.4278C28.3704 48.3607 28.1837 48.1526 28.0898 47.9653C27.9363 47.6594 27.919 47.2552 27.9189 43.9864C27.9187 40.4783 27.9116 40.341 27.7233 40.1527C27.46 39.8893 26.9313 39.8946 26.6885 40.1629C26.5121 40.3578 26.5024 40.5692 26.5024 44.192C26.5024 47.1809 26.5316 48.0982 26.6363 48.3946C26.8067 48.8773 27.3524 49.4829 27.8632 49.7563L28.2605 49.969L43.4341 49.9946C53.7072 50.012 58.7294 49.9875 58.9847 49.9187C59.5514 49.7661 60.1562 49.2526 60.4647 48.6619C60.6953 48.2204 60.7375 48.022 60.7375 47.3784V46.617L61.7468 46.5837C62.6704 46.5532 62.7968 46.5252 63.2364 46.2538C63.8383 45.8822 64.3154 45.1279 64.3992 44.4154C64.4316 44.1392 64.4452 36.602 64.4293 27.6661L64.4004 11.4189L64.1697 11.2322C63.8712 10.9905 63.5623 10.9954 63.2422 11.2473L62.9857 11.4491L62.9605 28.0066L62.9352 44.5641L62.6162 44.8491C62.3334 45.1019 62.2257 45.1341 61.6639 45.1341H61.0306L61.03 25.3305C61.0297 11.9895 60.9965 5.40804 60.9284 5.16297C60.7688 4.58835 60.2595 3.99477 59.6694 3.6954L59.1397 3.42679H45.385H31.6303V2.83586C31.6303 2.15369 31.8011 1.75567 32.1648 1.59001C32.3598 1.50113 35.9855 1.47329 47.3591 1.47329H62.2972L62.6162 1.75821L62.9352 2.04313L62.9634 5.36799L62.9914 8.69285L63.2451 8.8924C63.5625 9.14206 63.872 9.14636 64.1697 8.9052L64.4004 8.71835V5.2668C64.4004 1.89349 64.3955 1.80597 64.1847 1.41195C63.9047 0.88841 63.1953 0.268466 62.7099 0.123027C62.112 -0.0561091 32.3055 -0.0324717 31.8011 0.147544ZM31.6792 7.49643C31.2266 7.73554 31.0323 7.9348 30.8373 8.35939C30.6688 8.72636 30.6578 9.1571 30.6563 15.4408C30.6552 19.7486 30.6906 22.261 30.7555 22.4948C30.8954 22.9986 31.2679 23.4076 31.7552 23.5929C32.1221 23.7324 32.927 23.7467 39.0691 23.722L45.9705 23.6944L46.3459 23.3944C47.1053 22.7874 47.0627 23.2531 47.0628 15.5598C47.063 9.94769 47.0385 8.63767 46.9285 8.38068C46.7659 8.00053 46.332 7.57906 45.9578 7.43773C45.7727 7.36779 43.4429 7.33507 38.8275 7.33771C32.7636 7.34113 31.9384 7.35949 31.6792 7.49643ZM45.549 15.5385V22.2293L38.9133 22.2544C33.6694 22.2742 32.2612 22.2537 32.1997 22.1567C32.1056 22.0085 32.0907 8.95716 32.1845 8.86339C32.2207 8.82716 35.2425 8.80889 38.8997 8.82266L45.549 8.84777V15.5385ZM37.9132 10.1058C37.3325 10.2957 36.8923 10.5894 36.4195 11.1022C35.7845 11.7912 35.5882 12.3078 35.5871 13.294C35.5863 14.0344 35.6207 14.1966 35.8994 14.7626C36.0717 15.1126 36.3236 15.5032 36.4593 15.6306L36.7059 15.8623L36.3231 16.2776C36.1125 16.5061 35.8175 16.9278 35.6673 17.2146C35.4101 17.7065 35.3925 17.8203 35.3598 19.212L35.325 20.6878L35.5909 20.8969C35.9332 21.1662 36.1464 21.1608 36.4791 20.8747C36.7419 20.6486 36.7493 20.6129 36.8029 19.319C36.8556 18.0473 36.8693 17.9782 37.1499 17.5799C37.9365 16.4631 39.6295 16.3952 40.4955 17.4458C40.8528 17.8793 41.0071 18.3754 41.0071 19.0906V19.6409H40.0792C39.2815 19.6409 39.1239 19.6683 38.956 19.8362C38.6651 20.1271 38.6955 20.6499 39.018 20.9035C39.2504 21.0864 39.4074 21.106 40.634 21.106C41.9625 21.106 41.9984 21.1004 42.2434 20.8554C42.4925 20.6063 42.4939 20.596 42.4553 19.2681C42.4206 18.0758 42.3886 17.8713 42.1581 17.3731C42.0161 17.0659 41.6999 16.6007 41.4555 16.3395L41.0111 15.8644L41.2905 15.5966C41.4441 15.4494 41.696 15.1014 41.8502 14.8232C42.1063 14.361 42.1304 14.2336 42.1304 13.3408C42.1304 12.5246 42.0943 12.2906 41.9102 11.9171C41.3397 10.7596 40.2926 10.0655 39.0263 10.0057C38.6036 9.98578 38.1577 10.0258 37.9132 10.1058ZM48.8212 11.1431C48.4494 11.5149 48.6097 12.1248 49.1267 12.305C49.5513 12.453 55.612 12.453 56.0366 12.305C56.5536 12.1248 56.7139 11.5149 56.3421 11.1431C56.1539 10.9549 56.0166 10.9478 52.5817 10.9478C49.1467 10.9478 49.0094 10.9549 48.8212 11.1431ZM39.7176 11.6456C40.3364 11.9451 40.7141 12.5677 40.7141 13.2882C40.7141 13.9393 40.4995 14.3884 39.9921 14.7991C39.6978 15.0372 39.5206 15.0973 39.0175 15.1294C38.2513 15.1781 37.7067 14.9315 37.3326 14.3663C36.282 12.7787 38.003 10.8155 39.7176 11.6456ZM67.2017 14.7261C67.0232 14.814 66.7595 15.0403 66.6156 15.229L66.3539 15.5721L66.3282 26.3986L66.3025 37.2251L67.6195 39.8479C69.0097 42.6164 69.12 42.7679 69.8104 42.8583C70.0716 42.8924 70.252 42.8452 70.5051 42.6762C70.7923 42.4845 71.0613 42.0226 72.1899 39.7825L73.533 37.1169L73.5324 26.6452C73.5321 19.7431 73.4975 16.0496 73.431 15.8102C73.3109 15.3775 72.9321 14.9027 72.5495 14.7048C72.1215 14.4834 67.6578 14.5012 67.2017 14.7261ZM48.8656 15.2899C48.5579 15.5975 48.5522 16.0213 48.8518 16.3029C49.0752 16.5127 49.1196 16.5153 52.5504 16.5153C55.9154 16.5153 56.0308 16.509 56.2801 16.3128C56.6166 16.0482 56.624 15.6162 56.2977 15.2899L56.058 15.0501H52.5817H49.1053L48.8656 15.2899ZM72.019 17.5897V19.1037L69.8946 19.13L67.7701 19.1563V17.5897V16.0231L69.8946 16.0494L72.019 16.0757V17.5897ZM49.0556 19.585C48.5851 19.7898 48.4667 20.3608 48.8212 20.7153C49.0094 20.9035 49.1467 20.9107 52.5817 20.9107C56.0166 20.9107 56.1539 20.9035 56.3421 20.7153C56.7139 20.3435 56.5536 19.7337 56.0366 19.5535C55.5565 19.3861 49.4491 19.4137 49.0556 19.585ZM72.0679 28.4316V36.2457H69.919H67.7701V28.4316V20.6176H69.919H72.0679V28.4316ZM30.8824 26.8264C30.6795 27.0294 30.6435 27.1361 30.6937 27.3868C30.8245 28.0407 29.7799 27.9895 43.5535 28.0176L56.0558 28.0431L56.2966 27.8023C56.6054 27.4936 56.6115 27.0701 56.3115 26.7882L56.0854 26.5758H43.6092H31.1331L30.8824 26.8264ZM31.1768 30.7745C30.9298 30.8748 30.6536 31.2411 30.6536 31.4682C30.6536 31.5564 30.7447 31.7444 30.8561 31.8859L31.0584 32.1433H43.5989H56.1392L56.3383 31.9295C56.5884 31.6612 56.5936 31.2574 56.3507 30.9576L56.1641 30.727L43.7751 30.7082C36.9161 30.6978 31.2927 30.7273 31.1768 30.7745ZM30.8824 35.1288C30.6802 35.331 30.6433 35.4396 30.6918 35.6905C30.7248 35.8615 30.8445 36.0784 30.9577 36.1724C31.1514 36.3332 31.8999 36.3433 43.6108 36.3433H56.058L56.2977 36.1035C56.624 35.7773 56.6166 35.3453 56.2801 35.0807C56.0228 34.8782 56.0201 34.8782 43.578 34.8782H31.1331L30.8824 35.1288ZM37.8382 38.4867C37.1412 39.1877 37.0472 39.2514 36.8637 39.146C36.7212 39.0642 35.9324 39.0294 34.2187 39.0294C31.8098 39.0294 31.7718 39.0325 31.399 39.2643C30.7216 39.6854 30.6582 39.9654 30.6557 42.5494C30.6537 44.691 30.6642 44.8208 30.8733 45.2355C31.0339 45.5539 31.2105 45.7305 31.5289 45.8911C31.9432 46.1 32.0759 46.1109 34.2086 46.1109C36.2784 46.1109 36.4848 46.0951 36.8703 45.9086C37.1156 45.7898 37.3804 45.5579 37.5115 45.3469C37.7239 45.0056 37.7367 44.8792 37.7676 42.8184L37.8 40.6491L38.6068 39.7905C39.0505 39.3181 39.4654 38.8338 39.5289 38.714C39.7666 38.2658 39.3957 37.7108 38.8587 37.7108C38.6772 37.7108 38.3999 37.9217 37.8382 38.4867ZM70.7376 39.3945L69.8946 41.0782L69.0817 39.4678C68.6347 38.582 68.2665 37.8244 68.2637 37.784C68.2609 37.7437 69.006 37.7108 69.9196 37.7108H71.5806L70.7376 39.3945ZM35.3598 41.105C34.6067 41.9489 33.6978 42.8398 33.6468 42.7841C33.625 42.7605 33.3202 42.2956 32.9695 41.7511C32.6186 41.2066 32.283 40.731 32.2236 40.6943C31.9215 40.5076 32.386 40.4457 34.088 40.4457H35.9482L35.3598 41.105ZM39.7994 42.0156C39.463 42.2802 39.4485 42.7657 39.768 43.0659L39.9942 43.2783H48.0085C55.9684 43.2783 56.0245 43.2769 56.2801 43.0758C56.6166 42.8112 56.624 42.3792 56.2977 42.0529L56.058 41.8131H48.0573C40.1113 41.8131 40.055 41.8145 39.7994 42.0156ZM36.2764 44.5174C36.2398 44.6128 35.9478 44.6457 35.1387 44.6457H34.0502L35.16 43.4589L36.2699 42.2721L36.2978 43.3305C36.3132 43.9127 36.3035 44.4468 36.2764 44.5174ZM32.9441 44.3771L33.1179 44.6457H32.6183H32.1187V43.89V43.1344L32.4444 43.6214C32.6237 43.8893 32.8485 44.2294 32.9441 44.3771Z" fill="#0DB960"/>
</svg>
