<svg width="50" height="50" viewBox="0 0 50 50" fill="none" xmlns="http://www.w3.org/2000/svg">
<circle cx="25" cy="24.999" r="25" fill="#F79A38"/>
<path d="M32.7971 28.4901C33.453 27.8342 33.5467 26.8971 32.9845 25.9601C32.516 25.2105 31.6726 24.8357 30.7356 25.0231C30.3608 25.1168 29.986 25.3042 29.6112 25.5853C26.7065 27.5531 22.771 27.4593 19.8663 25.4916C19.6789 25.3979 19.4915 25.3042 19.3041 25.2105C18.2734 24.742 17.2427 24.9294 16.6804 25.8664C16.0245 26.8034 16.1182 27.8342 16.9615 28.6775C17.1489 28.8649 17.3363 28.9586 17.43 29.146L17.5238 29.2397C18.8356 30.2704 20.4285 30.9263 22.4899 31.2074L21.2718 32.4255C20.2411 33.4562 19.1167 34.5806 18.086 35.6114C17.8049 35.8925 17.43 36.361 17.43 37.0169C17.43 37.8602 17.8986 38.7035 18.7419 39.0783C19.023 39.2657 19.3041 39.2657 19.5852 39.2657C20.0537 39.2657 20.6159 39.0783 20.9907 38.6098C22.3962 37.2043 23.5206 36.0799 24.6451 34.9555C24.7388 34.8618 24.7387 34.8617 24.7387 34.8617C24.7387 34.8617 24.8325 34.8618 24.8325 34.9555C25.5821 35.7988 26.4254 36.5484 27.175 37.3917C27.5498 37.7665 27.9246 38.1413 28.2994 38.5161C28.7679 38.9846 29.1427 39.172 29.7049 39.172C30.5482 39.2657 31.4852 38.7035 31.86 37.8602C32.2348 37.1106 32.0474 36.1736 31.3915 35.6114C30.4545 34.6743 29.5175 33.6436 28.4868 32.7066L26.8939 31.1137C27.7372 31.02 28.6742 30.8326 29.5175 30.4578C30.923 29.9893 31.9537 29.3334 32.7971 28.4901Z" fill="white"/>
<path d="M24.7387 25.8664C28.7679 25.8664 32.0474 22.6806 32.0474 18.6514C32.0474 16.6837 31.2978 14.8097 29.8923 13.4042C28.4868 11.9986 26.7065 11.249 24.8324 11.249C20.8033 11.249 17.6175 14.5286 17.5237 18.464C17.5237 20.4317 18.2734 22.2121 19.6789 23.6176C20.9907 25.1168 22.771 25.8664 24.7387 25.8664ZM22.6773 16.4963C23.2395 15.9341 23.9891 15.653 24.7387 15.653C26.4254 15.653 27.6435 16.9648 27.6435 18.5577C27.6435 20.2443 26.3317 21.4625 24.7387 21.4625C23.0521 21.4625 21.834 20.1506 21.834 18.5577C21.834 17.8081 22.1151 17.0585 22.6773 16.4963Z" fill="white"/>
<path d="M32.7971 28.4901C33.453 27.8342 33.5467 26.8971 32.9845 25.9601C32.516 25.2105 31.6726 24.8357 30.7356 25.0231C30.3608 25.1168 29.986 25.3042 29.6112 25.5853C26.7065 27.5531 22.771 27.4593 19.8663 25.4916C19.6789 25.3979 19.4915 25.3042 19.3041 25.2105C18.2734 24.742 17.2427 24.9294 16.6804 25.8664C16.0245 26.8034 16.1182 27.8342 16.9615 28.6775C17.1489 28.8649 17.3363 28.9586 17.43 29.146L17.5238 29.2397C18.8356 30.2704 20.4285 30.9263 22.4899 31.2074L21.2718 32.4255C20.2411 33.4562 19.1167 34.5806 18.086 35.6114C17.8049 35.8925 17.43 36.361 17.43 37.0169C17.43 37.8602 17.8986 38.7035 18.7419 39.0783C19.023 39.2657 19.3041 39.2657 19.5852 39.2657C20.0537 39.2657 20.6159 39.0783 20.9907 38.6098C22.3962 37.2043 23.5206 36.0799 24.6451 34.9555C24.7388 34.8618 24.7387 34.8617 24.7387 34.8617C24.7387 34.8617 24.8325 34.8618 24.8325 34.9555C25.5821 35.7988 26.4254 36.5484 27.175 37.3917C27.5498 37.7665 27.9246 38.1413 28.2994 38.5161C28.7679 38.9846 29.1427 39.172 29.7049 39.172C30.5482 39.2657 31.4852 38.7035 31.86 37.8602C32.2348 37.1106 32.0474 36.1736 31.3915 35.6114C30.4545 34.6743 29.5175 33.6436 28.4868 32.7066L26.8939 31.1137C27.7372 31.02 28.6742 30.8326 29.5175 30.4578C30.923 29.9893 31.9537 29.3334 32.7971 28.4901Z" fill="white"/>
</svg>
