<svg width="17" height="16" viewBox="0 0 17 16" fill="none" xmlns="http://www.w3.org/2000/svg">
<g id="24 / time / calendar">
<path id="icon" fill-rule="evenodd" clip-rule="evenodd" d="M4.50065 3.99992H5.83398V3.33325H11.1673V3.99992H12.5007V3.33325H13.834V5.33325H3.16732V3.33325H4.50065V3.99992ZM3.16732 6.66658V13.3333H13.834V6.66658H3.16732ZM5.83398 1.99997H11.1673V1.33325H12.5007V1.99997H13.834C14.5704 1.99997 15.1673 2.59692 15.1673 3.3333V13.3333C15.1673 14.0697 14.5704 14.6666 13.834 14.6666H3.16732C2.43094 14.6666 1.83398 14.0697 1.83398 13.3333V3.3333C1.83398 2.59692 2.43094 1.99997 3.16732 1.99997H4.50065V1.33325H5.83398V1.99997Z" fill="#0DB960"/>
</g>
</svg>
