<svg width="17" height="16" viewBox="0 0 17 16" fill="none" xmlns="http://www.w3.org/2000/svg">
<g id="24 / notifications / info">
<path id="icon" fill-rule="evenodd" clip-rule="evenodd" d="M1.16602 8.00008C1.16602 12.0502 4.44926 15.3334 8.49935 15.3334C12.5494 15.3334 15.8327 12.0502 15.8327 8.00008C15.8327 3.94999 12.5494 0.666748 8.49935 0.666748C4.44926 0.666748 1.16602 3.94999 1.16602 8.00008ZM14.4994 8.00003C14.4994 11.3137 11.8131 14 8.49935 14C5.18565 14 2.49935 11.3137 2.49935 8.00003C2.49935 4.68633 5.18565 2.00003 8.49935 2.00003C11.8131 2.00003 14.4994 4.68633 14.4994 8.00003ZM9.16844 9.33257H9.83467V10.6659H7.168V9.33257H7.83467V7.99924H7.168V6.66591H9.16844V9.33257ZM9.16645 5.33257C9.16645 5.70076 8.86787 5.99924 8.49956 5.99924C8.13125 5.99924 7.83268 5.70076 7.83268 5.33257C7.83268 4.96439 8.13125 4.66591 8.49956 4.66591C8.86787 4.66591 9.16645 4.96439 9.16645 5.33257Z" fill="#0DB960"/>
</g>
</svg>
