<svg width="17" height="16" viewBox="0 0 17 16" fill="none" xmlns="http://www.w3.org/2000/svg">
<g id="24 / time / time">
<path id="icon" fill-rule="evenodd" clip-rule="evenodd" d="M8.49935 15.3334C4.44926 15.3334 1.16602 12.0502 1.16602 8.00008C1.16602 3.94999 4.44926 0.666748 8.49935 0.666748C12.5494 0.666748 15.8327 3.94999 15.8327 8.00008C15.8327 12.0502 12.5494 15.3334 8.49935 15.3334ZM8.49935 14C11.8131 14 14.4994 11.3137 14.4994 8.00003C14.4994 4.68633 11.8131 2.00003 8.49935 2.00003C5.18565 2.00003 2.49935 4.68633 2.49935 8.00003C2.49935 11.3137 5.18565 14 8.49935 14ZM11.8327 7.33337H9.16601V4.00003H7.83268V8.6667H11.8327V7.33337Z" fill="#0DB960"/>
</g>
</svg>
