<svg width="17" height="16" viewBox="0 0 17 16" fill="none" xmlns="http://www.w3.org/2000/svg">
<g id="24 / basic / pulse">
<path id="icon" fill-rule="evenodd" clip-rule="evenodd" d="M3.04611 1.33325H13.9552C14.6246 1.33325 15.1673 1.99653 15.1673 2.81473L15.1673 7.33356V8.66689L15.1673 13.1851C15.1673 14.0033 14.6246 14.6666 13.9552 14.6666H3.04611C2.37667 14.6666 1.83398 14.0033 1.83398 13.1851V2.81473C1.83398 1.99653 2.37667 1.33325 3.04611 1.33325ZM13.834 7.33356V2.66654H3.16732V7.33356H5.44347L6.94245 8.83254L9.00879 4.01107L11.5007 7.33356H13.834ZM3.16732 8.66689H4.89118L7.3922 11.1679L9.32586 6.65605L10.834 8.66689H13.834V13.3332H3.16732V8.66689Z" fill="#0DB960"/>
</g>
</svg>
