<svg width="18" height="33" viewBox="0 0 18 33" fill="none" xmlns="http://www.w3.org/2000/svg">
<path fill-rule="evenodd" clip-rule="evenodd" d="M1.75927 0.546957C1.09651 0.705838 0.502817 1.20226 0.192768 1.85688L0 2.26379V16.5055V30.7472L0.192768 31.1541C0.437668 31.6712 0.824574 32.0601 1.3391 32.3063L1.74394 32.5H9H16.2561L16.6609 32.3054C17.1734 32.059 17.557 31.6731 17.8054 31.1541L18 30.7472V16.5055V2.26379L17.8054 1.85688C17.557 1.33786 17.1734 0.951922 16.6609 0.705525L16.2561 0.510961L9.12457 0.500945C5.10322 0.495311 1.89112 0.515406 1.75927 0.546957ZM14.3918 2.01113C14.6969 2.13927 14.8304 2.4581 14.7051 2.75958C14.6005 3.01105 14.4453 3.1089 14.151 3.1089C13.5566 3.1089 13.3924 2.25058 13.9409 2.01075C14.1859 1.90364 14.1357 1.90358 14.3918 2.01113ZM12.1142 2.51419V2.85849H9H5.88581V2.51419V2.16988H9H12.1142V2.51419ZM16.2872 15.4413V26.459H9H1.7128V15.4413V4.42351H9H16.2872V15.4413ZM11.8028 29.1509V30.0273H9H6.19723V29.1509V28.2744H9H11.8028V29.1509Z" fill="#0DB960"/>
<path fill-rule="evenodd" clip-rule="evenodd" d="M1.75927 0.546957C1.09651 0.705838 0.502817 1.20226 0.192768 1.85688L0 2.26379V16.5055V30.7472L0.192768 31.1541C0.437668 31.6712 0.824574 32.0601 1.3391 32.3063L1.74394 32.5H9H16.2561L16.6609 32.3054C17.1734 32.059 17.557 31.6731 17.8054 31.1541L18 30.7472V16.5055V2.26379L17.8054 1.85688C17.557 1.33786 17.1734 0.951922 16.6609 0.705525L16.2561 0.510961L9.12457 0.500945C5.10322 0.495311 1.89112 0.515406 1.75927 0.546957ZM14.3918 2.01113C14.6969 2.13927 14.8304 2.4581 14.7051 2.75958C14.6005 3.01105 14.4453 3.1089 14.151 3.1089C13.5566 3.1089 13.3924 2.25058 13.9409 2.01075C14.1859 1.90364 14.1357 1.90358 14.3918 2.01113ZM12.1142 2.51419V2.85849H9H5.88581V2.51419V2.16988H9H12.1142V2.51419ZM16.2872 15.4413V26.459H9H1.7128V15.4413V4.42351H9H16.2872V15.4413ZM11.8028 29.1509V30.0273H9H6.19723V29.1509V28.2744H9H11.8028V29.1509Z" fill="url(#paint0_radial_1612_13097)" fill-opacity="0.38"/>
<defs>
<radialGradient id="paint0_radial_1612_13097" cx="0" cy="0" r="1" gradientUnits="userSpaceOnUse" gradientTransform="translate(0.558648 18.8927) rotate(26.3997) scale(18.8441 28.9732)">
<stop stop-color="#D2FFAE"/>
<stop offset="1" stop-color="#D2FFAE" stop-opacity="0"/>
</radialGradient>
</defs>
</svg>
