<svg width="44" height="30" viewBox="0 0 44 30" fill="none" xmlns="http://www.w3.org/2000/svg">
<path d="M28.2257 0C19.6659 0 12.8848 6.7391 12.8848 15C12.8848 23.2608 19.777 30 28.2257 30C36.6744 30 43.5666 23.2608 43.5666 15C43.6778 6.7391 36.6744 0 28.2257 0ZM28.2257 20.5434C25.113 20.5434 22.4451 18.0434 22.4451 15C22.4451 11.9565 25.0019 9.45649 28.2257 9.45649C31.4495 9.45649 34.0064 11.9565 34.0064 15C33.8952 18.0434 31.4495 20.5434 28.2257 20.5434Z" fill="#8B3FFD"/>
<path d="M12.8843 4.4563V26.3041H7.43705L0.433594 4.4563H12.8843Z" fill="#8B3FFD"/>
</svg>
