<svg width="30" height="30" viewBox="0 0 30 30" fill="none" xmlns="http://www.w3.org/2000/svg">
<path d="M23.3879 18.8634C23.8862 19.0769 24.0997 19.7887 24.0997 20.1447C24.1709 20.7141 24.0285 20.9988 23.815 20.9988C23.6014 20.9988 23.3167 20.7853 23.032 20.287C22.7473 19.7887 22.6049 19.2905 22.7473 19.0057C22.9608 18.8634 23.1744 18.7922 23.3879 18.8634Z" fill="#F28A1A"/>
<path d="M20.4686 21.0701C20.7533 21.0701 21.1092 21.2124 21.4651 21.4972C22.0346 21.9954 22.2481 22.5649 21.9634 22.992C21.821 23.2055 21.4651 23.3479 21.1804 23.3479C20.8245 23.3479 20.4686 23.2055 20.255 22.992C19.6856 22.4937 19.5432 21.7819 19.8991 21.3548C19.9703 21.2124 20.1838 21.0701 20.4686 21.0701Z" fill="#F28A1A"/>
<path d="M13.7065 26.6933C6.30352 26.6933 0.324219 20.714 0.324219 13.3823C0.324219 6.05049 6.30352 0 13.7065 0C21.1094 0 27.0887 5.97931 27.0887 13.3823C27.0887 15.8736 26.3769 18.2226 25.238 20.2157C25.1668 20.2869 25.0956 20.2869 25.0956 20.1446C24.5974 16.8702 22.6043 15.0906 19.757 14.5212C19.4722 14.45 19.4722 14.3076 19.8281 14.3076C20.7535 14.2364 21.9636 14.2364 22.6754 14.3788C22.7466 14.0229 22.7466 13.667 22.7466 13.3823C22.7466 8.54187 18.7604 4.55566 13.92 4.55566C9.07963 4.55566 5.09343 8.54187 5.09343 13.3823C5.09343 18.2226 9.07963 22.2089 13.92 22.2089H14.3471C14.2048 21.4258 14.1336 20.6428 14.2048 19.7887C14.2048 19.2192 14.3471 19.148 14.5607 19.5751C15.7708 21.7106 17.5503 23.5613 20.9671 24.3443C23.7432 24.985 26.5193 25.6968 29.5801 29.4694C29.8648 29.8254 29.4377 30.1813 29.153 29.8965C26.0922 27.1916 23.3161 26.2662 20.7535 26.2662C17.5503 26.3374 15.6284 26.6933 13.7065 26.6933Z" fill="#F28A1A"/>
</svg>
