<svg width="37" height="40" viewBox="0 0 37 40" fill="none" xmlns="http://www.w3.org/2000/svg">
<path d="M21.8424 25.3726L23.1454 26.1158L21.8424 25.3726ZM22.5188 0.578374C21.7415 0.291808 20.8791 0.689615 20.5925 1.4669L15.9227 14.1335C15.6361 14.9108 16.0339 15.7732 16.8112 16.0598C17.5885 16.3463 18.4509 15.9485 18.7375 15.1712L22.8885 3.91204L34.1477 8.06303C34.9249 8.3496 35.7874 7.95179 36.0739 7.17451C36.3605 6.39722 35.9627 5.5348 35.1854 5.24824L22.5188 0.578374ZM1.1709 38.0627C1.38227 39.5478 1.3828 39.5477 1.38339 39.5476C1.38366 39.5476 1.3843 39.5475 1.38484 39.5474C1.38592 39.5473 1.38722 39.5471 1.38875 39.5468C1.3918 39.5464 1.39574 39.5458 1.40056 39.5451C1.41019 39.5437 1.42334 39.5417 1.43991 39.5392C1.47304 39.5341 1.51988 39.5268 1.57969 39.5169C1.69931 39.4973 1.87096 39.4677 2.08891 39.4266C2.52466 39.3444 3.1465 39.216 3.90856 39.0283C5.43046 38.6535 7.52363 38.0395 9.81652 37.0798C14.3713 35.1734 19.8859 31.8302 23.1454 26.1158L20.5395 24.6294C17.7475 29.5242 12.9264 32.526 8.65825 34.3124C6.53968 35.1991 4.59961 35.7685 3.19113 36.1154C2.488 36.2885 1.92037 36.4055 1.53294 36.4786C1.33931 36.5151 1.19094 36.5406 1.09344 36.5566C1.0447 36.5646 1.0087 36.5703 0.986138 36.5737C0.97486 36.5754 0.966944 36.5766 0.962478 36.5773C0.960246 36.5776 0.958876 36.5778 0.958381 36.5779C0.958133 36.5779 0.958104 36.5779 0.958294 36.5779C0.958389 36.5779 0.958698 36.5778 0.958745 36.5778C0.959108 36.5778 0.959527 36.5777 1.1709 38.0627ZM23.1454 26.1158C26.4062 20.3989 26.4169 14.162 25.6719 9.46572C25.2975 7.10529 24.7264 5.09406 24.2483 3.67047C24.0088 2.95757 23.7917 2.38899 23.6324 1.99424C23.5527 1.79678 23.4874 1.64257 23.4409 1.53528C23.4177 1.48162 23.3991 1.43968 23.3858 1.4099C23.3791 1.39501 23.3737 1.38316 23.3698 1.37441C23.3678 1.37003 23.3661 1.36643 23.3648 1.36361C23.3642 1.36219 23.3636 1.36098 23.3632 1.35996C23.3629 1.35945 23.3626 1.35883 23.3625 1.35858C23.3623 1.35801 23.362 1.35749 21.9999 1.98577C20.6379 2.61405 20.6377 2.61363 20.6375 2.61326C20.6375 2.6132 20.6373 2.61287 20.6373 2.61275C20.6372 2.61251 20.6371 2.61246 20.6372 2.61261C20.6373 2.61289 20.6378 2.61394 20.6386 2.61574C20.6403 2.61935 20.6433 2.62599 20.6476 2.6356C20.6562 2.65482 20.67 2.68592 20.6884 2.72844C20.7253 2.8135 20.7807 2.94417 20.8504 3.11682C20.9898 3.46228 21.1858 3.97484 21.4044 4.62561C21.8422 5.92935 22.3663 7.7756 22.709 9.9357C23.3981 14.2805 23.33 19.7371 20.5395 24.6294L23.1454 26.1158Z" fill="#0DB960"/>
</svg>
