<svg width="121" height="111" viewBox="0 0 121 111" fill="none" xmlns="http://www.w3.org/2000/svg">
<path d="M34.8554 84.4327L35.9219 83.3778L34.8554 84.4327ZM12.8225 0.685912C13.5078 0.220521 14.4407 0.398836 14.9061 1.08418L22.49 12.2526C22.9554 12.9379 22.7771 13.8708 22.0918 14.3362C21.4064 14.8016 20.4736 14.6233 20.0082 13.9379L13.2669 4.01045L3.33938 10.7517C2.65403 11.2171 1.72118 11.0388 1.25578 10.3535C0.790394 9.66813 0.968711 8.73528 1.65406 8.26989L12.8225 0.685912ZM119.895 108.156C120.103 109.642 120.102 109.642 120.102 109.642C120.101 109.642 120.1 109.642 120.099 109.642C120.096 109.643 120.093 109.643 120.089 109.644C120.082 109.645 120.071 109.646 120.056 109.648C120.028 109.652 119.986 109.658 119.932 109.665C119.823 109.679 119.664 109.699 119.457 109.723C119.042 109.773 118.435 109.84 117.653 109.915C116.09 110.063 113.83 110.239 111.023 110.352C105.413 110.577 97.6065 110.547 88.8179 109.527C71.2783 107.493 49.6217 101.494 33.789 85.4875L35.9219 83.3778C51.0644 98.6862 71.9275 104.548 89.1635 106.547C97.7628 107.545 105.409 107.574 110.903 107.354C113.649 107.244 115.854 107.072 117.369 106.928C118.126 106.856 118.71 106.791 119.103 106.744C119.299 106.721 119.447 106.702 119.545 106.69C119.594 106.683 119.631 106.678 119.654 106.675C119.666 106.674 119.675 106.672 119.68 106.672C119.683 106.671 119.684 106.671 119.685 106.671C119.686 106.671 119.686 106.671 119.686 106.671C119.686 106.671 119.686 106.671 119.895 108.156ZM33.789 85.4875C17.9541 69.4792 12.5905 48.451 11.15 31.5643C10.4285 23.1066 10.6867 15.6432 11.1252 10.2923C11.3446 7.61556 11.6093 5.46409 11.82 3.97713C11.9254 3.23356 12.0173 2.6559 12.0834 2.26151C12.1165 2.06431 12.143 1.9129 12.1616 1.80947C12.1709 1.75776 12.1782 1.71803 12.1833 1.69057C12.1858 1.67684 12.1878 1.66617 12.1893 1.6586C12.19 1.65482 12.1906 1.65181 12.191 1.64957C12.1912 1.64846 12.1914 1.64738 12.1915 1.64682C12.1917 1.64592 12.1918 1.64523 13.6651 1.92685C15.1385 2.20847 15.1385 2.20816 15.1385 2.20805C15.1385 2.20828 15.1385 2.20836 15.1384 2.20879C15.1382 2.20968 15.1379 2.21134 15.1374 2.21377C15.1365 2.21863 15.135 2.22658 15.133 2.23757C15.1289 2.25956 15.1227 2.29373 15.1144 2.33984C15.0978 2.43203 15.0732 2.57189 15.0422 2.75728C14.9801 3.12806 14.892 3.68077 14.7903 4.39813C14.587 5.83301 14.3292 7.92551 14.1152 10.5373C13.687 15.7633 13.435 23.0548 14.1391 31.3093C15.5499 47.8468 20.7814 68.0715 35.9219 83.3778L33.789 85.4875Z" fill="#0DB960"/>
</svg>
