<svg width="86" height="77" viewBox="0 0 86 77" fill="none" xmlns="http://www.w3.org/2000/svg">
<path d="M72.2794 0.337557C71.5474 -0.0502213 70.6396 0.22888 70.2518 0.960947L63.9326 12.8906C63.5448 13.6227 63.8239 14.5305 64.556 14.9183C65.288 15.3061 66.1959 15.027 66.5836 14.2949L72.2007 3.69074L82.8049 9.3078C83.5369 9.69557 84.4448 9.41648 84.8325 8.68441C85.2203 7.95234 84.9412 7.04453 84.2091 6.65675L72.2794 0.337557ZM0.5 72C0.107664 73.4478 0.108238 73.4479 0.108973 73.4481C0.109431 73.4483 0.110327 73.4485 0.111243 73.4487C0.113077 73.4492 0.115551 73.4499 0.118661 73.4507C0.12488 73.4524 0.133644 73.4548 0.144921 73.4578C0.167475 73.4638 0.200084 73.4724 0.242508 73.4835C0.327353 73.5056 0.451463 73.5375 0.612899 73.578C0.935754 73.6588 1.40801 73.7736 2.01415 73.9116C3.22623 74.1876 4.97486 74.5568 7.13574 74.9336C11.4542 75.6866 17.436 76.4728 24.0819 76.601C37.2927 76.8557 53.5112 74.5169 64.3041 63.6843L62.1789 61.5669C52.2787 71.5035 37.1265 73.8519 24.1398 73.6015C17.687 73.4771 11.8634 72.7127 7.65106 71.9782C5.54657 71.6113 3.8485 71.2525 2.68022 70.9865C2.09618 70.8535 1.64485 70.7438 1.34165 70.6678C1.19006 70.6299 1.07554 70.6004 1 70.5807C0.962233 70.5708 0.934215 70.5634 0.91619 70.5586C0.907177 70.5562 0.900663 70.5545 0.896677 70.5534C0.894684 70.5529 0.893324 70.5525 0.892599 70.5523C0.892236 70.5522 0.892171 70.5522 0.891989 70.5521C0.892082 70.5521 0.892336 70.5522 0.5 72ZM64.3041 63.6843C75.0997 52.849 77.176 37.0726 76.6681 24.2963C76.4127 17.8725 75.501 12.1163 74.6545 7.9679C74.2309 5.89202 73.8227 4.21436 73.5192 3.05185C73.3675 2.47049 73.2418 2.01765 73.1534 1.70793C73.1093 1.55305 73.0744 1.43393 73.0502 1.35239C73.0381 1.31162 73.0287 1.28024 73.0221 1.25848C73.0188 1.2476 73.0162 1.23912 73.0144 1.23308C73.0135 1.23006 73.0127 1.22764 73.0122 1.22585C73.0119 1.22494 73.0116 1.22405 73.0115 1.2236C73.0113 1.22286 73.0111 1.22228 71.5773 1.66308C70.1435 2.10388 70.1435 2.10361 70.1434 2.10348C70.1435 2.10364 70.1435 2.10367 70.1436 2.10399C70.1438 2.10463 70.1442 2.10589 70.1447 2.10774C70.1459 2.11145 70.1477 2.11759 70.1503 2.1261C70.1554 2.14314 70.1634 2.16973 70.1741 2.20564C70.1954 2.27747 70.2274 2.38657 70.2686 2.53116C70.3511 2.82035 70.4708 3.25132 70.6165 3.80956C70.908 4.92626 71.3035 6.55097 71.7151 8.56773C72.5389 12.6047 73.4232 18.1949 73.6705 24.4155C74.1679 36.9282 72.0763 51.6331 62.1789 61.5669L64.3041 63.6843Z" fill="#0DB960"/>
</svg>
