<svg width="110" height="100" viewBox="0 0 110 100" fill="none" xmlns="http://www.w3.org/2000/svg">
<path d="M97.8719 0.779393C97.1977 0.297881 96.2609 0.454023 95.7794 1.12815L87.9327 12.1135C87.4512 12.7877 87.6073 13.7245 88.2814 14.206C88.9555 14.6875 89.8924 14.5314 90.3739 13.8573L97.3487 4.09246L107.114 11.0673C107.788 11.5488 108.724 11.3927 109.206 10.7186C109.688 10.0445 109.531 9.10763 108.857 8.62612L97.8719 0.779393ZM1 97C0.81202 98.4882 0.812677 98.4883 0.813514 98.4884C0.814035 98.4884 0.815055 98.4886 0.816096 98.4887C0.818178 98.4889 0.820984 98.4893 0.824508 98.4897C0.831556 98.4906 0.841479 98.4918 0.854245 98.4934C0.879776 98.4965 0.916682 98.5009 0.964704 98.5064C1.06075 98.5175 1.20127 98.5333 1.38422 98.5524C1.7501 98.5907 2.28579 98.6426 2.97489 98.6983C4.35291 98.8096 6.3454 98.9362 8.82105 98.9995C13.7701 99.126 20.6623 98.9997 28.4435 97.9875C43.9726 95.9674 63.2271 90.3942 77.5607 76.0607L75.4393 73.9393C61.7729 87.6058 43.2774 93.0326 28.0565 95.0125C20.4627 96.0003 13.7299 96.124 8.8977 96.0005C6.48273 95.9388 4.54553 95.8154 3.21652 95.708C2.5521 95.6543 2.03994 95.6046 1.69635 95.5687C1.52456 95.5507 1.39494 95.5362 1.30953 95.5263C1.26682 95.5214 1.23517 95.5176 1.21482 95.5151C1.20465 95.5139 1.19731 95.513 1.19282 95.5124C1.19058 95.5121 1.18905 95.512 1.18825 95.5119C1.18784 95.5118 1.18777 95.5118 1.18757 95.5118C1.18769 95.5118 1.18798 95.5118 1 97ZM77.5607 76.0607C91.8963 61.725 97.0965 43.0911 98.741 28.1643C99.5646 20.6884 99.5012 14.1027 99.2319 9.38332C99.0973 7.02247 98.9109 5.12549 98.7574 3.81394C98.6807 3.15807 98.6121 2.64835 98.5623 2.29993C98.5374 2.12571 98.5172 1.99179 98.5029 1.90007C98.4958 1.85422 98.4902 1.81891 98.4863 1.79439C98.4843 1.78212 98.4827 1.77256 98.4816 1.76572C98.4811 1.76229 98.4806 1.75956 98.4803 1.7575C98.4801 1.75648 98.4799 1.75545 98.4798 1.75494C98.4797 1.75408 98.4796 1.7534 97 2C95.5204 2.24659 95.5204 2.24625 95.5203 2.24609C95.5204 2.24626 95.5204 2.24626 95.5204 2.24661C95.5205 2.24729 95.5208 2.24865 95.5211 2.2507C95.5218 2.25478 95.5229 2.26158 95.5244 2.27106C95.5274 2.29 95.5321 2.31967 95.5384 2.35981C95.5508 2.44009 95.5693 2.56228 95.5925 2.72448C95.6389 3.04892 95.7041 3.53333 95.7777 4.16262C95.9251 5.42138 96.1059 7.25877 96.2368 9.55418C96.4988 14.1473 96.5604 20.5615 95.759 27.8357C94.1535 42.4088 89.1037 60.275 75.4393 73.9393L77.5607 76.0607Z" fill="#0DB960"/>
</svg>
