<svg width="43" height="43" viewBox="0 0 43 43" fill="none" xmlns="http://www.w3.org/2000/svg">
<path fill-rule="evenodd" clip-rule="evenodd" d="M21.5003 41.2083C10.6157 41.2083 1.79199 32.3846 1.79199 21.5C1.79199 10.6153 10.6157 1.79163 21.5003 1.79163C32.3849 1.79163 41.2087 10.6153 41.2087 21.5C41.2087 32.3846 32.3849 41.2083 21.5003 41.2083ZM21.5003 37.625C30.4059 37.625 37.6253 30.4056 37.6253 21.5C37.6253 12.5944 30.4059 5.37497 21.5003 5.37497C12.5947 5.37497 5.3753 12.5944 5.3753 21.5C5.3753 30.4056 12.5947 37.625 21.5003 37.625ZM27.4001 14.858L17.917 24.3411L13.8089 20.233L11.2751 22.7668L17.917 29.4087L29.9339 17.3918L27.4001 14.858Z" fill="#0DB960"/>
</svg>
