<svg width="40" height="40" viewBox="0 0 40 40" fill="none" xmlns="http://www.w3.org/2000/svg">
<path d="M38.3887 12.3173C37.3613 9.95039 35.8999 7.80977 34.0451 5.95492C32.1902 4.10008 30.0496 2.63867 27.6827 1.61133C25.2195 0.542109 22.6346 0 20 0C17.3654 0 14.7805 0.542109 12.3173 1.61133C9.95039 2.63867 7.80977 4.10008 5.95492 5.95492C4.10008 7.80977 2.63867 9.95039 1.61133 12.3173C0.542109 14.7805 0 17.3654 0 20C0 22.6346 0.542109 25.2195 1.61133 27.6827C2.63859 30.0496 4.1 32.1902 5.95492 34.0451C7.80977 35.8999 9.95039 37.3613 12.3173 38.3887C14.7805 39.4579 17.3654 40 20 40C22.6346 40 25.2195 39.4579 27.6827 38.3887C30.0496 37.3613 32.1902 35.8999 34.0451 34.0451C35.8999 32.1902 37.3613 30.0496 38.3887 27.6827C39.4579 25.2195 40 22.6346 40 20C40 17.3654 39.4579 14.7805 38.3887 12.3173ZM20 38.4375C10.0059 38.4375 1.5625 29.9941 1.5625 20C1.5625 10.0059 10.0059 1.5625 20 1.5625C29.9941 1.5625 38.4375 10.0059 38.4375 20C38.4375 29.9941 29.9941 38.4375 20 38.4375Z" fill="#0DB960"/>
<path d="M35.3105 13.5784C34.4613 11.6053 33.2509 9.825 31.713 8.28711C30.175 6.74914 28.3948 5.53875 26.4216 4.68953C24.3709 3.80688 22.2104 3.35938 20 3.35938C16.9952 3.35938 13.8629 4.38547 10.9418 6.32664C10.5824 6.56547 10.4847 7.05039 10.7235 7.40969C10.9623 7.76906 11.4473 7.86672 11.8066 7.62797C14.4706 5.85766 17.3038 4.92188 20 4.92188C28.1732 4.92188 35.0781 11.8268 35.0781 20C35.0781 28.1732 28.1732 35.0781 20 35.0781C11.8268 35.0781 4.92188 28.1732 4.92188 20C4.92188 17.3044 5.85742 14.471 7.62727 11.8065C7.86602 11.447 7.7682 10.9622 7.40883 10.7234C7.0493 10.4847 6.56453 10.5826 6.32578 10.942C4.38516 13.8636 3.35938 16.9958 3.35938 20C3.35938 22.2104 3.80688 24.3709 4.68945 26.4216C5.53867 28.3947 6.74906 30.175 8.28703 31.7129C9.825 33.2509 11.6052 34.4613 13.5784 35.3105C15.6291 36.1931 17.7896 36.6406 20 36.6406C22.2104 36.6406 24.3709 36.1931 26.4216 35.3105C28.3947 34.4613 30.175 33.2509 31.7129 31.713C33.2509 30.175 34.4613 28.3948 35.3105 26.4216C36.1931 24.3709 36.6406 22.2104 36.6406 20C36.6406 17.7896 36.1931 15.6291 35.3105 13.5784Z" fill="#0DB960"/>
<path d="M8.98438 8.20312C8.55312 8.20312 8.20312 8.55312 8.20312 8.98438C8.20312 9.41562 8.55312 9.76562 8.98438 9.76562C9.41562 9.76562 9.76562 9.41562 9.76562 8.98438C9.76562 8.55312 9.41562 8.20312 8.98438 8.20312Z" fill="#0DB960"/>
<path d="M29.2407 13.8843C28.6503 13.2939 27.8657 12.9688 27.0312 12.9688C26.1968 12.9688 25.4122 13.2939 24.8218 13.8843L17.6562 21.0498L15.1782 18.5718C14.5878 17.9814 13.8032 17.6562 12.9688 17.6562C12.1343 17.6562 11.3497 17.9814 10.7595 18.5716C10.169 19.1616 9.84375 19.9463 9.84375 20.7812C9.84375 21.6162 10.169 22.4009 10.7593 22.9907L15.4468 27.6782C16.0372 28.2686 16.8219 28.5938 17.6562 28.5938C18.4906 28.5938 19.2753 28.2686 19.8657 27.6782L29.2405 18.3034C29.831 17.7134 30.1562 16.9287 30.1562 16.0938C30.1562 15.2588 29.831 14.4741 29.2407 13.8843ZM28.1359 17.1984L18.7609 26.5734C18.4655 26.8686 18.0733 27.0312 17.6562 27.0312C17.2392 27.0312 16.847 26.8686 16.5516 26.5734L11.8639 21.8856C11.5688 21.5907 11.4062 21.1985 11.4062 20.7812C11.4062 20.364 11.5688 19.9718 11.8641 19.6766C12.1595 19.3814 12.5517 19.2188 12.9688 19.2188C13.3858 19.2188 13.778 19.3814 14.0734 19.6766L17.6562 23.2595L25.9266 14.9891C26.222 14.6939 26.6142 14.5312 27.0312 14.5312C27.4483 14.5312 27.8405 14.6939 28.1361 14.9894C28.4312 15.2843 28.5938 15.6765 28.5938 16.0938C28.5938 16.511 28.4312 16.9032 28.1359 17.1984Z" fill="#0DB960"/>
</svg>
