<svg width="24" height="24" viewBox="0 0 24 24" fill="none" xmlns="http://www.w3.org/2000/svg">
<g id="24 / shopping / bascket">
<path id="icon" fill-rule="evenodd" clip-rule="evenodd" d="M3.99984 9.00087H5.99946C5.99998 9.36718 6.2025 9.71967 6.55246 9.89465C7.04644 10.1416 7.64711 9.94141 7.8941 9.44743L8.11738 9.00087H15.8821L16.1054 9.44743C16.3524 9.94141 16.9531 10.1416 17.447 9.89465C17.797 9.71967 17.9995 9.36718 18.0001 9.00087H19.9998V11.0009H3.99984V9.00087ZM17.118 7.00054H20C21.1046 7.00054 22 7.89597 22 9.00054V11.0005C22 11.8405 21.4822 12.5595 20.7484 12.8558C20.7518 12.9035 20.7535 12.9517 20.7535 13.0002C20.7535 13.1461 20.7376 13.2916 20.7059 13.4341L19.1504 20.4341C18.947 21.3492 18.1354 22.0002 17.198 22.0002H6.80233C5.86494 22.0002 5.05331 21.3492 4.84996 20.4341L3.2944 13.4341C3.25114 13.2394 3.23785 13.045 3.25148 12.8558C2.51774 12.5594 2 11.8405 2 11.0005V9.00054C2 7.89597 2.89543 7.00054 4 7.00054H6.88148L9.10525 2.55301C9.35224 2.05903 9.95291 1.8588 10.4469 2.10579C10.9409 2.35278 11.1411 2.95345 10.8941 3.44743L9.11755 7.00054H14.882L13.1054 3.44743C12.8584 2.95345 13.0586 2.35278 13.5526 2.10579C14.0466 1.8588 14.6473 2.05903 14.8943 2.55301L17.118 7.00054ZM5.2471 13.0005H18.7539L17.1983 20.0005H6.80266L5.2471 13.0005Z" fill="#1F213A"/>
</g>
</svg>
