<svg width="40" height="40" viewBox="0 0 40 40" fill="none" xmlns="http://www.w3.org/2000/svg">
<g clip-path="url(#clip0_330:4415)">
<path d="M38.0923 23.4292H37.4938V18.0374C37.4938 17.1838 37.0689 16.428 36.4201 15.9688V15.2347C36.4201 14.1697 35.5538 13.3034 34.4888 13.3034H34.0419L35.752 10.794C36.3252 9.95295 36.1072 8.80225 35.2661 8.22896L23.6621 0.321152C23.2547 0.0434176 22.7636 -0.0590824 22.2789 0.0328707C21.7945 0.124668 21.3747 0.399589 21.097 0.807089L11.0813 15.5042H8.29422L8.96664 8.69717C8.97422 8.62045 9.02406 8.55396 9.09359 8.52779C9.95992 8.20115 10.7107 7.59115 11.2076 6.81021C11.2467 6.74873 11.3205 6.71357 11.397 6.72131L15.7684 7.15318C16.0819 7.18357 16.3607 6.95529 16.3916 6.64201C16.4226 6.32873 16.1938 6.04975 15.8805 6.01881L11.509 5.58693C11.0016 5.53725 10.5177 5.77107 10.2458 6.19826C9.88047 6.77248 9.32844 7.22092 8.69149 7.46107C8.21203 7.64185 7.88281 8.07248 7.83219 8.58506L7.14875 15.5041H6.42195L7.48539 4.73818C7.52367 4.35068 7.86953 4.066 8.2575 4.10482L17.0914 4.97748C17.4047 5.00771 17.6837 4.77959 17.7146 4.46631C17.7456 4.15303 17.5167 3.87404 17.2034 3.8431L8.36953 2.97045C7.35672 2.87053 6.45102 3.6131 6.35094 4.62607L5.49375 13.3034H4.03398C2.96914 13.3034 2.10273 14.1697 2.10273 15.2347V15.7354C1.23156 16.1365 0.625 17.0172 0.625 18.0374V37.4667C0.625 38.8636 1.76141 40 3.15836 40H34.9605C36.3573 40 37.4938 38.8636 37.4938 37.4667V32.075H38.0923C38.7989 32.075 39.3737 31.5002 39.3737 30.7937V24.7105C39.3738 24.004 38.7989 23.4292 38.0923 23.4292ZM34.4888 14.4434C34.9252 14.4433 35.2802 14.7983 35.2802 15.2347V15.5251C35.1753 15.5119 35.0688 15.5043 34.9605 15.5043H32.5421L33.265 14.4434H34.4888ZM22.039 1.44896C22.1452 1.29311 22.3058 1.18795 22.4911 1.15279C22.5354 1.14443 22.5798 1.14021 22.624 1.14021C22.7644 1.14021 22.9016 1.18225 23.0202 1.26303L34.6241 9.17084C34.9459 9.39014 35.0293 9.83029 34.8101 10.152L31.1627 15.504H30.2874L32.0756 12.8801C32.3656 12.4545 32.3895 11.9129 32.1378 11.4666C31.8033 10.8737 31.6677 10.1754 31.7559 9.50053C31.8216 8.99842 31.6006 8.50826 31.1794 8.22123L25.1639 4.12185C24.7426 3.83475 24.2055 3.80842 23.7623 4.05318C23.1666 4.38209 22.4671 4.51123 21.7929 4.41685C21.2929 4.3467 20.7858 4.57248 20.5001 4.99162L13.3361 15.5041H12.4608L22.039 1.44896ZM22.29 11.1279C19.8079 11.1279 17.7704 13.0633 17.6044 15.5041H14.7154L21.4419 5.63357C21.442 5.63357 21.442 5.63357 21.442 5.63357C21.4802 5.5774 21.5435 5.54396 21.6086 5.54396C21.6173 5.54396 21.6259 5.54459 21.6346 5.54576C22.5516 5.67404 23.5028 5.49857 24.3131 5.05115C24.3769 5.01584 24.4588 5.02092 24.5219 5.06389L30.5374 9.16334C30.6004 9.20631 30.635 9.28068 30.6256 9.35287C30.5055 10.2708 30.6901 11.2203 31.145 12.0267C31.1815 12.0915 31.177 12.1744 31.1338 12.2381L28.9081 15.504H26.9759C26.8097 13.0633 24.7723 11.1279 22.29 11.1279ZM25.8328 15.5042H18.7473C18.9105 13.6926 20.4366 12.2679 22.29 12.2679C24.1434 12.2679 25.6696 13.6926 25.8328 15.5042ZM3.24266 15.2347C3.24266 14.7983 3.59758 14.4433 4.03398 14.4433H5.38117L5.27641 15.5041H3.24266V15.2347ZM1.76492 18.0374C1.76492 17.2691 2.39 16.644 3.15836 16.644H34.9605C35.7288 16.644 36.3538 17.2691 36.3538 18.0374V19.619H1.76492V18.0374ZM36.3538 37.4667C36.3538 38.235 35.7288 38.8601 34.9605 38.8601H3.15836C2.39 38.8601 1.76492 38.235 1.76492 37.4667V35.8851H4.83852C5.15336 35.8851 5.40844 35.63 5.40844 35.3152C5.40844 35.0004 5.15328 34.7453 4.83852 34.7453H1.76492V20.7589H36.3538V23.4292H30.9346H30.9345C29.227 23.4292 27.748 24.4245 27.046 25.8652C27.0437 25.8701 27.041 25.8747 27.0386 25.8796C27.0327 25.8919 27.0275 25.9046 27.0217 25.9169C26.9381 26.0945 26.8655 26.2783 26.8063 26.468C26.8062 26.4686 26.806 26.469 26.8059 26.4696C26.6797 26.875 26.6116 27.3057 26.6116 27.7521C26.6116 30.1358 28.5509 32.075 30.9345 32.075H30.9345H36.3538V34.7453H8.48805C8.1732 34.7453 7.91813 35.0004 7.91813 35.3152C7.91813 35.63 8.17328 35.8851 8.48805 35.8851H36.3538V37.4667ZM38.2338 30.7936C38.2338 30.8716 38.1704 30.9351 38.0923 30.9351H30.9347C29.728 30.9351 28.676 30.2601 28.1364 29.268C28.1119 29.2229 28.0884 29.1772 28.066 29.1308C28.0213 29.0381 27.9809 28.9429 27.9452 28.8454C27.82 28.5043 27.7517 28.136 27.7517 27.7521C27.7517 27.3682 27.8201 26.9999 27.9452 26.6588C27.9809 26.5614 28.0213 26.4662 28.066 26.3733C28.0884 26.327 28.1119 26.2812 28.1364 26.2362C28.676 25.244 29.728 24.5691 30.9347 24.5691H38.0923C38.1703 24.5691 38.2338 24.6326 38.2338 24.7105V30.7936Z" fill="#0DB960"/>
<path d="M31.0684 25.4395C29.7932 25.4395 28.7559 26.4769 28.7559 27.752C28.7559 29.027 29.7932 30.0644 31.0684 30.0644C32.3435 30.0644 33.3809 29.027 33.3809 27.752C33.3809 26.4769 32.3435 25.4395 31.0684 25.4395ZM31.0684 28.9244C30.4218 28.9244 29.8958 28.3984 29.8958 27.752C29.8958 27.1055 30.4218 26.5794 31.0684 26.5794C31.7149 26.5794 32.2409 27.1054 32.2409 27.752C32.2409 28.3985 31.7149 28.9244 31.0684 28.9244Z" fill="#0DB960"/>
</g>
<defs>
<clipPath id="clip0_330:4415">
<rect width="40" height="40" fill="white"/>
</clipPath>
</defs>
</svg>
