<svg width="53" height="40" viewBox="0 0 53 40" fill="none" xmlns="http://www.w3.org/2000/svg">
<g clip-path="url(#clip0_330:4378)">
<path d="M3.96035 9.3997H12.0184C12.4404 9.3997 12.7825 9.05771 12.7825 8.63564C12.7825 8.21357 12.4404 7.87158 12.0184 7.87158H3.96035C3.53838 7.87158 3.19629 8.21357 3.19629 8.63564C3.19629 9.05771 3.53828 9.3997 3.96035 9.3997Z" fill="#0DB960"/>
<path d="M11.7421 13.0774H8.55898C8.13702 13.0774 7.79492 13.4194 7.79492 13.8414C7.79492 14.2635 8.13702 14.6055 8.55898 14.6055H11.7421C12.1641 14.6055 12.5062 14.2635 12.5062 13.8414C12.5062 13.4194 12.1641 13.0774 11.7421 13.0774Z" fill="#0DB960"/>
<path d="M0.764057 18.3763H8.55866C8.98063 18.3763 9.32272 18.0343 9.32272 17.6122C9.32272 17.1901 8.98063 16.8481 8.55866 16.8481H0.764057C0.342094 16.8481 0 17.1901 0 17.6122C0 18.0343 0.342094 18.3763 0.764057 18.3763Z" fill="#0DB960"/>
<path d="M12.7825 31.9218C12.7825 31.4997 12.4404 31.1577 12.0184 31.1577H3.96035C3.53838 31.1577 3.19629 31.4997 3.19629 31.9218C3.19629 32.3438 3.53838 32.6858 3.96035 32.6858H12.0184C12.4404 32.6858 12.7825 32.3438 12.7825 31.9218Z" fill="#0DB960"/>
<path d="M11.7421 25.9507H8.55898C8.13702 25.9507 7.79492 26.2927 7.79492 26.7147C7.79492 27.1368 8.13702 27.4788 8.55898 27.4788H11.7421C12.1641 27.4788 12.5062 27.1368 12.5062 26.7147C12.5062 26.2927 12.1641 25.9507 11.7421 25.9507Z" fill="#0DB960"/>
<path d="M9.32272 22.9447C9.32272 22.5227 8.98063 22.1807 8.55866 22.1807H0.764057C0.342094 22.1807 0 22.5227 0 22.9447C0 23.3668 0.342094 23.7088 0.764057 23.7088H8.55866C8.98063 23.7088 9.32272 23.3668 9.32272 22.9447Z" fill="#0DB960"/>
<path d="M32.5512 11.0918C32.9732 11.0918 33.3152 10.7498 33.3152 10.3278V9.16152C33.3152 8.73945 32.9732 8.39746 32.5512 8.39746C32.1291 8.39746 31.7871 8.73945 31.7871 9.16152V10.3278C31.7871 10.7498 32.1291 11.0918 32.5512 11.0918Z" fill="#0DB960"/>
<path d="M40.9513 11.8775C40.6528 11.5792 40.1691 11.5792 39.8707 11.8775L39.0461 12.7022C38.7477 13.0007 38.7477 13.4844 39.0461 13.7828C39.3447 14.0812 39.8282 14.0811 40.1266 13.7828L40.9513 12.9581C41.2496 12.6597 41.2496 12.176 40.9513 11.8775Z" fill="#0DB960"/>
<path d="M42.5014 19.5139C42.0793 19.5139 41.7373 19.8559 41.7373 20.278C41.7373 20.7 42.0793 21.042 42.5014 21.042H43.6675C44.0896 21.042 44.4316 20.7 44.4316 20.278C44.4316 19.8559 44.0896 19.5139 43.6675 19.5139H42.5014Z" fill="#0DB960"/>
<path d="M40.1266 26.774C39.8281 26.4757 39.3444 26.4757 39.0461 26.774C38.7477 27.0725 38.7477 27.5562 39.0461 27.8546L39.8707 28.6793C40.1693 28.9777 40.6529 28.9776 40.9513 28.6793C41.2497 28.3808 41.2497 27.8971 40.9513 27.5987L40.1266 26.774Z" fill="#0DB960"/>
<path d="M31.7871 30.2284V31.3946C31.7871 31.8166 32.1291 32.1586 32.5512 32.1586C32.9732 32.1586 33.3152 31.8166 33.3152 31.3946V30.2284C33.3152 29.8063 32.9732 29.4644 32.5512 29.4644C32.1291 29.4644 31.7871 29.8064 31.7871 30.2284Z" fill="#0DB960"/>
<path d="M24.9752 26.774L24.1505 27.5987C23.8522 27.8972 23.8522 28.3809 24.1505 28.6793C24.449 28.9777 24.9327 28.9776 25.231 28.6793L26.0557 27.8546C26.3541 27.5561 26.3541 27.0724 26.0557 26.774C25.7574 26.4757 25.2736 26.4757 24.9752 26.774Z" fill="#0DB960"/>
<path d="M21.4359 19.5139C21.014 19.5139 20.6719 19.8559 20.6719 20.278C20.6719 20.7 21.014 21.042 21.4359 21.042H22.6022C23.0242 21.042 23.3662 20.7 23.3662 20.278C23.3662 19.8559 23.0242 19.5139 22.6022 19.5139H21.4359Z" fill="#0DB960"/>
<path d="M26.0557 12.7022L25.231 11.8775C24.9326 11.5792 24.4488 11.5792 24.1505 11.8775C23.8522 12.176 23.8522 12.6597 24.1505 12.9581L24.9752 13.7828C25.2737 14.0812 25.7574 14.0811 26.0557 13.7828C26.3541 13.4844 26.3541 13.0007 26.0557 12.7022Z" fill="#0DB960"/>
<path d="M36.6598 20.2783C36.6598 19.8562 36.3178 19.5142 35.8957 19.5142H33.3152V13.8414C33.3152 13.4194 32.9732 13.0774 32.5512 13.0774C32.1291 13.0774 31.7871 13.4194 31.7871 13.8414V20.2783C31.7871 20.7003 32.1291 21.0423 32.5512 21.0423H35.8957C36.3177 21.0423 36.6598 20.7003 36.6598 20.2783Z" fill="#0DB960"/>
<path d="M47.0387 20.1528C47.4599 20.1272 47.7806 19.765 47.7551 19.3439C47.269 11.3261 40.5906 5.04541 32.5509 5.04541C24.1511 5.04541 17.3174 11.8791 17.3174 20.279C17.3174 28.6787 24.1511 35.5124 32.5509 35.5124C40.0762 35.5124 46.4974 29.9988 47.6145 22.5584C47.6771 22.1411 47.3897 21.7521 46.9723 21.6894C46.556 21.627 46.1659 21.9142 46.1033 22.3316C45.0998 29.016 39.328 33.9844 32.5509 33.9844C24.9937 33.9844 18.8455 27.8362 18.8455 20.2791C18.8455 12.7219 24.9937 6.57363 32.5509 6.57363C39.784 6.57363 45.7925 12.2237 46.2297 19.4366C46.2552 19.8575 46.617 20.1772 47.0387 20.1528Z" fill="#0DB960"/>
<path d="M32.5518 0.67041C29.8642 0.67041 27.2311 1.22797 24.8075 2.27065H11.3266C10.9046 2.27065 10.5625 2.61264 10.5625 3.03471C10.5625 3.45677 10.9046 3.79877 11.3266 3.79877H21.933C20.4989 4.72175 19.1787 5.83503 18.0147 7.12028C17.7315 7.43293 17.7553 7.91612 18.0681 8.19943C18.3809 8.48274 18.8639 8.4588 19.1473 8.14605C22.5705 4.36631 27.4563 2.19852 32.5518 2.19852C42.521 2.19852 50.6316 10.309 50.6316 20.2783C50.6316 30.2474 42.5211 38.358 32.5518 38.358C22.5825 38.358 14.472 30.2475 14.472 20.2783C14.472 16.7872 15.4693 13.3989 17.3558 10.4794C17.5848 10.125 17.4831 9.65205 17.1287 9.42304C16.7743 9.19413 16.3014 9.2956 16.0723 9.65012C14.0256 12.8172 12.9439 16.4923 12.9439 20.2783C12.9439 27.1819 16.5305 33.2629 21.9379 36.7577H11.3267C10.9047 36.7577 10.5626 37.0997 10.5626 37.5218C10.5626 37.9439 10.9047 38.2859 11.3267 38.2859H24.797C27.1768 39.3147 29.7987 39.8861 32.5519 39.8861C43.3636 39.8861 52.1597 31.0901 52.1597 20.2783C52.1597 9.46644 43.3636 0.67041 32.5518 0.67041Z" fill="#0DB960"/>
</g>
<defs>
<clipPath id="clip0_330:4378">
<rect width="52.549" height="40" fill="white"/>
</clipPath>
</defs>
</svg>
