<svg width="24" height="24" viewBox="0 0 24 24" fill="none" xmlns="http://www.w3.org/2000/svg">
<g id="24 / time / time">
<path id="icon" fill-rule="evenodd" clip-rule="evenodd" d="M12 22.9998C5.92487 22.9998 1 18.0749 1 11.9998C1 5.92462 5.92487 0.999756 12 0.999756C18.0751 0.999756 23 5.92462 23 11.9998C23 18.0749 18.0751 22.9998 12 22.9998ZM11.9998 21.0001C16.9704 21.0001 20.9998 16.9706 20.9998 12.0001C20.9998 7.02952 16.9704 3.00008 11.9998 3.00008C7.02927 3.00008 2.99984 7.02952 2.99984 12.0001C2.99984 16.9706 7.02927 21.0001 11.9998 21.0001ZM17.0002 11.0001H13.0002V6.00008H11.0002V13.0001H17.0002V11.0001Z" fill="#1F213A"/>
</g>
</svg>
