<svg width="40" height="40" viewBox="0 0 40 40" fill="none" xmlns="http://www.w3.org/2000/svg">
<g clip-path="url(#clip0_330:4399)">
<path d="M36.8337 4H33.5003V2.66667C33.5003 1.95942 33.2194 1.28115 32.7193 0.781049C32.2192 0.280952 31.5409 0 30.8337 0C30.1264 0 29.4481 0.280952 28.948 0.781049C28.4479 1.28115 28.167 1.95942 28.167 2.66667V4H22.8337V2.66667C22.8337 1.95942 22.5527 1.28115 22.0526 0.781049C21.5525 0.280952 20.8742 0 20.167 0C19.4597 0 18.7815 0.280952 18.2814 0.781049C17.7813 1.28115 17.5003 1.95942 17.5003 2.66667V4H12.167V2.66667C12.167 1.95942 11.886 1.28115 11.3859 0.781049C10.8858 0.280952 10.2076 0 9.50033 0C8.79308 0 8.1148 0.280952 7.61471 0.781049C7.11461 1.28115 6.83366 1.95942 6.83366 2.66667V4H3.50033C2.61627 4 1.76842 4.35119 1.1433 4.97631C0.518182 5.60143 0.166992 6.44928 0.166992 7.33333V34C0.166992 34.8841 0.518182 35.7319 1.1433 36.357C1.76842 36.9821 2.61627 37.3333 3.50033 37.3333H22.167C22.3438 37.3333 22.5134 37.2631 22.6384 37.1381C22.7634 37.013 22.8337 36.8435 22.8337 36.6667C22.8337 36.4899 22.7634 36.3203 22.6384 36.1953C22.5134 36.0702 22.3438 36 22.167 36H3.50033C2.97038 35.9984 2.46259 35.7872 2.08786 35.4125C1.71313 35.0377 1.50191 34.5299 1.50033 34V13.3333H38.8337V24.6667C38.8337 24.8435 38.9039 25.013 39.0289 25.1381C39.1539 25.2631 39.3235 25.3333 39.5003 25.3333C39.6771 25.3333 39.8467 25.2631 39.9717 25.1381C40.0968 25.013 40.167 24.8435 40.167 24.6667V7.33333C40.167 6.44928 39.8158 5.60143 39.1907 4.97631C38.5656 4.35119 37.7177 4 36.8337 4ZM29.5003 2.66667C29.5003 2.31304 29.6408 1.97391 29.8908 1.72386C30.1409 1.47381 30.48 1.33333 30.8337 1.33333C31.1873 1.33333 31.5264 1.47381 31.7765 1.72386C32.0265 1.97391 32.167 2.31304 32.167 2.66667V6.66667C32.167 7.02029 32.0265 7.35943 31.7765 7.60948C31.5264 7.85952 31.1873 8 30.8337 8C30.48 8 30.1409 7.85952 29.8908 7.60948C29.6408 7.35943 29.5003 7.02029 29.5003 6.66667V2.66667ZM18.8337 2.66667C18.8337 2.31304 18.9741 1.97391 19.2242 1.72386C19.4742 1.47381 19.8134 1.33333 20.167 1.33333C20.5206 1.33333 20.8598 1.47381 21.1098 1.72386C21.3598 1.97391 21.5003 2.31304 21.5003 2.66667V6.66667C21.5003 7.02029 21.3598 7.35943 21.1098 7.60948C20.8598 7.85952 20.5206 8 20.167 8C19.8134 8 19.4742 7.85952 19.2242 7.60948C18.9741 7.35943 18.8337 7.02029 18.8337 6.66667V2.66667ZM8.16699 2.66667C8.16699 2.31304 8.30747 1.97391 8.55752 1.72386C8.80756 1.47381 9.1467 1.33333 9.50033 1.33333C9.85395 1.33333 10.1931 1.47381 10.4431 1.72386C10.6932 1.97391 10.8337 2.31304 10.8337 2.66667V6.66667C10.8337 7.02029 10.6932 7.35943 10.4431 7.60948C10.1931 7.85952 9.85395 8 9.50033 8C9.1467 8 8.80756 7.85952 8.55752 7.60948C8.30747 7.35943 8.16699 7.02029 8.16699 6.66667V2.66667ZM38.8337 12H1.50033V7.33333C1.50191 6.80339 1.71313 6.2956 2.08786 5.92087C2.46259 5.54614 2.97038 5.33492 3.50033 5.33333H6.83366V6.66667C6.83366 7.37391 7.11461 8.05219 7.61471 8.55228C8.1148 9.05238 8.79308 9.33333 9.50033 9.33333C10.2076 9.33333 10.8858 9.05238 11.3859 8.55228C11.886 8.05219 12.167 7.37391 12.167 6.66667V5.33333H17.5003V6.66667C17.5003 7.37391 17.7813 8.05219 18.2814 8.55228C18.7815 9.05238 19.4597 9.33333 20.167 9.33333C20.8742 9.33333 21.5525 9.05238 22.0526 8.55228C22.5527 8.05219 22.8337 7.37391 22.8337 6.66667V5.33333H28.167V6.66667C28.167 7.37391 28.4479 8.05219 28.948 8.55228C29.4481 9.05238 30.1264 9.33333 30.8337 9.33333C31.5409 9.33333 32.2192 9.05238 32.7193 8.55228C33.2194 8.05219 33.5003 7.37391 33.5003 6.66667V5.33333H36.8337C37.3636 5.33492 37.8714 5.54614 38.2461 5.92087C38.6209 6.2956 38.8321 6.80339 38.8337 7.33333V12Z" fill="#0DB960"/>
<path d="M18.8363 17.9998C18.8363 17.6462 18.6958 17.3071 18.4457 17.057C18.1957 16.807 17.8566 16.6665 17.5029 16.6665H14.8363C14.4826 16.6665 14.1435 16.807 13.8935 17.057C13.6434 17.3071 13.5029 17.6462 13.5029 17.9998V19.9998C13.5029 20.3535 13.6434 20.6926 13.8935 20.9426C14.1435 21.1927 14.4826 21.3332 14.8363 21.3332H17.5029C17.8566 21.3332 18.1957 21.1927 18.4457 20.9426C18.6958 20.6926 18.8363 20.3535 18.8363 19.9998V17.9998ZM14.8363 19.9998V17.9998H17.5029V19.9998H14.8363Z" fill="#0DB960"/>
<path d="M10.8324 17.9998C10.8324 17.6462 10.6919 17.3071 10.4418 17.057C10.1918 16.807 9.85264 16.6665 9.49902 16.6665H6.83236C6.47873 16.6665 6.1396 16.807 5.88955 17.057C5.6395 17.3071 5.49902 17.6462 5.49902 17.9998V19.9998C5.49902 20.3535 5.6395 20.6926 5.88955 20.9426C6.1396 21.1927 6.47873 21.3332 6.83236 21.3332H9.49902C9.85264 21.3332 10.1918 21.1927 10.4418 20.9426C10.6919 20.6926 10.8324 20.3535 10.8324 19.9998V17.9998ZM6.83236 19.9998V17.9998H9.49902V19.9998H6.83236Z" fill="#0DB960"/>
<path d="M33.499 21.3332C33.8526 21.3332 34.1918 21.1927 34.4418 20.9426C34.6919 20.6926 34.8324 20.3535 34.8324 19.9998V17.9998C34.8324 17.6462 34.6919 17.3071 34.4418 17.057C34.1918 16.807 33.8526 16.6665 33.499 16.6665H30.8324C30.4787 16.6665 30.1396 16.807 29.8895 17.057C29.6395 17.3071 29.499 17.6462 29.499 17.9998V19.9998C29.499 20.3535 29.6395 20.6926 29.8895 20.9426C30.1396 21.1927 30.4787 21.3332 30.8324 21.3332H33.499ZM30.8324 17.9998H33.499V19.9998H30.8324V17.9998Z" fill="#0DB960"/>
<path d="M18.8363 23.9998C18.8363 23.6462 18.6958 23.3071 18.4457 23.057C18.1957 22.807 17.8566 22.6665 17.5029 22.6665H14.8363C14.4826 22.6665 14.1435 22.807 13.8935 23.057C13.6434 23.3071 13.5029 23.6462 13.5029 23.9998V25.9998C13.5029 26.3535 13.6434 26.6926 13.8935 26.9426C14.1435 27.1927 14.4826 27.3332 14.8363 27.3332H17.5029C17.8566 27.3332 18.1957 27.1927 18.4457 26.9426C18.6958 26.6926 18.8363 26.3535 18.8363 25.9998V23.9998ZM14.8363 25.9998V23.9998H17.5029V25.9998H14.8363Z" fill="#0DB960"/>
<path d="M10.8324 23.9998C10.8324 23.6462 10.6919 23.3071 10.4418 23.057C10.1918 22.807 9.85264 22.6665 9.49902 22.6665H6.83236C6.47873 22.6665 6.1396 22.807 5.88955 23.057C5.6395 23.3071 5.49902 23.6462 5.49902 23.9998V25.9998C5.49902 26.3535 5.6395 26.6926 5.88955 26.9426C6.1396 27.1927 6.47873 27.3332 6.83236 27.3332H9.49902C9.85264 27.3332 10.1918 27.1927 10.4418 26.9426C10.6919 26.6926 10.8324 26.3535 10.8324 25.9998V23.9998ZM6.83236 25.9998V23.9998H9.49902V25.9998H6.83236Z" fill="#0DB960"/>
<path d="M17.5029 28.667H14.8363C14.4826 28.667 14.1435 28.8075 13.8935 29.0575C13.6434 29.3076 13.5029 29.6467 13.5029 30.0003V32.0003C13.5029 32.3539 13.6434 32.6931 13.8935 32.9431C14.1435 33.1932 14.4826 33.3337 14.8363 33.3337H17.5029C17.8566 33.3337 18.1957 33.1932 18.4457 32.9431C18.6958 32.6931 18.8363 32.3539 18.8363 32.0003V30.0003C18.8363 29.6467 18.6958 29.3076 18.4457 29.0575C18.1957 28.8075 17.8566 28.667 17.5029 28.667ZM14.8363 32.0003V30.0003H17.5029V32.0003H14.8363Z" fill="#0DB960"/>
<path d="M22.8343 21.3332H25.501C25.8546 21.3332 26.1937 21.1927 26.4438 20.9426C26.6938 20.6926 26.8343 20.3535 26.8343 19.9998V17.9998C26.8343 17.6462 26.6938 17.3071 26.4438 17.057C26.1937 16.807 25.8546 16.6665 25.501 16.6665H22.8343C22.4807 16.6665 22.1415 16.807 21.8915 17.057C21.6415 17.3071 21.501 17.6462 21.501 17.9998V19.9998C21.501 20.3535 21.6415 20.6926 21.8915 20.9426C22.1415 21.1927 22.4807 21.3332 22.8343 21.3332ZM22.8343 17.9998H25.501V19.9998H22.8343V17.9998Z" fill="#0DB960"/>
<path d="M21.501 25.9998C21.501 26.3535 21.6415 26.6926 21.8915 26.9426C22.1415 27.1927 22.4807 27.3332 22.8343 27.3332C23.0111 27.3332 23.1807 27.2629 23.3057 27.1379C23.4307 27.0129 23.501 26.8433 23.501 26.6665C23.501 26.4897 23.4307 26.3201 23.3057 26.1951C23.1807 26.0701 23.0111 25.9998 22.8343 25.9998V23.9998H25.501C25.6778 23.9998 25.8474 23.9296 25.9724 23.8046C26.0974 23.6796 26.1676 23.51 26.1676 23.3332C26.1676 23.1564 26.0974 22.9868 25.9724 22.8618C25.8474 22.7367 25.6778 22.6665 25.501 22.6665H22.8343C22.4807 22.6665 22.1415 22.807 21.8915 23.057C21.6415 23.3071 21.501 23.6462 21.501 23.9998V25.9998Z" fill="#0DB960"/>
<path d="M9.49902 28.667H6.83236C6.47873 28.667 6.1396 28.8075 5.88955 29.0575C5.6395 29.3076 5.49902 29.6467 5.49902 30.0003V32.0003C5.49902 32.3539 5.6395 32.6931 5.88955 32.9431C6.1396 33.1932 6.47873 33.3337 6.83236 33.3337H9.49902C9.85264 33.3337 10.1918 33.1932 10.4418 32.9431C10.6919 32.6931 10.8324 32.3539 10.8324 32.0003V30.0003C10.8324 29.6467 10.6919 29.3076 10.4418 29.0575C10.1918 28.8075 9.85264 28.667 9.49902 28.667ZM6.83236 32.0003V30.0003H9.49902V32.0003H6.83236Z" fill="#0DB960"/>
<path d="M31.4997 22.6665C29.7856 22.6665 28.11 23.1748 26.6847 24.1271C25.2595 25.0794 24.1487 26.433 23.4927 28.0166C22.8368 29.6002 22.6651 31.3428 22.9995 33.0239C23.3339 34.7051 24.1594 36.2494 25.3714 37.4614C26.5835 38.6735 28.1277 39.4989 29.8089 39.8333C31.4901 40.1677 33.2326 39.9961 34.8163 39.3401C36.3999 38.6842 37.7534 37.5733 38.7057 36.1481C39.6581 34.7229 40.1663 33.0473 40.1663 31.3332C40.1637 29.0354 39.2498 26.8326 37.625 25.2078C36.0003 23.5831 33.7974 22.6692 31.4997 22.6665ZM31.4997 38.6665C30.0493 38.6665 28.6315 38.2364 27.4255 37.4306C26.2195 36.6248 25.2796 35.4795 24.7246 34.1395C24.1695 32.7995 24.0243 31.325 24.3073 29.9025C24.5902 28.48 25.2886 27.1733 26.3142 26.1477C27.3398 25.1221 28.6465 24.4237 30.069 24.1407C31.4915 23.8578 32.966 24.003 34.306 24.5581C35.646 25.1131 36.7913 26.053 37.5971 27.259C38.4029 28.4649 38.833 29.8828 38.833 31.3332C38.8307 33.2774 38.0574 35.1413 36.6826 36.5161C35.3078 37.8908 33.4439 38.6642 31.4997 38.6665Z" fill="#0DB960"/>
<path d="M35.3505 28.5387L30.1652 33.724L27.8085 31.3667C27.6828 31.2453 27.5144 31.1781 27.3396 31.1796C27.1648 31.1811 26.9976 31.2512 26.874 31.3748C26.7504 31.4984 26.6803 31.6656 26.6787 31.8404C26.6772 32.0152 26.7444 32.1836 26.8659 32.3094L29.6939 35.138C29.8189 35.263 29.9884 35.3332 30.1652 35.3332C30.342 35.3332 30.5115 35.263 30.6365 35.138L36.2932 29.4814C36.4146 29.3556 36.4818 29.1872 36.4803 29.0124C36.4788 28.8376 36.4087 28.6704 36.2851 28.5468C36.1615 28.4232 35.9942 28.3531 35.8194 28.3516C35.6446 28.3501 35.4762 28.4173 35.3505 28.5387Z" fill="#0DB960"/>
</g>
<defs>
<clipPath id="clip0_330:4399">
<rect width="40" height="40" fill="white"/>
</clipPath>
</defs>
</svg>
