<svg width="17" height="17" viewBox="0 0 17 17" fill="none" xmlns="http://www.w3.org/2000/svg">
<path fill-rule="evenodd" clip-rule="evenodd" d="M4.16437 5.16671C3.94556 4.80896 3.83301 4.36861 3.83301 3.83337C3.83301 2.7781 4.62658 1.83337 5.83301 1.83337C7.041 1.83337 8.01519 2.64246 8.49967 3.90926C8.98416 2.64246 9.95835 1.83337 11.1663 1.83337C12.3728 1.83337 13.1663 2.7781 13.1663 3.83337C13.1663 4.36861 13.0538 4.80896 12.835 5.16671H13.833C14.5694 5.16671 15.1663 5.76366 15.1663 6.50004V7.83337C15.1663 8.56975 14.5694 9.16671 13.833 9.16671V13.8334C13.833 14.5698 13.2361 15.1667 12.4997 15.1667H4.49967C3.76329 15.1667 3.16634 14.5698 3.16634 13.8334V9.16671C2.42996 9.16671 1.83301 8.56975 1.83301 7.83337V6.50004C1.83301 5.76366 2.42996 5.16671 3.16634 5.16671H4.16437ZM7.83303 6.50003H3.16636V7.83337H7.83303V6.50003ZM13.833 7.83337H9.16636V6.50003H13.833V7.83337ZM7.83298 13.8334V9.16671H4.49965V13.8334H7.83298ZM12.4997 13.8334H9.16637V9.16671H12.4997V13.8334ZM5.83303 3.16671C5.41946 3.16671 5.16636 3.46802 5.16636 3.83338C5.16636 4.66887 5.84437 5.06613 7.45264 5.1497C7.2739 3.90778 6.60781 3.16671 5.83303 3.16671ZM9.49965 5.1497C9.6784 3.90778 10.3445 3.16671 11.1193 3.16671C11.5328 3.16671 11.7859 3.46802 11.7859 3.83338C11.7859 4.66887 11.1079 5.06613 9.49965 5.1497Z" fill="#0DB960"/>
</svg>
