<svg width="174" height="207" viewBox="0 0 174 207" fill="none" xmlns="http://www.w3.org/2000/svg">
<path fill-rule="evenodd" clip-rule="evenodd" d="M85.1314 0.113438C74.939 2.95906 3.8856 24.5776 2.97794 25.1089C2.274 25.5211 1.31591 26.3711 0.849168 26.9972L0 28.1364V76.011C0 113.115 0.115778 124.496 0.514342 126.598C4.36283 146.899 20.4958 166.513 49.3107 185.925C63.0515 195.181 83.6509 206.383 86.9339 206.383C90.2168 206.383 110.816 195.181 124.557 185.925C153.372 166.513 169.505 146.899 173.353 126.598C173.752 124.496 173.868 113.115 173.868 76.011V28.1364L173.019 26.9972C172.552 26.3711 171.594 25.5211 170.89 25.1089C169.307 24.1818 89.7718 0.27117 87.539 0.0509102C86.6515 -0.0366289 85.5679 -0.0083905 85.1314 0.113438ZM124.551 23.5227L161.967 34.7289V77.5637C161.967 105.463 161.818 121.499 161.54 123.554C160.626 130.3 156.925 138.546 151.661 145.559C148.327 150.003 140.304 158.353 135.04 162.859C124.932 171.511 111.737 180.374 96.8173 188.53C89.3668 192.603 87.2973 193.551 86.3796 193.313C83.8793 192.663 65.599 182.187 56.8802 176.406C42.5548 166.908 29.539 155.329 22.2063 145.559C16.943 138.546 13.2414 130.3 12.3277 123.554C12.0493 121.499 11.9005 105.463 11.9005 77.5637V34.7289L48.9129 23.5804C69.27 17.4486 86.1976 12.406 86.5305 12.3742C86.8633 12.3423 103.972 17.359 124.551 23.5227Z" fill="#0DB960"/>
<path d="M24.8721 100.064C24.7792 100.062 24.6897 100.028 24.6186 99.9685C24.5549 99.8998 24.5207 99.8088 24.5236 99.7151V99.5646L28.5626 88.8416C28.591 88.7131 28.6655 88.5994 28.772 88.5221C28.8785 88.4447 29.0097 88.4091 29.1407 88.4219H30.9542C31.085 88.4151 31.2142 88.453 31.3207 88.5292C31.4272 88.6055 31.5046 88.7156 31.5403 88.8416L35.5476 99.5646C35.5533 99.6146 35.5533 99.6651 35.5476 99.7151C35.5494 99.7622 35.5411 99.8092 35.5233 99.8529C35.5056 99.8966 35.4788 99.936 35.4446 99.9685C35.4147 99.999 35.379 100.023 35.3395 100.039C35.3 100.056 35.2577 100.064 35.215 100.064H33.7815C33.6631 100.071 33.5458 100.037 33.4489 99.9685C33.3814 99.908 33.3297 99.8319 33.2984 99.7468L32.5065 97.7194H27.5805L26.7886 99.7468C26.7541 99.8453 26.688 99.9297 26.6007 99.987C26.5134 100.044 26.4096 100.071 26.3055 100.064H24.8721ZM31.9363 95.8108L30.0435 90.671L28.1666 95.8108H31.9363ZM37.4799 100.064C37.3766 100.064 37.2771 100.024 37.2027 99.9527C37.1645 99.9158 37.1342 99.8715 37.1138 99.8224C37.0933 99.7734 37.0832 99.7207 37.084 99.6676V88.8416C37.0775 88.7317 37.1144 88.6236 37.1869 88.5407C37.2244 88.501 37.2699 88.4698 37.3205 88.4493C37.371 88.4288 37.4254 88.4195 37.4799 88.4219H39.0005C39.0527 88.419 39.1049 88.4283 39.1529 88.4489C39.201 88.4695 39.2437 88.5009 39.2777 88.5407C39.3175 88.5796 39.3487 88.6266 39.3692 88.6784C39.3897 88.7303 39.399 88.7859 39.3965 88.8416V93.134H44.2986V88.8416C44.296 88.7322 44.3325 88.6255 44.4016 88.5407C44.4406 88.5008 44.4875 88.4696 44.5394 88.4491C44.5912 88.4286 44.6468 88.4194 44.7025 88.4219H46.1993C46.2549 88.4203 46.3102 88.43 46.3619 88.4505C46.4137 88.4709 46.4607 88.5016 46.5003 88.5407C46.5749 88.6228 46.6146 88.7307 46.6111 88.8416V99.6676C46.613 99.7782 46.5735 99.8855 46.5003 99.9685C46.4137 100.034 46.3075 100.067 46.1993 100.064H44.7342C44.6285 100.065 44.5264 100.025 44.4491 99.9527C44.4108 99.9158 44.3806 99.8715 44.3601 99.8224C44.3397 99.7734 44.3295 99.7207 44.3303 99.6676V95.2089H39.4281V99.6676C39.4289 99.7207 39.4188 99.7734 39.3983 99.8224C39.3779 99.8715 39.3476 99.9158 39.3093 99.9527C39.2739 99.9901 39.2308 100.019 39.1829 100.039C39.1351 100.058 39.0836 100.066 39.0322 100.064H37.4799ZM52.1627 100.064C52.057 100.065 51.9549 100.025 51.8776 99.9527C51.8393 99.9158 51.8091 99.8715 51.7886 99.8224C51.7682 99.7734 51.758 99.7207 51.7588 99.6676V90.473H48.7177C48.6106 90.473 48.5079 90.4305 48.4321 90.3547C48.3564 90.279 48.3138 90.1762 48.3138 90.0691V88.8416C48.3112 88.7322 48.3477 88.6255 48.4168 88.5407C48.4558 88.5008 48.5027 88.4696 48.5546 88.4491C48.6064 88.4286 48.662 88.4194 48.7177 88.4219H57.1995C57.2551 88.4203 57.3104 88.43 57.3621 88.4505C57.4139 88.4709 57.4609 88.5016 57.5005 88.5407C57.5751 88.6228 57.6148 88.7307 57.6113 88.8416V90.0691C57.6125 90.1231 57.6025 90.1768 57.5821 90.2269C57.5617 90.2769 57.5313 90.3222 57.4927 90.3601C57.4541 90.3979 57.4082 90.4274 57.3578 90.4469C57.3074 90.4663 57.2535 90.4752 57.1995 90.473H54.1347V99.6676C54.1369 99.7202 54.1283 99.7727 54.1092 99.8218C54.0901 99.8708 54.061 99.9154 54.0238 99.9527C53.9408 100.026 53.8335 100.065 53.7229 100.064H52.1627ZM59.6704 100.064C59.5595 100.067 59.4516 100.027 59.3695 99.9527C59.3016 99.8672 59.2652 99.7609 59.2665 99.6517V88.8416C59.264 88.7859 59.2733 88.7303 59.2938 88.6784C59.3142 88.6266 59.3454 88.5796 59.3853 88.5407C59.4248 88.5016 59.4719 88.4709 59.5236 88.4505C59.5753 88.43 59.6307 88.4203 59.6862 88.4219H61.183C61.2364 88.4196 61.2895 88.429 61.3388 88.4495C61.3881 88.4701 61.4322 88.5012 61.4681 88.5407C61.5427 88.6228 61.5825 88.7307 61.579 88.8416V96.476L67.1068 88.6911C67.1573 88.6084 67.2283 88.5402 67.313 88.493C67.3976 88.4458 67.493 88.4213 67.5899 88.4219H68.9679C69.0214 88.4178 69.0752 88.4264 69.1247 88.4471C69.1743 88.4677 69.2182 88.4998 69.253 88.5407C69.2929 88.5796 69.3241 88.6266 69.3446 88.6784C69.365 88.7303 69.3743 88.7859 69.3718 88.8416V99.6676C69.3726 99.7207 69.3624 99.7734 69.342 99.8224C69.3216 99.8715 69.2913 99.9158 69.253 99.9527C69.2164 99.9907 69.1719 100.02 69.1227 100.039C69.0734 100.059 69.0206 100.067 68.9679 100.064H67.4711C67.3651 100.069 67.2609 100.035 67.1781 99.9685C67.139 99.929 67.1083 99.8819 67.0879 99.8302C67.0675 99.7785 67.0578 99.7232 67.0593 99.6676V92.1836L61.5632 99.8022C61.5075 99.8778 61.4407 99.9445 61.3652 100C61.2777 100.047 61.1791 100.069 61.0801 100.064H59.6704Z" fill="#1F213A"/>
<path d="M72.3342 100.064C72.2829 100.065 72.2319 100.056 72.1843 100.036C72.1366 100.017 72.0934 99.9889 72.057 99.9527C72.0188 99.9158 71.9885 99.8715 71.968 99.8224C71.9476 99.7734 71.9375 99.7207 71.9382 99.6676V88.8416C71.9317 88.7317 71.9687 88.6236 72.0412 88.5407C72.0786 88.501 72.1242 88.4698 72.1748 88.4493C72.2253 88.4288 72.2797 88.4195 72.3342 88.4219H81.0457C81.1013 88.4203 81.1566 88.43 81.2083 88.4505C81.26 88.4709 81.3071 88.5016 81.3466 88.5407C81.4212 88.6228 81.461 88.7307 81.4575 88.8416V99.6676C81.4594 99.7782 81.4198 99.8855 81.3466 99.9685C81.2601 100.034 81.1539 100.067 81.0457 100.064H79.5489C79.4431 100.065 79.3411 100.025 79.2638 99.9527C79.2255 99.9158 79.1952 99.8715 79.1748 99.8224C79.1544 99.7734 79.1442 99.7207 79.145 99.6676V90.5047H74.2349V99.6676C74.2357 99.7207 74.2255 99.7734 74.2051 99.8224C74.1846 99.8715 74.1544 99.9158 74.1161 99.9527C74.0795 99.9907 74.035 100.02 73.9857 100.039C73.9365 100.059 73.8837 100.067 73.831 100.064H72.3342ZM91.7528 100.064C91.7002 100.066 91.6478 100.057 91.5987 100.038C91.5496 100.019 91.5051 99.9898 91.4679 99.9525C91.4306 99.9153 91.4016 99.8708 91.3825 99.8217C91.3633 99.7727 91.3546 99.7202 91.3569 99.6676V90.5047H87.7456V92.5954C87.7811 94.0517 87.6535 95.5074 87.3654 96.9353C87.2107 97.8297 86.7653 98.6481 86.0983 99.2637C85.3788 99.7994 84.5004 100.078 83.6037 100.056C83.5497 100.061 83.4951 100.056 83.4433 100.039C83.3916 100.023 83.3437 99.9962 83.3027 99.9606C83.2295 99.8776 83.19 99.7703 83.1919 99.6596V98.4004C83.1894 98.3527 83.1965 98.305 83.2128 98.2601C83.2292 98.2152 83.2543 98.1741 83.2869 98.1391C83.3661 98.0664 83.4655 98.0194 83.572 98.0045C84.2293 97.8936 84.7045 97.3788 85.0213 96.4206C85.3944 95.0676 85.5574 93.6653 85.5044 92.2628V88.8258C85.4993 88.7729 85.5067 88.7196 85.526 88.6701C85.5452 88.6205 85.5758 88.5762 85.6152 88.5407C85.6521 88.5024 85.6964 88.4721 85.7455 88.4517C85.7945 88.4312 85.8472 88.4211 85.9003 88.4219H93.2417C93.2974 88.4196 93.353 88.429 93.405 88.4493C93.4569 88.4696 93.504 88.5004 93.5435 88.5398C93.5829 88.5793 93.6137 88.6264 93.634 88.6784C93.6544 88.7303 93.6637 88.7859 93.6615 88.8416V99.6676C93.663 99.7232 93.6533 99.7785 93.6328 99.8302C93.6124 99.8819 93.5818 99.929 93.5427 99.9685C93.4567 100.035 93.3501 100.068 93.2417 100.064H91.7528ZM95.5542 100.064C95.4613 100.062 95.3718 100.028 95.3008 99.9685C95.237 99.8998 95.2029 99.8088 95.2058 99.7151V99.5646L99.213 88.8416C99.2414 88.7131 99.316 88.5994 99.4225 88.5221C99.529 88.4447 99.6602 88.4091 99.7912 88.4219H101.605C101.736 88.4151 101.865 88.453 101.971 88.5292C102.078 88.6055 102.155 88.7156 102.191 88.8416L106.198 99.5646C106.204 99.6146 106.204 99.6651 106.198 99.7151C106.2 99.7622 106.192 99.8092 106.174 99.8529C106.156 99.8966 106.129 99.936 106.095 99.9685C106.065 99.999 106.029 100.023 105.99 100.039C105.95 100.056 105.908 100.064 105.865 100.064H104.416C104.298 100.071 104.18 100.037 104.084 99.9685C104.016 99.908 103.964 99.8319 103.933 99.7468L103.141 97.7194H98.1993L97.4074 99.7468C97.3729 99.8453 97.3068 99.9297 97.2195 99.987C97.1322 100.044 97.0284 100.071 96.9243 100.064H95.5542ZM102.618 95.8108L100.726 90.671L98.8487 95.8108H102.618ZM108.162 100.064C108.056 100.065 107.954 100.025 107.877 99.9527C107.839 99.9158 107.808 99.8715 107.788 99.8224C107.768 99.7734 107.757 99.7207 107.758 99.6676V88.8416C107.752 88.7317 107.789 88.6236 107.861 88.5407C107.9 88.5008 107.947 88.4696 107.999 88.4491C108.051 88.4286 108.106 88.4194 108.162 88.4219H114.941C114.997 88.4196 115.052 88.429 115.104 88.4493C115.156 88.4696 115.204 88.5004 115.243 88.5398C115.282 88.5793 115.313 88.6264 115.334 88.6784C115.354 88.7303 115.363 88.7859 115.361 88.8416V90.0058C115.362 90.0613 115.353 90.1167 115.332 90.1684C115.312 90.2201 115.281 90.2672 115.242 90.3067C115.156 90.3729 115.05 90.4066 114.941 90.4017H110.11V99.6676C110.111 99.7207 110.101 99.7734 110.08 99.8224C110.06 99.8715 110.03 99.9158 109.991 99.9527C109.956 99.9901 109.913 100.019 109.865 100.039C109.817 100.058 109.766 100.066 109.714 100.064H108.162ZM117.19 100.064C117.079 100.067 116.972 100.027 116.889 99.9527C116.822 99.8672 116.785 99.7609 116.786 99.6517V88.8416C116.784 88.7859 116.794 88.7303 116.814 88.6784C116.834 88.6264 116.865 88.5793 116.904 88.5398C116.944 88.5004 116.991 88.4696 117.043 88.4493C117.095 88.429 117.15 88.4196 117.206 88.4219H118.703C118.756 88.4196 118.809 88.429 118.859 88.4495C118.908 88.4701 118.952 88.5012 118.988 88.5407C119.063 88.6228 119.102 88.7307 119.099 88.8416V96.476L124.571 88.6911C124.622 88.6084 124.693 88.5402 124.777 88.493C124.862 88.4458 124.958 88.4213 125.054 88.4219H126.504C126.557 88.4178 126.611 88.4264 126.66 88.4471C126.71 88.4677 126.754 88.4998 126.789 88.5407C126.829 88.5796 126.86 88.6266 126.88 88.6784C126.901 88.7303 126.91 88.7859 126.908 88.8416V99.6676C126.908 99.7207 126.898 99.7734 126.878 99.8224C126.857 99.8715 126.827 99.9158 126.789 99.9527C126.752 99.9907 126.708 100.02 126.658 100.039C126.609 100.059 126.556 100.067 126.504 100.064H125.007C124.901 100.069 124.797 100.035 124.714 99.9685C124.675 99.929 124.644 99.8819 124.624 99.8302C124.603 99.7785 124.594 99.7232 124.595 99.6676V92.1836L119.139 99.8022C119.083 99.8778 119.016 99.9445 118.941 100C118.853 100.046 118.754 100.068 118.655 100.064H117.19ZM128.713 100.064C128.62 100.063 128.53 100.03 128.46 99.9685C128.394 99.9006 128.357 99.8097 128.357 99.7151L128.396 99.5646L132.443 88.8416C132.472 88.7131 132.546 88.5994 132.653 88.5221C132.759 88.4447 132.89 88.4091 133.021 88.4219H134.835C134.966 88.4151 135.095 88.453 135.201 88.5292C135.308 88.6055 135.385 88.7156 135.421 88.8416L139.428 99.5646C139.434 99.6146 139.434 99.6651 139.428 99.7151C139.43 99.7622 139.422 99.8092 139.404 99.8529C139.386 99.8966 139.36 99.936 139.325 99.9685C139.295 99.999 139.26 100.023 139.22 100.039C139.181 100.056 139.138 100.064 139.096 100.064H137.646C137.528 100.071 137.411 100.037 137.314 99.9685C137.244 99.9103 137.192 99.8334 137.163 99.7468L136.371 97.7194H131.43L130.638 99.7468C130.603 99.8453 130.537 99.9297 130.45 99.987C130.362 100.044 130.259 100.071 130.155 100.064H128.713ZM135.777 95.8108L133.885 90.671L132.047 95.8108H135.777ZM143.927 100.064C143.821 100.065 143.719 100.025 143.641 99.9527C143.603 99.9158 143.573 99.8715 143.553 99.8224C143.532 99.7734 143.522 99.7207 143.523 99.6676V90.473H140.45C140.343 90.473 140.24 90.4305 140.164 90.3547C140.089 90.279 140.046 90.1762 140.046 90.0691V88.8416C140.043 88.7322 140.08 88.6255 140.149 88.5407C140.188 88.5008 140.235 88.4696 140.287 88.4491C140.339 88.4286 140.394 88.4194 140.45 88.4219H148.932C148.987 88.4203 149.043 88.43 149.094 88.4505C149.146 88.4709 149.193 88.5016 149.233 88.5407C149.307 88.6228 149.347 88.7307 149.344 88.8416V90.0691C149.345 90.1231 149.335 90.1768 149.314 90.2269C149.294 90.2769 149.264 90.3222 149.225 90.3601C149.186 90.3979 149.14 90.4274 149.09 90.4469C149.04 90.4663 148.986 90.4752 148.932 90.473H145.867V99.6676C145.869 99.7202 145.86 99.7727 145.841 99.8218C145.822 99.8708 145.793 99.9154 145.756 99.9527C145.673 100.026 145.566 100.065 145.455 100.064H143.927Z" fill="#0DB960"/>
</svg>
