<svg width="85" height="101" viewBox="0 0 85 101" fill="none" xmlns="http://www.w3.org/2000/svg">
<path fill-rule="evenodd" clip-rule="evenodd" d="M42.0033 0.380649C37.0646 1.75946 2.63662 12.2344 2.19683 12.4919C1.85574 12.6916 1.39151 13.1035 1.16536 13.4068L0.753906 13.9588V37.1558C0.753906 55.1341 0.810005 60.6488 1.00312 61.6672C2.86786 71.5036 10.6849 81.0075 24.6468 90.4131C31.3047 94.8982 41.2859 100.326 42.8766 100.326C44.4673 100.326 54.4485 94.8982 61.1064 90.4131C75.0683 81.0075 82.8853 71.5036 84.7501 61.6672C84.9432 60.6488 84.9993 55.1341 84.9993 37.1558V13.9588L84.5878 13.4068C84.3617 13.1035 83.8974 12.6916 83.5564 12.4919C82.7894 12.0427 44.2517 0.457075 43.1698 0.350351C42.7398 0.307936 42.2147 0.321618 42.0033 0.380649ZM61.1037 11.7233L79.2331 17.1531V37.9082C79.2331 51.4266 79.1609 59.1965 79.0261 60.1924C78.5833 63.461 76.7898 67.4563 74.2395 70.8542C72.6236 73.0075 68.7362 77.0534 66.1856 79.2369C61.2882 83.4293 54.8946 87.7235 47.6655 91.6756C44.0554 93.6492 43.0527 94.1085 42.608 93.993C41.3965 93.6783 32.539 88.6019 28.3145 85.8009C21.3733 81.199 15.0666 75.5884 11.5137 70.8542C8.96343 67.4563 7.16985 63.461 6.72712 60.1924C6.59225 59.1965 6.52012 51.4266 6.52012 37.9082V17.1531L24.454 11.7512C34.3178 8.78018 42.5199 6.33686 42.6811 6.32142C42.8424 6.30598 51.1324 8.73678 61.1037 11.7233Z" fill="#0DB960"/>
<path d="M12.8056 48.8106C12.7606 48.8098 12.7173 48.7935 12.6828 48.7645C12.6519 48.7312 12.6354 48.6871 12.6368 48.6417V48.5688L14.5938 43.3731C14.6076 43.3109 14.6437 43.2558 14.6953 43.2183C14.7469 43.1808 14.8105 43.1636 14.8739 43.1698H15.7527C15.8161 43.1665 15.8787 43.1848 15.9302 43.2218C15.9818 43.2587 16.0193 43.3121 16.0366 43.3731L17.9783 48.5688C17.9811 48.5931 17.9811 48.6175 17.9783 48.6417C17.9792 48.6646 17.9752 48.6873 17.9666 48.7085C17.958 48.7297 17.945 48.7488 17.9284 48.7645C17.9139 48.7793 17.8966 48.791 17.8775 48.7989C17.8584 48.8068 17.8379 48.8108 17.8172 48.8106H17.1226C17.0652 48.814 17.0084 48.7977 16.9614 48.7645C16.9287 48.7352 16.9037 48.6983 16.8885 48.6571L16.5048 47.6747H14.118L13.7343 48.6571C13.7175 48.7048 13.6855 48.7457 13.6432 48.7735C13.6009 48.8012 13.5507 48.8143 13.5002 48.8106H12.8056ZM16.2285 46.75L15.3114 44.2595L14.402 46.75H16.2285ZM18.9146 48.8106C18.8646 48.8109 18.8164 48.7916 18.7803 48.7569C18.7618 48.739 18.7471 48.7175 18.7372 48.6938C18.7273 48.67 18.7224 48.6445 18.7228 48.6187V43.3731C18.7196 43.3199 18.7375 43.2675 18.7726 43.2273C18.7908 43.2081 18.8129 43.193 18.8374 43.1831C18.8619 43.1731 18.8882 43.1686 18.9146 43.1698H19.6514C19.6767 43.1684 19.702 43.1729 19.7253 43.1829C19.7485 43.1928 19.7692 43.208 19.7857 43.2273C19.805 43.2462 19.8201 43.2689 19.83 43.2941C19.84 43.3192 19.8445 43.3461 19.8432 43.3731V45.4529H22.2185V43.3731C22.2173 43.3201 22.235 43.2684 22.2684 43.2273C22.2873 43.208 22.3101 43.1929 22.3352 43.183C22.3603 43.173 22.3872 43.1685 22.4142 43.1698H23.1395C23.1664 43.169 23.1932 43.1737 23.2183 43.1836C23.2433 43.1935 23.2661 43.2084 23.2853 43.2273C23.3215 43.2671 23.3407 43.3194 23.339 43.3731V48.6187C23.3399 48.6723 23.3208 48.7243 23.2853 48.7645C23.2434 48.796 23.1919 48.8123 23.1395 48.8106H22.4296C22.3783 48.8111 22.3289 48.7918 22.2914 48.7569C22.2729 48.739 22.2582 48.7175 22.2483 48.6938C22.2384 48.67 22.2335 48.6445 22.2339 48.6187V46.4583H19.8586V48.6187C19.859 48.6445 19.8541 48.67 19.8442 48.6938C19.8343 48.7175 19.8196 48.739 19.801 48.7569C19.7839 48.775 19.763 48.7892 19.7398 48.7985C19.7166 48.8077 19.6917 48.8119 19.6667 48.8106H18.9146ZM26.029 48.8106C25.9777 48.8111 25.9283 48.7918 25.8908 48.7569C25.8723 48.739 25.8576 48.7175 25.8477 48.6938C25.8378 48.67 25.8329 48.6445 25.8333 48.6187V44.1636H24.3597C24.3078 44.1636 24.2581 44.143 24.2214 44.1063C24.1847 44.0696 24.164 44.0198 24.164 43.9679V43.3731C24.1628 43.3201 24.1805 43.2684 24.2139 43.2273C24.2328 43.208 24.2556 43.1929 24.2807 43.183C24.3058 43.173 24.3328 43.1685 24.3597 43.1698H28.4695C28.4964 43.169 28.5232 43.1737 28.5483 43.1836C28.5734 43.1935 28.5962 43.2084 28.6153 43.2273C28.6515 43.2671 28.6707 43.3194 28.669 43.3731V43.9679C28.6696 43.9941 28.6648 44.0201 28.6549 44.0443C28.645 44.0686 28.6302 44.0905 28.6116 44.1089C28.5929 44.1272 28.5706 44.1415 28.5462 44.1509C28.5218 44.1604 28.4957 44.1647 28.4695 44.1636H26.9845V48.6187C26.9856 48.6442 26.9814 48.6696 26.9721 48.6934C26.9629 48.7172 26.9488 48.7388 26.9307 48.7569C26.8905 48.7923 26.8385 48.8115 26.7849 48.8106H26.029ZM29.6667 48.8106C29.613 48.8123 29.5607 48.793 29.5209 48.7569C29.488 48.7154 29.4704 48.6639 29.471 48.611V43.3731C29.4698 43.3461 29.4743 43.3192 29.4842 43.2941C29.4942 43.2689 29.5093 43.2462 29.5286 43.2273C29.5477 43.2084 29.5705 43.1935 29.5956 43.1836C29.6207 43.1737 29.6475 43.169 29.6744 43.1698H30.3997C30.4255 43.1686 30.4513 43.1732 30.4751 43.1832C30.499 43.1931 30.5204 43.2082 30.5378 43.2273C30.5739 43.2671 30.5932 43.3194 30.5915 43.3731V47.0723L33.27 43.3002C33.2944 43.2601 33.3288 43.2271 33.3698 43.2042C33.4109 43.1814 33.4571 43.1695 33.504 43.1698H34.1717C34.1977 43.1678 34.2237 43.172 34.2477 43.182C34.2717 43.192 34.293 43.2075 34.3099 43.2273C34.3292 43.2462 34.3443 43.2689 34.3542 43.2941C34.3641 43.3192 34.3686 43.3461 34.3674 43.3731V48.6187C34.3678 48.6445 34.3629 48.67 34.353 48.6938C34.3431 48.7175 34.3284 48.739 34.3099 48.7569C34.2921 48.7753 34.2706 48.7896 34.2467 48.7989C34.2229 48.8082 34.1973 48.8122 34.1717 48.8106H33.4465C33.3951 48.813 33.3446 48.7967 33.3045 48.7645C33.2855 48.7454 33.2707 48.7226 33.2608 48.6975C33.2509 48.6725 33.2462 48.6456 33.2469 48.6187V44.9925L30.5838 48.6839C30.5569 48.7206 30.5245 48.7529 30.4879 48.7799C30.4455 48.8025 30.3978 48.8131 30.3498 48.8106H29.6667Z" fill="#1F213A"/>
<path d="M35.8035 48.8106C35.7787 48.8112 35.754 48.8067 35.7309 48.7975C35.7078 48.7882 35.6868 48.7744 35.6692 48.7569C35.6507 48.739 35.636 48.7175 35.6261 48.6938C35.6162 48.67 35.6113 48.6445 35.6117 48.6187V43.3731C35.6085 43.3199 35.6265 43.2675 35.6616 43.2273C35.6797 43.2081 35.7018 43.193 35.7263 43.1831C35.7508 43.1731 35.7771 43.1686 35.8035 43.1698H40.0246C40.0515 43.169 40.0783 43.1737 40.1034 43.1836C40.1284 43.1935 40.1512 43.2084 40.1704 43.2273C40.2065 43.2671 40.2258 43.3194 40.2241 43.3731V48.6187C40.225 48.6723 40.2059 48.7243 40.1704 48.7645C40.1285 48.796 40.077 48.8123 40.0246 48.8106H39.2993C39.2481 48.8111 39.1986 48.7918 39.1612 48.7569C39.1426 48.739 39.128 48.7175 39.1181 48.6938C39.1082 48.67 39.1032 48.6445 39.1036 48.6187V44.179H36.7245V48.6187C36.7249 48.6445 36.72 48.67 36.7101 48.6938C36.7002 48.7175 36.6855 48.739 36.6669 48.7569C36.6492 48.7753 36.6276 48.7896 36.6038 48.7989C36.5799 48.8082 36.5543 48.8122 36.5288 48.8106H35.8035ZM45.2126 48.8106C45.1871 48.8117 45.1617 48.8074 45.1379 48.7982C45.1141 48.7889 45.0926 48.7748 45.0745 48.7568C45.0565 48.7388 45.0424 48.7172 45.0331 48.6934C45.0239 48.6696 45.0197 48.6442 45.0207 48.6187V44.179H43.2709V45.192C43.2881 45.8976 43.2263 46.603 43.0867 47.2948C43.0117 47.7282 42.7959 48.1247 42.4728 48.423C42.1242 48.6826 41.6985 48.8177 41.264 48.8067C41.2379 48.8095 41.2114 48.8068 41.1863 48.7989C41.1612 48.791 41.1381 48.778 41.1182 48.7607C41.0827 48.7205 41.0636 48.6685 41.0645 48.6149V48.0047C41.0633 47.9816 41.0667 47.9585 41.0746 47.9368C41.0826 47.915 41.0948 47.8951 41.1105 47.8781C41.1489 47.8429 41.1971 47.8201 41.2487 47.8129C41.5672 47.7592 41.7974 47.5097 41.9509 47.0454C42.1317 46.3899 42.2107 45.7104 42.185 45.0308V43.3655C42.1825 43.3398 42.1861 43.314 42.1955 43.29C42.2048 43.266 42.2196 43.2446 42.2387 43.2273C42.2566 43.2088 42.278 43.1941 42.3018 43.1842C42.3256 43.1743 42.3511 43.1694 42.3768 43.1698H45.934C45.961 43.1687 45.9879 43.1732 46.0131 43.183C46.0383 43.1929 46.0611 43.2078 46.0802 43.2269C46.0993 43.246 46.1143 43.2689 46.1241 43.294C46.1339 43.3192 46.1385 43.3461 46.1374 43.3731V48.6187C46.1381 48.6456 46.1334 48.6725 46.1235 48.6975C46.1136 48.7226 46.0988 48.7454 46.0798 48.7645C46.0382 48.7966 45.9865 48.8129 45.934 48.8106H45.2126ZM47.0545 48.8106C47.0095 48.8098 46.9661 48.7935 46.9317 48.7645C46.9008 48.7312 46.8843 48.6871 46.8857 48.6417V48.5688L48.8273 43.3731C48.8411 43.3109 48.8772 43.2558 48.9288 43.2183C48.9804 43.1808 49.044 43.1636 49.1075 43.1698H49.9862C50.0496 43.1665 50.1122 43.1848 50.1638 43.2218C50.2153 43.2587 50.2529 43.3121 50.2702 43.3731L52.2118 48.5688C52.2146 48.5931 52.2146 48.6175 52.2118 48.6417C52.2127 48.6646 52.2087 48.6873 52.2001 48.7085C52.1915 48.7297 52.1785 48.7488 52.1619 48.7645C52.1475 48.7793 52.1301 48.791 52.111 48.7989C52.0919 48.8068 52.0714 48.8108 52.0507 48.8106H51.3484C51.2911 48.814 51.2342 48.7977 51.1873 48.7645C51.1546 48.7352 51.1295 48.6983 51.1144 48.6571L50.7306 47.6747H48.3362L47.9524 48.6571C47.9357 48.7048 47.9037 48.7457 47.8614 48.7735C47.8191 48.8012 47.7688 48.8143 47.7184 48.8106H47.0545ZM50.4774 46.75L49.5603 44.2595L48.6508 46.75H50.4774ZM53.1635 48.8106C53.1122 48.8111 53.0628 48.7918 53.0253 48.7569C53.0068 48.739 52.9921 48.7175 52.9822 48.6938C52.9723 48.67 52.9674 48.6445 52.9678 48.6187V43.3731C52.9646 43.3199 52.9826 43.2675 53.0177 43.2273C53.0366 43.208 53.0593 43.1929 53.0844 43.183C53.1096 43.173 53.1365 43.1685 53.1635 43.1698H56.4482C56.4752 43.1687 56.5021 43.1732 56.5273 43.183C56.5525 43.1929 56.5753 43.2078 56.5944 43.2269C56.6135 43.246 56.6285 43.2689 56.6383 43.294C56.6482 43.3192 56.6527 43.3461 56.6516 43.3731V43.9372C56.6523 43.9641 56.6476 43.9909 56.6377 44.016C56.6278 44.0411 56.613 44.0639 56.594 44.083C56.5524 44.1151 56.5007 44.1314 56.4482 44.1291H54.1075V48.6187C54.1078 48.6445 54.1029 48.67 54.093 48.6938C54.0831 48.7175 54.0684 48.739 54.0499 48.7569C54.0327 48.775 54.0118 48.7892 53.9886 48.7985C53.9655 48.8077 53.9405 48.8119 53.9156 48.8106H53.1635ZM57.538 48.8106C57.4843 48.8123 57.432 48.793 57.3922 48.7569C57.3593 48.7154 57.3417 48.6639 57.3423 48.611V43.3731C57.3412 43.3461 57.3457 43.3192 57.3556 43.294C57.3654 43.2689 57.3804 43.246 57.3995 43.2269C57.4186 43.2078 57.4414 43.1929 57.4666 43.183C57.4918 43.1732 57.5187 43.1687 57.5457 43.1698H58.2709C58.2968 43.1686 58.3225 43.1732 58.3464 43.1832C58.3703 43.1931 58.3917 43.2082 58.4091 43.2273C58.4452 43.2671 58.4645 43.3194 58.4628 43.3731V47.0723L61.1144 43.3002C61.1388 43.2601 61.1732 43.2271 61.2143 43.2042C61.2553 43.1814 61.3015 43.1695 61.3484 43.1698H62.0507C62.0766 43.1678 62.1026 43.172 62.1266 43.182C62.1506 43.192 62.172 43.2075 62.1888 43.2273C62.2081 43.2462 62.2232 43.2689 62.2332 43.2941C62.2431 43.3192 62.2476 43.3461 62.2464 43.3731V48.6187C62.2467 48.6445 62.2418 48.67 62.2319 48.6938C62.222 48.7175 62.2074 48.739 62.1888 48.7569C62.1711 48.7753 62.1495 48.7896 62.1257 48.7989C62.1018 48.8082 62.0762 48.8122 62.0507 48.8106H61.3254C61.2741 48.813 61.2236 48.7967 61.1834 48.7645C61.1645 48.7454 61.1496 48.7226 61.1397 48.6975C61.1298 48.6725 61.1251 48.6456 61.1259 48.6187V44.9925L58.482 48.6839C58.455 48.7206 58.4227 48.7529 58.386 48.7799C58.3435 48.8021 58.2959 48.8127 58.2479 48.8106H57.538ZM63.1213 48.8106C63.0761 48.8105 63.0326 48.7941 62.9985 48.7645C62.9665 48.7316 62.9486 48.6876 62.9486 48.6417L62.9678 48.5688L64.9286 43.3731C64.9424 43.3109 64.9785 43.2558 65.0301 43.2183C65.0817 43.1808 65.1453 43.1636 65.2088 43.1698H66.0875C66.1509 43.1665 66.2135 43.1848 66.2651 43.2218C66.3167 43.2587 66.3542 43.3121 66.3715 43.3731L68.3131 48.5688C68.3159 48.5931 68.3159 48.6175 68.3131 48.6417C68.314 48.6646 68.31 48.6873 68.3014 48.7085C68.2928 48.7297 68.2798 48.7488 68.2633 48.7645C68.2488 48.7793 68.2314 48.791 68.2123 48.7989C68.1932 48.8068 68.1727 48.8108 68.152 48.8106H67.4498C67.3924 48.814 67.3355 48.7977 67.2886 48.7645C67.2546 48.7363 67.2294 48.6991 67.2157 48.6571L66.8319 47.6747H64.4375L64.0537 48.6571C64.037 48.7048 64.005 48.7457 63.9627 48.7735C63.9204 48.8012 63.8701 48.8143 63.8197 48.8106H63.1213ZM66.5441 46.75L65.627 44.2595L64.7368 46.75H66.5441ZM70.4927 48.8106C70.4415 48.8111 70.392 48.7918 70.3546 48.7569C70.336 48.739 70.3214 48.7175 70.3115 48.6938C70.3016 48.67 70.2967 48.6445 70.297 48.6187V44.1636H68.8082C68.7562 44.1636 68.7065 44.143 68.6698 44.1063C68.6331 44.0696 68.6125 44.0198 68.6125 43.9679V43.3731C68.6112 43.3201 68.6289 43.2684 68.6623 43.2273C68.6812 43.208 68.704 43.1929 68.7291 43.183C68.7542 43.173 68.7812 43.1685 68.8082 43.1698H72.9179C72.9448 43.169 72.9716 43.1737 72.9967 43.1836C73.0218 43.1935 73.0446 43.2084 73.0637 43.2273C73.0999 43.2671 73.1191 43.3194 73.1174 43.3731V43.9679C73.118 43.9941 73.1132 44.0201 73.1033 44.0443C73.0934 44.0686 73.0787 44.0905 73.06 44.1089C73.0413 44.1272 73.019 44.1415 72.9946 44.1509C72.9702 44.1604 72.9441 44.1647 72.9179 44.1636H71.4329V48.6187C71.434 48.6442 71.4298 48.6696 71.4205 48.6934C71.4113 48.7172 71.3972 48.7388 71.3791 48.7569C71.3389 48.7923 71.2869 48.8115 71.2333 48.8106H70.4927Z" fill="#0DB960"/>
</svg>
