<svg width="51" height="50" viewBox="0 0 51 50" fill="none" xmlns="http://www.w3.org/2000/svg">
<circle cx="25.333" cy="24.999" r="25" fill="#7294C7"/>
<path d="M37.5909 31.3933C37.5909 31.2896 37.4871 31.2896 37.4871 31.1858C37.072 30.3556 36.138 29.3178 34.8926 28.1762C34.27 27.6573 33.9586 27.2422 33.7511 27.0346C33.4397 26.6195 33.4398 26.3082 33.5435 25.8931C33.6473 25.5817 34.0624 25.0628 34.7889 24.1288C35.204 23.6099 35.4115 23.2986 35.7229 22.9873C37.2795 20.9117 38.006 19.5626 37.7984 18.9399L37.6947 18.8361C37.5909 18.7323 37.4871 18.6286 37.2795 18.6286C37.072 18.5248 36.7607 18.5248 36.4493 18.6286H32.5057C32.402 18.6286 32.402 18.6286 32.1944 18.6286C32.0906 18.6286 31.9869 18.6286 31.9869 18.6286H31.8831H31.7793L31.6755 18.7323C31.5717 18.8361 31.5717 18.8361 31.5717 18.9399C31.1566 20.0815 30.6377 21.0155 30.1188 22.0533C29.8075 22.5721 29.4962 23.0911 29.1848 23.5062C28.8735 23.9213 28.6659 24.2326 28.4584 24.4402C28.2508 24.6477 28.0432 24.7515 27.9395 24.9591C27.8357 25.0628 27.6281 25.1666 27.6281 25.0628C27.5244 25.0628 27.4206 25.0628 27.4206 24.9591C27.3168 24.8553 27.213 24.7515 27.1092 24.6477C27.0055 24.5439 27.0055 24.3364 26.9017 24.1288C26.9017 23.9213 26.9017 23.7137 26.9017 23.6099C26.9017 23.5062 26.9017 23.1948 26.9017 22.9873C26.9017 22.6759 26.9017 22.4684 26.9017 22.3646C26.9017 22.0533 26.9017 21.6382 26.9017 21.223C26.9017 20.8079 26.9017 20.4966 26.9017 20.289C26.9017 20.0815 26.9017 19.7701 26.9017 19.5626C26.9017 19.2512 26.9017 19.0437 26.9017 18.9399C26.9017 18.8361 26.7979 18.6286 26.7979 18.5248C26.6941 18.421 26.5903 18.3172 26.4866 18.2134C26.3828 18.1097 26.1752 18.1097 26.0715 18.0059C25.5526 17.9021 24.9299 17.7983 24.2035 17.7983C22.543 17.7983 21.4014 17.9021 20.9863 18.1097C20.7788 18.2135 20.5712 18.3172 20.4674 18.5248C20.2599 18.7323 20.2599 18.8361 20.3636 18.8361C20.8825 18.9399 21.2976 19.1475 21.5052 19.4588L21.609 19.6664C21.7128 19.7701 21.7127 19.9777 21.8165 20.289C21.9203 20.6004 21.9203 20.9117 21.9203 21.3268C21.9203 21.9495 21.9203 22.5722 21.9203 22.9873C21.9203 23.5062 21.8165 23.8175 21.8165 24.1288C21.8165 24.4402 21.7128 24.6477 21.609 24.7515C21.5052 24.9591 21.5052 25.0628 21.4014 25.0628C21.4014 25.0628 21.4014 25.1666 21.2976 25.1666C21.1939 25.1666 21.0901 25.2704 20.8825 25.2704C20.7787 25.2704 20.5712 25.1666 20.4674 25.0628C20.2599 24.9591 20.0523 24.7515 19.9485 24.544C19.741 24.3364 19.5334 24.0251 19.3258 23.6099C19.1183 23.1948 18.8069 22.7797 18.5994 22.157L18.3918 21.7419C18.2881 21.5344 18.0805 21.1193 17.873 20.6004C17.6654 20.0815 17.4578 19.6664 17.2503 19.1475C17.1465 18.9399 17.0427 18.8361 16.9389 18.7323H16.8352C16.8352 18.7323 16.7314 18.6286 16.6276 18.6286C16.5238 18.6286 16.42 18.5248 16.3163 18.5248H12.5802C12.1651 18.5248 11.9576 18.6286 11.8538 18.7323L11.75 18.8361C11.75 18.8361 11.75 18.9399 11.75 19.0437C11.75 19.1475 11.75 19.2512 11.8538 19.4588C12.3727 20.7041 12.9953 21.9495 13.618 23.1948C14.2407 24.3364 14.8634 25.3742 15.2785 26.1006C15.7974 26.8271 16.2125 27.5535 16.7314 28.1762C17.2503 28.7989 17.5616 29.214 17.6654 29.4215C17.8729 29.6291 17.9767 29.7329 18.0805 29.8367L18.3918 30.148C18.5994 30.3556 18.9107 30.6669 19.3258 30.9782C19.741 31.2896 20.2598 31.6009 20.7787 31.9122C21.2976 32.2236 21.9203 32.4311 22.543 32.6387C23.2694 32.8463 23.8921 32.95 24.5148 32.8462H26.0715C26.3828 32.8462 26.5904 32.7425 26.7979 32.5349L26.9017 32.4311C26.9017 32.3273 27.0055 32.3273 27.0055 32.2236C27.0055 32.1198 27.0055 32.016 27.0055 31.8085C27.0055 31.3933 27.0055 31.082 27.1092 30.7707C27.213 30.4593 27.213 30.2518 27.3168 30.0442C27.4206 29.8367 27.5244 29.7329 27.6281 29.6291C27.7319 29.5253 27.8357 29.4215 27.8357 29.4215H27.9395C28.147 29.3178 28.4584 29.4215 28.6659 29.6291C28.9773 29.8367 29.2886 30.148 29.4961 30.4593C29.7037 30.7707 30.0151 31.082 30.4302 31.4971C30.8453 31.9122 31.1566 32.2236 31.3642 32.3274L31.6755 32.5349C31.8831 32.6387 32.0906 32.7425 32.402 32.8462C32.7133 32.95 32.9208 32.95 33.1284 32.95L36.6569 32.8462C36.9682 32.8462 37.2796 32.7425 37.4871 32.6387C37.6947 32.5349 37.7984 32.4311 37.7984 32.2236C37.7984 32.1198 37.7984 31.9122 37.7984 31.8085C37.5909 31.6009 37.5909 31.4971 37.5909 31.3933Z" fill="white"/>
</svg>
