<svg width="200" height="116" viewBox="0 0 200 116" fill="none" xmlns="http://www.w3.org/2000/svg">
<g opacity="0.3" clip-path="url(#clip0_627:659)">
<path d="M5.76172 -22.1936L70.8667 90.5716L74.7994 88.3011L11.9648 -20.5315L88.149 -64.5164L97.284 -48.6942L113.107 -57.8293L176.931 52.7171L84.9238 105.837L77.07 92.234L73.1374 94.5045L83.2617 112.04L183.134 54.3792L115.434 -62.8807L88.6594 -70.0546L5.76172 -22.1936ZM93.687 -64.0063L108.055 -60.1565L98.9461 -54.8973L93.687 -64.0063Z" fill="#CCD5EB"/>
<path d="M144.471 -65.3305L138.043 -67.4422L132.8 -76.5226L121.003 -69.7112L126.245 -60.6308L124.86 -54.0078L171.049 21.2877L172.918 20.2086L176.592 26.5716L189.302 34.9635L188.39 19.7602L184.716 13.3972L186.585 12.3181L144.471 -65.3305ZM172.608 15.1443L155.624 -12.5414L165 -17.9546L180.485 10.5963L172.608 15.1443ZM153.249 -16.4138L129.674 -54.8443L130.66 -59.5565L136.766 -63.0822L141.34 -61.5798L162.834 -21.9481L153.249 -16.4138ZM127.206 -68.0491L131.138 -70.3195L133.409 -66.3871L129.476 -64.1167L127.206 -68.0491ZM183.921 21.1022L184.225 26.1697L179.988 23.3726L176.85 17.938L180.783 15.6676L183.921 21.1022Z" fill="#CCD5EB"/>
<path d="M68.1562 55.4038L72.0889 53.1333L74.3594 57.0659L70.4268 59.3364L68.1562 55.4038Z" fill="#CCD5EB"/>
<path d="M76.0215 50.863L104.066 34.6716L106.336 38.6042L78.292 54.7957L76.0215 50.863Z" fill="#CCD5EB"/>
<path d="M106.282 6.63818L130.053 -7.08583L132.323 -3.15319L108.553 10.5708L106.282 6.63818Z" fill="#CCD5EB"/>
<path d="M56.5713 35.3389L102.349 8.90925L104.619 12.8419L58.8418 39.2715L56.5713 35.3389Z" fill="#CCD5EB"/>
<path d="M62.3643 45.3713L76.8825 36.9892L79.153 40.9219L64.6348 49.304L62.3643 45.3713Z" fill="#CCD5EB"/>
<path d="M80.8154 34.7188L135.846 2.94709L138.116 6.87972L83.0859 38.6514L80.8154 34.7188Z" fill="#CCD5EB"/>
<path d="M50.7793 25.3062L65.2975 16.924L67.568 20.8567L53.0498 29.2388L50.7793 25.3062Z" fill="#CCD5EB"/>
<path d="M69.2305 14.6536L124.261 -17.1181L126.531 -13.1855L71.501 18.5862L69.2305 14.6536Z" fill="#CCD5EB"/>
<path d="M39.1943 5.24097L84.9718 -21.1887L87.2423 -17.256L41.4648 9.1736L39.1943 5.24097Z" fill="#CCD5EB"/>
<path d="M90.7647 -11.1559L63.4382 4.62106L59.5055 6.89157L44.9873 15.2737L47.2578 19.2063L61.7761 10.8242L65.7087 8.5537L93.0353 -7.2233L96.9682 -9.49396L120.739 -23.218L118.468 -27.1506L94.6976 -13.4266L90.7647 -11.1559Z" fill="#CCD5EB"/>
<path d="M81.8135 60.8958L109.858 44.7043L112.128 48.6369L84.084 64.8284L81.8135 60.8958Z" fill="#CCD5EB"/>
<path d="M73.9482 65.4365L77.8809 63.166L80.1514 67.0987L76.2188 69.3692L73.9482 65.4365Z" fill="#CCD5EB"/>
<path d="M146.828 59.6101L150.761 57.3396L153.031 61.2722L149.099 63.5427L146.828 59.6101Z" fill="#CCD5EB"/>
<path d="M166.187 43.1897L162.254 45.4602L164.525 49.3928L154.693 55.0691L156.964 59.0017L170.728 51.055L166.187 43.1897Z" fill="#CCD5EB"/>
<path d="M147.43 23.012L123.834 36.635L131.781 50.3992L155.377 36.7762L147.43 23.012ZM149.173 35.1141L133.443 44.1961L130.037 38.2971L145.768 29.2151L149.173 35.1141Z" fill="#CCD5EB"/>
</g>
<defs>
<clipPath id="clip0_627:659">
<rect width="155" height="155" fill="white" transform="translate(0 -18.8669) rotate(-30)"/>
</clipPath>
</defs>
</svg>
