<svg width="179" height="127" viewBox="0 0 179 127" fill="none" xmlns="http://www.w3.org/2000/svg">
<g opacity="0.3" clip-path="url(#clip0_627:545)">
<path d="M136.671 -76.2293L10.1656 -3.19154C7.60658 -1.7141 6.72655 1.5702 8.204 4.12921L17.6354 20.4648C19.1202 23.0365 23.0983 20.7398 21.6135 18.168L12.1821 1.83242C11.9711 1.46697 12.0966 0.997753 12.4624 0.786602L138.967 -72.2511C139.333 -72.4623 139.802 -72.3364 140.013 -71.9709L196.015 25.0267C196.226 25.3921 196.1 25.8613 195.735 26.0725L170.245 40.789L167.855 36.6502L187.861 25.0998C188.96 24.4654 189.336 23.0608 188.702 21.9623L176.676 1.13303C175.191 -1.43871 171.213 0.858076 172.698 3.42982L183.575 22.2701L165.558 32.672L160.463 23.8466C160.531 23.8149 160.599 23.7828 160.664 23.753C162.399 22.9447 164.557 21.9396 165.157 19.6926C165.756 17.4481 164.389 15.496 163.291 13.9275C162.112 12.2444 161.999 11.6623 162.708 9.74288C164.532 4.79996 162.794 1.63866 157.505 0.731053C155.488 0.384267 155.041 -0.00422664 154.172 -1.86684C151.992 -6.54104 148.655 -7.52176 144.35 -4.50435C142.669 -3.32687 142.092 -3.21771 140.176 -3.92895C135.233 -5.76393 132.07 -4.02425 131.171 1.27036C130.829 3.28468 130.446 3.73076 128.586 4.59689C123.907 6.77641 122.944 10.1189 125.958 14.4223C127.137 16.1063 127.25 16.6871 126.542 18.6074C124.718 23.55 126.456 26.7117 131.745 27.6192C133.762 27.966 134.209 28.3545 135.078 30.2171C137.411 35.2238 140.751 35.7524 145.081 32.7278L150.177 41.5535L72.0168 86.679L24.6219 4.58861L136.181 -59.8198L166.573 -7.17858C168.058 -4.60684 172.036 -6.90362 170.551 -9.47536L139.01 -64.1057C138.376 -65.2042 136.972 -65.5807 135.873 -64.9463L20.3361 1.75885C19.2373 2.39323 18.8612 3.79782 19.4954 4.89632L69.1868 90.9643C69.821 92.0628 71.2255 92.4394 72.3242 91.805L152.473 45.5311L154.863 49.6699L69.2295 99.1102C68.8638 99.3214 68.3947 99.1955 68.1837 98.83L27.4319 28.2457C25.9471 25.674 21.9689 27.9708 23.4537 30.5425L64.2056 101.127C65.683 103.686 68.9673 104.566 71.5263 103.088L157.159 53.6481L162.358 62.652C163.585 64.1232 164.875 64.1801 166.227 62.8227L169.784 57.753L175.953 57.2072C177.48 57.0721 178.594 55.2496 177.74 53.7711L172.542 44.7672L198.031 30.0506C200.59 28.5732 201.47 25.2889 199.993 22.7299L143.991 -74.2677C142.514 -76.827 139.23 -77.7067 136.671 -76.2293ZM142.263 29.0923C140.373 30.4172 140.215 30.3663 139.24 28.2757C137.744 25.0669 136.012 23.6904 132.521 23.0914C130.132 22.681 130.012 22.4716 130.851 20.1977C132.077 16.8747 131.751 14.6867 129.72 11.7871C128.397 9.89713 128.433 9.73584 130.525 8.76047C133.735 7.26603 135.106 5.53061 135.698 2.03883C136.104 -0.346583 136.308 -0.464637 138.577 0.377027C141.898 1.60939 144.085 1.28889 146.985 -0.742863C148.875 -2.06794 149.033 -2.01689 150.008 0.0736907C151.504 3.28245 153.235 4.65877 156.727 5.25774C159.115 5.66824 159.237 5.87757 158.397 8.15188C157.17 11.4751 157.496 13.6623 159.527 16.5622C160.851 18.4514 160.816 18.6144 158.724 19.5888C157.411 20.2003 155.922 20.8939 154.973 22.1324C154.055 23.3311 153.798 24.8457 153.549 26.3107C153.432 27.0007 153.218 28.2603 152.959 28.6131C152.525 28.6607 151.327 28.216 150.671 27.9725C149.278 27.4556 147.838 26.9208 146.34 27.1166C144.827 27.4673 143.467 28.1258 142.263 29.0923ZM168.315 53.2717C167.64 53.3314 167.027 53.6857 166.638 54.2403L164.535 57.2366L150.395 32.7447C151.938 33.2375 153.659 33.5287 155.263 32.6023C156.868 31.676 157.476 30.0404 157.821 28.4577L171.961 52.9493L168.315 53.2717Z" fill="#CCD5EB"/>
<path d="M47.9152 13.34L116.484 -26.2484C119.056 -27.7332 116.759 -31.7114 114.188 -30.2266L45.6185 9.36188C43.0465 10.8468 45.3432 14.825 47.9152 13.34Z" fill="#CCD5EB"/>
<path d="M139.938 -26.3105C139.304 -27.409 137.9 -27.7855 136.801 -27.1512L52.6036 21.4601C50.0319 22.9449 52.3287 26.9231 54.9004 25.4383L139.098 -23.1732C140.196 -23.8074 140.573 -25.212 139.938 -26.3105Z" fill="#CCD5EB"/>
<path d="M110.562 6.78028C109.928 5.68178 108.524 5.30523 107.425 5.9396L59.588 33.5583C57.0162 35.0431 59.313 39.0212 61.8848 37.5364L109.722 9.91775C110.82 9.28353 111.197 7.87878 110.562 6.78028Z" fill="#CCD5EB"/>
<path d="M100.451 49.5859C99.3672 50.2138 98.2832 50.8414 97.1992 51.4683C95.1137 52.6745 93.644 52.7815 91.9405 50.8152C90.3855 49.0202 87.6209 50.9594 88.1045 53.0299C88.3189 53.9468 88.4154 56.8703 87.2674 57.2895C86.6591 57.5116 85.9258 56.7988 85.4668 56.4754C84.5733 55.8459 83.758 55.1027 82.9833 54.3335C79.7108 51.0835 77.1782 47.1796 74.2558 43.6305C72.5612 41.5724 69.4616 44.2205 70.654 46.4151C74.4525 53.4058 77.2485 60.8493 78.5238 68.721C78.997 71.642 83.4393 70.4584 82.9704 67.5639C82.4787 64.5288 81.7576 61.5466 80.8465 58.6235C81.7031 59.3856 82.6095 60.095 83.5836 60.7318C86.0706 62.3568 89.2238 62.3471 91.1692 59.8625C91.8634 58.9758 92.321 57.8623 92.576 56.6815C95.7109 57.7651 98.4539 56.0503 101.064 54.539C104.999 52.2606 108.931 49.978 112.863 47.6936C115.418 46.2087 113.126 42.2278 110.566 43.7154C107.195 45.6742 103.823 47.6311 100.451 49.5859Z" fill="#CCD5EB"/>
<path d="M149.11 21.9437C153.394 19.4704 154.867 13.973 152.394 9.68906C149.921 5.40513 144.423 3.93231 140.139 6.40564C135.856 8.87882 134.382 14.3765 136.856 18.6602C139.329 22.9438 144.826 24.4171 149.11 21.9437ZM142.436 10.3838C144.526 9.1769 147.209 9.89573 148.416 11.9859C149.623 14.076 148.904 16.7587 146.813 17.9656C144.723 19.1725 142.041 18.4538 140.834 16.3634C139.627 14.273 140.346 11.5907 142.436 10.3838Z" fill="#CCD5EB"/>
</g>
<defs>
<clipPath id="clip0_627:545">
<rect width="156.794" height="156.794" fill="white" transform="translate(0.174805 -9.77734) rotate(-30)"/>
</clipPath>
</defs>
</svg>
