<svg width="16" height="16" viewBox="0 0 16 16" fill="none" xmlns="http://www.w3.org/2000/svg">
<path d="M14.6415 9.58143C14.5122 9.26146 14.1479 9.1068 13.8279 9.23624C13.5078 9.36561 13.3533 9.72989 13.4826 10.0499L14.2187 11.8707L12.0325 10.907C11.8743 10.8373 11.6942 10.8362 11.5351 10.904C10.788 11.2228 9.98764 11.3845 9.15626 11.3845C5.81024 11.3845 3.56252 8.76462 3.56252 6.31771C3.56252 3.52391 6.07186 1.25097 9.15626 1.25097C12.2407 1.25097 14.75 3.52391 14.75 6.31771C14.75 6.53568 14.7297 6.79668 14.6944 7.03374C14.6434 7.37515 14.8789 7.69318 15.2203 7.74412C15.5617 7.79518 15.8798 7.55959 15.9307 7.21818C15.9754 6.91849 16 6.59868 16 6.31771C16 4.61991 15.2811 3.02685 13.9755 1.832C12.6855 0.651257 10.974 0.000976562 9.15626 0.000976562C7.33858 0.000976562 5.62708 0.651257 4.33699 1.83197C3.17036 2.89972 2.47261 4.28559 2.33727 5.77993C0.869864 6.75168 2.08378e-05 8.30884 2.08378e-05 9.98611C2.08378e-05 11.0339 0.330114 12.028 0.958458 12.8835L0.0455833 15.1417C-0.0497604 15.3775 0.00733333 15.6476 0.189989 15.8247C0.309021 15.9401 0.465864 16.001 0.625145 16.001C0.710239 16.0009 0.796052 15.9836 0.877114 15.9479L3.50927 14.7875C4.17139 15.034 4.8713 15.1588 5.59374 15.1588C5.60936 15.1588 5.6247 15.1576 5.64005 15.1564C6.68495 15.1485 7.7008 14.8737 8.58061 14.3594C9.36867 13.8986 10.0169 13.2657 10.4714 12.5182C10.9151 12.4385 11.3488 12.3181 11.7697 12.1572L15.1229 13.6354C15.204 13.6711 15.2898 13.6885 15.3749 13.6885C15.5341 13.6885 15.691 13.6276 15.81 13.5122C15.9927 13.3351 16.0498 13.065 15.9544 12.8292L14.6415 9.58143ZM5.5938 13.9072C5.58527 13.9072 5.57695 13.9081 5.56849 13.9085C4.9303 13.9052 4.31605 13.7798 3.74239 13.535C3.58336 13.4671 3.40327 13.4682 3.24502 13.538L1.78136 14.1832L2.25352 13.0152C2.3408 12.7993 2.30077 12.5528 2.14971 12.3755C1.56111 11.685 1.25002 10.8588 1.25002 9.98611C1.25002 8.98733 1.67018 8.04099 2.4053 7.32343C2.63418 8.57108 3.27996 9.76458 4.25411 10.7021C5.46633 11.8688 7.06977 12.5447 8.80117 12.626C7.9883 13.4262 6.82505 13.9072 5.5938 13.9072Z" fill="#1F213A"/>
<path d="M9.125 6.96972C9.47018 6.96972 9.75 6.6899 9.75 6.34473C9.75 5.99955 9.47018 5.71973 9.125 5.71973C8.77982 5.71973 8.5 5.99955 8.5 6.34473C8.5 6.6899 8.77982 6.96972 9.125 6.96972Z" fill="#1F213A"/>
<path d="M11.625 6.96972C11.9702 6.96972 12.25 6.6899 12.25 6.34473C12.25 5.99955 11.9702 5.71973 11.625 5.71973C11.2798 5.71973 11 5.99955 11 6.34473C11 6.6899 11.2798 6.96972 11.625 6.96972Z" fill="#1F213A"/>
<path d="M6.625 6.96972C6.97018 6.96972 7.25 6.6899 7.25 6.34473C7.25 5.99955 6.97018 5.71973 6.625 5.71973C6.27982 5.71973 6 5.99955 6 6.34473C6 6.6899 6.27982 6.96972 6.625 6.96972Z" fill="#1F213A"/>
</svg>
