<svg width="192" height="114" viewBox="0 0 192 114" fill="none" xmlns="http://www.w3.org/2000/svg">
<g opacity="0.3" clip-path="url(#clip0_627:226)">
<path d="M162.69 -51.7356C161.423 -52.7001 159.855 -53.1132 158.277 -52.898L147.133 -51.3821C145.556 -51.1675 144.155 -50.3516 143.191 -49.0831C142.226 -47.8139 141.814 -46.2467 142.028 -44.6697L146.247 -13.6624L122.583 -54.6495C122.276 -55.1814 121.769 -55.5708 121.176 -55.7298L79.5246 -66.8893C78.931 -67.0484 78.2987 -66.9651 77.7667 -66.658L2.48971 -23.1968C1.38142 -22.5569 1.00146 -21.1388 1.64133 -20.0306L10.5834 -4.54235C11.2233 -3.43406 12.6414 -3.0541 13.7496 -3.69397C14.8579 -4.33384 15.2369 -5.75129 14.597 -6.85958L6.8132 -20.3415L78.0756 -61.4849L92.1623 -37.0861C92.8022 -35.9778 94.2196 -35.5988 95.3279 -36.2387L119.728 -50.326L147.898 -1.53449L151.534 25.1962C151.579 25.5327 151.698 25.8557 151.884 26.1406L163.734 44.4857C164.222 45.2404 165.102 45.6452 165.993 45.524C166.297 45.4834 166.582 45.3831 166.839 45.2349C167.334 44.9491 167.715 44.4857 167.892 43.9204L170.087 36.9015L177.865 50.3732L80.1965 106.762L19.232 1.16856C18.5922 0.0602681 17.1752 -0.32029 16.0669 0.31958C14.9586 0.959451 14.5786 2.37749 15.2185 3.48578L77.3413 111.086C77.9812 112.194 79.3992 112.574 80.5075 111.934L182.19 53.2278C183.298 52.588 183.678 51.1699 183.038 50.0616L171.969 30.8887L174.412 23.0763C174.513 22.7513 174.541 22.4093 174.496 22.0723L170.756 -5.41856C170.583 -6.68664 169.414 -7.57492 168.146 -7.40227C166.879 -7.23021 165.99 -6.0627 166.163 -4.79464L169.591 20.4013L155.813 22.2758L148.774 -29.4657L162.552 -31.3401L164.981 -13.4881C165.153 -12.2201 166.321 -11.3312 167.59 -11.5044C168.858 -11.6771 169.746 -12.844 169.573 -14.1121L164.991 -47.7936C164.776 -49.3711 163.959 -50.7717 162.69 -51.7356ZM83.7283 -60.9655L114.573 -52.6998L95.0186 -41.4101L83.7283 -60.9655ZM157.754 26.6879L168.9 25.1715L164.945 37.8182L157.754 26.6879ZM160.397 -47.1691L161.926 -35.9331L148.149 -34.0586L146.62 -45.2946C146.573 -45.6454 146.665 -45.9944 146.88 -46.2767C147.096 -46.5606 147.407 -46.743 147.758 -46.7902L158.902 -48.306C159.252 -48.3543 159.601 -48.2616 159.884 -48.0465C160.168 -47.8311 160.35 -47.5199 160.397 -47.1691Z" fill="#CCD5EB"/>
<path d="M54.0666 34.927L69.9332 25.7664C71.0415 25.1266 71.4204 23.7091 70.7805 22.6008L62.5747 8.38795L63.3685 2.84629C63.5501 1.5799 62.67 0.405492 61.4036 0.223899C60.1372 0.0423063 58.9628 0.922418 58.7812 2.18882L58.2327 6.0149L42.5888 15.0469C41.4805 15.6868 41.1 17.1038 41.7398 18.2121L50.9004 34.0786C51.5403 35.1869 52.9583 35.5669 54.0666 34.927ZM46.9123 17.9021L57.3962 11.8493L56.5492 17.7584L53.0263 16.8135C51.7904 16.4824 50.5192 17.2163 50.1881 18.4522C49.8575 19.6891 50.5908 20.9593 51.8267 21.2904L57.8729 22.9105C58.4681 23.07 59.1009 22.9851 59.6308 22.6791C59.671 22.6559 59.7106 22.6317 59.7496 22.6064C60.3022 22.242 60.6724 21.6571 60.7664 21.0008L61.5105 15.8136L65.6087 22.9118L53.7556 29.7552L46.9123 17.9021Z" fill="#CCD5EB"/>
<path d="M117.059 -23.7928L74.1137 1.00149C73.0054 1.64136 72.6255 3.0594 73.2654 4.16769C73.9052 5.27598 75.3233 5.65594 76.4316 5.01607L119.376 -19.7782C120.486 -20.4186 120.865 -21.8361 120.225 -22.9444C119.585 -24.0527 118.168 -24.4332 117.059 -23.7928Z" fill="#CCD5EB"/>
<path d="M81.9925 14.6483L116.509 -5.27991C117.618 -5.91978 117.996 -7.33723 117.357 -8.44551C116.717 -9.5538 115.3 -9.93333 114.192 -9.29346L79.6753 10.6348C78.567 11.2747 78.1864 12.6917 78.8263 13.8C79.4662 14.9082 80.8842 15.2882 81.9925 14.6483Z" fill="#CCD5EB"/>
<path d="M66.1162 60.4344C66.7561 61.5426 68.1741 61.9226 69.2824 61.2827L85.149 52.1222C86.2573 51.4823 86.6362 50.0648 85.9963 48.9566L77.7905 34.7437L78.5843 29.202C78.7659 27.9356 77.8858 26.7612 76.6194 26.5796C75.353 26.398 74.1786 27.2781 73.997 28.5445L73.4485 32.3706L57.8046 41.4026C56.6963 42.0425 56.3158 43.4595 56.9556 44.5678L66.1162 60.4344ZM62.1281 44.2579L72.612 38.205L71.7651 44.1141L68.2421 43.1693C67.0062 42.8381 65.735 43.572 65.4039 44.8079C65.0733 46.0449 65.8066 47.315 67.0425 47.6462L73.0887 49.2662C73.6839 49.4257 74.3167 49.3408 74.8466 49.0349C74.8868 49.0116 74.9264 48.9874 74.9655 48.9621C75.518 48.5977 75.8882 48.0128 75.9822 47.3565L76.7263 42.1693L80.8245 49.2675L68.9715 56.1109L62.1281 44.2579Z" fill="#CCD5EB"/>
<path d="M132.274 2.56271L89.3296 27.357C88.2213 27.9968 87.8413 29.4149 88.4812 30.5232C89.121 31.6314 90.5385 32.0104 91.6468 31.3705L134.592 6.57626C135.701 5.93579 136.081 4.51938 135.441 3.41109C134.801 2.3028 133.384 1.92225 132.274 2.56271Z" fill="#CCD5EB"/>
<path d="M97.2093 41.004L110.053 33.5887C111.161 32.9488 111.54 31.5314 110.9 30.4231C110.261 29.3148 108.844 28.9353 107.736 29.5751L94.8921 36.9905C93.7838 37.6304 93.4032 39.0474 94.0431 40.1557C94.6829 41.264 96.101 41.6439 97.2093 41.004Z" fill="#CCD5EB"/>
<path d="M81.3325 86.79C81.9724 87.8983 83.3905 88.2783 84.4987 87.6384L100.365 78.4779C101.474 77.838 101.853 76.4205 101.213 75.3123L92.0527 59.4467C91.4128 58.3384 89.9958 57.9579 88.8875 58.5978L73.021 67.7583C71.9127 68.3982 71.5327 69.8162 72.1726 70.9245L81.3325 86.79ZM77.3444 70.6136L89.1975 63.7702L96.0402 75.6222L84.1872 82.4655L77.3444 70.6136Z" fill="#CCD5EB"/>
<path d="M150.657 29.7668C150.018 28.6585 148.601 28.278 147.491 28.9184L104.546 53.7127C103.438 54.3525 103.058 55.7706 103.698 56.8789C104.338 57.9872 105.755 58.3661 106.864 57.7262L149.808 32.932C150.918 32.2915 151.297 30.8751 150.657 29.7668Z" fill="#CCD5EB"/>
<path d="M110.108 63.345C109 63.9849 108.62 65.4029 109.259 66.5112C109.899 67.6195 111.317 67.9994 112.426 67.3596L148.949 46.273C150.058 45.6325 150.437 44.2151 149.797 43.1068C149.157 41.9985 147.74 41.618 146.631 42.2584L110.108 63.345Z" fill="#CCD5EB"/>
</g>
<defs>
<clipPath id="clip0_627:226">
<rect width="156.036" height="156.036" fill="white" transform="translate(0.482422 -22.0378) rotate(-30)"/>
</clipPath>
</defs>
</svg>
